%TF.GenerationSoftware,KiCad,Pcbnew,(5.1.9)-1*%
%TF.CreationDate,2022-03-08T11:24:29-07:00*%
%TF.ProjectId,SensorBoard,53656e73-6f72-4426-9f61-72642e6b6963,rev?*%
%TF.SameCoordinates,Original*%
%TF.FileFunction,Copper,L2,Bot*%
%TF.FilePolarity,Positive*%
%FSLAX46Y46*%
G04 Gerber Fmt 4.6, Leading zero omitted, Abs format (unit mm)*
G04 Created by KiCad (PCBNEW (5.1.9)-1) date 2022-03-08 11:24:29*
%MOMM*%
%LPD*%
G01*
G04 APERTURE LIST*
%TA.AperFunction,ComponentPad*%
%ADD10R,1.700000X1.700000*%
%TD*%
%TA.AperFunction,ComponentPad*%
%ADD11O,1.700000X1.700000*%
%TD*%
%TA.AperFunction,ComponentPad*%
%ADD12O,1.740000X2.190000*%
%TD*%
%TA.AperFunction,ComponentPad*%
%ADD13R,1.600000X1.600000*%
%TD*%
%TA.AperFunction,ComponentPad*%
%ADD14O,1.600000X1.600000*%
%TD*%
%TA.AperFunction,ComponentPad*%
%ADD15C,2.000000*%
%TD*%
G04 APERTURE END LIST*
D10*
%TO.P,J1,1*%
%TO.N,+5V*%
X154905001Y-55920001D03*
D11*
%TO.P,J1,2*%
%TO.N,GND*%
X154905001Y-58460001D03*
%TD*%
D12*
%TO.P,J2,4*%
%TO.N,GND*%
X139735001Y-66340001D03*
%TO.P,J2,3*%
%TO.N,Net-(J2-Pad3)*%
X137195001Y-66340001D03*
%TO.P,J2,2*%
%TO.N,Net-(J2-Pad2)*%
X134655001Y-66340001D03*
%TO.P,J2,1*%
%TO.N,+5V*%
%TA.AperFunction,ComponentPad*%
G36*
G01*
X131245001Y-67185002D02*
X131245001Y-65495000D01*
G75*
G02*
X131495000Y-65245001I249999J0D01*
G01*
X132735002Y-65245001D01*
G75*
G02*
X132985001Y-65495000I0J-249999D01*
G01*
X132985001Y-67185002D01*
G75*
G02*
X132735002Y-67435001I-249999J0D01*
G01*
X131495000Y-67435001D01*
G75*
G02*
X131245001Y-67185002I0J249999D01*
G01*
G37*
%TD.AperFunction*%
%TD*%
D10*
%TO.P,J3,1*%
%TO.N,Net-(D8-Pad1)*%
X139165001Y-31670001D03*
D11*
%TO.P,J3,2*%
%TO.N,+5V*%
X139165001Y-34210001D03*
%TO.P,J3,3*%
%TO.N,GND*%
X139165001Y-36750001D03*
%TO.P,J3,4*%
%TO.N,RB7*%
X139165001Y-39290001D03*
%TO.P,J3,5*%
%TO.N,RB6*%
X139165001Y-41830001D03*
%TO.P,J3,6*%
%TO.N,Net-(J3-Pad6)*%
X139165001Y-44370001D03*
%TD*%
%TO.P,J4,1*%
%TO.N,+5V*%
%TA.AperFunction,ComponentPad*%
G36*
G01*
X181375000Y-44660001D02*
X181375000Y-42969999D01*
G75*
G02*
X181624999Y-42720000I249999J0D01*
G01*
X182865001Y-42720000D01*
G75*
G02*
X183115000Y-42969999I0J-249999D01*
G01*
X183115000Y-44660001D01*
G75*
G02*
X182865001Y-44910000I-249999J0D01*
G01*
X181624999Y-44910000D01*
G75*
G02*
X181375000Y-44660001I0J249999D01*
G01*
G37*
%TD.AperFunction*%
D12*
%TO.P,J4,2*%
%TO.N,Net-(J2-Pad2)*%
X184785000Y-43815000D03*
%TO.P,J4,3*%
%TO.N,Net-(J2-Pad3)*%
X187325000Y-43815000D03*
%TO.P,J4,4*%
%TO.N,GND*%
X189865000Y-43815000D03*
%TD*%
%TO.P,J5,4*%
%TO.N,GND*%
X193675000Y-31115000D03*
%TO.P,J5,3*%
%TO.N,Net-(J5-Pad3)*%
X191135000Y-31115000D03*
%TO.P,J5,2*%
%TO.N,SDA2*%
X188595000Y-31115000D03*
%TO.P,J5,1*%
%TO.N,+5V*%
%TA.AperFunction,ComponentPad*%
G36*
G01*
X185185000Y-31960001D02*
X185185000Y-30269999D01*
G75*
G02*
X185434999Y-30020000I249999J0D01*
G01*
X186675001Y-30020000D01*
G75*
G02*
X186925000Y-30269999I0J-249999D01*
G01*
X186925000Y-31960001D01*
G75*
G02*
X186675001Y-32210000I-249999J0D01*
G01*
X185434999Y-32210000D01*
G75*
G02*
X185185000Y-31960001I0J249999D01*
G01*
G37*
%TD.AperFunction*%
%TD*%
%TO.P,J6,1*%
%TO.N,+5V*%
%TA.AperFunction,ComponentPad*%
G36*
G01*
X199155000Y-26880001D02*
X199155000Y-25189999D01*
G75*
G02*
X199404999Y-24940000I249999J0D01*
G01*
X200645001Y-24940000D01*
G75*
G02*
X200895000Y-25189999I0J-249999D01*
G01*
X200895000Y-26880001D01*
G75*
G02*
X200645001Y-27130000I-249999J0D01*
G01*
X199404999Y-27130000D01*
G75*
G02*
X199155000Y-26880001I0J249999D01*
G01*
G37*
%TD.AperFunction*%
%TO.P,J6,2*%
%TO.N,SDA2*%
X202565000Y-26035000D03*
%TO.P,J6,3*%
%TO.N,Net-(J6-Pad3)*%
X205105000Y-26035000D03*
%TO.P,J6,4*%
%TO.N,GND*%
X207645000Y-26035000D03*
%TD*%
%TO.P,J7,4*%
%TO.N,GND*%
X138935001Y-50640001D03*
%TO.P,J7,3*%
%TO.N,Net-(J7-Pad3)*%
X136395001Y-50640001D03*
%TO.P,J7,2*%
%TO.N,SDA2*%
X133855001Y-50640001D03*
%TO.P,J7,1*%
%TO.N,+5V*%
%TA.AperFunction,ComponentPad*%
G36*
G01*
X130445001Y-51485002D02*
X130445001Y-49795000D01*
G75*
G02*
X130695000Y-49545001I249999J0D01*
G01*
X131935002Y-49545001D01*
G75*
G02*
X132185001Y-49795000I0J-249999D01*
G01*
X132185001Y-51485002D01*
G75*
G02*
X131935002Y-51735001I-249999J0D01*
G01*
X130695000Y-51735001D01*
G75*
G02*
X130445001Y-51485002I0J249999D01*
G01*
G37*
%TD.AperFunction*%
%TD*%
%TO.P,J8,1*%
%TO.N,+5V*%
%TA.AperFunction,ComponentPad*%
G36*
G01*
X169945000Y-30055001D02*
X169945000Y-28364999D01*
G75*
G02*
X170194999Y-28115000I249999J0D01*
G01*
X171435001Y-28115000D01*
G75*
G02*
X171685000Y-28364999I0J-249999D01*
G01*
X171685000Y-30055001D01*
G75*
G02*
X171435001Y-30305000I-249999J0D01*
G01*
X170194999Y-30305000D01*
G75*
G02*
X169945000Y-30055001I0J249999D01*
G01*
G37*
%TD.AperFunction*%
%TO.P,J8,2*%
%TO.N,SDA2*%
X173355000Y-29210000D03*
%TO.P,J8,3*%
%TO.N,Net-(J8-Pad3)*%
X175895000Y-29210000D03*
%TO.P,J8,4*%
%TO.N,GND*%
X178435000Y-29210000D03*
%TD*%
%TO.P,J9,1*%
%TO.N,+5V*%
%TA.AperFunction,ComponentPad*%
G36*
G01*
X142915001Y-41985002D02*
X142915001Y-40295000D01*
G75*
G02*
X143165000Y-40045001I249999J0D01*
G01*
X144405002Y-40045001D01*
G75*
G02*
X144655001Y-40295000I0J-249999D01*
G01*
X144655001Y-41985002D01*
G75*
G02*
X144405002Y-42235001I-249999J0D01*
G01*
X143165000Y-42235001D01*
G75*
G02*
X142915001Y-41985002I0J249999D01*
G01*
G37*
%TD.AperFunction*%
%TO.P,J9,2*%
%TO.N,SDA2*%
X146325001Y-41140001D03*
%TO.P,J9,3*%
%TO.N,Net-(J9-Pad3)*%
X148865001Y-41140001D03*
%TO.P,J9,4*%
%TO.N,GND*%
X151405001Y-41140001D03*
%TD*%
%TO.P,J10,4*%
%TO.N,GND*%
X127525001Y-64160001D03*
%TO.P,J10,3*%
%TO.N,Net-(J10-Pad3)*%
X124985001Y-64160001D03*
%TO.P,J10,2*%
%TO.N,SDA2*%
X122445001Y-64160001D03*
%TO.P,J10,1*%
%TO.N,+5V*%
%TA.AperFunction,ComponentPad*%
G36*
G01*
X119035001Y-65005002D02*
X119035001Y-63315000D01*
G75*
G02*
X119285000Y-63065001I249999J0D01*
G01*
X120525002Y-63065001D01*
G75*
G02*
X120775001Y-63315000I0J-249999D01*
G01*
X120775001Y-65005002D01*
G75*
G02*
X120525002Y-65255001I-249999J0D01*
G01*
X119285000Y-65255001D01*
G75*
G02*
X119035001Y-65005002I0J249999D01*
G01*
G37*
%TD.AperFunction*%
%TD*%
%TO.P,J11,1*%
%TO.N,+5V*%
%TA.AperFunction,ComponentPad*%
G36*
G01*
X131245001Y-59335002D02*
X131245001Y-57645000D01*
G75*
G02*
X131495000Y-57395001I249999J0D01*
G01*
X132735002Y-57395001D01*
G75*
G02*
X132985001Y-57645000I0J-249999D01*
G01*
X132985001Y-59335002D01*
G75*
G02*
X132735002Y-59585001I-249999J0D01*
G01*
X131495000Y-59585001D01*
G75*
G02*
X131245001Y-59335002I0J249999D01*
G01*
G37*
%TD.AperFunction*%
%TO.P,J11,2*%
%TO.N,SDA2*%
X134655001Y-58490001D03*
%TO.P,J11,3*%
%TO.N,Net-(J11-Pad3)*%
X137195001Y-58490001D03*
%TO.P,J11,4*%
%TO.N,GND*%
X139735001Y-58490001D03*
%TD*%
%TO.P,J12,4*%
%TO.N,GND*%
X151405001Y-48990001D03*
%TO.P,J12,3*%
%TO.N,Net-(J12-Pad3)*%
X148865001Y-48990001D03*
%TO.P,J12,2*%
%TO.N,SDA2*%
X146325001Y-48990001D03*
%TO.P,J12,1*%
%TO.N,+5V*%
%TA.AperFunction,ComponentPad*%
G36*
G01*
X142915001Y-49835002D02*
X142915001Y-48145000D01*
G75*
G02*
X143165000Y-47895001I249999J0D01*
G01*
X144405002Y-47895001D01*
G75*
G02*
X144655001Y-48145000I0J-249999D01*
G01*
X144655001Y-49835002D01*
G75*
G02*
X144405002Y-50085001I-249999J0D01*
G01*
X143165000Y-50085001D01*
G75*
G02*
X142915001Y-49835002I0J249999D01*
G01*
G37*
%TD.AperFunction*%
%TD*%
D10*
%TO.P,JP1,1*%
%TO.N,+5V*%
X196850000Y-40005000D03*
D11*
%TO.P,JP1,2*%
%TO.N,Net-(JP1-Pad2)*%
X196850000Y-42545000D03*
%TD*%
D10*
%TO.P,JP2,1*%
%TO.N,SCL2*%
X201930000Y-48260000D03*
D11*
%TO.P,JP2,2*%
%TO.N,Net-(J5-Pad3)*%
X201930000Y-50800000D03*
%TD*%
%TO.P,JP3,2*%
%TO.N,Net-(J6-Pad3)*%
X209550000Y-40640000D03*
D10*
%TO.P,JP3,1*%
%TO.N,SCL2*%
X209550000Y-38100000D03*
%TD*%
%TO.P,JP4,1*%
%TO.N,SCL2*%
X144355001Y-63770001D03*
D11*
%TO.P,JP4,2*%
%TO.N,Net-(J7-Pad3)*%
X144355001Y-66310001D03*
%TD*%
D10*
%TO.P,JP5,1*%
%TO.N,SCL2*%
X196215000Y-48260000D03*
D11*
%TO.P,JP5,2*%
%TO.N,Net-(J8-Pad3)*%
X196215000Y-50800000D03*
%TD*%
%TO.P,JP6,2*%
%TO.N,Net-(J9-Pad3)*%
X149005001Y-66310001D03*
D10*
%TO.P,JP6,1*%
%TO.N,SCL2*%
X149005001Y-63770001D03*
%TD*%
D11*
%TO.P,JP7,2*%
%TO.N,Net-(J10-Pad3)*%
X202565000Y-42545000D03*
D10*
%TO.P,JP7,1*%
%TO.N,SCL2*%
X202565000Y-40005000D03*
%TD*%
D11*
%TO.P,JP8,2*%
%TO.N,Net-(J11-Pad3)*%
X209550000Y-49530000D03*
D10*
%TO.P,JP8,1*%
%TO.N,SCL2*%
X209550000Y-46990000D03*
%TD*%
D11*
%TO.P,JP9,2*%
%TO.N,Net-(J12-Pad3)*%
X153655001Y-66310001D03*
D10*
%TO.P,JP9,1*%
%TO.N,SCL2*%
X153655001Y-63770001D03*
%TD*%
D13*
%TO.P,SW1,1*%
%TO.N,GND*%
X119550001Y-44290001D03*
D14*
%TO.P,SW1,7*%
%TO.N,Net-(R10-Pad2)*%
X127170001Y-56990001D03*
%TO.P,SW1,2*%
%TO.N,GND*%
X119550001Y-46830001D03*
%TO.P,SW1,8*%
%TO.N,Net-(R9-Pad2)*%
X127170001Y-54450001D03*
%TO.P,SW1,3*%
%TO.N,GND*%
X119550001Y-49370001D03*
%TO.P,SW1,9*%
%TO.N,Net-(R8-Pad2)*%
X127170001Y-51910001D03*
%TO.P,SW1,4*%
%TO.N,GND*%
X119550001Y-51910001D03*
%TO.P,SW1,10*%
%TO.N,Net-(R7-Pad2)*%
X127170001Y-49370001D03*
%TO.P,SW1,5*%
%TO.N,GND*%
X119550001Y-54450001D03*
%TO.P,SW1,11*%
%TO.N,Net-(R6-Pad2)*%
X127170001Y-46830001D03*
%TO.P,SW1,6*%
%TO.N,GND*%
X119550001Y-56990001D03*
%TO.P,SW1,12*%
%TO.N,Net-(R5-Pad2)*%
X127170001Y-44290001D03*
%TD*%
D15*
%TO.P,SW2,2*%
%TO.N,Net-(R13-Pad1)*%
X144055001Y-59420001D03*
%TO.P,SW2,1*%
%TO.N,+5V*%
X144055001Y-54920001D03*
%TO.P,SW2,2*%
%TO.N,Net-(R13-Pad1)*%
X150555001Y-59420001D03*
%TO.P,SW2,1*%
%TO.N,+5V*%
X150555001Y-54920001D03*
%TD*%
%TO.P,SW3,1*%
%TO.N,+5V*%
X162225001Y-47070001D03*
%TO.P,SW3,2*%
%TO.N,Net-(R14-Pad1)*%
X162225001Y-51570001D03*
%TO.P,SW3,1*%
%TO.N,+5V*%
X155725001Y-47070001D03*
%TO.P,SW3,2*%
%TO.N,Net-(R14-Pad1)*%
X155725001Y-51570001D03*
%TD*%
M02*
