%TF.GenerationSoftware,KiCad,Pcbnew,(5.1.9)-1*%
%TF.CreationDate,2022-03-08T11:24:29-07:00*%
%TF.ProjectId,SensorBoard,53656e73-6f72-4426-9f61-72642e6b6963,rev?*%
%TF.SameCoordinates,Original*%
%TF.FileFunction,Copper,L1,Top*%
%TF.FilePolarity,Positive*%
%FSLAX46Y46*%
G04 Gerber Fmt 4.6, Leading zero omitted, Abs format (unit mm)*
G04 Created by KiCad (PCBNEW (5.1.9)-1) date 2022-03-08 11:24:29*
%MOMM*%
%LPD*%
G01*
G04 APERTURE LIST*
%TA.AperFunction,ComponentPad*%
%ADD10R,1.700000X1.700000*%
%TD*%
%TA.AperFunction,ComponentPad*%
%ADD11O,1.700000X1.700000*%
%TD*%
%TA.AperFunction,ComponentPad*%
%ADD12O,1.740000X2.190000*%
%TD*%
%TA.AperFunction,ComponentPad*%
%ADD13R,1.600000X1.600000*%
%TD*%
%TA.AperFunction,ComponentPad*%
%ADD14O,1.600000X1.600000*%
%TD*%
%TA.AperFunction,ComponentPad*%
%ADD15C,2.000000*%
%TD*%
%TA.AperFunction,SMDPad,CuDef*%
%ADD16R,0.600000X2.200000*%
%TD*%
G04 APERTURE END LIST*
%TO.P,C1,2*%
%TO.N,GND*%
%TA.AperFunction,SMDPad,CuDef*%
G36*
G01*
X131795001Y-42990002D02*
X131795001Y-42090000D01*
G75*
G02*
X132045000Y-41840001I249999J0D01*
G01*
X132745002Y-41840001D01*
G75*
G02*
X132995001Y-42090000I0J-249999D01*
G01*
X132995001Y-42990002D01*
G75*
G02*
X132745002Y-43240001I-249999J0D01*
G01*
X132045000Y-43240001D01*
G75*
G02*
X131795001Y-42990002I0J249999D01*
G01*
G37*
%TD.AperFunction*%
%TO.P,C1,1*%
%TO.N,+5V*%
%TA.AperFunction,SMDPad,CuDef*%
G36*
G01*
X129795001Y-42990002D02*
X129795001Y-42090000D01*
G75*
G02*
X130045000Y-41840001I249999J0D01*
G01*
X130745002Y-41840001D01*
G75*
G02*
X130995001Y-42090000I0J-249999D01*
G01*
X130995001Y-42990002D01*
G75*
G02*
X130745002Y-43240001I-249999J0D01*
G01*
X130045000Y-43240001D01*
G75*
G02*
X129795001Y-42990002I0J249999D01*
G01*
G37*
%TD.AperFunction*%
%TD*%
%TO.P,C2,2*%
%TO.N,GND*%
%TA.AperFunction,SMDPad,CuDef*%
G36*
G01*
X205090001Y-59330002D02*
X205090001Y-58430000D01*
G75*
G02*
X205340000Y-58180001I249999J0D01*
G01*
X206040002Y-58180001D01*
G75*
G02*
X206290001Y-58430000I0J-249999D01*
G01*
X206290001Y-59330002D01*
G75*
G02*
X206040002Y-59580001I-249999J0D01*
G01*
X205340000Y-59580001D01*
G75*
G02*
X205090001Y-59330002I0J249999D01*
G01*
G37*
%TD.AperFunction*%
%TO.P,C2,1*%
%TO.N,+5V*%
%TA.AperFunction,SMDPad,CuDef*%
G36*
G01*
X203090001Y-59330002D02*
X203090001Y-58430000D01*
G75*
G02*
X203340000Y-58180001I249999J0D01*
G01*
X204040002Y-58180001D01*
G75*
G02*
X204290001Y-58430000I0J-249999D01*
G01*
X204290001Y-59330002D01*
G75*
G02*
X204040002Y-59580001I-249999J0D01*
G01*
X203340000Y-59580001D01*
G75*
G02*
X203090001Y-59330002I0J249999D01*
G01*
G37*
%TD.AperFunction*%
%TD*%
%TO.P,C3,2*%
%TO.N,GND*%
%TA.AperFunction,SMDPad,CuDef*%
G36*
G01*
X125135001Y-69990002D02*
X125135001Y-69090000D01*
G75*
G02*
X125385000Y-68840001I249999J0D01*
G01*
X126085002Y-68840001D01*
G75*
G02*
X126335001Y-69090000I0J-249999D01*
G01*
X126335001Y-69990002D01*
G75*
G02*
X126085002Y-70240001I-249999J0D01*
G01*
X125385000Y-70240001D01*
G75*
G02*
X125135001Y-69990002I0J249999D01*
G01*
G37*
%TD.AperFunction*%
%TO.P,C3,1*%
%TO.N,Net-(C3-Pad1)*%
%TA.AperFunction,SMDPad,CuDef*%
G36*
G01*
X123135001Y-69990002D02*
X123135001Y-69090000D01*
G75*
G02*
X123385000Y-68840001I249999J0D01*
G01*
X124085002Y-68840001D01*
G75*
G02*
X124335001Y-69090000I0J-249999D01*
G01*
X124335001Y-69990002D01*
G75*
G02*
X124085002Y-70240001I-249999J0D01*
G01*
X123385000Y-70240001D01*
G75*
G02*
X123135001Y-69990002I0J249999D01*
G01*
G37*
%TD.AperFunction*%
%TD*%
%TO.P,C4,1*%
%TO.N,+5V*%
%TA.AperFunction,SMDPad,CuDef*%
G36*
G01*
X118385001Y-69990002D02*
X118385001Y-69090000D01*
G75*
G02*
X118635000Y-68840001I249999J0D01*
G01*
X119335002Y-68840001D01*
G75*
G02*
X119585001Y-69090000I0J-249999D01*
G01*
X119585001Y-69990002D01*
G75*
G02*
X119335002Y-70240001I-249999J0D01*
G01*
X118635000Y-70240001D01*
G75*
G02*
X118385001Y-69990002I0J249999D01*
G01*
G37*
%TD.AperFunction*%
%TO.P,C4,2*%
%TO.N,GND*%
%TA.AperFunction,SMDPad,CuDef*%
G36*
G01*
X120385001Y-69990002D02*
X120385001Y-69090000D01*
G75*
G02*
X120635000Y-68840001I249999J0D01*
G01*
X121335002Y-68840001D01*
G75*
G02*
X121585001Y-69090000I0J-249999D01*
G01*
X121585001Y-69990002D01*
G75*
G02*
X121335002Y-70240001I-249999J0D01*
G01*
X120635000Y-70240001D01*
G75*
G02*
X120385001Y-69990002I0J249999D01*
G01*
G37*
%TD.AperFunction*%
%TD*%
%TO.P,D1,2*%
%TO.N,Net-(D1-Pad2)*%
%TA.AperFunction,SMDPad,CuDef*%
G36*
G01*
X208510001Y-67926251D02*
X208510001Y-67013751D01*
G75*
G02*
X208753751Y-66770001I243750J0D01*
G01*
X209241251Y-66770001D01*
G75*
G02*
X209485001Y-67013751I0J-243750D01*
G01*
X209485001Y-67926251D01*
G75*
G02*
X209241251Y-68170001I-243750J0D01*
G01*
X208753751Y-68170001D01*
G75*
G02*
X208510001Y-67926251I0J243750D01*
G01*
G37*
%TD.AperFunction*%
%TO.P,D1,1*%
%TO.N,GND*%
%TA.AperFunction,SMDPad,CuDef*%
G36*
G01*
X206635001Y-67926251D02*
X206635001Y-67013751D01*
G75*
G02*
X206878751Y-66770001I243750J0D01*
G01*
X207366251Y-66770001D01*
G75*
G02*
X207610001Y-67013751I0J-243750D01*
G01*
X207610001Y-67926251D01*
G75*
G02*
X207366251Y-68170001I-243750J0D01*
G01*
X206878751Y-68170001D01*
G75*
G02*
X206635001Y-67926251I0J243750D01*
G01*
G37*
%TD.AperFunction*%
%TD*%
%TO.P,D2,1*%
%TO.N,Net-(D2-Pad1)*%
%TA.AperFunction,SMDPad,CuDef*%
G36*
G01*
X219655001Y-56476251D02*
X219655001Y-55563751D01*
G75*
G02*
X219898751Y-55320001I243750J0D01*
G01*
X220386251Y-55320001D01*
G75*
G02*
X220630001Y-55563751I0J-243750D01*
G01*
X220630001Y-56476251D01*
G75*
G02*
X220386251Y-56720001I-243750J0D01*
G01*
X219898751Y-56720001D01*
G75*
G02*
X219655001Y-56476251I0J243750D01*
G01*
G37*
%TD.AperFunction*%
%TO.P,D2,2*%
%TO.N,+5V*%
%TA.AperFunction,SMDPad,CuDef*%
G36*
G01*
X221530001Y-56476251D02*
X221530001Y-55563751D01*
G75*
G02*
X221773751Y-55320001I243750J0D01*
G01*
X222261251Y-55320001D01*
G75*
G02*
X222505001Y-55563751I0J-243750D01*
G01*
X222505001Y-56476251D01*
G75*
G02*
X222261251Y-56720001I-243750J0D01*
G01*
X221773751Y-56720001D01*
G75*
G02*
X221530001Y-56476251I0J243750D01*
G01*
G37*
%TD.AperFunction*%
%TD*%
%TO.P,D3,1*%
%TO.N,Net-(D3-Pad1)*%
%TA.AperFunction,SMDPad,CuDef*%
G36*
G01*
X230615001Y-45116251D02*
X230615001Y-44203751D01*
G75*
G02*
X230858751Y-43960001I243750J0D01*
G01*
X231346251Y-43960001D01*
G75*
G02*
X231590001Y-44203751I0J-243750D01*
G01*
X231590001Y-45116251D01*
G75*
G02*
X231346251Y-45360001I-243750J0D01*
G01*
X230858751Y-45360001D01*
G75*
G02*
X230615001Y-45116251I0J243750D01*
G01*
G37*
%TD.AperFunction*%
%TO.P,D3,2*%
%TO.N,+5V*%
%TA.AperFunction,SMDPad,CuDef*%
G36*
G01*
X232490001Y-45116251D02*
X232490001Y-44203751D01*
G75*
G02*
X232733751Y-43960001I243750J0D01*
G01*
X233221251Y-43960001D01*
G75*
G02*
X233465001Y-44203751I0J-243750D01*
G01*
X233465001Y-45116251D01*
G75*
G02*
X233221251Y-45360001I-243750J0D01*
G01*
X232733751Y-45360001D01*
G75*
G02*
X232490001Y-45116251I0J243750D01*
G01*
G37*
%TD.AperFunction*%
%TD*%
%TO.P,D4,1*%
%TO.N,Net-(D4-Pad1)*%
%TA.AperFunction,SMDPad,CuDef*%
G36*
G01*
X206635001Y-70966251D02*
X206635001Y-70053751D01*
G75*
G02*
X206878751Y-69810001I243750J0D01*
G01*
X207366251Y-69810001D01*
G75*
G02*
X207610001Y-70053751I0J-243750D01*
G01*
X207610001Y-70966251D01*
G75*
G02*
X207366251Y-71210001I-243750J0D01*
G01*
X206878751Y-71210001D01*
G75*
G02*
X206635001Y-70966251I0J243750D01*
G01*
G37*
%TD.AperFunction*%
%TO.P,D4,2*%
%TO.N,+5V*%
%TA.AperFunction,SMDPad,CuDef*%
G36*
G01*
X208510001Y-70966251D02*
X208510001Y-70053751D01*
G75*
G02*
X208753751Y-69810001I243750J0D01*
G01*
X209241251Y-69810001D01*
G75*
G02*
X209485001Y-70053751I0J-243750D01*
G01*
X209485001Y-70966251D01*
G75*
G02*
X209241251Y-71210001I-243750J0D01*
G01*
X208753751Y-71210001D01*
G75*
G02*
X208510001Y-70966251I0J243750D01*
G01*
G37*
%TD.AperFunction*%
%TD*%
%TO.P,D5,2*%
%TO.N,+5V*%
%TA.AperFunction,SMDPad,CuDef*%
G36*
G01*
X230730001Y-54236251D02*
X230730001Y-53323751D01*
G75*
G02*
X230973751Y-53080001I243750J0D01*
G01*
X231461251Y-53080001D01*
G75*
G02*
X231705001Y-53323751I0J-243750D01*
G01*
X231705001Y-54236251D01*
G75*
G02*
X231461251Y-54480001I-243750J0D01*
G01*
X230973751Y-54480001D01*
G75*
G02*
X230730001Y-54236251I0J243750D01*
G01*
G37*
%TD.AperFunction*%
%TO.P,D5,1*%
%TO.N,Net-(D5-Pad1)*%
%TA.AperFunction,SMDPad,CuDef*%
G36*
G01*
X228855001Y-54236251D02*
X228855001Y-53323751D01*
G75*
G02*
X229098751Y-53080001I243750J0D01*
G01*
X229586251Y-53080001D01*
G75*
G02*
X229830001Y-53323751I0J-243750D01*
G01*
X229830001Y-54236251D01*
G75*
G02*
X229586251Y-54480001I-243750J0D01*
G01*
X229098751Y-54480001D01*
G75*
G02*
X228855001Y-54236251I0J243750D01*
G01*
G37*
%TD.AperFunction*%
%TD*%
%TO.P,D6,1*%
%TO.N,Net-(D6-Pad1)*%
%TA.AperFunction,SMDPad,CuDef*%
G36*
G01*
X224405001Y-53526251D02*
X224405001Y-52613751D01*
G75*
G02*
X224648751Y-52370001I243750J0D01*
G01*
X225136251Y-52370001D01*
G75*
G02*
X225380001Y-52613751I0J-243750D01*
G01*
X225380001Y-53526251D01*
G75*
G02*
X225136251Y-53770001I-243750J0D01*
G01*
X224648751Y-53770001D01*
G75*
G02*
X224405001Y-53526251I0J243750D01*
G01*
G37*
%TD.AperFunction*%
%TO.P,D6,2*%
%TO.N,+5V*%
%TA.AperFunction,SMDPad,CuDef*%
G36*
G01*
X226280001Y-53526251D02*
X226280001Y-52613751D01*
G75*
G02*
X226523751Y-52370001I243750J0D01*
G01*
X227011251Y-52370001D01*
G75*
G02*
X227255001Y-52613751I0J-243750D01*
G01*
X227255001Y-53526251D01*
G75*
G02*
X227011251Y-53770001I-243750J0D01*
G01*
X226523751Y-53770001D01*
G75*
G02*
X226280001Y-53526251I0J243750D01*
G01*
G37*
%TD.AperFunction*%
%TD*%
%TO.P,D7,2*%
%TO.N,+5V*%
%TA.AperFunction,SMDPad,CuDef*%
G36*
G01*
X232490001Y-48156251D02*
X232490001Y-47243751D01*
G75*
G02*
X232733751Y-47000001I243750J0D01*
G01*
X233221251Y-47000001D01*
G75*
G02*
X233465001Y-47243751I0J-243750D01*
G01*
X233465001Y-48156251D01*
G75*
G02*
X233221251Y-48400001I-243750J0D01*
G01*
X232733751Y-48400001D01*
G75*
G02*
X232490001Y-48156251I0J243750D01*
G01*
G37*
%TD.AperFunction*%
%TO.P,D7,1*%
%TO.N,Net-(D7-Pad1)*%
%TA.AperFunction,SMDPad,CuDef*%
G36*
G01*
X230615001Y-48156251D02*
X230615001Y-47243751D01*
G75*
G02*
X230858751Y-47000001I243750J0D01*
G01*
X231346251Y-47000001D01*
G75*
G02*
X231590001Y-47243751I0J-243750D01*
G01*
X231590001Y-48156251D01*
G75*
G02*
X231346251Y-48400001I-243750J0D01*
G01*
X230858751Y-48400001D01*
G75*
G02*
X230615001Y-48156251I0J243750D01*
G01*
G37*
%TD.AperFunction*%
%TD*%
%TO.P,D8,1*%
%TO.N,Net-(D8-Pad1)*%
%TA.AperFunction,SMDPad,CuDef*%
G36*
G01*
X217085001Y-61376251D02*
X217085001Y-60463751D01*
G75*
G02*
X217328751Y-60220001I243750J0D01*
G01*
X217816251Y-60220001D01*
G75*
G02*
X218060001Y-60463751I0J-243750D01*
G01*
X218060001Y-61376251D01*
G75*
G02*
X217816251Y-61620001I-243750J0D01*
G01*
X217328751Y-61620001D01*
G75*
G02*
X217085001Y-61376251I0J243750D01*
G01*
G37*
%TD.AperFunction*%
%TO.P,D8,2*%
%TO.N,Net-(C3-Pad1)*%
%TA.AperFunction,SMDPad,CuDef*%
G36*
G01*
X218960001Y-61376251D02*
X218960001Y-60463751D01*
G75*
G02*
X219203751Y-60220001I243750J0D01*
G01*
X219691251Y-60220001D01*
G75*
G02*
X219935001Y-60463751I0J-243750D01*
G01*
X219935001Y-61376251D01*
G75*
G02*
X219691251Y-61620001I-243750J0D01*
G01*
X219203751Y-61620001D01*
G75*
G02*
X218960001Y-61376251I0J243750D01*
G01*
G37*
%TD.AperFunction*%
%TD*%
%TO.P,D9,1*%
%TO.N,Net-(D9-Pad1)*%
%TA.AperFunction,SMDPad,CuDef*%
G36*
G01*
X211085001Y-67926251D02*
X211085001Y-67013751D01*
G75*
G02*
X211328751Y-66770001I243750J0D01*
G01*
X211816251Y-66770001D01*
G75*
G02*
X212060001Y-67013751I0J-243750D01*
G01*
X212060001Y-67926251D01*
G75*
G02*
X211816251Y-68170001I-243750J0D01*
G01*
X211328751Y-68170001D01*
G75*
G02*
X211085001Y-67926251I0J243750D01*
G01*
G37*
%TD.AperFunction*%
%TO.P,D9,2*%
%TO.N,Net-(D9-Pad2)*%
%TA.AperFunction,SMDPad,CuDef*%
G36*
G01*
X212960001Y-67926251D02*
X212960001Y-67013751D01*
G75*
G02*
X213203751Y-66770001I243750J0D01*
G01*
X213691251Y-66770001D01*
G75*
G02*
X213935001Y-67013751I0J-243750D01*
G01*
X213935001Y-67926251D01*
G75*
G02*
X213691251Y-68170001I-243750J0D01*
G01*
X213203751Y-68170001D01*
G75*
G02*
X212960001Y-67926251I0J243750D01*
G01*
G37*
%TD.AperFunction*%
%TD*%
%TO.P,D10,2*%
%TO.N,Net-(D10-Pad2)*%
%TA.AperFunction,SMDPad,CuDef*%
G36*
G01*
X212960001Y-70966251D02*
X212960001Y-70053751D01*
G75*
G02*
X213203751Y-69810001I243750J0D01*
G01*
X213691251Y-69810001D01*
G75*
G02*
X213935001Y-70053751I0J-243750D01*
G01*
X213935001Y-70966251D01*
G75*
G02*
X213691251Y-71210001I-243750J0D01*
G01*
X213203751Y-71210001D01*
G75*
G02*
X212960001Y-70966251I0J243750D01*
G01*
G37*
%TD.AperFunction*%
%TO.P,D10,1*%
%TO.N,Net-(D10-Pad1)*%
%TA.AperFunction,SMDPad,CuDef*%
G36*
G01*
X211085001Y-70966251D02*
X211085001Y-70053751D01*
G75*
G02*
X211328751Y-69810001I243750J0D01*
G01*
X211816251Y-69810001D01*
G75*
G02*
X212060001Y-70053751I0J-243750D01*
G01*
X212060001Y-70966251D01*
G75*
G02*
X211816251Y-71210001I-243750J0D01*
G01*
X211328751Y-71210001D01*
G75*
G02*
X211085001Y-70966251I0J243750D01*
G01*
G37*
%TD.AperFunction*%
%TD*%
%TO.P,D11,1*%
%TO.N,Net-(D11-Pad1)*%
%TA.AperFunction,SMDPad,CuDef*%
G36*
G01*
X217085001Y-64416251D02*
X217085001Y-63503751D01*
G75*
G02*
X217328751Y-63260001I243750J0D01*
G01*
X217816251Y-63260001D01*
G75*
G02*
X218060001Y-63503751I0J-243750D01*
G01*
X218060001Y-64416251D01*
G75*
G02*
X217816251Y-64660001I-243750J0D01*
G01*
X217328751Y-64660001D01*
G75*
G02*
X217085001Y-64416251I0J243750D01*
G01*
G37*
%TD.AperFunction*%
%TO.P,D11,2*%
%TO.N,Net-(D11-Pad2)*%
%TA.AperFunction,SMDPad,CuDef*%
G36*
G01*
X218960001Y-64416251D02*
X218960001Y-63503751D01*
G75*
G02*
X219203751Y-63260001I243750J0D01*
G01*
X219691251Y-63260001D01*
G75*
G02*
X219935001Y-63503751I0J-243750D01*
G01*
X219935001Y-64416251D01*
G75*
G02*
X219691251Y-64660001I-243750J0D01*
G01*
X219203751Y-64660001D01*
G75*
G02*
X218960001Y-64416251I0J243750D01*
G01*
G37*
%TD.AperFunction*%
%TD*%
%TO.P,D12,2*%
%TO.N,Net-(D12-Pad2)*%
%TA.AperFunction,SMDPad,CuDef*%
G36*
G01*
X230830001Y-51196251D02*
X230830001Y-50283751D01*
G75*
G02*
X231073751Y-50040001I243750J0D01*
G01*
X231561251Y-50040001D01*
G75*
G02*
X231805001Y-50283751I0J-243750D01*
G01*
X231805001Y-51196251D01*
G75*
G02*
X231561251Y-51440001I-243750J0D01*
G01*
X231073751Y-51440001D01*
G75*
G02*
X230830001Y-51196251I0J243750D01*
G01*
G37*
%TD.AperFunction*%
%TO.P,D12,1*%
%TO.N,Net-(D12-Pad1)*%
%TA.AperFunction,SMDPad,CuDef*%
G36*
G01*
X228955001Y-51196251D02*
X228955001Y-50283751D01*
G75*
G02*
X229198751Y-50040001I243750J0D01*
G01*
X229686251Y-50040001D01*
G75*
G02*
X229930001Y-50283751I0J-243750D01*
G01*
X229930001Y-51196251D01*
G75*
G02*
X229686251Y-51440001I-243750J0D01*
G01*
X229198751Y-51440001D01*
G75*
G02*
X228955001Y-51196251I0J243750D01*
G01*
G37*
%TD.AperFunction*%
%TD*%
%TO.P,D13,2*%
%TO.N,Net-(D13-Pad2)*%
%TA.AperFunction,SMDPad,CuDef*%
G36*
G01*
X225980001Y-56566251D02*
X225980001Y-55653751D01*
G75*
G02*
X226223751Y-55410001I243750J0D01*
G01*
X226711251Y-55410001D01*
G75*
G02*
X226955001Y-55653751I0J-243750D01*
G01*
X226955001Y-56566251D01*
G75*
G02*
X226711251Y-56810001I-243750J0D01*
G01*
X226223751Y-56810001D01*
G75*
G02*
X225980001Y-56566251I0J243750D01*
G01*
G37*
%TD.AperFunction*%
%TO.P,D13,1*%
%TO.N,Net-(D13-Pad1)*%
%TA.AperFunction,SMDPad,CuDef*%
G36*
G01*
X224105001Y-56566251D02*
X224105001Y-55653751D01*
G75*
G02*
X224348751Y-55410001I243750J0D01*
G01*
X224836251Y-55410001D01*
G75*
G02*
X225080001Y-55653751I0J-243750D01*
G01*
X225080001Y-56566251D01*
G75*
G02*
X224836251Y-56810001I-243750J0D01*
G01*
X224348751Y-56810001D01*
G75*
G02*
X224105001Y-56566251I0J243750D01*
G01*
G37*
%TD.AperFunction*%
%TD*%
%TO.P,D14,2*%
%TO.N,Net-(D14-Pad2)*%
%TA.AperFunction,SMDPad,CuDef*%
G36*
G01*
X214510001Y-64416251D02*
X214510001Y-63503751D01*
G75*
G02*
X214753751Y-63260001I243750J0D01*
G01*
X215241251Y-63260001D01*
G75*
G02*
X215485001Y-63503751I0J-243750D01*
G01*
X215485001Y-64416251D01*
G75*
G02*
X215241251Y-64660001I-243750J0D01*
G01*
X214753751Y-64660001D01*
G75*
G02*
X214510001Y-64416251I0J243750D01*
G01*
G37*
%TD.AperFunction*%
%TO.P,D14,1*%
%TO.N,Net-(D14-Pad1)*%
%TA.AperFunction,SMDPad,CuDef*%
G36*
G01*
X212635001Y-64416251D02*
X212635001Y-63503751D01*
G75*
G02*
X212878751Y-63260001I243750J0D01*
G01*
X213366251Y-63260001D01*
G75*
G02*
X213610001Y-63503751I0J-243750D01*
G01*
X213610001Y-64416251D01*
G75*
G02*
X213366251Y-64660001I-243750J0D01*
G01*
X212878751Y-64660001D01*
G75*
G02*
X212635001Y-64416251I0J243750D01*
G01*
G37*
%TD.AperFunction*%
%TD*%
%TO.P,D15,2*%
%TO.N,Net-(D15-Pad2)*%
%TA.AperFunction,SMDPad,CuDef*%
G36*
G01*
X214510001Y-61376251D02*
X214510001Y-60463751D01*
G75*
G02*
X214753751Y-60220001I243750J0D01*
G01*
X215241251Y-60220001D01*
G75*
G02*
X215485001Y-60463751I0J-243750D01*
G01*
X215485001Y-61376251D01*
G75*
G02*
X215241251Y-61620001I-243750J0D01*
G01*
X214753751Y-61620001D01*
G75*
G02*
X214510001Y-61376251I0J243750D01*
G01*
G37*
%TD.AperFunction*%
%TO.P,D15,1*%
%TO.N,Net-(D15-Pad1)*%
%TA.AperFunction,SMDPad,CuDef*%
G36*
G01*
X212635001Y-61376251D02*
X212635001Y-60463751D01*
G75*
G02*
X212878751Y-60220001I243750J0D01*
G01*
X213366251Y-60220001D01*
G75*
G02*
X213610001Y-60463751I0J-243750D01*
G01*
X213610001Y-61376251D01*
G75*
G02*
X213366251Y-61620001I-243750J0D01*
G01*
X212878751Y-61620001D01*
G75*
G02*
X212635001Y-61376251I0J243750D01*
G01*
G37*
%TD.AperFunction*%
%TD*%
%TO.P,D16,1*%
%TO.N,Net-(D16-Pad1)*%
%TA.AperFunction,SMDPad,CuDef*%
G36*
G01*
X233425001Y-42076251D02*
X233425001Y-41163751D01*
G75*
G02*
X233668751Y-40920001I243750J0D01*
G01*
X234156251Y-40920001D01*
G75*
G02*
X234400001Y-41163751I0J-243750D01*
G01*
X234400001Y-42076251D01*
G75*
G02*
X234156251Y-42320001I-243750J0D01*
G01*
X233668751Y-42320001D01*
G75*
G02*
X233425001Y-42076251I0J243750D01*
G01*
G37*
%TD.AperFunction*%
%TO.P,D16,2*%
%TO.N,Net-(D16-Pad2)*%
%TA.AperFunction,SMDPad,CuDef*%
G36*
G01*
X235300001Y-42076251D02*
X235300001Y-41163751D01*
G75*
G02*
X235543751Y-40920001I243750J0D01*
G01*
X236031251Y-40920001D01*
G75*
G02*
X236275001Y-41163751I0J-243750D01*
G01*
X236275001Y-42076251D01*
G75*
G02*
X236031251Y-42320001I-243750J0D01*
G01*
X235543751Y-42320001D01*
G75*
G02*
X235300001Y-42076251I0J243750D01*
G01*
G37*
%TD.AperFunction*%
%TD*%
D10*
%TO.P,J1,1*%
%TO.N,+5V*%
X154905001Y-55920001D03*
D11*
%TO.P,J1,2*%
%TO.N,GND*%
X154905001Y-58460001D03*
%TD*%
D12*
%TO.P,J2,4*%
%TO.N,GND*%
X139735001Y-66340001D03*
%TO.P,J2,3*%
%TO.N,Net-(J2-Pad3)*%
X137195001Y-66340001D03*
%TO.P,J2,2*%
%TO.N,Net-(J2-Pad2)*%
X134655001Y-66340001D03*
%TO.P,J2,1*%
%TO.N,+5V*%
%TA.AperFunction,ComponentPad*%
G36*
G01*
X131245001Y-67185002D02*
X131245001Y-65495000D01*
G75*
G02*
X131495000Y-65245001I249999J0D01*
G01*
X132735002Y-65245001D01*
G75*
G02*
X132985001Y-65495000I0J-249999D01*
G01*
X132985001Y-67185002D01*
G75*
G02*
X132735002Y-67435001I-249999J0D01*
G01*
X131495000Y-67435001D01*
G75*
G02*
X131245001Y-67185002I0J249999D01*
G01*
G37*
%TD.AperFunction*%
%TD*%
D10*
%TO.P,J3,1*%
%TO.N,Net-(D8-Pad1)*%
X139165001Y-31670001D03*
D11*
%TO.P,J3,2*%
%TO.N,+5V*%
X139165001Y-34210001D03*
%TO.P,J3,3*%
%TO.N,GND*%
X139165001Y-36750001D03*
%TO.P,J3,4*%
%TO.N,RB7*%
X139165001Y-39290001D03*
%TO.P,J3,5*%
%TO.N,RB6*%
X139165001Y-41830001D03*
%TO.P,J3,6*%
%TO.N,Net-(J3-Pad6)*%
X139165001Y-44370001D03*
%TD*%
%TO.P,J4,1*%
%TO.N,+5V*%
%TA.AperFunction,ComponentPad*%
G36*
G01*
X181375000Y-44660001D02*
X181375000Y-42969999D01*
G75*
G02*
X181624999Y-42720000I249999J0D01*
G01*
X182865001Y-42720000D01*
G75*
G02*
X183115000Y-42969999I0J-249999D01*
G01*
X183115000Y-44660001D01*
G75*
G02*
X182865001Y-44910000I-249999J0D01*
G01*
X181624999Y-44910000D01*
G75*
G02*
X181375000Y-44660001I0J249999D01*
G01*
G37*
%TD.AperFunction*%
D12*
%TO.P,J4,2*%
%TO.N,Net-(J2-Pad2)*%
X184785000Y-43815000D03*
%TO.P,J4,3*%
%TO.N,Net-(J2-Pad3)*%
X187325000Y-43815000D03*
%TO.P,J4,4*%
%TO.N,GND*%
X189865000Y-43815000D03*
%TD*%
%TO.P,J5,4*%
%TO.N,GND*%
X193675000Y-31115000D03*
%TO.P,J5,3*%
%TO.N,Net-(J5-Pad3)*%
X191135000Y-31115000D03*
%TO.P,J5,2*%
%TO.N,SDA2*%
X188595000Y-31115000D03*
%TO.P,J5,1*%
%TO.N,+5V*%
%TA.AperFunction,ComponentPad*%
G36*
G01*
X185185000Y-31960001D02*
X185185000Y-30269999D01*
G75*
G02*
X185434999Y-30020000I249999J0D01*
G01*
X186675001Y-30020000D01*
G75*
G02*
X186925000Y-30269999I0J-249999D01*
G01*
X186925000Y-31960001D01*
G75*
G02*
X186675001Y-32210000I-249999J0D01*
G01*
X185434999Y-32210000D01*
G75*
G02*
X185185000Y-31960001I0J249999D01*
G01*
G37*
%TD.AperFunction*%
%TD*%
%TO.P,J6,1*%
%TO.N,+5V*%
%TA.AperFunction,ComponentPad*%
G36*
G01*
X199155000Y-26880001D02*
X199155000Y-25189999D01*
G75*
G02*
X199404999Y-24940000I249999J0D01*
G01*
X200645001Y-24940000D01*
G75*
G02*
X200895000Y-25189999I0J-249999D01*
G01*
X200895000Y-26880001D01*
G75*
G02*
X200645001Y-27130000I-249999J0D01*
G01*
X199404999Y-27130000D01*
G75*
G02*
X199155000Y-26880001I0J249999D01*
G01*
G37*
%TD.AperFunction*%
%TO.P,J6,2*%
%TO.N,SDA2*%
X202565000Y-26035000D03*
%TO.P,J6,3*%
%TO.N,Net-(J6-Pad3)*%
X205105000Y-26035000D03*
%TO.P,J6,4*%
%TO.N,GND*%
X207645000Y-26035000D03*
%TD*%
%TO.P,J7,4*%
%TO.N,GND*%
X138935001Y-50640001D03*
%TO.P,J7,3*%
%TO.N,Net-(J7-Pad3)*%
X136395001Y-50640001D03*
%TO.P,J7,2*%
%TO.N,SDA2*%
X133855001Y-50640001D03*
%TO.P,J7,1*%
%TO.N,+5V*%
%TA.AperFunction,ComponentPad*%
G36*
G01*
X130445001Y-51485002D02*
X130445001Y-49795000D01*
G75*
G02*
X130695000Y-49545001I249999J0D01*
G01*
X131935002Y-49545001D01*
G75*
G02*
X132185001Y-49795000I0J-249999D01*
G01*
X132185001Y-51485002D01*
G75*
G02*
X131935002Y-51735001I-249999J0D01*
G01*
X130695000Y-51735001D01*
G75*
G02*
X130445001Y-51485002I0J249999D01*
G01*
G37*
%TD.AperFunction*%
%TD*%
%TO.P,J8,1*%
%TO.N,+5V*%
%TA.AperFunction,ComponentPad*%
G36*
G01*
X169945000Y-30055001D02*
X169945000Y-28364999D01*
G75*
G02*
X170194999Y-28115000I249999J0D01*
G01*
X171435001Y-28115000D01*
G75*
G02*
X171685000Y-28364999I0J-249999D01*
G01*
X171685000Y-30055001D01*
G75*
G02*
X171435001Y-30305000I-249999J0D01*
G01*
X170194999Y-30305000D01*
G75*
G02*
X169945000Y-30055001I0J249999D01*
G01*
G37*
%TD.AperFunction*%
%TO.P,J8,2*%
%TO.N,SDA2*%
X173355000Y-29210000D03*
%TO.P,J8,3*%
%TO.N,Net-(J8-Pad3)*%
X175895000Y-29210000D03*
%TO.P,J8,4*%
%TO.N,GND*%
X178435000Y-29210000D03*
%TD*%
%TO.P,J9,1*%
%TO.N,+5V*%
%TA.AperFunction,ComponentPad*%
G36*
G01*
X142915001Y-41985002D02*
X142915001Y-40295000D01*
G75*
G02*
X143165000Y-40045001I249999J0D01*
G01*
X144405002Y-40045001D01*
G75*
G02*
X144655001Y-40295000I0J-249999D01*
G01*
X144655001Y-41985002D01*
G75*
G02*
X144405002Y-42235001I-249999J0D01*
G01*
X143165000Y-42235001D01*
G75*
G02*
X142915001Y-41985002I0J249999D01*
G01*
G37*
%TD.AperFunction*%
%TO.P,J9,2*%
%TO.N,SDA2*%
X146325001Y-41140001D03*
%TO.P,J9,3*%
%TO.N,Net-(J9-Pad3)*%
X148865001Y-41140001D03*
%TO.P,J9,4*%
%TO.N,GND*%
X151405001Y-41140001D03*
%TD*%
%TO.P,J10,4*%
%TO.N,GND*%
X127525001Y-64160001D03*
%TO.P,J10,3*%
%TO.N,Net-(J10-Pad3)*%
X124985001Y-64160001D03*
%TO.P,J10,2*%
%TO.N,SDA2*%
X122445001Y-64160001D03*
%TO.P,J10,1*%
%TO.N,+5V*%
%TA.AperFunction,ComponentPad*%
G36*
G01*
X119035001Y-65005002D02*
X119035001Y-63315000D01*
G75*
G02*
X119285000Y-63065001I249999J0D01*
G01*
X120525002Y-63065001D01*
G75*
G02*
X120775001Y-63315000I0J-249999D01*
G01*
X120775001Y-65005002D01*
G75*
G02*
X120525002Y-65255001I-249999J0D01*
G01*
X119285000Y-65255001D01*
G75*
G02*
X119035001Y-65005002I0J249999D01*
G01*
G37*
%TD.AperFunction*%
%TD*%
%TO.P,J11,1*%
%TO.N,+5V*%
%TA.AperFunction,ComponentPad*%
G36*
G01*
X131245001Y-59335002D02*
X131245001Y-57645000D01*
G75*
G02*
X131495000Y-57395001I249999J0D01*
G01*
X132735002Y-57395001D01*
G75*
G02*
X132985001Y-57645000I0J-249999D01*
G01*
X132985001Y-59335002D01*
G75*
G02*
X132735002Y-59585001I-249999J0D01*
G01*
X131495000Y-59585001D01*
G75*
G02*
X131245001Y-59335002I0J249999D01*
G01*
G37*
%TD.AperFunction*%
%TO.P,J11,2*%
%TO.N,SDA2*%
X134655001Y-58490001D03*
%TO.P,J11,3*%
%TO.N,Net-(J11-Pad3)*%
X137195001Y-58490001D03*
%TO.P,J11,4*%
%TO.N,GND*%
X139735001Y-58490001D03*
%TD*%
%TO.P,J12,4*%
%TO.N,GND*%
X151405001Y-48990001D03*
%TO.P,J12,3*%
%TO.N,Net-(J12-Pad3)*%
X148865001Y-48990001D03*
%TO.P,J12,2*%
%TO.N,SDA2*%
X146325001Y-48990001D03*
%TO.P,J12,1*%
%TO.N,+5V*%
%TA.AperFunction,ComponentPad*%
G36*
G01*
X142915001Y-49835002D02*
X142915001Y-48145000D01*
G75*
G02*
X143165000Y-47895001I249999J0D01*
G01*
X144405002Y-47895001D01*
G75*
G02*
X144655001Y-48145000I0J-249999D01*
G01*
X144655001Y-49835002D01*
G75*
G02*
X144405002Y-50085001I-249999J0D01*
G01*
X143165000Y-50085001D01*
G75*
G02*
X142915001Y-49835002I0J249999D01*
G01*
G37*
%TD.AperFunction*%
%TD*%
D10*
%TO.P,JP1,1*%
%TO.N,+5V*%
X196850000Y-40005000D03*
D11*
%TO.P,JP1,2*%
%TO.N,Net-(JP1-Pad2)*%
X196850000Y-42545000D03*
%TD*%
D10*
%TO.P,JP2,1*%
%TO.N,SCL2*%
X201930000Y-48260000D03*
D11*
%TO.P,JP2,2*%
%TO.N,Net-(J5-Pad3)*%
X201930000Y-50800000D03*
%TD*%
%TO.P,JP3,2*%
%TO.N,Net-(J6-Pad3)*%
X209550000Y-40640000D03*
D10*
%TO.P,JP3,1*%
%TO.N,SCL2*%
X209550000Y-38100000D03*
%TD*%
%TO.P,JP4,1*%
%TO.N,SCL2*%
X144355001Y-63770001D03*
D11*
%TO.P,JP4,2*%
%TO.N,Net-(J7-Pad3)*%
X144355001Y-66310001D03*
%TD*%
D10*
%TO.P,JP5,1*%
%TO.N,SCL2*%
X196215000Y-48260000D03*
D11*
%TO.P,JP5,2*%
%TO.N,Net-(J8-Pad3)*%
X196215000Y-50800000D03*
%TD*%
%TO.P,JP6,2*%
%TO.N,Net-(J9-Pad3)*%
X149005001Y-66310001D03*
D10*
%TO.P,JP6,1*%
%TO.N,SCL2*%
X149005001Y-63770001D03*
%TD*%
D11*
%TO.P,JP7,2*%
%TO.N,Net-(J10-Pad3)*%
X202565000Y-42545000D03*
D10*
%TO.P,JP7,1*%
%TO.N,SCL2*%
X202565000Y-40005000D03*
%TD*%
D11*
%TO.P,JP8,2*%
%TO.N,Net-(J11-Pad3)*%
X209550000Y-49530000D03*
D10*
%TO.P,JP8,1*%
%TO.N,SCL2*%
X209550000Y-46990000D03*
%TD*%
D11*
%TO.P,JP9,2*%
%TO.N,Net-(J12-Pad3)*%
X153655001Y-66310001D03*
D10*
%TO.P,JP9,1*%
%TO.N,SCL2*%
X153655001Y-63770001D03*
%TD*%
%TO.P,R1,1*%
%TO.N,+5V*%
%TA.AperFunction,SMDPad,CuDef*%
G36*
G01*
X207840001Y-61975002D02*
X207840001Y-61075000D01*
G75*
G02*
X208090000Y-60825001I249999J0D01*
G01*
X208790002Y-60825001D01*
G75*
G02*
X209040001Y-61075000I0J-249999D01*
G01*
X209040001Y-61975002D01*
G75*
G02*
X208790002Y-62225001I-249999J0D01*
G01*
X208090000Y-62225001D01*
G75*
G02*
X207840001Y-61975002I0J249999D01*
G01*
G37*
%TD.AperFunction*%
%TO.P,R1,2*%
%TO.N,Net-(D1-Pad2)*%
%TA.AperFunction,SMDPad,CuDef*%
G36*
G01*
X209840001Y-61975002D02*
X209840001Y-61075000D01*
G75*
G02*
X210090000Y-60825001I249999J0D01*
G01*
X210790002Y-60825001D01*
G75*
G02*
X211040001Y-61075000I0J-249999D01*
G01*
X211040001Y-61975002D01*
G75*
G02*
X210790002Y-62225001I-249999J0D01*
G01*
X210090000Y-62225001D01*
G75*
G02*
X209840001Y-61975002I0J249999D01*
G01*
G37*
%TD.AperFunction*%
%TD*%
%TO.P,R2,1*%
%TO.N,+5V*%
%TA.AperFunction,SMDPad,CuDef*%
G36*
G01*
X210110001Y-56075002D02*
X210110001Y-55175000D01*
G75*
G02*
X210360000Y-54925001I249999J0D01*
G01*
X211060002Y-54925001D01*
G75*
G02*
X211310001Y-55175000I0J-249999D01*
G01*
X211310001Y-56075002D01*
G75*
G02*
X211060002Y-56325001I-249999J0D01*
G01*
X210360000Y-56325001D01*
G75*
G02*
X210110001Y-56075002I0J249999D01*
G01*
G37*
%TD.AperFunction*%
%TO.P,R2,2*%
%TO.N,Net-(C3-Pad1)*%
%TA.AperFunction,SMDPad,CuDef*%
G36*
G01*
X212110001Y-56075002D02*
X212110001Y-55175000D01*
G75*
G02*
X212360000Y-54925001I249999J0D01*
G01*
X213060002Y-54925001D01*
G75*
G02*
X213310001Y-55175000I0J-249999D01*
G01*
X213310001Y-56075002D01*
G75*
G02*
X213060002Y-56325001I-249999J0D01*
G01*
X212360000Y-56325001D01*
G75*
G02*
X212110001Y-56075002I0J249999D01*
G01*
G37*
%TD.AperFunction*%
%TD*%
%TO.P,R3,1*%
%TO.N,+5V*%
%TA.AperFunction,SMDPad,CuDef*%
G36*
G01*
X228630001Y-42025002D02*
X228630001Y-41125000D01*
G75*
G02*
X228880000Y-40875001I249999J0D01*
G01*
X229580002Y-40875001D01*
G75*
G02*
X229830001Y-41125000I0J-249999D01*
G01*
X229830001Y-42025002D01*
G75*
G02*
X229580002Y-42275001I-249999J0D01*
G01*
X228880000Y-42275001D01*
G75*
G02*
X228630001Y-42025002I0J249999D01*
G01*
G37*
%TD.AperFunction*%
%TO.P,R3,2*%
%TO.N,Net-(J2-Pad2)*%
%TA.AperFunction,SMDPad,CuDef*%
G36*
G01*
X230630001Y-42025002D02*
X230630001Y-41125000D01*
G75*
G02*
X230880000Y-40875001I249999J0D01*
G01*
X231580002Y-40875001D01*
G75*
G02*
X231830001Y-41125000I0J-249999D01*
G01*
X231830001Y-42025002D01*
G75*
G02*
X231580002Y-42275001I-249999J0D01*
G01*
X230880000Y-42275001D01*
G75*
G02*
X230630001Y-42025002I0J249999D01*
G01*
G37*
%TD.AperFunction*%
%TD*%
%TO.P,R4,2*%
%TO.N,Net-(J2-Pad3)*%
%TA.AperFunction,SMDPad,CuDef*%
G36*
G01*
X216860001Y-55425002D02*
X216860001Y-54525000D01*
G75*
G02*
X217110000Y-54275001I249999J0D01*
G01*
X217810002Y-54275001D01*
G75*
G02*
X218060001Y-54525000I0J-249999D01*
G01*
X218060001Y-55425002D01*
G75*
G02*
X217810002Y-55675001I-249999J0D01*
G01*
X217110000Y-55675001D01*
G75*
G02*
X216860001Y-55425002I0J249999D01*
G01*
G37*
%TD.AperFunction*%
%TO.P,R4,1*%
%TO.N,+5V*%
%TA.AperFunction,SMDPad,CuDef*%
G36*
G01*
X214860001Y-55425002D02*
X214860001Y-54525000D01*
G75*
G02*
X215110000Y-54275001I249999J0D01*
G01*
X215810002Y-54275001D01*
G75*
G02*
X216060001Y-54525000I0J-249999D01*
G01*
X216060001Y-55425002D01*
G75*
G02*
X215810002Y-55675001I-249999J0D01*
G01*
X215110000Y-55675001D01*
G75*
G02*
X214860001Y-55425002I0J249999D01*
G01*
G37*
%TD.AperFunction*%
%TD*%
%TO.P,R5,1*%
%TO.N,Net-(D2-Pad1)*%
%TA.AperFunction,SMDPad,CuDef*%
G36*
G01*
X228630001Y-39075002D02*
X228630001Y-38175000D01*
G75*
G02*
X228880000Y-37925001I249999J0D01*
G01*
X229580002Y-37925001D01*
G75*
G02*
X229830001Y-38175000I0J-249999D01*
G01*
X229830001Y-39075002D01*
G75*
G02*
X229580002Y-39325001I-249999J0D01*
G01*
X228880000Y-39325001D01*
G75*
G02*
X228630001Y-39075002I0J249999D01*
G01*
G37*
%TD.AperFunction*%
%TO.P,R5,2*%
%TO.N,Net-(R5-Pad2)*%
%TA.AperFunction,SMDPad,CuDef*%
G36*
G01*
X230630001Y-39075002D02*
X230630001Y-38175000D01*
G75*
G02*
X230880000Y-37925001I249999J0D01*
G01*
X231580002Y-37925001D01*
G75*
G02*
X231830001Y-38175000I0J-249999D01*
G01*
X231830001Y-39075002D01*
G75*
G02*
X231580002Y-39325001I-249999J0D01*
G01*
X230880000Y-39325001D01*
G75*
G02*
X230630001Y-39075002I0J249999D01*
G01*
G37*
%TD.AperFunction*%
%TD*%
%TO.P,R6,2*%
%TO.N,Net-(R6-Pad2)*%
%TA.AperFunction,SMDPad,CuDef*%
G36*
G01*
X203840001Y-68180002D02*
X203840001Y-67280000D01*
G75*
G02*
X204090000Y-67030001I249999J0D01*
G01*
X204790002Y-67030001D01*
G75*
G02*
X205040001Y-67280000I0J-249999D01*
G01*
X205040001Y-68180002D01*
G75*
G02*
X204790002Y-68430001I-249999J0D01*
G01*
X204090000Y-68430001D01*
G75*
G02*
X203840001Y-68180002I0J249999D01*
G01*
G37*
%TD.AperFunction*%
%TO.P,R6,1*%
%TO.N,Net-(D3-Pad1)*%
%TA.AperFunction,SMDPad,CuDef*%
G36*
G01*
X201840001Y-68180002D02*
X201840001Y-67280000D01*
G75*
G02*
X202090000Y-67030001I249999J0D01*
G01*
X202790002Y-67030001D01*
G75*
G02*
X203040001Y-67280000I0J-249999D01*
G01*
X203040001Y-68180002D01*
G75*
G02*
X202790002Y-68430001I-249999J0D01*
G01*
X202090000Y-68430001D01*
G75*
G02*
X201840001Y-68180002I0J249999D01*
G01*
G37*
%TD.AperFunction*%
%TD*%
%TO.P,R7,1*%
%TO.N,Net-(D4-Pad1)*%
%TA.AperFunction,SMDPad,CuDef*%
G36*
G01*
X233380001Y-33175002D02*
X233380001Y-32275000D01*
G75*
G02*
X233630000Y-32025001I249999J0D01*
G01*
X234330002Y-32025001D01*
G75*
G02*
X234580001Y-32275000I0J-249999D01*
G01*
X234580001Y-33175002D01*
G75*
G02*
X234330002Y-33425001I-249999J0D01*
G01*
X233630000Y-33425001D01*
G75*
G02*
X233380001Y-33175002I0J249999D01*
G01*
G37*
%TD.AperFunction*%
%TO.P,R7,2*%
%TO.N,Net-(R7-Pad2)*%
%TA.AperFunction,SMDPad,CuDef*%
G36*
G01*
X235380001Y-33175002D02*
X235380001Y-32275000D01*
G75*
G02*
X235630000Y-32025001I249999J0D01*
G01*
X236330002Y-32025001D01*
G75*
G02*
X236580001Y-32275000I0J-249999D01*
G01*
X236580001Y-33175002D01*
G75*
G02*
X236330002Y-33425001I-249999J0D01*
G01*
X235630000Y-33425001D01*
G75*
G02*
X235380001Y-33175002I0J249999D01*
G01*
G37*
%TD.AperFunction*%
%TD*%
%TO.P,R8,2*%
%TO.N,Net-(R8-Pad2)*%
%TA.AperFunction,SMDPad,CuDef*%
G36*
G01*
X205090001Y-65230002D02*
X205090001Y-64330000D01*
G75*
G02*
X205340000Y-64080001I249999J0D01*
G01*
X206040002Y-64080001D01*
G75*
G02*
X206290001Y-64330000I0J-249999D01*
G01*
X206290001Y-65230002D01*
G75*
G02*
X206040002Y-65480001I-249999J0D01*
G01*
X205340000Y-65480001D01*
G75*
G02*
X205090001Y-65230002I0J249999D01*
G01*
G37*
%TD.AperFunction*%
%TO.P,R8,1*%
%TO.N,Net-(D5-Pad1)*%
%TA.AperFunction,SMDPad,CuDef*%
G36*
G01*
X203090001Y-65230002D02*
X203090001Y-64330000D01*
G75*
G02*
X203340000Y-64080001I249999J0D01*
G01*
X204040002Y-64080001D01*
G75*
G02*
X204290001Y-64330000I0J-249999D01*
G01*
X204290001Y-65230002D01*
G75*
G02*
X204040002Y-65480001I-249999J0D01*
G01*
X203340000Y-65480001D01*
G75*
G02*
X203090001Y-65230002I0J249999D01*
G01*
G37*
%TD.AperFunction*%
%TD*%
%TO.P,R9,1*%
%TO.N,Net-(D6-Pad1)*%
%TA.AperFunction,SMDPad,CuDef*%
G36*
G01*
X207840001Y-59025002D02*
X207840001Y-58125000D01*
G75*
G02*
X208090000Y-57875001I249999J0D01*
G01*
X208790002Y-57875001D01*
G75*
G02*
X209040001Y-58125000I0J-249999D01*
G01*
X209040001Y-59025002D01*
G75*
G02*
X208790002Y-59275001I-249999J0D01*
G01*
X208090000Y-59275001D01*
G75*
G02*
X207840001Y-59025002I0J249999D01*
G01*
G37*
%TD.AperFunction*%
%TO.P,R9,2*%
%TO.N,Net-(R9-Pad2)*%
%TA.AperFunction,SMDPad,CuDef*%
G36*
G01*
X209840001Y-59025002D02*
X209840001Y-58125000D01*
G75*
G02*
X210090000Y-57875001I249999J0D01*
G01*
X210790002Y-57875001D01*
G75*
G02*
X211040001Y-58125000I0J-249999D01*
G01*
X211040001Y-59025002D01*
G75*
G02*
X210790002Y-59275001I-249999J0D01*
G01*
X210090000Y-59275001D01*
G75*
G02*
X209840001Y-59025002I0J249999D01*
G01*
G37*
%TD.AperFunction*%
%TD*%
%TO.P,R10,2*%
%TO.N,Net-(R10-Pad2)*%
%TA.AperFunction,SMDPad,CuDef*%
G36*
G01*
X223070001Y-47575002D02*
X223070001Y-46675000D01*
G75*
G02*
X223320000Y-46425001I249999J0D01*
G01*
X224020002Y-46425001D01*
G75*
G02*
X224270001Y-46675000I0J-249999D01*
G01*
X224270001Y-47575002D01*
G75*
G02*
X224020002Y-47825001I-249999J0D01*
G01*
X223320000Y-47825001D01*
G75*
G02*
X223070001Y-47575002I0J249999D01*
G01*
G37*
%TD.AperFunction*%
%TO.P,R10,1*%
%TO.N,Net-(D7-Pad1)*%
%TA.AperFunction,SMDPad,CuDef*%
G36*
G01*
X221070001Y-47575002D02*
X221070001Y-46675000D01*
G75*
G02*
X221320000Y-46425001I249999J0D01*
G01*
X222020002Y-46425001D01*
G75*
G02*
X222270001Y-46675000I0J-249999D01*
G01*
X222270001Y-47575002D01*
G75*
G02*
X222020002Y-47825001I-249999J0D01*
G01*
X221320000Y-47825001D01*
G75*
G02*
X221070001Y-47575002I0J249999D01*
G01*
G37*
%TD.AperFunction*%
%TD*%
%TO.P,R11,1*%
%TO.N,+5V*%
%TA.AperFunction,SMDPad,CuDef*%
G36*
G01*
X233380001Y-36125002D02*
X233380001Y-35225000D01*
G75*
G02*
X233630000Y-34975001I249999J0D01*
G01*
X234330002Y-34975001D01*
G75*
G02*
X234580001Y-35225000I0J-249999D01*
G01*
X234580001Y-36125002D01*
G75*
G02*
X234330002Y-36375001I-249999J0D01*
G01*
X233630000Y-36375001D01*
G75*
G02*
X233380001Y-36125002I0J249999D01*
G01*
G37*
%TD.AperFunction*%
%TO.P,R11,2*%
%TO.N,SDA2*%
%TA.AperFunction,SMDPad,CuDef*%
G36*
G01*
X235380001Y-36125002D02*
X235380001Y-35225000D01*
G75*
G02*
X235630000Y-34975001I249999J0D01*
G01*
X236330002Y-34975001D01*
G75*
G02*
X236580001Y-35225000I0J-249999D01*
G01*
X236580001Y-36125002D01*
G75*
G02*
X236330002Y-36375001I-249999J0D01*
G01*
X235630000Y-36375001D01*
G75*
G02*
X235380001Y-36125002I0J249999D01*
G01*
G37*
%TD.AperFunction*%
%TD*%
%TO.P,R12,2*%
%TO.N,SCL2*%
%TA.AperFunction,SMDPad,CuDef*%
G36*
G01*
X230630001Y-36125002D02*
X230630001Y-35225000D01*
G75*
G02*
X230880000Y-34975001I249999J0D01*
G01*
X231580002Y-34975001D01*
G75*
G02*
X231830001Y-35225000I0J-249999D01*
G01*
X231830001Y-36125002D01*
G75*
G02*
X231580002Y-36375001I-249999J0D01*
G01*
X230880000Y-36375001D01*
G75*
G02*
X230630001Y-36125002I0J249999D01*
G01*
G37*
%TD.AperFunction*%
%TO.P,R12,1*%
%TO.N,+5V*%
%TA.AperFunction,SMDPad,CuDef*%
G36*
G01*
X228630001Y-36125002D02*
X228630001Y-35225000D01*
G75*
G02*
X228880000Y-34975001I249999J0D01*
G01*
X229580002Y-34975001D01*
G75*
G02*
X229830001Y-35225000I0J-249999D01*
G01*
X229830001Y-36125002D01*
G75*
G02*
X229580002Y-36375001I-249999J0D01*
G01*
X228880000Y-36375001D01*
G75*
G02*
X228630001Y-36125002I0J249999D01*
G01*
G37*
%TD.AperFunction*%
%TD*%
%TO.P,R13,1*%
%TO.N,Net-(R13-Pad1)*%
%TA.AperFunction,SMDPad,CuDef*%
G36*
G01*
X219410001Y-50525002D02*
X219410001Y-49625000D01*
G75*
G02*
X219660000Y-49375001I249999J0D01*
G01*
X220360002Y-49375001D01*
G75*
G02*
X220610001Y-49625000I0J-249999D01*
G01*
X220610001Y-50525002D01*
G75*
G02*
X220360002Y-50775001I-249999J0D01*
G01*
X219660000Y-50775001D01*
G75*
G02*
X219410001Y-50525002I0J249999D01*
G01*
G37*
%TD.AperFunction*%
%TO.P,R13,2*%
%TO.N,GND*%
%TA.AperFunction,SMDPad,CuDef*%
G36*
G01*
X221410001Y-50525002D02*
X221410001Y-49625000D01*
G75*
G02*
X221660000Y-49375001I249999J0D01*
G01*
X222360002Y-49375001D01*
G75*
G02*
X222610001Y-49625000I0J-249999D01*
G01*
X222610001Y-50525002D01*
G75*
G02*
X222360002Y-50775001I-249999J0D01*
G01*
X221660000Y-50775001D01*
G75*
G02*
X221410001Y-50525002I0J249999D01*
G01*
G37*
%TD.AperFunction*%
%TD*%
%TO.P,R14,2*%
%TO.N,GND*%
%TA.AperFunction,SMDPad,CuDef*%
G36*
G01*
X226160001Y-50525002D02*
X226160001Y-49625000D01*
G75*
G02*
X226410000Y-49375001I249999J0D01*
G01*
X227110002Y-49375001D01*
G75*
G02*
X227360001Y-49625000I0J-249999D01*
G01*
X227360001Y-50525002D01*
G75*
G02*
X227110002Y-50775001I-249999J0D01*
G01*
X226410000Y-50775001D01*
G75*
G02*
X226160001Y-50525002I0J249999D01*
G01*
G37*
%TD.AperFunction*%
%TO.P,R14,1*%
%TO.N,Net-(R14-Pad1)*%
%TA.AperFunction,SMDPad,CuDef*%
G36*
G01*
X224160001Y-50525002D02*
X224160001Y-49625000D01*
G75*
G02*
X224410000Y-49375001I249999J0D01*
G01*
X225110002Y-49375001D01*
G75*
G02*
X225360001Y-49625000I0J-249999D01*
G01*
X225360001Y-50525002D01*
G75*
G02*
X225110002Y-50775001I-249999J0D01*
G01*
X224410000Y-50775001D01*
G75*
G02*
X224160001Y-50525002I0J249999D01*
G01*
G37*
%TD.AperFunction*%
%TD*%
%TO.P,R15,2*%
%TO.N,GND*%
%TA.AperFunction,SMDPad,CuDef*%
G36*
G01*
X203840001Y-74080002D02*
X203840001Y-73180000D01*
G75*
G02*
X204090000Y-72930001I249999J0D01*
G01*
X204790002Y-72930001D01*
G75*
G02*
X205040001Y-73180000I0J-249999D01*
G01*
X205040001Y-74080002D01*
G75*
G02*
X204790002Y-74330001I-249999J0D01*
G01*
X204090000Y-74330001D01*
G75*
G02*
X203840001Y-74080002I0J249999D01*
G01*
G37*
%TD.AperFunction*%
%TO.P,R15,1*%
%TO.N,Net-(JP1-Pad2)*%
%TA.AperFunction,SMDPad,CuDef*%
G36*
G01*
X201840001Y-74080002D02*
X201840001Y-73180000D01*
G75*
G02*
X202090000Y-72930001I249999J0D01*
G01*
X202790002Y-72930001D01*
G75*
G02*
X203040001Y-73180000I0J-249999D01*
G01*
X203040001Y-74080002D01*
G75*
G02*
X202790002Y-74330001I-249999J0D01*
G01*
X202090000Y-74330001D01*
G75*
G02*
X201840001Y-74080002I0J249999D01*
G01*
G37*
%TD.AperFunction*%
%TD*%
%TO.P,R16,1*%
%TO.N,Net-(D9-Pad1)*%
%TA.AperFunction,SMDPad,CuDef*%
G36*
G01*
X219610001Y-53475002D02*
X219610001Y-52575000D01*
G75*
G02*
X219860000Y-52325001I249999J0D01*
G01*
X220560002Y-52325001D01*
G75*
G02*
X220810001Y-52575000I0J-249999D01*
G01*
X220810001Y-53475002D01*
G75*
G02*
X220560002Y-53725001I-249999J0D01*
G01*
X219860000Y-53725001D01*
G75*
G02*
X219610001Y-53475002I0J249999D01*
G01*
G37*
%TD.AperFunction*%
%TO.P,R16,2*%
%TO.N,GND*%
%TA.AperFunction,SMDPad,CuDef*%
G36*
G01*
X221610001Y-53475002D02*
X221610001Y-52575000D01*
G75*
G02*
X221860000Y-52325001I249999J0D01*
G01*
X222560002Y-52325001D01*
G75*
G02*
X222810001Y-52575000I0J-249999D01*
G01*
X222810001Y-53475002D01*
G75*
G02*
X222560002Y-53725001I-249999J0D01*
G01*
X221860000Y-53725001D01*
G75*
G02*
X221610001Y-53475002I0J249999D01*
G01*
G37*
%TD.AperFunction*%
%TD*%
%TO.P,R17,2*%
%TO.N,GND*%
%TA.AperFunction,SMDPad,CuDef*%
G36*
G01*
X216860001Y-58375002D02*
X216860001Y-57475000D01*
G75*
G02*
X217110000Y-57225001I249999J0D01*
G01*
X217810002Y-57225001D01*
G75*
G02*
X218060001Y-57475000I0J-249999D01*
G01*
X218060001Y-58375002D01*
G75*
G02*
X217810002Y-58625001I-249999J0D01*
G01*
X217110000Y-58625001D01*
G75*
G02*
X216860001Y-58375002I0J249999D01*
G01*
G37*
%TD.AperFunction*%
%TO.P,R17,1*%
%TO.N,Net-(D10-Pad1)*%
%TA.AperFunction,SMDPad,CuDef*%
G36*
G01*
X214860001Y-58375002D02*
X214860001Y-57475000D01*
G75*
G02*
X215110000Y-57225001I249999J0D01*
G01*
X215810002Y-57225001D01*
G75*
G02*
X216060001Y-57475000I0J-249999D01*
G01*
X216060001Y-58375002D01*
G75*
G02*
X215810002Y-58625001I-249999J0D01*
G01*
X215110000Y-58625001D01*
G75*
G02*
X214860001Y-58375002I0J249999D01*
G01*
G37*
%TD.AperFunction*%
%TD*%
%TO.P,R18,2*%
%TO.N,GND*%
%TA.AperFunction,SMDPad,CuDef*%
G36*
G01*
X230630001Y-33175002D02*
X230630001Y-32275000D01*
G75*
G02*
X230880000Y-32025001I249999J0D01*
G01*
X231580002Y-32025001D01*
G75*
G02*
X231830001Y-32275000I0J-249999D01*
G01*
X231830001Y-33175002D01*
G75*
G02*
X231580002Y-33425001I-249999J0D01*
G01*
X230880000Y-33425001D01*
G75*
G02*
X230630001Y-33175002I0J249999D01*
G01*
G37*
%TD.AperFunction*%
%TO.P,R18,1*%
%TO.N,Net-(D11-Pad1)*%
%TA.AperFunction,SMDPad,CuDef*%
G36*
G01*
X228630001Y-33175002D02*
X228630001Y-32275000D01*
G75*
G02*
X228880000Y-32025001I249999J0D01*
G01*
X229580002Y-32025001D01*
G75*
G02*
X229830001Y-32275000I0J-249999D01*
G01*
X229830001Y-33175002D01*
G75*
G02*
X229580002Y-33425001I-249999J0D01*
G01*
X228880000Y-33425001D01*
G75*
G02*
X228630001Y-33175002I0J249999D01*
G01*
G37*
%TD.AperFunction*%
%TD*%
%TO.P,R19,1*%
%TO.N,Net-(D12-Pad1)*%
%TA.AperFunction,SMDPad,CuDef*%
G36*
G01*
X203090001Y-62280002D02*
X203090001Y-61380000D01*
G75*
G02*
X203340000Y-61130001I249999J0D01*
G01*
X204040002Y-61130001D01*
G75*
G02*
X204290001Y-61380000I0J-249999D01*
G01*
X204290001Y-62280002D01*
G75*
G02*
X204040002Y-62530001I-249999J0D01*
G01*
X203340000Y-62530001D01*
G75*
G02*
X203090001Y-62280002I0J249999D01*
G01*
G37*
%TD.AperFunction*%
%TO.P,R19,2*%
%TO.N,GND*%
%TA.AperFunction,SMDPad,CuDef*%
G36*
G01*
X205090001Y-62280002D02*
X205090001Y-61380000D01*
G75*
G02*
X205340000Y-61130001I249999J0D01*
G01*
X206040002Y-61130001D01*
G75*
G02*
X206290001Y-61380000I0J-249999D01*
G01*
X206290001Y-62280002D01*
G75*
G02*
X206040002Y-62530001I-249999J0D01*
G01*
X205340000Y-62530001D01*
G75*
G02*
X205090001Y-62280002I0J249999D01*
G01*
G37*
%TD.AperFunction*%
%TD*%
%TO.P,R20,2*%
%TO.N,GND*%
%TA.AperFunction,SMDPad,CuDef*%
G36*
G01*
X235380001Y-39075002D02*
X235380001Y-38175000D01*
G75*
G02*
X235630000Y-37925001I249999J0D01*
G01*
X236330002Y-37925001D01*
G75*
G02*
X236580001Y-38175000I0J-249999D01*
G01*
X236580001Y-39075002D01*
G75*
G02*
X236330002Y-39325001I-249999J0D01*
G01*
X235630000Y-39325001D01*
G75*
G02*
X235380001Y-39075002I0J249999D01*
G01*
G37*
%TD.AperFunction*%
%TO.P,R20,1*%
%TO.N,Net-(D13-Pad1)*%
%TA.AperFunction,SMDPad,CuDef*%
G36*
G01*
X233380001Y-39075002D02*
X233380001Y-38175000D01*
G75*
G02*
X233630000Y-37925001I249999J0D01*
G01*
X234330002Y-37925001D01*
G75*
G02*
X234580001Y-38175000I0J-249999D01*
G01*
X234580001Y-39075002D01*
G75*
G02*
X234330002Y-39325001I-249999J0D01*
G01*
X233630000Y-39325001D01*
G75*
G02*
X233380001Y-39075002I0J249999D01*
G01*
G37*
%TD.AperFunction*%
%TD*%
%TO.P,R21,1*%
%TO.N,Net-(D14-Pad1)*%
%TA.AperFunction,SMDPad,CuDef*%
G36*
G01*
X207840001Y-64925002D02*
X207840001Y-64025000D01*
G75*
G02*
X208090000Y-63775001I249999J0D01*
G01*
X208790002Y-63775001D01*
G75*
G02*
X209040001Y-64025000I0J-249999D01*
G01*
X209040001Y-64925002D01*
G75*
G02*
X208790002Y-65175001I-249999J0D01*
G01*
X208090000Y-65175001D01*
G75*
G02*
X207840001Y-64925002I0J249999D01*
G01*
G37*
%TD.AperFunction*%
%TO.P,R21,2*%
%TO.N,GND*%
%TA.AperFunction,SMDPad,CuDef*%
G36*
G01*
X209840001Y-64925002D02*
X209840001Y-64025000D01*
G75*
G02*
X210090000Y-63775001I249999J0D01*
G01*
X210790002Y-63775001D01*
G75*
G02*
X211040001Y-64025000I0J-249999D01*
G01*
X211040001Y-64925002D01*
G75*
G02*
X210790002Y-65175001I-249999J0D01*
G01*
X210090000Y-65175001D01*
G75*
G02*
X209840001Y-64925002I0J249999D01*
G01*
G37*
%TD.AperFunction*%
%TD*%
%TO.P,R22,1*%
%TO.N,Net-(D15-Pad1)*%
%TA.AperFunction,SMDPad,CuDef*%
G36*
G01*
X225820001Y-47575002D02*
X225820001Y-46675000D01*
G75*
G02*
X226070000Y-46425001I249999J0D01*
G01*
X226770002Y-46425001D01*
G75*
G02*
X227020001Y-46675000I0J-249999D01*
G01*
X227020001Y-47575002D01*
G75*
G02*
X226770002Y-47825001I-249999J0D01*
G01*
X226070000Y-47825001D01*
G75*
G02*
X225820001Y-47575002I0J249999D01*
G01*
G37*
%TD.AperFunction*%
%TO.P,R22,2*%
%TO.N,GND*%
%TA.AperFunction,SMDPad,CuDef*%
G36*
G01*
X227820001Y-47575002D02*
X227820001Y-46675000D01*
G75*
G02*
X228070000Y-46425001I249999J0D01*
G01*
X228770002Y-46425001D01*
G75*
G02*
X229020001Y-46675000I0J-249999D01*
G01*
X229020001Y-47575002D01*
G75*
G02*
X228770002Y-47825001I-249999J0D01*
G01*
X228070000Y-47825001D01*
G75*
G02*
X227820001Y-47575002I0J249999D01*
G01*
G37*
%TD.AperFunction*%
%TD*%
%TO.P,R23,1*%
%TO.N,Net-(D16-Pad1)*%
%TA.AperFunction,SMDPad,CuDef*%
G36*
G01*
X201840001Y-71130002D02*
X201840001Y-70230000D01*
G75*
G02*
X202090000Y-69980001I249999J0D01*
G01*
X202790002Y-69980001D01*
G75*
G02*
X203040001Y-70230000I0J-249999D01*
G01*
X203040001Y-71130002D01*
G75*
G02*
X202790002Y-71380001I-249999J0D01*
G01*
X202090000Y-71380001D01*
G75*
G02*
X201840001Y-71130002I0J249999D01*
G01*
G37*
%TD.AperFunction*%
%TO.P,R23,2*%
%TO.N,GND*%
%TA.AperFunction,SMDPad,CuDef*%
G36*
G01*
X203840001Y-71130002D02*
X203840001Y-70230000D01*
G75*
G02*
X204090000Y-69980001I249999J0D01*
G01*
X204790002Y-69980001D01*
G75*
G02*
X205040001Y-70230000I0J-249999D01*
G01*
X205040001Y-71130002D01*
G75*
G02*
X204790002Y-71380001I-249999J0D01*
G01*
X204090000Y-71380001D01*
G75*
G02*
X203840001Y-71130002I0J249999D01*
G01*
G37*
%TD.AperFunction*%
%TD*%
D13*
%TO.P,SW1,1*%
%TO.N,GND*%
X119550001Y-44290001D03*
D14*
%TO.P,SW1,7*%
%TO.N,Net-(R10-Pad2)*%
X127170001Y-56990001D03*
%TO.P,SW1,2*%
%TO.N,GND*%
X119550001Y-46830001D03*
%TO.P,SW1,8*%
%TO.N,Net-(R9-Pad2)*%
X127170001Y-54450001D03*
%TO.P,SW1,3*%
%TO.N,GND*%
X119550001Y-49370001D03*
%TO.P,SW1,9*%
%TO.N,Net-(R8-Pad2)*%
X127170001Y-51910001D03*
%TO.P,SW1,4*%
%TO.N,GND*%
X119550001Y-51910001D03*
%TO.P,SW1,10*%
%TO.N,Net-(R7-Pad2)*%
X127170001Y-49370001D03*
%TO.P,SW1,5*%
%TO.N,GND*%
X119550001Y-54450001D03*
%TO.P,SW1,11*%
%TO.N,Net-(R6-Pad2)*%
X127170001Y-46830001D03*
%TO.P,SW1,6*%
%TO.N,GND*%
X119550001Y-56990001D03*
%TO.P,SW1,12*%
%TO.N,Net-(R5-Pad2)*%
X127170001Y-44290001D03*
%TD*%
D15*
%TO.P,SW2,2*%
%TO.N,Net-(R13-Pad1)*%
X144055001Y-59420001D03*
%TO.P,SW2,1*%
%TO.N,+5V*%
X144055001Y-54920001D03*
%TO.P,SW2,2*%
%TO.N,Net-(R13-Pad1)*%
X150555001Y-59420001D03*
%TO.P,SW2,1*%
%TO.N,+5V*%
X150555001Y-54920001D03*
%TD*%
%TO.P,SW3,1*%
%TO.N,+5V*%
X162225001Y-47070001D03*
%TO.P,SW3,2*%
%TO.N,Net-(R14-Pad1)*%
X162225001Y-51570001D03*
%TO.P,SW3,1*%
%TO.N,+5V*%
X155725001Y-47070001D03*
%TO.P,SW3,2*%
%TO.N,Net-(R14-Pad1)*%
X155725001Y-51570001D03*
%TD*%
D16*
%TO.P,U1,28*%
%TO.N,RB7*%
X118970001Y-31505001D03*
%TO.P,U1,1*%
%TO.N,Net-(D8-Pad1)*%
X118970001Y-38905001D03*
%TO.P,U1,27*%
%TO.N,RB6*%
X120240001Y-31505001D03*
%TO.P,U1,2*%
%TO.N,Net-(D9-Pad2)*%
X120240001Y-38905001D03*
%TO.P,U1,26*%
%TO.N,Net-(R10-Pad2)*%
X121510001Y-31505001D03*
%TO.P,U1,3*%
%TO.N,Net-(D10-Pad2)*%
X121510001Y-38905001D03*
%TO.P,U1,25*%
%TO.N,Net-(R9-Pad2)*%
X122780001Y-31505001D03*
%TO.P,U1,4*%
%TO.N,Net-(D11-Pad2)*%
X122780001Y-38905001D03*
%TO.P,U1,24*%
%TO.N,Net-(R8-Pad2)*%
X124050001Y-31505001D03*
%TO.P,U1,5*%
%TO.N,Net-(D12-Pad2)*%
X124050001Y-38905001D03*
%TO.P,U1,23*%
%TO.N,Net-(R7-Pad2)*%
X125320001Y-31505001D03*
%TO.P,U1,6*%
%TO.N,Net-(D13-Pad2)*%
X125320001Y-38905001D03*
%TO.P,U1,22*%
%TO.N,Net-(R6-Pad2)*%
X126590001Y-31505001D03*
%TO.P,U1,7*%
%TO.N,Net-(D14-Pad2)*%
X126590001Y-38905001D03*
%TO.P,U1,21*%
%TO.N,Net-(R5-Pad2)*%
X127860001Y-31505001D03*
%TO.P,U1,8*%
%TO.N,GND*%
X127860001Y-38905001D03*
%TO.P,U1,20*%
%TO.N,+5V*%
X129130001Y-31505001D03*
%TO.P,U1,9*%
%TO.N,Net-(D16-Pad2)*%
X129130001Y-38905001D03*
%TO.P,U1,19*%
%TO.N,GND*%
X130400001Y-31505001D03*
%TO.P,U1,10*%
%TO.N,Net-(D15-Pad2)*%
X130400001Y-38905001D03*
%TO.P,U1,18*%
%TO.N,Net-(U1-Pad18)*%
X131670001Y-31505001D03*
%TO.P,U1,11*%
%TO.N,Net-(J2-Pad2)*%
X131670001Y-38905001D03*
%TO.P,U1,17*%
%TO.N,Net-(JP1-Pad2)*%
X132940001Y-31505001D03*
%TO.P,U1,12*%
%TO.N,Net-(J2-Pad3)*%
X132940001Y-38905001D03*
%TO.P,U1,16*%
%TO.N,Net-(R14-Pad1)*%
X134210001Y-31505001D03*
%TO.P,U1,13*%
%TO.N,SDA2*%
X134210001Y-38905001D03*
%TO.P,U1,15*%
%TO.N,Net-(R13-Pad1)*%
X135480001Y-31505001D03*
%TO.P,U1,14*%
%TO.N,SCL2*%
X135480001Y-38905001D03*
%TD*%
M02*
