G04 #@! TF.GenerationSoftware,KiCad,Pcbnew,(5.1.9)-1*
G04 #@! TF.CreationDate,2022-03-14T10:23:35-06:00*
G04 #@! TF.ProjectId,SensorBoard,53656e73-6f72-4426-9f61-72642e6b6963,rev?*
G04 #@! TF.SameCoordinates,Original*
G04 #@! TF.FileFunction,Legend,Top*
G04 #@! TF.FilePolarity,Positive*
%FSLAX46Y46*%
G04 Gerber Fmt 4.6, Leading zero omitted, Abs format (unit mm)*
G04 Created by KiCad (PCBNEW (5.1.9)-1) date 2022-03-14 10:23:35*
%MOMM*%
%LPD*%
G01*
G04 APERTURE LIST*
%ADD10C,0.120000*%
%ADD11C,0.152400*%
%ADD12C,0.150000*%
%ADD13C,0.381000*%
%ADD14C,0.177800*%
%ADD15C,0.279400*%
%ADD16C,0.254000*%
%ADD17C,0.203200*%
%ADD18C,0.100000*%
G04 APERTURE END LIST*
D10*
X137922000Y-96774000D02*
G75*
G03*
X137922000Y-96774000I-762000J0D01*
G01*
D11*
X139101285Y-130586238D02*
X139246428Y-130634619D01*
X139488333Y-130634619D01*
X139585095Y-130586238D01*
X139633476Y-130537857D01*
X139681857Y-130441095D01*
X139681857Y-130344333D01*
X139633476Y-130247571D01*
X139585095Y-130199190D01*
X139488333Y-130150809D01*
X139294809Y-130102428D01*
X139198047Y-130054047D01*
X139149666Y-130005666D01*
X139101285Y-129908904D01*
X139101285Y-129812142D01*
X139149666Y-129715380D01*
X139198047Y-129667000D01*
X139294809Y-129618619D01*
X139536714Y-129618619D01*
X139681857Y-129667000D01*
X140117285Y-130634619D02*
X140117285Y-129618619D01*
X140359190Y-129618619D01*
X140504333Y-129667000D01*
X140601095Y-129763761D01*
X140649476Y-129860523D01*
X140697857Y-130054047D01*
X140697857Y-130199190D01*
X140649476Y-130392714D01*
X140601095Y-130489476D01*
X140504333Y-130586238D01*
X140359190Y-130634619D01*
X140117285Y-130634619D01*
X141084904Y-130344333D02*
X141568714Y-130344333D01*
X140988142Y-130634619D02*
X141326809Y-129618619D01*
X141665476Y-130634619D01*
D10*
X106172000Y-118364000D02*
X103124000Y-118364000D01*
X117856000Y-119888000D02*
X117856000Y-118364000D01*
X106172000Y-119888000D02*
X117856000Y-119888000D01*
X106172000Y-117348000D02*
X106172000Y-119888000D01*
X117856000Y-117348000D02*
X106172000Y-117348000D01*
X117856000Y-118364000D02*
X117856000Y-117348000D01*
X120904000Y-118364000D02*
X117856000Y-118364000D01*
X114300000Y-121158000D02*
X114300000Y-123952000D01*
X114046000Y-121158000D02*
X114300000Y-121158000D01*
X101092000Y-121158000D02*
X114046000Y-121158000D01*
X101092000Y-123952000D02*
X101092000Y-121158000D01*
X101092000Y-142240000D02*
X179578000Y-142240000D01*
X179578000Y-123952000D02*
X179578000Y-142240000D01*
X156210000Y-123952000D02*
X179578000Y-123952000D01*
X156210000Y-116586000D02*
X156210000Y-123952000D01*
X124714000Y-116586000D02*
X156210000Y-116586000D01*
X124714000Y-123952000D02*
X124714000Y-116586000D01*
X101092000Y-123952000D02*
X124714000Y-123952000D01*
X101092000Y-142240000D02*
X101092000Y-123952000D01*
D12*
X170624523Y-127087380D02*
X170148333Y-127087380D01*
X170100714Y-127563571D01*
X170148333Y-127515952D01*
X170243571Y-127468333D01*
X170481666Y-127468333D01*
X170576904Y-127515952D01*
X170624523Y-127563571D01*
X170672142Y-127658809D01*
X170672142Y-127896904D01*
X170624523Y-127992142D01*
X170576904Y-128039761D01*
X170481666Y-128087380D01*
X170243571Y-128087380D01*
X170148333Y-128039761D01*
X170100714Y-127992142D01*
X170957857Y-127087380D02*
X171291190Y-128087380D01*
X171624523Y-127087380D01*
X170029285Y-140787380D02*
X170029285Y-139787380D01*
X170600714Y-140787380D01*
X170600714Y-139787380D01*
X171648333Y-140692142D02*
X171600714Y-140739761D01*
X171457857Y-140787380D01*
X171362619Y-140787380D01*
X171219761Y-140739761D01*
X171124523Y-140644523D01*
X171076904Y-140549285D01*
X171029285Y-140358809D01*
X171029285Y-140215952D01*
X171076904Y-140025476D01*
X171124523Y-139930238D01*
X171219761Y-139835000D01*
X171362619Y-139787380D01*
X171457857Y-139787380D01*
X171600714Y-139835000D01*
X171648333Y-139882619D01*
X170053095Y-137295000D02*
X169957857Y-137247380D01*
X169815000Y-137247380D01*
X169672142Y-137295000D01*
X169576904Y-137390238D01*
X169529285Y-137485476D01*
X169481666Y-137675952D01*
X169481666Y-137818809D01*
X169529285Y-138009285D01*
X169576904Y-138104523D01*
X169672142Y-138199761D01*
X169815000Y-138247380D01*
X169910238Y-138247380D01*
X170053095Y-138199761D01*
X170100714Y-138152142D01*
X170100714Y-137818809D01*
X169910238Y-137818809D01*
X170529285Y-138247380D02*
X170529285Y-137247380D01*
X171100714Y-138247380D01*
X171100714Y-137247380D01*
X171576904Y-138247380D02*
X171576904Y-137247380D01*
X171815000Y-137247380D01*
X171957857Y-137295000D01*
X172053095Y-137390238D01*
X172100714Y-137485476D01*
X172148333Y-137675952D01*
X172148333Y-137818809D01*
X172100714Y-138009285D01*
X172053095Y-138104523D01*
X171957857Y-138199761D01*
X171815000Y-138247380D01*
X171576904Y-138247380D01*
X170053095Y-134755000D02*
X169957857Y-134707380D01*
X169815000Y-134707380D01*
X169672142Y-134755000D01*
X169576904Y-134850238D01*
X169529285Y-134945476D01*
X169481666Y-135135952D01*
X169481666Y-135278809D01*
X169529285Y-135469285D01*
X169576904Y-135564523D01*
X169672142Y-135659761D01*
X169815000Y-135707380D01*
X169910238Y-135707380D01*
X170053095Y-135659761D01*
X170100714Y-135612142D01*
X170100714Y-135278809D01*
X169910238Y-135278809D01*
X170529285Y-135707380D02*
X170529285Y-134707380D01*
X171100714Y-135707380D01*
X171100714Y-134707380D01*
X171576904Y-135707380D02*
X171576904Y-134707380D01*
X171815000Y-134707380D01*
X171957857Y-134755000D01*
X172053095Y-134850238D01*
X172100714Y-134945476D01*
X172148333Y-135135952D01*
X172148333Y-135278809D01*
X172100714Y-135469285D01*
X172053095Y-135564523D01*
X171957857Y-135659761D01*
X171815000Y-135707380D01*
X171576904Y-135707380D01*
D11*
X169581285Y-130586238D02*
X169726428Y-130634619D01*
X169968333Y-130634619D01*
X170065095Y-130586238D01*
X170113476Y-130537857D01*
X170161857Y-130441095D01*
X170161857Y-130344333D01*
X170113476Y-130247571D01*
X170065095Y-130199190D01*
X169968333Y-130150809D01*
X169774809Y-130102428D01*
X169678047Y-130054047D01*
X169629666Y-130005666D01*
X169581285Y-129908904D01*
X169581285Y-129812142D01*
X169629666Y-129715380D01*
X169678047Y-129667000D01*
X169774809Y-129618619D01*
X170016714Y-129618619D01*
X170161857Y-129667000D01*
X170597285Y-130634619D02*
X170597285Y-129618619D01*
X170839190Y-129618619D01*
X170984333Y-129667000D01*
X171081095Y-129763761D01*
X171129476Y-129860523D01*
X171177857Y-130054047D01*
X171177857Y-130199190D01*
X171129476Y-130392714D01*
X171081095Y-130489476D01*
X170984333Y-130586238D01*
X170839190Y-130634619D01*
X170597285Y-130634619D01*
X171564904Y-130344333D02*
X172048714Y-130344333D01*
X171468142Y-130634619D02*
X171806809Y-129618619D01*
X172145476Y-130634619D01*
X169605476Y-133126238D02*
X169750619Y-133174619D01*
X169992523Y-133174619D01*
X170089285Y-133126238D01*
X170137666Y-133077857D01*
X170186047Y-132981095D01*
X170186047Y-132884333D01*
X170137666Y-132787571D01*
X170089285Y-132739190D01*
X169992523Y-132690809D01*
X169799000Y-132642428D01*
X169702238Y-132594047D01*
X169653857Y-132545666D01*
X169605476Y-132448904D01*
X169605476Y-132352142D01*
X169653857Y-132255380D01*
X169702238Y-132207000D01*
X169799000Y-132158619D01*
X170040904Y-132158619D01*
X170186047Y-132207000D01*
X171202047Y-133077857D02*
X171153666Y-133126238D01*
X171008523Y-133174619D01*
X170911761Y-133174619D01*
X170766619Y-133126238D01*
X170669857Y-133029476D01*
X170621476Y-132932714D01*
X170573095Y-132739190D01*
X170573095Y-132594047D01*
X170621476Y-132400523D01*
X170669857Y-132303761D01*
X170766619Y-132207000D01*
X170911761Y-132158619D01*
X171008523Y-132158619D01*
X171153666Y-132207000D01*
X171202047Y-132255380D01*
X172121285Y-133174619D02*
X171637476Y-133174619D01*
X171637476Y-132158619D01*
D12*
X160464523Y-127087380D02*
X159988333Y-127087380D01*
X159940714Y-127563571D01*
X159988333Y-127515952D01*
X160083571Y-127468333D01*
X160321666Y-127468333D01*
X160416904Y-127515952D01*
X160464523Y-127563571D01*
X160512142Y-127658809D01*
X160512142Y-127896904D01*
X160464523Y-127992142D01*
X160416904Y-128039761D01*
X160321666Y-128087380D01*
X160083571Y-128087380D01*
X159988333Y-128039761D01*
X159940714Y-127992142D01*
X160797857Y-127087380D02*
X161131190Y-128087380D01*
X161464523Y-127087380D01*
X159869285Y-140787380D02*
X159869285Y-139787380D01*
X160440714Y-140787380D01*
X160440714Y-139787380D01*
X161488333Y-140692142D02*
X161440714Y-140739761D01*
X161297857Y-140787380D01*
X161202619Y-140787380D01*
X161059761Y-140739761D01*
X160964523Y-140644523D01*
X160916904Y-140549285D01*
X160869285Y-140358809D01*
X160869285Y-140215952D01*
X160916904Y-140025476D01*
X160964523Y-139930238D01*
X161059761Y-139835000D01*
X161202619Y-139787380D01*
X161297857Y-139787380D01*
X161440714Y-139835000D01*
X161488333Y-139882619D01*
X159893095Y-137295000D02*
X159797857Y-137247380D01*
X159655000Y-137247380D01*
X159512142Y-137295000D01*
X159416904Y-137390238D01*
X159369285Y-137485476D01*
X159321666Y-137675952D01*
X159321666Y-137818809D01*
X159369285Y-138009285D01*
X159416904Y-138104523D01*
X159512142Y-138199761D01*
X159655000Y-138247380D01*
X159750238Y-138247380D01*
X159893095Y-138199761D01*
X159940714Y-138152142D01*
X159940714Y-137818809D01*
X159750238Y-137818809D01*
X160369285Y-138247380D02*
X160369285Y-137247380D01*
X160940714Y-138247380D01*
X160940714Y-137247380D01*
X161416904Y-138247380D02*
X161416904Y-137247380D01*
X161655000Y-137247380D01*
X161797857Y-137295000D01*
X161893095Y-137390238D01*
X161940714Y-137485476D01*
X161988333Y-137675952D01*
X161988333Y-137818809D01*
X161940714Y-138009285D01*
X161893095Y-138104523D01*
X161797857Y-138199761D01*
X161655000Y-138247380D01*
X161416904Y-138247380D01*
X159893095Y-134755000D02*
X159797857Y-134707380D01*
X159655000Y-134707380D01*
X159512142Y-134755000D01*
X159416904Y-134850238D01*
X159369285Y-134945476D01*
X159321666Y-135135952D01*
X159321666Y-135278809D01*
X159369285Y-135469285D01*
X159416904Y-135564523D01*
X159512142Y-135659761D01*
X159655000Y-135707380D01*
X159750238Y-135707380D01*
X159893095Y-135659761D01*
X159940714Y-135612142D01*
X159940714Y-135278809D01*
X159750238Y-135278809D01*
X160369285Y-135707380D02*
X160369285Y-134707380D01*
X160940714Y-135707380D01*
X160940714Y-134707380D01*
X161416904Y-135707380D02*
X161416904Y-134707380D01*
X161655000Y-134707380D01*
X161797857Y-134755000D01*
X161893095Y-134850238D01*
X161940714Y-134945476D01*
X161988333Y-135135952D01*
X161988333Y-135278809D01*
X161940714Y-135469285D01*
X161893095Y-135564523D01*
X161797857Y-135659761D01*
X161655000Y-135707380D01*
X161416904Y-135707380D01*
D11*
X159421285Y-130586238D02*
X159566428Y-130634619D01*
X159808333Y-130634619D01*
X159905095Y-130586238D01*
X159953476Y-130537857D01*
X160001857Y-130441095D01*
X160001857Y-130344333D01*
X159953476Y-130247571D01*
X159905095Y-130199190D01*
X159808333Y-130150809D01*
X159614809Y-130102428D01*
X159518047Y-130054047D01*
X159469666Y-130005666D01*
X159421285Y-129908904D01*
X159421285Y-129812142D01*
X159469666Y-129715380D01*
X159518047Y-129667000D01*
X159614809Y-129618619D01*
X159856714Y-129618619D01*
X160001857Y-129667000D01*
X160437285Y-130634619D02*
X160437285Y-129618619D01*
X160679190Y-129618619D01*
X160824333Y-129667000D01*
X160921095Y-129763761D01*
X160969476Y-129860523D01*
X161017857Y-130054047D01*
X161017857Y-130199190D01*
X160969476Y-130392714D01*
X160921095Y-130489476D01*
X160824333Y-130586238D01*
X160679190Y-130634619D01*
X160437285Y-130634619D01*
X161404904Y-130344333D02*
X161888714Y-130344333D01*
X161308142Y-130634619D02*
X161646809Y-129618619D01*
X161985476Y-130634619D01*
X159445476Y-133126238D02*
X159590619Y-133174619D01*
X159832523Y-133174619D01*
X159929285Y-133126238D01*
X159977666Y-133077857D01*
X160026047Y-132981095D01*
X160026047Y-132884333D01*
X159977666Y-132787571D01*
X159929285Y-132739190D01*
X159832523Y-132690809D01*
X159639000Y-132642428D01*
X159542238Y-132594047D01*
X159493857Y-132545666D01*
X159445476Y-132448904D01*
X159445476Y-132352142D01*
X159493857Y-132255380D01*
X159542238Y-132207000D01*
X159639000Y-132158619D01*
X159880904Y-132158619D01*
X160026047Y-132207000D01*
X161042047Y-133077857D02*
X160993666Y-133126238D01*
X160848523Y-133174619D01*
X160751761Y-133174619D01*
X160606619Y-133126238D01*
X160509857Y-133029476D01*
X160461476Y-132932714D01*
X160413095Y-132739190D01*
X160413095Y-132594047D01*
X160461476Y-132400523D01*
X160509857Y-132303761D01*
X160606619Y-132207000D01*
X160751761Y-132158619D01*
X160848523Y-132158619D01*
X160993666Y-132207000D01*
X161042047Y-132255380D01*
X161961285Y-133174619D02*
X161477476Y-133174619D01*
X161477476Y-132158619D01*
D12*
X150304523Y-127087380D02*
X149828333Y-127087380D01*
X149780714Y-127563571D01*
X149828333Y-127515952D01*
X149923571Y-127468333D01*
X150161666Y-127468333D01*
X150256904Y-127515952D01*
X150304523Y-127563571D01*
X150352142Y-127658809D01*
X150352142Y-127896904D01*
X150304523Y-127992142D01*
X150256904Y-128039761D01*
X150161666Y-128087380D01*
X149923571Y-128087380D01*
X149828333Y-128039761D01*
X149780714Y-127992142D01*
X150637857Y-127087380D02*
X150971190Y-128087380D01*
X151304523Y-127087380D01*
X149709285Y-140787380D02*
X149709285Y-139787380D01*
X150280714Y-140787380D01*
X150280714Y-139787380D01*
X151328333Y-140692142D02*
X151280714Y-140739761D01*
X151137857Y-140787380D01*
X151042619Y-140787380D01*
X150899761Y-140739761D01*
X150804523Y-140644523D01*
X150756904Y-140549285D01*
X150709285Y-140358809D01*
X150709285Y-140215952D01*
X150756904Y-140025476D01*
X150804523Y-139930238D01*
X150899761Y-139835000D01*
X151042619Y-139787380D01*
X151137857Y-139787380D01*
X151280714Y-139835000D01*
X151328333Y-139882619D01*
X149733095Y-137295000D02*
X149637857Y-137247380D01*
X149495000Y-137247380D01*
X149352142Y-137295000D01*
X149256904Y-137390238D01*
X149209285Y-137485476D01*
X149161666Y-137675952D01*
X149161666Y-137818809D01*
X149209285Y-138009285D01*
X149256904Y-138104523D01*
X149352142Y-138199761D01*
X149495000Y-138247380D01*
X149590238Y-138247380D01*
X149733095Y-138199761D01*
X149780714Y-138152142D01*
X149780714Y-137818809D01*
X149590238Y-137818809D01*
X150209285Y-138247380D02*
X150209285Y-137247380D01*
X150780714Y-138247380D01*
X150780714Y-137247380D01*
X151256904Y-138247380D02*
X151256904Y-137247380D01*
X151495000Y-137247380D01*
X151637857Y-137295000D01*
X151733095Y-137390238D01*
X151780714Y-137485476D01*
X151828333Y-137675952D01*
X151828333Y-137818809D01*
X151780714Y-138009285D01*
X151733095Y-138104523D01*
X151637857Y-138199761D01*
X151495000Y-138247380D01*
X151256904Y-138247380D01*
X149733095Y-134755000D02*
X149637857Y-134707380D01*
X149495000Y-134707380D01*
X149352142Y-134755000D01*
X149256904Y-134850238D01*
X149209285Y-134945476D01*
X149161666Y-135135952D01*
X149161666Y-135278809D01*
X149209285Y-135469285D01*
X149256904Y-135564523D01*
X149352142Y-135659761D01*
X149495000Y-135707380D01*
X149590238Y-135707380D01*
X149733095Y-135659761D01*
X149780714Y-135612142D01*
X149780714Y-135278809D01*
X149590238Y-135278809D01*
X150209285Y-135707380D02*
X150209285Y-134707380D01*
X150780714Y-135707380D01*
X150780714Y-134707380D01*
X151256904Y-135707380D02*
X151256904Y-134707380D01*
X151495000Y-134707380D01*
X151637857Y-134755000D01*
X151733095Y-134850238D01*
X151780714Y-134945476D01*
X151828333Y-135135952D01*
X151828333Y-135278809D01*
X151780714Y-135469285D01*
X151733095Y-135564523D01*
X151637857Y-135659761D01*
X151495000Y-135707380D01*
X151256904Y-135707380D01*
D11*
X149261285Y-130586238D02*
X149406428Y-130634619D01*
X149648333Y-130634619D01*
X149745095Y-130586238D01*
X149793476Y-130537857D01*
X149841857Y-130441095D01*
X149841857Y-130344333D01*
X149793476Y-130247571D01*
X149745095Y-130199190D01*
X149648333Y-130150809D01*
X149454809Y-130102428D01*
X149358047Y-130054047D01*
X149309666Y-130005666D01*
X149261285Y-129908904D01*
X149261285Y-129812142D01*
X149309666Y-129715380D01*
X149358047Y-129667000D01*
X149454809Y-129618619D01*
X149696714Y-129618619D01*
X149841857Y-129667000D01*
X150277285Y-130634619D02*
X150277285Y-129618619D01*
X150519190Y-129618619D01*
X150664333Y-129667000D01*
X150761095Y-129763761D01*
X150809476Y-129860523D01*
X150857857Y-130054047D01*
X150857857Y-130199190D01*
X150809476Y-130392714D01*
X150761095Y-130489476D01*
X150664333Y-130586238D01*
X150519190Y-130634619D01*
X150277285Y-130634619D01*
X151244904Y-130344333D02*
X151728714Y-130344333D01*
X151148142Y-130634619D02*
X151486809Y-129618619D01*
X151825476Y-130634619D01*
X149285476Y-133126238D02*
X149430619Y-133174619D01*
X149672523Y-133174619D01*
X149769285Y-133126238D01*
X149817666Y-133077857D01*
X149866047Y-132981095D01*
X149866047Y-132884333D01*
X149817666Y-132787571D01*
X149769285Y-132739190D01*
X149672523Y-132690809D01*
X149479000Y-132642428D01*
X149382238Y-132594047D01*
X149333857Y-132545666D01*
X149285476Y-132448904D01*
X149285476Y-132352142D01*
X149333857Y-132255380D01*
X149382238Y-132207000D01*
X149479000Y-132158619D01*
X149720904Y-132158619D01*
X149866047Y-132207000D01*
X150882047Y-133077857D02*
X150833666Y-133126238D01*
X150688523Y-133174619D01*
X150591761Y-133174619D01*
X150446619Y-133126238D01*
X150349857Y-133029476D01*
X150301476Y-132932714D01*
X150253095Y-132739190D01*
X150253095Y-132594047D01*
X150301476Y-132400523D01*
X150349857Y-132303761D01*
X150446619Y-132207000D01*
X150591761Y-132158619D01*
X150688523Y-132158619D01*
X150833666Y-132207000D01*
X150882047Y-132255380D01*
X151801285Y-133174619D02*
X151317476Y-133174619D01*
X151317476Y-132158619D01*
D12*
X140144523Y-127087380D02*
X139668333Y-127087380D01*
X139620714Y-127563571D01*
X139668333Y-127515952D01*
X139763571Y-127468333D01*
X140001666Y-127468333D01*
X140096904Y-127515952D01*
X140144523Y-127563571D01*
X140192142Y-127658809D01*
X140192142Y-127896904D01*
X140144523Y-127992142D01*
X140096904Y-128039761D01*
X140001666Y-128087380D01*
X139763571Y-128087380D01*
X139668333Y-128039761D01*
X139620714Y-127992142D01*
X140477857Y-127087380D02*
X140811190Y-128087380D01*
X141144523Y-127087380D01*
X139549285Y-140787380D02*
X139549285Y-139787380D01*
X140120714Y-140787380D01*
X140120714Y-139787380D01*
X141168333Y-140692142D02*
X141120714Y-140739761D01*
X140977857Y-140787380D01*
X140882619Y-140787380D01*
X140739761Y-140739761D01*
X140644523Y-140644523D01*
X140596904Y-140549285D01*
X140549285Y-140358809D01*
X140549285Y-140215952D01*
X140596904Y-140025476D01*
X140644523Y-139930238D01*
X140739761Y-139835000D01*
X140882619Y-139787380D01*
X140977857Y-139787380D01*
X141120714Y-139835000D01*
X141168333Y-139882619D01*
X139573095Y-137295000D02*
X139477857Y-137247380D01*
X139335000Y-137247380D01*
X139192142Y-137295000D01*
X139096904Y-137390238D01*
X139049285Y-137485476D01*
X139001666Y-137675952D01*
X139001666Y-137818809D01*
X139049285Y-138009285D01*
X139096904Y-138104523D01*
X139192142Y-138199761D01*
X139335000Y-138247380D01*
X139430238Y-138247380D01*
X139573095Y-138199761D01*
X139620714Y-138152142D01*
X139620714Y-137818809D01*
X139430238Y-137818809D01*
X140049285Y-138247380D02*
X140049285Y-137247380D01*
X140620714Y-138247380D01*
X140620714Y-137247380D01*
X141096904Y-138247380D02*
X141096904Y-137247380D01*
X141335000Y-137247380D01*
X141477857Y-137295000D01*
X141573095Y-137390238D01*
X141620714Y-137485476D01*
X141668333Y-137675952D01*
X141668333Y-137818809D01*
X141620714Y-138009285D01*
X141573095Y-138104523D01*
X141477857Y-138199761D01*
X141335000Y-138247380D01*
X141096904Y-138247380D01*
X139573095Y-134755000D02*
X139477857Y-134707380D01*
X139335000Y-134707380D01*
X139192142Y-134755000D01*
X139096904Y-134850238D01*
X139049285Y-134945476D01*
X139001666Y-135135952D01*
X139001666Y-135278809D01*
X139049285Y-135469285D01*
X139096904Y-135564523D01*
X139192142Y-135659761D01*
X139335000Y-135707380D01*
X139430238Y-135707380D01*
X139573095Y-135659761D01*
X139620714Y-135612142D01*
X139620714Y-135278809D01*
X139430238Y-135278809D01*
X140049285Y-135707380D02*
X140049285Y-134707380D01*
X140620714Y-135707380D01*
X140620714Y-134707380D01*
X141096904Y-135707380D02*
X141096904Y-134707380D01*
X141335000Y-134707380D01*
X141477857Y-134755000D01*
X141573095Y-134850238D01*
X141620714Y-134945476D01*
X141668333Y-135135952D01*
X141668333Y-135278809D01*
X141620714Y-135469285D01*
X141573095Y-135564523D01*
X141477857Y-135659761D01*
X141335000Y-135707380D01*
X141096904Y-135707380D01*
D11*
X139125476Y-133126238D02*
X139270619Y-133174619D01*
X139512523Y-133174619D01*
X139609285Y-133126238D01*
X139657666Y-133077857D01*
X139706047Y-132981095D01*
X139706047Y-132884333D01*
X139657666Y-132787571D01*
X139609285Y-132739190D01*
X139512523Y-132690809D01*
X139319000Y-132642428D01*
X139222238Y-132594047D01*
X139173857Y-132545666D01*
X139125476Y-132448904D01*
X139125476Y-132352142D01*
X139173857Y-132255380D01*
X139222238Y-132207000D01*
X139319000Y-132158619D01*
X139560904Y-132158619D01*
X139706047Y-132207000D01*
X140722047Y-133077857D02*
X140673666Y-133126238D01*
X140528523Y-133174619D01*
X140431761Y-133174619D01*
X140286619Y-133126238D01*
X140189857Y-133029476D01*
X140141476Y-132932714D01*
X140093095Y-132739190D01*
X140093095Y-132594047D01*
X140141476Y-132400523D01*
X140189857Y-132303761D01*
X140286619Y-132207000D01*
X140431761Y-132158619D01*
X140528523Y-132158619D01*
X140673666Y-132207000D01*
X140722047Y-132255380D01*
X141641285Y-133174619D02*
X141157476Y-133174619D01*
X141157476Y-132158619D01*
D12*
X129984523Y-127087380D02*
X129508333Y-127087380D01*
X129460714Y-127563571D01*
X129508333Y-127515952D01*
X129603571Y-127468333D01*
X129841666Y-127468333D01*
X129936904Y-127515952D01*
X129984523Y-127563571D01*
X130032142Y-127658809D01*
X130032142Y-127896904D01*
X129984523Y-127992142D01*
X129936904Y-128039761D01*
X129841666Y-128087380D01*
X129603571Y-128087380D01*
X129508333Y-128039761D01*
X129460714Y-127992142D01*
X130317857Y-127087380D02*
X130651190Y-128087380D01*
X130984523Y-127087380D01*
X129389285Y-140787380D02*
X129389285Y-139787380D01*
X129960714Y-140787380D01*
X129960714Y-139787380D01*
X131008333Y-140692142D02*
X130960714Y-140739761D01*
X130817857Y-140787380D01*
X130722619Y-140787380D01*
X130579761Y-140739761D01*
X130484523Y-140644523D01*
X130436904Y-140549285D01*
X130389285Y-140358809D01*
X130389285Y-140215952D01*
X130436904Y-140025476D01*
X130484523Y-139930238D01*
X130579761Y-139835000D01*
X130722619Y-139787380D01*
X130817857Y-139787380D01*
X130960714Y-139835000D01*
X131008333Y-139882619D01*
X129413095Y-137295000D02*
X129317857Y-137247380D01*
X129175000Y-137247380D01*
X129032142Y-137295000D01*
X128936904Y-137390238D01*
X128889285Y-137485476D01*
X128841666Y-137675952D01*
X128841666Y-137818809D01*
X128889285Y-138009285D01*
X128936904Y-138104523D01*
X129032142Y-138199761D01*
X129175000Y-138247380D01*
X129270238Y-138247380D01*
X129413095Y-138199761D01*
X129460714Y-138152142D01*
X129460714Y-137818809D01*
X129270238Y-137818809D01*
X129889285Y-138247380D02*
X129889285Y-137247380D01*
X130460714Y-138247380D01*
X130460714Y-137247380D01*
X130936904Y-138247380D02*
X130936904Y-137247380D01*
X131175000Y-137247380D01*
X131317857Y-137295000D01*
X131413095Y-137390238D01*
X131460714Y-137485476D01*
X131508333Y-137675952D01*
X131508333Y-137818809D01*
X131460714Y-138009285D01*
X131413095Y-138104523D01*
X131317857Y-138199761D01*
X131175000Y-138247380D01*
X130936904Y-138247380D01*
X129413095Y-134755000D02*
X129317857Y-134707380D01*
X129175000Y-134707380D01*
X129032142Y-134755000D01*
X128936904Y-134850238D01*
X128889285Y-134945476D01*
X128841666Y-135135952D01*
X128841666Y-135278809D01*
X128889285Y-135469285D01*
X128936904Y-135564523D01*
X129032142Y-135659761D01*
X129175000Y-135707380D01*
X129270238Y-135707380D01*
X129413095Y-135659761D01*
X129460714Y-135612142D01*
X129460714Y-135278809D01*
X129270238Y-135278809D01*
X129889285Y-135707380D02*
X129889285Y-134707380D01*
X130460714Y-135707380D01*
X130460714Y-134707380D01*
X130936904Y-135707380D02*
X130936904Y-134707380D01*
X131175000Y-134707380D01*
X131317857Y-134755000D01*
X131413095Y-134850238D01*
X131460714Y-134945476D01*
X131508333Y-135135952D01*
X131508333Y-135278809D01*
X131460714Y-135469285D01*
X131413095Y-135564523D01*
X131317857Y-135659761D01*
X131175000Y-135707380D01*
X130936904Y-135707380D01*
D11*
X128941285Y-130586238D02*
X129086428Y-130634619D01*
X129328333Y-130634619D01*
X129425095Y-130586238D01*
X129473476Y-130537857D01*
X129521857Y-130441095D01*
X129521857Y-130344333D01*
X129473476Y-130247571D01*
X129425095Y-130199190D01*
X129328333Y-130150809D01*
X129134809Y-130102428D01*
X129038047Y-130054047D01*
X128989666Y-130005666D01*
X128941285Y-129908904D01*
X128941285Y-129812142D01*
X128989666Y-129715380D01*
X129038047Y-129667000D01*
X129134809Y-129618619D01*
X129376714Y-129618619D01*
X129521857Y-129667000D01*
X129957285Y-130634619D02*
X129957285Y-129618619D01*
X130199190Y-129618619D01*
X130344333Y-129667000D01*
X130441095Y-129763761D01*
X130489476Y-129860523D01*
X130537857Y-130054047D01*
X130537857Y-130199190D01*
X130489476Y-130392714D01*
X130441095Y-130489476D01*
X130344333Y-130586238D01*
X130199190Y-130634619D01*
X129957285Y-130634619D01*
X130924904Y-130344333D02*
X131408714Y-130344333D01*
X130828142Y-130634619D02*
X131166809Y-129618619D01*
X131505476Y-130634619D01*
X128965476Y-133126238D02*
X129110619Y-133174619D01*
X129352523Y-133174619D01*
X129449285Y-133126238D01*
X129497666Y-133077857D01*
X129546047Y-132981095D01*
X129546047Y-132884333D01*
X129497666Y-132787571D01*
X129449285Y-132739190D01*
X129352523Y-132690809D01*
X129159000Y-132642428D01*
X129062238Y-132594047D01*
X129013857Y-132545666D01*
X128965476Y-132448904D01*
X128965476Y-132352142D01*
X129013857Y-132255380D01*
X129062238Y-132207000D01*
X129159000Y-132158619D01*
X129400904Y-132158619D01*
X129546047Y-132207000D01*
X130562047Y-133077857D02*
X130513666Y-133126238D01*
X130368523Y-133174619D01*
X130271761Y-133174619D01*
X130126619Y-133126238D01*
X130029857Y-133029476D01*
X129981476Y-132932714D01*
X129933095Y-132739190D01*
X129933095Y-132594047D01*
X129981476Y-132400523D01*
X130029857Y-132303761D01*
X130126619Y-132207000D01*
X130271761Y-132158619D01*
X130368523Y-132158619D01*
X130513666Y-132207000D01*
X130562047Y-132255380D01*
X131481285Y-133174619D02*
X130997476Y-133174619D01*
X130997476Y-132158619D01*
D12*
X119824523Y-127087380D02*
X119348333Y-127087380D01*
X119300714Y-127563571D01*
X119348333Y-127515952D01*
X119443571Y-127468333D01*
X119681666Y-127468333D01*
X119776904Y-127515952D01*
X119824523Y-127563571D01*
X119872142Y-127658809D01*
X119872142Y-127896904D01*
X119824523Y-127992142D01*
X119776904Y-128039761D01*
X119681666Y-128087380D01*
X119443571Y-128087380D01*
X119348333Y-128039761D01*
X119300714Y-127992142D01*
X120157857Y-127087380D02*
X120491190Y-128087380D01*
X120824523Y-127087380D01*
X119229285Y-140787380D02*
X119229285Y-139787380D01*
X119800714Y-140787380D01*
X119800714Y-139787380D01*
X120848333Y-140692142D02*
X120800714Y-140739761D01*
X120657857Y-140787380D01*
X120562619Y-140787380D01*
X120419761Y-140739761D01*
X120324523Y-140644523D01*
X120276904Y-140549285D01*
X120229285Y-140358809D01*
X120229285Y-140215952D01*
X120276904Y-140025476D01*
X120324523Y-139930238D01*
X120419761Y-139835000D01*
X120562619Y-139787380D01*
X120657857Y-139787380D01*
X120800714Y-139835000D01*
X120848333Y-139882619D01*
X119253095Y-137295000D02*
X119157857Y-137247380D01*
X119015000Y-137247380D01*
X118872142Y-137295000D01*
X118776904Y-137390238D01*
X118729285Y-137485476D01*
X118681666Y-137675952D01*
X118681666Y-137818809D01*
X118729285Y-138009285D01*
X118776904Y-138104523D01*
X118872142Y-138199761D01*
X119015000Y-138247380D01*
X119110238Y-138247380D01*
X119253095Y-138199761D01*
X119300714Y-138152142D01*
X119300714Y-137818809D01*
X119110238Y-137818809D01*
X119729285Y-138247380D02*
X119729285Y-137247380D01*
X120300714Y-138247380D01*
X120300714Y-137247380D01*
X120776904Y-138247380D02*
X120776904Y-137247380D01*
X121015000Y-137247380D01*
X121157857Y-137295000D01*
X121253095Y-137390238D01*
X121300714Y-137485476D01*
X121348333Y-137675952D01*
X121348333Y-137818809D01*
X121300714Y-138009285D01*
X121253095Y-138104523D01*
X121157857Y-138199761D01*
X121015000Y-138247380D01*
X120776904Y-138247380D01*
X119253095Y-134755000D02*
X119157857Y-134707380D01*
X119015000Y-134707380D01*
X118872142Y-134755000D01*
X118776904Y-134850238D01*
X118729285Y-134945476D01*
X118681666Y-135135952D01*
X118681666Y-135278809D01*
X118729285Y-135469285D01*
X118776904Y-135564523D01*
X118872142Y-135659761D01*
X119015000Y-135707380D01*
X119110238Y-135707380D01*
X119253095Y-135659761D01*
X119300714Y-135612142D01*
X119300714Y-135278809D01*
X119110238Y-135278809D01*
X119729285Y-135707380D02*
X119729285Y-134707380D01*
X120300714Y-135707380D01*
X120300714Y-134707380D01*
X120776904Y-135707380D02*
X120776904Y-134707380D01*
X121015000Y-134707380D01*
X121157857Y-134755000D01*
X121253095Y-134850238D01*
X121300714Y-134945476D01*
X121348333Y-135135952D01*
X121348333Y-135278809D01*
X121300714Y-135469285D01*
X121253095Y-135564523D01*
X121157857Y-135659761D01*
X121015000Y-135707380D01*
X120776904Y-135707380D01*
D11*
X118781285Y-130586238D02*
X118926428Y-130634619D01*
X119168333Y-130634619D01*
X119265095Y-130586238D01*
X119313476Y-130537857D01*
X119361857Y-130441095D01*
X119361857Y-130344333D01*
X119313476Y-130247571D01*
X119265095Y-130199190D01*
X119168333Y-130150809D01*
X118974809Y-130102428D01*
X118878047Y-130054047D01*
X118829666Y-130005666D01*
X118781285Y-129908904D01*
X118781285Y-129812142D01*
X118829666Y-129715380D01*
X118878047Y-129667000D01*
X118974809Y-129618619D01*
X119216714Y-129618619D01*
X119361857Y-129667000D01*
X119797285Y-130634619D02*
X119797285Y-129618619D01*
X120039190Y-129618619D01*
X120184333Y-129667000D01*
X120281095Y-129763761D01*
X120329476Y-129860523D01*
X120377857Y-130054047D01*
X120377857Y-130199190D01*
X120329476Y-130392714D01*
X120281095Y-130489476D01*
X120184333Y-130586238D01*
X120039190Y-130634619D01*
X119797285Y-130634619D01*
X120764904Y-130344333D02*
X121248714Y-130344333D01*
X120668142Y-130634619D02*
X121006809Y-129618619D01*
X121345476Y-130634619D01*
X118805476Y-133126238D02*
X118950619Y-133174619D01*
X119192523Y-133174619D01*
X119289285Y-133126238D01*
X119337666Y-133077857D01*
X119386047Y-132981095D01*
X119386047Y-132884333D01*
X119337666Y-132787571D01*
X119289285Y-132739190D01*
X119192523Y-132690809D01*
X118999000Y-132642428D01*
X118902238Y-132594047D01*
X118853857Y-132545666D01*
X118805476Y-132448904D01*
X118805476Y-132352142D01*
X118853857Y-132255380D01*
X118902238Y-132207000D01*
X118999000Y-132158619D01*
X119240904Y-132158619D01*
X119386047Y-132207000D01*
X120402047Y-133077857D02*
X120353666Y-133126238D01*
X120208523Y-133174619D01*
X120111761Y-133174619D01*
X119966619Y-133126238D01*
X119869857Y-133029476D01*
X119821476Y-132932714D01*
X119773095Y-132739190D01*
X119773095Y-132594047D01*
X119821476Y-132400523D01*
X119869857Y-132303761D01*
X119966619Y-132207000D01*
X120111761Y-132158619D01*
X120208523Y-132158619D01*
X120353666Y-132207000D01*
X120402047Y-132255380D01*
X121321285Y-133174619D02*
X120837476Y-133174619D01*
X120837476Y-132158619D01*
D12*
X109069285Y-140787380D02*
X109069285Y-139787380D01*
X109640714Y-140787380D01*
X109640714Y-139787380D01*
X110688333Y-140692142D02*
X110640714Y-140739761D01*
X110497857Y-140787380D01*
X110402619Y-140787380D01*
X110259761Y-140739761D01*
X110164523Y-140644523D01*
X110116904Y-140549285D01*
X110069285Y-140358809D01*
X110069285Y-140215952D01*
X110116904Y-140025476D01*
X110164523Y-139930238D01*
X110259761Y-139835000D01*
X110402619Y-139787380D01*
X110497857Y-139787380D01*
X110640714Y-139835000D01*
X110688333Y-139882619D01*
X109093095Y-137295000D02*
X108997857Y-137247380D01*
X108855000Y-137247380D01*
X108712142Y-137295000D01*
X108616904Y-137390238D01*
X108569285Y-137485476D01*
X108521666Y-137675952D01*
X108521666Y-137818809D01*
X108569285Y-138009285D01*
X108616904Y-138104523D01*
X108712142Y-138199761D01*
X108855000Y-138247380D01*
X108950238Y-138247380D01*
X109093095Y-138199761D01*
X109140714Y-138152142D01*
X109140714Y-137818809D01*
X108950238Y-137818809D01*
X109569285Y-138247380D02*
X109569285Y-137247380D01*
X110140714Y-138247380D01*
X110140714Y-137247380D01*
X110616904Y-138247380D02*
X110616904Y-137247380D01*
X110855000Y-137247380D01*
X110997857Y-137295000D01*
X111093095Y-137390238D01*
X111140714Y-137485476D01*
X111188333Y-137675952D01*
X111188333Y-137818809D01*
X111140714Y-138009285D01*
X111093095Y-138104523D01*
X110997857Y-138199761D01*
X110855000Y-138247380D01*
X110616904Y-138247380D01*
X109093095Y-134755000D02*
X108997857Y-134707380D01*
X108855000Y-134707380D01*
X108712142Y-134755000D01*
X108616904Y-134850238D01*
X108569285Y-134945476D01*
X108521666Y-135135952D01*
X108521666Y-135278809D01*
X108569285Y-135469285D01*
X108616904Y-135564523D01*
X108712142Y-135659761D01*
X108855000Y-135707380D01*
X108950238Y-135707380D01*
X109093095Y-135659761D01*
X109140714Y-135612142D01*
X109140714Y-135278809D01*
X108950238Y-135278809D01*
X109569285Y-135707380D02*
X109569285Y-134707380D01*
X110140714Y-135707380D01*
X110140714Y-134707380D01*
X110616904Y-135707380D02*
X110616904Y-134707380D01*
X110855000Y-134707380D01*
X110997857Y-134755000D01*
X111093095Y-134850238D01*
X111140714Y-134945476D01*
X111188333Y-135135952D01*
X111188333Y-135278809D01*
X111140714Y-135469285D01*
X111093095Y-135564523D01*
X110997857Y-135659761D01*
X110855000Y-135707380D01*
X110616904Y-135707380D01*
X109664523Y-127087380D02*
X109188333Y-127087380D01*
X109140714Y-127563571D01*
X109188333Y-127515952D01*
X109283571Y-127468333D01*
X109521666Y-127468333D01*
X109616904Y-127515952D01*
X109664523Y-127563571D01*
X109712142Y-127658809D01*
X109712142Y-127896904D01*
X109664523Y-127992142D01*
X109616904Y-128039761D01*
X109521666Y-128087380D01*
X109283571Y-128087380D01*
X109188333Y-128039761D01*
X109140714Y-127992142D01*
X109997857Y-127087380D02*
X110331190Y-128087380D01*
X110664523Y-127087380D01*
X187633619Y-119888857D02*
X188633619Y-119888857D01*
X187919333Y-120222190D01*
X188633619Y-120555523D01*
X187633619Y-120555523D01*
X187633619Y-121174571D02*
X187681238Y-121079333D01*
X187728857Y-121031714D01*
X187824095Y-120984095D01*
X188109809Y-120984095D01*
X188205047Y-121031714D01*
X188252666Y-121079333D01*
X188300285Y-121174571D01*
X188300285Y-121317428D01*
X188252666Y-121412666D01*
X188205047Y-121460285D01*
X188109809Y-121507904D01*
X187824095Y-121507904D01*
X187728857Y-121460285D01*
X187681238Y-121412666D01*
X187633619Y-121317428D01*
X187633619Y-121174571D01*
X187633619Y-122365047D02*
X188633619Y-122365047D01*
X187681238Y-122365047D02*
X187633619Y-122269809D01*
X187633619Y-122079333D01*
X187681238Y-121984095D01*
X187728857Y-121936476D01*
X187824095Y-121888857D01*
X188109809Y-121888857D01*
X188205047Y-121936476D01*
X188252666Y-121984095D01*
X188300285Y-122079333D01*
X188300285Y-122269809D01*
X188252666Y-122365047D01*
X188300285Y-123269809D02*
X187633619Y-123269809D01*
X188300285Y-122841238D02*
X187776476Y-122841238D01*
X187681238Y-122888857D01*
X187633619Y-122984095D01*
X187633619Y-123126952D01*
X187681238Y-123222190D01*
X187728857Y-123269809D01*
X187633619Y-123888857D02*
X187681238Y-123793619D01*
X187776476Y-123746000D01*
X188633619Y-123746000D01*
X187633619Y-124698380D02*
X188157428Y-124698380D01*
X188252666Y-124650761D01*
X188300285Y-124555523D01*
X188300285Y-124365047D01*
X188252666Y-124269809D01*
X187681238Y-124698380D02*
X187633619Y-124603142D01*
X187633619Y-124365047D01*
X187681238Y-124269809D01*
X187776476Y-124222190D01*
X187871714Y-124222190D01*
X187966952Y-124269809D01*
X188014571Y-124365047D01*
X188014571Y-124603142D01*
X188062190Y-124698380D01*
X187633619Y-125174571D02*
X188300285Y-125174571D01*
X188109809Y-125174571D02*
X188205047Y-125222190D01*
X188252666Y-125269809D01*
X188300285Y-125365047D01*
X188300285Y-125460285D01*
X187633619Y-126555523D02*
X188633619Y-126555523D01*
X188538380Y-126984095D02*
X188586000Y-127031714D01*
X188633619Y-127126952D01*
X188633619Y-127365047D01*
X188586000Y-127460285D01*
X188538380Y-127507904D01*
X188443142Y-127555523D01*
X188347904Y-127555523D01*
X188205047Y-127507904D01*
X187633619Y-126936476D01*
X187633619Y-127555523D01*
X187728857Y-128555523D02*
X187681238Y-128507904D01*
X187633619Y-128365047D01*
X187633619Y-128269809D01*
X187681238Y-128126952D01*
X187776476Y-128031714D01*
X187871714Y-127984095D01*
X188062190Y-127936476D01*
X188205047Y-127936476D01*
X188395523Y-127984095D01*
X188490761Y-128031714D01*
X188586000Y-128126952D01*
X188633619Y-128269809D01*
X188633619Y-128365047D01*
X188586000Y-128507904D01*
X188538380Y-128555523D01*
X188157428Y-130079333D02*
X188109809Y-130222190D01*
X188062190Y-130269809D01*
X187966952Y-130317428D01*
X187824095Y-130317428D01*
X187728857Y-130269809D01*
X187681238Y-130222190D01*
X187633619Y-130126952D01*
X187633619Y-129746000D01*
X188633619Y-129746000D01*
X188633619Y-130079333D01*
X188586000Y-130174571D01*
X188538380Y-130222190D01*
X188443142Y-130269809D01*
X188347904Y-130269809D01*
X188252666Y-130222190D01*
X188205047Y-130174571D01*
X188157428Y-130079333D01*
X188157428Y-129746000D01*
X187633619Y-130888857D02*
X187681238Y-130793619D01*
X187728857Y-130746000D01*
X187824095Y-130698380D01*
X188109809Y-130698380D01*
X188205047Y-130746000D01*
X188252666Y-130793619D01*
X188300285Y-130888857D01*
X188300285Y-131031714D01*
X188252666Y-131126952D01*
X188205047Y-131174571D01*
X188109809Y-131222190D01*
X187824095Y-131222190D01*
X187728857Y-131174571D01*
X187681238Y-131126952D01*
X187633619Y-131031714D01*
X187633619Y-130888857D01*
X187633619Y-132079333D02*
X188157428Y-132079333D01*
X188252666Y-132031714D01*
X188300285Y-131936476D01*
X188300285Y-131746000D01*
X188252666Y-131650761D01*
X187681238Y-132079333D02*
X187633619Y-131984095D01*
X187633619Y-131746000D01*
X187681238Y-131650761D01*
X187776476Y-131603142D01*
X187871714Y-131603142D01*
X187966952Y-131650761D01*
X188014571Y-131746000D01*
X188014571Y-131984095D01*
X188062190Y-132079333D01*
X187633619Y-132555523D02*
X188300285Y-132555523D01*
X188109809Y-132555523D02*
X188205047Y-132603142D01*
X188252666Y-132650761D01*
X188300285Y-132746000D01*
X188300285Y-132841238D01*
X187633619Y-133603142D02*
X188633619Y-133603142D01*
X187681238Y-133603142D02*
X187633619Y-133507904D01*
X187633619Y-133317428D01*
X187681238Y-133222190D01*
X187728857Y-133174571D01*
X187824095Y-133126952D01*
X188109809Y-133126952D01*
X188205047Y-133174571D01*
X188252666Y-133222190D01*
X188300285Y-133317428D01*
X188300285Y-133507904D01*
X188252666Y-133603142D01*
X185983619Y-121674571D02*
X185983619Y-121103142D01*
X185983619Y-121388857D02*
X186983619Y-121388857D01*
X186840761Y-121293619D01*
X186745523Y-121198380D01*
X186697904Y-121103142D01*
X186983619Y-122293619D02*
X186983619Y-122388857D01*
X186936000Y-122484095D01*
X186888380Y-122531714D01*
X186793142Y-122579333D01*
X186602666Y-122626952D01*
X186364571Y-122626952D01*
X186174095Y-122579333D01*
X186078857Y-122531714D01*
X186031238Y-122484095D01*
X185983619Y-122388857D01*
X185983619Y-122293619D01*
X186031238Y-122198380D01*
X186078857Y-122150761D01*
X186174095Y-122103142D01*
X186364571Y-122055523D01*
X186602666Y-122055523D01*
X186793142Y-122103142D01*
X186888380Y-122150761D01*
X186936000Y-122198380D01*
X186983619Y-122293619D01*
X185983619Y-123817428D02*
X186983619Y-123817428D01*
X186269333Y-124150761D01*
X186983619Y-124484095D01*
X185983619Y-124484095D01*
X185983619Y-125388857D02*
X186507428Y-125388857D01*
X186602666Y-125341238D01*
X186650285Y-125246000D01*
X186650285Y-125055523D01*
X186602666Y-124960285D01*
X186031238Y-125388857D02*
X185983619Y-125293619D01*
X185983619Y-125055523D01*
X186031238Y-124960285D01*
X186126476Y-124912666D01*
X186221714Y-124912666D01*
X186316952Y-124960285D01*
X186364571Y-125055523D01*
X186364571Y-125293619D01*
X186412190Y-125388857D01*
X185983619Y-125865047D02*
X186650285Y-125865047D01*
X186459809Y-125865047D02*
X186555047Y-125912666D01*
X186602666Y-125960285D01*
X186650285Y-126055523D01*
X186650285Y-126150761D01*
X186031238Y-126912666D02*
X185983619Y-126817428D01*
X185983619Y-126626952D01*
X186031238Y-126531714D01*
X186078857Y-126484095D01*
X186174095Y-126436476D01*
X186459809Y-126436476D01*
X186555047Y-126484095D01*
X186602666Y-126531714D01*
X186650285Y-126626952D01*
X186650285Y-126817428D01*
X186602666Y-126912666D01*
X185983619Y-127341238D02*
X186983619Y-127341238D01*
X185983619Y-127769809D02*
X186507428Y-127769809D01*
X186602666Y-127722190D01*
X186650285Y-127626952D01*
X186650285Y-127484095D01*
X186602666Y-127388857D01*
X186555047Y-127341238D01*
X186888380Y-128960285D02*
X186936000Y-129007904D01*
X186983619Y-129103142D01*
X186983619Y-129341238D01*
X186936000Y-129436476D01*
X186888380Y-129484095D01*
X186793142Y-129531714D01*
X186697904Y-129531714D01*
X186555047Y-129484095D01*
X185983619Y-128912666D01*
X185983619Y-129531714D01*
X186983619Y-130150761D02*
X186983619Y-130246000D01*
X186936000Y-130341238D01*
X186888380Y-130388857D01*
X186793142Y-130436476D01*
X186602666Y-130484095D01*
X186364571Y-130484095D01*
X186174095Y-130436476D01*
X186078857Y-130388857D01*
X186031238Y-130341238D01*
X185983619Y-130246000D01*
X185983619Y-130150761D01*
X186031238Y-130055523D01*
X186078857Y-130007904D01*
X186174095Y-129960285D01*
X186364571Y-129912666D01*
X186602666Y-129912666D01*
X186793142Y-129960285D01*
X186888380Y-130007904D01*
X186936000Y-130055523D01*
X186983619Y-130150761D01*
X186888380Y-130865047D02*
X186936000Y-130912666D01*
X186983619Y-131007904D01*
X186983619Y-131246000D01*
X186936000Y-131341238D01*
X186888380Y-131388857D01*
X186793142Y-131436476D01*
X186697904Y-131436476D01*
X186555047Y-131388857D01*
X185983619Y-130817428D01*
X185983619Y-131436476D01*
X186888380Y-131817428D02*
X186936000Y-131865047D01*
X186983619Y-131960285D01*
X186983619Y-132198380D01*
X186936000Y-132293619D01*
X186888380Y-132341238D01*
X186793142Y-132388857D01*
X186697904Y-132388857D01*
X186555047Y-132341238D01*
X185983619Y-131769809D01*
X185983619Y-132388857D01*
X184333619Y-122888857D02*
X184809809Y-122555523D01*
X184333619Y-122317428D02*
X185333619Y-122317428D01*
X185333619Y-122698380D01*
X185286000Y-122793619D01*
X185238380Y-122841238D01*
X185143142Y-122888857D01*
X185000285Y-122888857D01*
X184905047Y-122841238D01*
X184857428Y-122793619D01*
X184809809Y-122698380D01*
X184809809Y-122317428D01*
X184381238Y-123698380D02*
X184333619Y-123603142D01*
X184333619Y-123412666D01*
X184381238Y-123317428D01*
X184476476Y-123269809D01*
X184857428Y-123269809D01*
X184952666Y-123317428D01*
X185000285Y-123412666D01*
X185000285Y-123603142D01*
X184952666Y-123698380D01*
X184857428Y-123746000D01*
X184762190Y-123746000D01*
X184666952Y-123269809D01*
X185000285Y-124079333D02*
X184333619Y-124317428D01*
X185000285Y-124555523D01*
X184333619Y-124936476D02*
X185000285Y-124936476D01*
X185333619Y-124936476D02*
X185286000Y-124888857D01*
X185238380Y-124936476D01*
X185286000Y-124984095D01*
X185333619Y-124936476D01*
X185238380Y-124936476D01*
X184381238Y-125365047D02*
X184333619Y-125460285D01*
X184333619Y-125650761D01*
X184381238Y-125746000D01*
X184476476Y-125793619D01*
X184524095Y-125793619D01*
X184619333Y-125746000D01*
X184666952Y-125650761D01*
X184666952Y-125507904D01*
X184714571Y-125412666D01*
X184809809Y-125365047D01*
X184857428Y-125365047D01*
X184952666Y-125412666D01*
X185000285Y-125507904D01*
X185000285Y-125650761D01*
X184952666Y-125746000D01*
X184333619Y-126222190D02*
X185000285Y-126222190D01*
X185333619Y-126222190D02*
X185286000Y-126174571D01*
X185238380Y-126222190D01*
X185286000Y-126269809D01*
X185333619Y-126222190D01*
X185238380Y-126222190D01*
X184333619Y-126841238D02*
X184381238Y-126746000D01*
X184428857Y-126698380D01*
X184524095Y-126650761D01*
X184809809Y-126650761D01*
X184905047Y-126698380D01*
X184952666Y-126746000D01*
X185000285Y-126841238D01*
X185000285Y-126984095D01*
X184952666Y-127079333D01*
X184905047Y-127126952D01*
X184809809Y-127174571D01*
X184524095Y-127174571D01*
X184428857Y-127126952D01*
X184381238Y-127079333D01*
X184333619Y-126984095D01*
X184333619Y-126841238D01*
X185000285Y-127603142D02*
X184333619Y-127603142D01*
X184905047Y-127603142D02*
X184952666Y-127650761D01*
X185000285Y-127746000D01*
X185000285Y-127888857D01*
X184952666Y-127984095D01*
X184857428Y-128031714D01*
X184333619Y-128031714D01*
X184333619Y-129793619D02*
X184333619Y-129222190D01*
X184333619Y-129507904D02*
X185333619Y-129507904D01*
X185190761Y-129412666D01*
X185095523Y-129317428D01*
X185047904Y-129222190D01*
X184428857Y-130222190D02*
X184381238Y-130269809D01*
X184333619Y-130222190D01*
X184381238Y-130174571D01*
X184428857Y-130222190D01*
X184333619Y-130222190D01*
X185333619Y-130888857D02*
X185333619Y-130984095D01*
X185286000Y-131079333D01*
X185238380Y-131126952D01*
X185143142Y-131174571D01*
X184952666Y-131222190D01*
X184714571Y-131222190D01*
X184524095Y-131174571D01*
X184428857Y-131126952D01*
X184381238Y-131079333D01*
X184333619Y-130984095D01*
X184333619Y-130888857D01*
X184381238Y-130793619D01*
X184428857Y-130746000D01*
X184524095Y-130698380D01*
X184714571Y-130650761D01*
X184952666Y-130650761D01*
X185143142Y-130698380D01*
X185238380Y-130746000D01*
X185286000Y-130793619D01*
X185333619Y-130888857D01*
D13*
X100251380Y-117453228D02*
X102186619Y-117453228D01*
X100276780Y-105997828D02*
X102212019Y-105997828D01*
X101244400Y-106965447D02*
X101244400Y-105030209D01*
D11*
X108621285Y-130586238D02*
X108766428Y-130634619D01*
X109008333Y-130634619D01*
X109105095Y-130586238D01*
X109153476Y-130537857D01*
X109201857Y-130441095D01*
X109201857Y-130344333D01*
X109153476Y-130247571D01*
X109105095Y-130199190D01*
X109008333Y-130150809D01*
X108814809Y-130102428D01*
X108718047Y-130054047D01*
X108669666Y-130005666D01*
X108621285Y-129908904D01*
X108621285Y-129812142D01*
X108669666Y-129715380D01*
X108718047Y-129667000D01*
X108814809Y-129618619D01*
X109056714Y-129618619D01*
X109201857Y-129667000D01*
X109637285Y-130634619D02*
X109637285Y-129618619D01*
X109879190Y-129618619D01*
X110024333Y-129667000D01*
X110121095Y-129763761D01*
X110169476Y-129860523D01*
X110217857Y-130054047D01*
X110217857Y-130199190D01*
X110169476Y-130392714D01*
X110121095Y-130489476D01*
X110024333Y-130586238D01*
X109879190Y-130634619D01*
X109637285Y-130634619D01*
X110604904Y-130344333D02*
X111088714Y-130344333D01*
X110508142Y-130634619D02*
X110846809Y-129618619D01*
X111185476Y-130634619D01*
X108645476Y-133126238D02*
X108790619Y-133174619D01*
X109032523Y-133174619D01*
X109129285Y-133126238D01*
X109177666Y-133077857D01*
X109226047Y-132981095D01*
X109226047Y-132884333D01*
X109177666Y-132787571D01*
X109129285Y-132739190D01*
X109032523Y-132690809D01*
X108839000Y-132642428D01*
X108742238Y-132594047D01*
X108693857Y-132545666D01*
X108645476Y-132448904D01*
X108645476Y-132352142D01*
X108693857Y-132255380D01*
X108742238Y-132207000D01*
X108839000Y-132158619D01*
X109080904Y-132158619D01*
X109226047Y-132207000D01*
X110242047Y-133077857D02*
X110193666Y-133126238D01*
X110048523Y-133174619D01*
X109951761Y-133174619D01*
X109806619Y-133126238D01*
X109709857Y-133029476D01*
X109661476Y-132932714D01*
X109613095Y-132739190D01*
X109613095Y-132594047D01*
X109661476Y-132400523D01*
X109709857Y-132303761D01*
X109806619Y-132207000D01*
X109951761Y-132158619D01*
X110048523Y-132158619D01*
X110193666Y-132207000D01*
X110242047Y-132255380D01*
X111161285Y-133174619D02*
X110677476Y-133174619D01*
X110677476Y-132158619D01*
X110790476Y-113411238D02*
X110935619Y-113459619D01*
X111177523Y-113459619D01*
X111274285Y-113411238D01*
X111322666Y-113362857D01*
X111371047Y-113266095D01*
X111371047Y-113169333D01*
X111322666Y-113072571D01*
X111274285Y-113024190D01*
X111177523Y-112975809D01*
X110984000Y-112927428D01*
X110887238Y-112879047D01*
X110838857Y-112830666D01*
X110790476Y-112733904D01*
X110790476Y-112637142D01*
X110838857Y-112540380D01*
X110887238Y-112492000D01*
X110984000Y-112443619D01*
X111225904Y-112443619D01*
X111371047Y-112492000D01*
X112387047Y-113362857D02*
X112338666Y-113411238D01*
X112193523Y-113459619D01*
X112096761Y-113459619D01*
X111951619Y-113411238D01*
X111854857Y-113314476D01*
X111806476Y-113217714D01*
X111758095Y-113024190D01*
X111758095Y-112879047D01*
X111806476Y-112685523D01*
X111854857Y-112588761D01*
X111951619Y-112492000D01*
X112096761Y-112443619D01*
X112193523Y-112443619D01*
X112338666Y-112492000D01*
X112387047Y-112540380D01*
X113306285Y-113459619D02*
X112822476Y-113459619D01*
X112822476Y-112443619D01*
X110766285Y-110811238D02*
X110911428Y-110859619D01*
X111153333Y-110859619D01*
X111250095Y-110811238D01*
X111298476Y-110762857D01*
X111346857Y-110666095D01*
X111346857Y-110569333D01*
X111298476Y-110472571D01*
X111250095Y-110424190D01*
X111153333Y-110375809D01*
X110959809Y-110327428D01*
X110863047Y-110279047D01*
X110814666Y-110230666D01*
X110766285Y-110133904D01*
X110766285Y-110037142D01*
X110814666Y-109940380D01*
X110863047Y-109892000D01*
X110959809Y-109843619D01*
X111201714Y-109843619D01*
X111346857Y-109892000D01*
X111782285Y-110859619D02*
X111782285Y-109843619D01*
X112024190Y-109843619D01*
X112169333Y-109892000D01*
X112266095Y-109988761D01*
X112314476Y-110085523D01*
X112362857Y-110279047D01*
X112362857Y-110424190D01*
X112314476Y-110617714D01*
X112266095Y-110714476D01*
X112169333Y-110811238D01*
X112024190Y-110859619D01*
X111782285Y-110859619D01*
X112749904Y-110569333D02*
X113233714Y-110569333D01*
X112653142Y-110859619D02*
X112991809Y-109843619D01*
X113330476Y-110859619D01*
D14*
X151574523Y-94063095D02*
X150304523Y-94063095D01*
X151211666Y-93639761D01*
X150304523Y-93216428D01*
X151574523Y-93216428D01*
X151514047Y-92672142D02*
X151574523Y-92490714D01*
X151574523Y-92188333D01*
X151514047Y-92067380D01*
X151453571Y-92006904D01*
X151332619Y-91946428D01*
X151211666Y-91946428D01*
X151090714Y-92006904D01*
X151030238Y-92067380D01*
X150969761Y-92188333D01*
X150909285Y-92430238D01*
X150848809Y-92551190D01*
X150788333Y-92611666D01*
X150667380Y-92672142D01*
X150546428Y-92672142D01*
X150425476Y-92611666D01*
X150365000Y-92551190D01*
X150304523Y-92430238D01*
X150304523Y-92127857D01*
X150365000Y-91946428D01*
X150909285Y-90978809D02*
X150969761Y-90797380D01*
X151030238Y-90736904D01*
X151151190Y-90676428D01*
X151332619Y-90676428D01*
X151453571Y-90736904D01*
X151514047Y-90797380D01*
X151574523Y-90918333D01*
X151574523Y-91402142D01*
X150304523Y-91402142D01*
X150304523Y-90978809D01*
X150365000Y-90857857D01*
X150425476Y-90797380D01*
X150546428Y-90736904D01*
X150667380Y-90736904D01*
X150788333Y-90797380D01*
X150848809Y-90857857D01*
X150909285Y-90978809D01*
X150909285Y-91402142D01*
X174336904Y-101574523D02*
X174336904Y-100304523D01*
X174760238Y-101211666D01*
X175183571Y-100304523D01*
X175183571Y-101574523D01*
X175727857Y-101514047D02*
X175909285Y-101574523D01*
X176211666Y-101574523D01*
X176332619Y-101514047D01*
X176393095Y-101453571D01*
X176453571Y-101332619D01*
X176453571Y-101211666D01*
X176393095Y-101090714D01*
X176332619Y-101030238D01*
X176211666Y-100969761D01*
X175969761Y-100909285D01*
X175848809Y-100848809D01*
X175788333Y-100788333D01*
X175727857Y-100667380D01*
X175727857Y-100546428D01*
X175788333Y-100425476D01*
X175848809Y-100365000D01*
X175969761Y-100304523D01*
X176272142Y-100304523D01*
X176453571Y-100365000D01*
X177421190Y-100909285D02*
X177602619Y-100969761D01*
X177663095Y-101030238D01*
X177723571Y-101151190D01*
X177723571Y-101332619D01*
X177663095Y-101453571D01*
X177602619Y-101514047D01*
X177481666Y-101574523D01*
X176997857Y-101574523D01*
X176997857Y-100304523D01*
X177421190Y-100304523D01*
X177542142Y-100365000D01*
X177602619Y-100425476D01*
X177663095Y-100546428D01*
X177663095Y-100667380D01*
X177602619Y-100788333D01*
X177542142Y-100848809D01*
X177421190Y-100909285D01*
X176997857Y-100909285D01*
D12*
X141422380Y-111719714D02*
X140422380Y-111719714D01*
X140422380Y-111338761D01*
X140470000Y-111243523D01*
X140517619Y-111195904D01*
X140612857Y-111148285D01*
X140755714Y-111148285D01*
X140850952Y-111195904D01*
X140898571Y-111243523D01*
X140946190Y-111338761D01*
X140946190Y-111719714D01*
X141422380Y-110719714D02*
X140422380Y-110719714D01*
X141327142Y-109672095D02*
X141374761Y-109719714D01*
X141422380Y-109862571D01*
X141422380Y-109957809D01*
X141374761Y-110100666D01*
X141279523Y-110195904D01*
X141184285Y-110243523D01*
X140993809Y-110291142D01*
X140850952Y-110291142D01*
X140660476Y-110243523D01*
X140565238Y-110195904D01*
X140470000Y-110100666D01*
X140422380Y-109957809D01*
X140422380Y-109862571D01*
X140470000Y-109719714D01*
X140517619Y-109672095D01*
X141422380Y-108719714D02*
X141422380Y-109291142D01*
X141422380Y-109005428D02*
X140422380Y-109005428D01*
X140565238Y-109100666D01*
X140660476Y-109195904D01*
X140708095Y-109291142D01*
X140850952Y-108148285D02*
X140803333Y-108243523D01*
X140755714Y-108291142D01*
X140660476Y-108338761D01*
X140612857Y-108338761D01*
X140517619Y-108291142D01*
X140470000Y-108243523D01*
X140422380Y-108148285D01*
X140422380Y-107957809D01*
X140470000Y-107862571D01*
X140517619Y-107814952D01*
X140612857Y-107767333D01*
X140660476Y-107767333D01*
X140755714Y-107814952D01*
X140803333Y-107862571D01*
X140850952Y-107957809D01*
X140850952Y-108148285D01*
X140898571Y-108243523D01*
X140946190Y-108291142D01*
X141041428Y-108338761D01*
X141231904Y-108338761D01*
X141327142Y-108291142D01*
X141374761Y-108243523D01*
X141422380Y-108148285D01*
X141422380Y-107957809D01*
X141374761Y-107862571D01*
X141327142Y-107814952D01*
X141231904Y-107767333D01*
X141041428Y-107767333D01*
X140946190Y-107814952D01*
X140898571Y-107862571D01*
X140850952Y-107957809D01*
X140898571Y-107005428D02*
X140898571Y-107338761D01*
X141422380Y-107338761D02*
X140422380Y-107338761D01*
X140422380Y-106862571D01*
X140517619Y-106529238D02*
X140470000Y-106481619D01*
X140422380Y-106386380D01*
X140422380Y-106148285D01*
X140470000Y-106053047D01*
X140517619Y-106005428D01*
X140612857Y-105957809D01*
X140708095Y-105957809D01*
X140850952Y-106005428D01*
X141422380Y-106576857D01*
X141422380Y-105957809D01*
X140422380Y-105100666D02*
X140422380Y-105291142D01*
X140470000Y-105386380D01*
X140517619Y-105434000D01*
X140660476Y-105529238D01*
X140850952Y-105576857D01*
X141231904Y-105576857D01*
X141327142Y-105529238D01*
X141374761Y-105481619D01*
X141422380Y-105386380D01*
X141422380Y-105195904D01*
X141374761Y-105100666D01*
X141327142Y-105053047D01*
X141231904Y-105005428D01*
X140993809Y-105005428D01*
X140898571Y-105053047D01*
X140850952Y-105100666D01*
X140803333Y-105195904D01*
X140803333Y-105386380D01*
X140850952Y-105481619D01*
X140898571Y-105529238D01*
X140993809Y-105576857D01*
X141422380Y-104576857D02*
X140422380Y-104576857D01*
X141422380Y-104005428D02*
X140850952Y-104434000D01*
X140422380Y-104005428D02*
X140993809Y-104576857D01*
X140755714Y-103148285D02*
X141422380Y-103148285D01*
X140374761Y-103386380D02*
X141089047Y-103624476D01*
X141089047Y-103005428D01*
X140422380Y-102434000D02*
X140422380Y-102338761D01*
X140470000Y-102243523D01*
X140517619Y-102195904D01*
X140612857Y-102148285D01*
X140803333Y-102100666D01*
X141041428Y-102100666D01*
X141231904Y-102148285D01*
X141327142Y-102195904D01*
X141374761Y-102243523D01*
X141422380Y-102338761D01*
X141422380Y-102434000D01*
X141374761Y-102529238D01*
X141327142Y-102576857D01*
X141231904Y-102624476D01*
X141041428Y-102672095D01*
X140803333Y-102672095D01*
X140612857Y-102624476D01*
X140517619Y-102576857D01*
X140470000Y-102529238D01*
X140422380Y-102434000D01*
D14*
X91924785Y-117427921D02*
X92142500Y-117427921D01*
X92251357Y-117482350D01*
X92360214Y-117591207D01*
X92414642Y-117808921D01*
X92414642Y-118189921D01*
X92360214Y-118407635D01*
X92251357Y-118516492D01*
X92142500Y-118570921D01*
X91924785Y-118570921D01*
X91815928Y-118516492D01*
X91707071Y-118407635D01*
X91652642Y-118189921D01*
X91652642Y-117808921D01*
X91707071Y-117591207D01*
X91815928Y-117482350D01*
X91924785Y-117427921D01*
X92904500Y-117808921D02*
X92904500Y-118951921D01*
X92904500Y-117863350D02*
X93013357Y-117808921D01*
X93231071Y-117808921D01*
X93339928Y-117863350D01*
X93394357Y-117917778D01*
X93448785Y-118026635D01*
X93448785Y-118353207D01*
X93394357Y-118462064D01*
X93339928Y-118516492D01*
X93231071Y-118570921D01*
X93013357Y-118570921D01*
X92904500Y-118516492D01*
X93775357Y-117808921D02*
X94210785Y-117808921D01*
X93938642Y-117427921D02*
X93938642Y-118407635D01*
X93993071Y-118516492D01*
X94101928Y-118570921D01*
X94210785Y-118570921D01*
X94591785Y-118570921D02*
X94591785Y-117808921D01*
X94591785Y-117427921D02*
X94537357Y-117482350D01*
X94591785Y-117536778D01*
X94646214Y-117482350D01*
X94591785Y-117427921D01*
X94591785Y-117536778D01*
X95299357Y-118570921D02*
X95190500Y-118516492D01*
X95136071Y-118462064D01*
X95081642Y-118353207D01*
X95081642Y-118026635D01*
X95136071Y-117917778D01*
X95190500Y-117863350D01*
X95299357Y-117808921D01*
X95462642Y-117808921D01*
X95571500Y-117863350D01*
X95625928Y-117917778D01*
X95680357Y-118026635D01*
X95680357Y-118353207D01*
X95625928Y-118462064D01*
X95571500Y-118516492D01*
X95462642Y-118570921D01*
X95299357Y-118570921D01*
X96170214Y-117808921D02*
X96170214Y-118570921D01*
X96170214Y-117917778D02*
X96224642Y-117863350D01*
X96333500Y-117808921D01*
X96496785Y-117808921D01*
X96605642Y-117863350D01*
X96660071Y-117972207D01*
X96660071Y-118570921D01*
X97694214Y-118570921D02*
X97694214Y-117972207D01*
X97639785Y-117863350D01*
X97530928Y-117808921D01*
X97313214Y-117808921D01*
X97204357Y-117863350D01*
X97694214Y-118516492D02*
X97585357Y-118570921D01*
X97313214Y-118570921D01*
X97204357Y-118516492D01*
X97149928Y-118407635D01*
X97149928Y-118298778D01*
X97204357Y-118189921D01*
X97313214Y-118135492D01*
X97585357Y-118135492D01*
X97694214Y-118081064D01*
X98401785Y-118570921D02*
X98292928Y-118516492D01*
X98238500Y-118407635D01*
X98238500Y-117427921D01*
X93176642Y-120463221D02*
X93176642Y-119320221D01*
X93612071Y-119320221D01*
X93720928Y-119374650D01*
X93775357Y-119429078D01*
X93829785Y-119537935D01*
X93829785Y-119701221D01*
X93775357Y-119810078D01*
X93720928Y-119864507D01*
X93612071Y-119918935D01*
X93176642Y-119918935D01*
X94482928Y-120463221D02*
X94374071Y-120408792D01*
X94319642Y-120354364D01*
X94265214Y-120245507D01*
X94265214Y-119918935D01*
X94319642Y-119810078D01*
X94374071Y-119755650D01*
X94482928Y-119701221D01*
X94646214Y-119701221D01*
X94755071Y-119755650D01*
X94809500Y-119810078D01*
X94863928Y-119918935D01*
X94863928Y-120245507D01*
X94809500Y-120354364D01*
X94755071Y-120408792D01*
X94646214Y-120463221D01*
X94482928Y-120463221D01*
X95244928Y-119701221D02*
X95462642Y-120463221D01*
X95680357Y-119918935D01*
X95898071Y-120463221D01*
X96115785Y-119701221D01*
X96986642Y-120408792D02*
X96877785Y-120463221D01*
X96660071Y-120463221D01*
X96551214Y-120408792D01*
X96496785Y-120299935D01*
X96496785Y-119864507D01*
X96551214Y-119755650D01*
X96660071Y-119701221D01*
X96877785Y-119701221D01*
X96986642Y-119755650D01*
X97041071Y-119864507D01*
X97041071Y-119973364D01*
X96496785Y-120082221D01*
X97530928Y-120463221D02*
X97530928Y-119701221D01*
X97530928Y-119918935D02*
X97585357Y-119810078D01*
X97639785Y-119755650D01*
X97748642Y-119701221D01*
X97857500Y-119701221D01*
D15*
X101890285Y-123244428D02*
X101890285Y-121720428D01*
X102398285Y-122809000D01*
X102906285Y-121720428D01*
X102906285Y-123244428D01*
X104285142Y-123244428D02*
X104285142Y-122446142D01*
X104212571Y-122301000D01*
X104067428Y-122228428D01*
X103777142Y-122228428D01*
X103632000Y-122301000D01*
X104285142Y-123171857D02*
X104140000Y-123244428D01*
X103777142Y-123244428D01*
X103632000Y-123171857D01*
X103559428Y-123026714D01*
X103559428Y-122881571D01*
X103632000Y-122736428D01*
X103777142Y-122663857D01*
X104140000Y-122663857D01*
X104285142Y-122591285D01*
X104938285Y-123171857D02*
X105083428Y-123244428D01*
X105373714Y-123244428D01*
X105518857Y-123171857D01*
X105591428Y-123026714D01*
X105591428Y-122954142D01*
X105518857Y-122809000D01*
X105373714Y-122736428D01*
X105156000Y-122736428D01*
X105010857Y-122663857D01*
X104938285Y-122518714D01*
X104938285Y-122446142D01*
X105010857Y-122301000D01*
X105156000Y-122228428D01*
X105373714Y-122228428D01*
X105518857Y-122301000D01*
X106026857Y-122228428D02*
X106607428Y-122228428D01*
X106244571Y-121720428D02*
X106244571Y-123026714D01*
X106317142Y-123171857D01*
X106462285Y-123244428D01*
X106607428Y-123244428D01*
X107696000Y-123171857D02*
X107550857Y-123244428D01*
X107260571Y-123244428D01*
X107115428Y-123171857D01*
X107042857Y-123026714D01*
X107042857Y-122446142D01*
X107115428Y-122301000D01*
X107260571Y-122228428D01*
X107550857Y-122228428D01*
X107696000Y-122301000D01*
X107768571Y-122446142D01*
X107768571Y-122591285D01*
X107042857Y-122736428D01*
X108421714Y-123244428D02*
X108421714Y-122228428D01*
X108421714Y-122518714D02*
X108494285Y-122373571D01*
X108566857Y-122301000D01*
X108712000Y-122228428D01*
X108857142Y-122228428D01*
X110526285Y-123244428D02*
X110526285Y-121720428D01*
X111179428Y-121865571D02*
X111252000Y-121793000D01*
X111397142Y-121720428D01*
X111760000Y-121720428D01*
X111905142Y-121793000D01*
X111977714Y-121865571D01*
X112050285Y-122010714D01*
X112050285Y-122155857D01*
X111977714Y-122373571D01*
X111106857Y-123244428D01*
X112050285Y-123244428D01*
X113574285Y-123099285D02*
X113501714Y-123171857D01*
X113284000Y-123244428D01*
X113138857Y-123244428D01*
X112921142Y-123171857D01*
X112776000Y-123026714D01*
X112703428Y-122881571D01*
X112630857Y-122591285D01*
X112630857Y-122373571D01*
X112703428Y-122083285D01*
X112776000Y-121938142D01*
X112921142Y-121793000D01*
X113138857Y-121720428D01*
X113284000Y-121720428D01*
X113501714Y-121793000D01*
X113574285Y-121865571D01*
D16*
X156119285Y-87890047D02*
X156300714Y-87950523D01*
X156603095Y-87950523D01*
X156724047Y-87890047D01*
X156784523Y-87829571D01*
X156845000Y-87708619D01*
X156845000Y-87587666D01*
X156784523Y-87466714D01*
X156724047Y-87406238D01*
X156603095Y-87345761D01*
X156361190Y-87285285D01*
X156240238Y-87224809D01*
X156179761Y-87164333D01*
X156119285Y-87043380D01*
X156119285Y-86922428D01*
X156179761Y-86801476D01*
X156240238Y-86741000D01*
X156361190Y-86680523D01*
X156663571Y-86680523D01*
X156845000Y-86741000D01*
X157570714Y-87950523D02*
X157449761Y-87890047D01*
X157389285Y-87769095D01*
X157389285Y-86680523D01*
X158598809Y-87950523D02*
X158598809Y-87285285D01*
X158538333Y-87164333D01*
X158417380Y-87103857D01*
X158175476Y-87103857D01*
X158054523Y-87164333D01*
X158598809Y-87890047D02*
X158477857Y-87950523D01*
X158175476Y-87950523D01*
X158054523Y-87890047D01*
X157994047Y-87769095D01*
X157994047Y-87648142D01*
X158054523Y-87527190D01*
X158175476Y-87466714D01*
X158477857Y-87466714D01*
X158598809Y-87406238D01*
X159082619Y-87103857D02*
X159385000Y-87950523D01*
X159687380Y-87103857D01*
X160655000Y-87890047D02*
X160534047Y-87950523D01*
X160292142Y-87950523D01*
X160171190Y-87890047D01*
X160110714Y-87769095D01*
X160110714Y-87285285D01*
X160171190Y-87164333D01*
X160292142Y-87103857D01*
X160534047Y-87103857D01*
X160655000Y-87164333D01*
X160715476Y-87285285D01*
X160715476Y-87406238D01*
X160110714Y-87527190D01*
X162166904Y-87587666D02*
X162771666Y-87587666D01*
X162045952Y-87950523D02*
X162469285Y-86680523D01*
X162892619Y-87950523D01*
X163860238Y-87950523D02*
X163860238Y-86680523D01*
X163860238Y-87890047D02*
X163739285Y-87950523D01*
X163497380Y-87950523D01*
X163376428Y-87890047D01*
X163315952Y-87829571D01*
X163255476Y-87708619D01*
X163255476Y-87345761D01*
X163315952Y-87224809D01*
X163376428Y-87164333D01*
X163497380Y-87103857D01*
X163739285Y-87103857D01*
X163860238Y-87164333D01*
X165009285Y-87950523D02*
X165009285Y-86680523D01*
X165009285Y-87890047D02*
X164888333Y-87950523D01*
X164646428Y-87950523D01*
X164525476Y-87890047D01*
X164465000Y-87829571D01*
X164404523Y-87708619D01*
X164404523Y-87345761D01*
X164465000Y-87224809D01*
X164525476Y-87164333D01*
X164646428Y-87103857D01*
X164888333Y-87103857D01*
X165009285Y-87164333D01*
X165614047Y-87950523D02*
X165614047Y-87103857D01*
X165614047Y-87345761D02*
X165674523Y-87224809D01*
X165735000Y-87164333D01*
X165855952Y-87103857D01*
X165976904Y-87103857D01*
X166884047Y-87890047D02*
X166763095Y-87950523D01*
X166521190Y-87950523D01*
X166400238Y-87890047D01*
X166339761Y-87769095D01*
X166339761Y-87285285D01*
X166400238Y-87164333D01*
X166521190Y-87103857D01*
X166763095Y-87103857D01*
X166884047Y-87164333D01*
X166944523Y-87285285D01*
X166944523Y-87406238D01*
X166339761Y-87527190D01*
X167428333Y-87890047D02*
X167549285Y-87950523D01*
X167791190Y-87950523D01*
X167912142Y-87890047D01*
X167972619Y-87769095D01*
X167972619Y-87708619D01*
X167912142Y-87587666D01*
X167791190Y-87527190D01*
X167609761Y-87527190D01*
X167488809Y-87466714D01*
X167428333Y-87345761D01*
X167428333Y-87285285D01*
X167488809Y-87164333D01*
X167609761Y-87103857D01*
X167791190Y-87103857D01*
X167912142Y-87164333D01*
X168456428Y-87890047D02*
X168577380Y-87950523D01*
X168819285Y-87950523D01*
X168940238Y-87890047D01*
X169000714Y-87769095D01*
X169000714Y-87708619D01*
X168940238Y-87587666D01*
X168819285Y-87527190D01*
X168637857Y-87527190D01*
X168516904Y-87466714D01*
X168456428Y-87345761D01*
X168456428Y-87285285D01*
X168516904Y-87164333D01*
X168637857Y-87103857D01*
X168819285Y-87103857D01*
X168940238Y-87164333D01*
D10*
X151892000Y-88900000D02*
X151892000Y-101092000D01*
X172720000Y-88900000D02*
X151892000Y-88900000D01*
X172720000Y-89408000D02*
X172720000Y-88900000D01*
X172720000Y-101092000D02*
X172720000Y-89408000D01*
X151892000Y-101092000D02*
X172720000Y-101092000D01*
D11*
X92371333Y-97741619D02*
X92371333Y-96725619D01*
X92758380Y-96725619D01*
X92855142Y-96774000D01*
X92903523Y-96822380D01*
X92951904Y-96919142D01*
X92951904Y-97064285D01*
X92903523Y-97161047D01*
X92855142Y-97209428D01*
X92758380Y-97257809D01*
X92371333Y-97257809D01*
X93290571Y-96725619D02*
X93532476Y-97741619D01*
X93726000Y-97015904D01*
X93919523Y-97741619D01*
X94161428Y-96725619D01*
X95129047Y-97741619D02*
X94790380Y-97257809D01*
X94548476Y-97741619D02*
X94548476Y-96725619D01*
X94935523Y-96725619D01*
X95032285Y-96774000D01*
X95080666Y-96822380D01*
X95129047Y-96919142D01*
X95129047Y-97064285D01*
X95080666Y-97161047D01*
X95032285Y-97209428D01*
X94935523Y-97257809D01*
X94548476Y-97257809D01*
D10*
X98806000Y-104902000D02*
X98806000Y-104648000D01*
X91948000Y-104902000D02*
X98806000Y-104902000D01*
X91948000Y-104648000D02*
X91948000Y-104902000D01*
X91948000Y-98298000D02*
X91948000Y-104648000D01*
X98806000Y-98298000D02*
X91948000Y-98298000D01*
X98806000Y-104648000D02*
X98806000Y-98298000D01*
X170815000Y-93345000D02*
X171704000Y-93345000D01*
X171259500Y-91376500D02*
X171259500Y-91884500D01*
X171259500Y-91376500D02*
X171259500Y-90868500D01*
X170815000Y-91376500D02*
X171704000Y-91376500D01*
X132334000Y-94615000D02*
X132334000Y-95631000D01*
X131826000Y-95123000D02*
X132842000Y-95123000D01*
X131826000Y-97028000D02*
X132842000Y-97028000D01*
X113792000Y-97536000D02*
X113792000Y-98298000D01*
X116840000Y-97536000D02*
X116840000Y-98298000D01*
X119888000Y-97536000D02*
X119888000Y-98298000D01*
X122936000Y-97536000D02*
X122936000Y-98298000D01*
X122555000Y-97917000D02*
X123317000Y-97917000D01*
X119507000Y-97917000D02*
X120269000Y-97917000D01*
X116459000Y-97917000D02*
X117221000Y-97917000D01*
X113411000Y-97917000D02*
X114173000Y-97917000D01*
X122555000Y-96012000D02*
X123317000Y-96012000D01*
X119507000Y-96012000D02*
X120269000Y-96012000D01*
X116459000Y-96012000D02*
X117221000Y-96012000D01*
X113411000Y-96012000D02*
X114173000Y-96012000D01*
X110363000Y-96012000D02*
X111125000Y-96012000D01*
X110363000Y-97917000D02*
X111125000Y-97917000D01*
X110744000Y-97536000D02*
X110744000Y-98298000D01*
X107315000Y-96012000D02*
X108077000Y-96012000D01*
X107315000Y-97917000D02*
X108077000Y-97917000D01*
X107696000Y-98298000D02*
X107696000Y-97536000D01*
X104267000Y-96012000D02*
X105029000Y-96012000D01*
X105029000Y-97917000D02*
X104267000Y-97917000D01*
X104648000Y-98298000D02*
X104648000Y-97536000D01*
X93218000Y-99187000D02*
X93980000Y-99187000D01*
X95504000Y-98806000D02*
X95504000Y-99568000D01*
X95123000Y-99187000D02*
X95885000Y-99187000D01*
D17*
X100142523Y-96574428D02*
X98872523Y-96574428D01*
X98872523Y-96272047D01*
X98933000Y-96090619D01*
X99053952Y-95969666D01*
X99174904Y-95909190D01*
X99416809Y-95848714D01*
X99598238Y-95848714D01*
X99840142Y-95909190D01*
X99961095Y-95969666D01*
X100082047Y-96090619D01*
X100142523Y-96272047D01*
X100142523Y-96574428D01*
X100082047Y-94820619D02*
X100142523Y-94941571D01*
X100142523Y-95183476D01*
X100082047Y-95304428D01*
X99961095Y-95364904D01*
X99477285Y-95364904D01*
X99356333Y-95304428D01*
X99295857Y-95183476D01*
X99295857Y-94941571D01*
X99356333Y-94820619D01*
X99477285Y-94760142D01*
X99598238Y-94760142D01*
X99719190Y-95364904D01*
X100142523Y-94215857D02*
X98872523Y-94215857D01*
X99356333Y-94215857D02*
X99295857Y-94094904D01*
X99295857Y-93853000D01*
X99356333Y-93732047D01*
X99416809Y-93671571D01*
X99537761Y-93611095D01*
X99900619Y-93611095D01*
X100021571Y-93671571D01*
X100082047Y-93732047D01*
X100142523Y-93853000D01*
X100142523Y-94094904D01*
X100082047Y-94215857D01*
X99295857Y-92522523D02*
X100142523Y-92522523D01*
X99295857Y-93066809D02*
X99961095Y-93066809D01*
X100082047Y-93006333D01*
X100142523Y-92885380D01*
X100142523Y-92703952D01*
X100082047Y-92583000D01*
X100021571Y-92522523D01*
X99295857Y-91373476D02*
X100323952Y-91373476D01*
X100444904Y-91433952D01*
X100505380Y-91494428D01*
X100565857Y-91615380D01*
X100565857Y-91796809D01*
X100505380Y-91917761D01*
X100082047Y-91373476D02*
X100142523Y-91494428D01*
X100142523Y-91736333D01*
X100082047Y-91857285D01*
X100021571Y-91917761D01*
X99900619Y-91978238D01*
X99537761Y-91978238D01*
X99416809Y-91917761D01*
X99356333Y-91857285D01*
X99295857Y-91736333D01*
X99295857Y-91494428D01*
X99356333Y-91373476D01*
X99295857Y-90224428D02*
X100323952Y-90224428D01*
X100444904Y-90284904D01*
X100505380Y-90345380D01*
X100565857Y-90466333D01*
X100565857Y-90647761D01*
X100505380Y-90768714D01*
X100082047Y-90224428D02*
X100142523Y-90345380D01*
X100142523Y-90587285D01*
X100082047Y-90708238D01*
X100021571Y-90768714D01*
X99900619Y-90829190D01*
X99537761Y-90829190D01*
X99416809Y-90768714D01*
X99356333Y-90708238D01*
X99295857Y-90587285D01*
X99295857Y-90345380D01*
X99356333Y-90224428D01*
X100142523Y-89619666D02*
X99295857Y-89619666D01*
X98872523Y-89619666D02*
X98933000Y-89680142D01*
X98993476Y-89619666D01*
X98933000Y-89559190D01*
X98872523Y-89619666D01*
X98993476Y-89619666D01*
X99295857Y-89014904D02*
X100142523Y-89014904D01*
X99416809Y-89014904D02*
X99356333Y-88954428D01*
X99295857Y-88833476D01*
X99295857Y-88652047D01*
X99356333Y-88531095D01*
X99477285Y-88470619D01*
X100142523Y-88470619D01*
X99295857Y-87321571D02*
X100323952Y-87321571D01*
X100444904Y-87382047D01*
X100505380Y-87442523D01*
X100565857Y-87563476D01*
X100565857Y-87744904D01*
X100505380Y-87865857D01*
X100082047Y-87321571D02*
X100142523Y-87442523D01*
X100142523Y-87684428D01*
X100082047Y-87805380D01*
X100021571Y-87865857D01*
X99900619Y-87926333D01*
X99537761Y-87926333D01*
X99416809Y-87865857D01*
X99356333Y-87805380D01*
X99295857Y-87684428D01*
X99295857Y-87442523D01*
X99356333Y-87321571D01*
D10*
X101600000Y-86868000D02*
X125984000Y-86868000D01*
X101600000Y-102108000D02*
X101600000Y-86868000D01*
X125984000Y-102108000D02*
X101600000Y-102108000D01*
X125984000Y-86868000D02*
X125984000Y-102108000D01*
D15*
X137813142Y-89589428D02*
X137813142Y-88065428D01*
X138393714Y-88065428D01*
X138538857Y-88138000D01*
X138611428Y-88210571D01*
X138684000Y-88355714D01*
X138684000Y-88573428D01*
X138611428Y-88718571D01*
X138538857Y-88791142D01*
X138393714Y-88863714D01*
X137813142Y-88863714D01*
X139337142Y-89589428D02*
X139337142Y-88573428D01*
X139337142Y-88863714D02*
X139409714Y-88718571D01*
X139482285Y-88646000D01*
X139627428Y-88573428D01*
X139772571Y-88573428D01*
X140498285Y-89589428D02*
X140353142Y-89516857D01*
X140280571Y-89444285D01*
X140208000Y-89299142D01*
X140208000Y-88863714D01*
X140280571Y-88718571D01*
X140353142Y-88646000D01*
X140498285Y-88573428D01*
X140716000Y-88573428D01*
X140861142Y-88646000D01*
X140933714Y-88718571D01*
X141006285Y-88863714D01*
X141006285Y-89299142D01*
X140933714Y-89444285D01*
X140861142Y-89516857D01*
X140716000Y-89589428D01*
X140498285Y-89589428D01*
X142312571Y-88573428D02*
X142312571Y-89807142D01*
X142240000Y-89952285D01*
X142167428Y-90024857D01*
X142022285Y-90097428D01*
X141804571Y-90097428D01*
X141659428Y-90024857D01*
X142312571Y-89516857D02*
X142167428Y-89589428D01*
X141877142Y-89589428D01*
X141732000Y-89516857D01*
X141659428Y-89444285D01*
X141586857Y-89299142D01*
X141586857Y-88863714D01*
X141659428Y-88718571D01*
X141732000Y-88646000D01*
X141877142Y-88573428D01*
X142167428Y-88573428D01*
X142312571Y-88646000D01*
X143038285Y-89589428D02*
X143038285Y-88573428D01*
X143038285Y-88863714D02*
X143110857Y-88718571D01*
X143183428Y-88646000D01*
X143328571Y-88573428D01*
X143473714Y-88573428D01*
X144634857Y-89589428D02*
X144634857Y-88791142D01*
X144562285Y-88646000D01*
X144417142Y-88573428D01*
X144126857Y-88573428D01*
X143981714Y-88646000D01*
X144634857Y-89516857D02*
X144489714Y-89589428D01*
X144126857Y-89589428D01*
X143981714Y-89516857D01*
X143909142Y-89371714D01*
X143909142Y-89226571D01*
X143981714Y-89081428D01*
X144126857Y-89008857D01*
X144489714Y-89008857D01*
X144634857Y-88936285D01*
X145360571Y-89589428D02*
X145360571Y-88573428D01*
X145360571Y-88718571D02*
X145433142Y-88646000D01*
X145578285Y-88573428D01*
X145796000Y-88573428D01*
X145941142Y-88646000D01*
X146013714Y-88791142D01*
X146013714Y-89589428D01*
X146013714Y-88791142D02*
X146086285Y-88646000D01*
X146231428Y-88573428D01*
X146449142Y-88573428D01*
X146594285Y-88646000D01*
X146666857Y-88791142D01*
X146666857Y-89589428D01*
X106825142Y-119234857D02*
X107042857Y-119307428D01*
X107405714Y-119307428D01*
X107550857Y-119234857D01*
X107623428Y-119162285D01*
X107696000Y-119017142D01*
X107696000Y-118872000D01*
X107623428Y-118726857D01*
X107550857Y-118654285D01*
X107405714Y-118581714D01*
X107115428Y-118509142D01*
X106970285Y-118436571D01*
X106897714Y-118364000D01*
X106825142Y-118218857D01*
X106825142Y-118073714D01*
X106897714Y-117928571D01*
X106970285Y-117856000D01*
X107115428Y-117783428D01*
X107478285Y-117783428D01*
X107696000Y-117856000D01*
X108566857Y-119307428D02*
X108421714Y-119234857D01*
X108349142Y-119089714D01*
X108349142Y-117783428D01*
X109800571Y-119307428D02*
X109800571Y-118509142D01*
X109728000Y-118364000D01*
X109582857Y-118291428D01*
X109292571Y-118291428D01*
X109147428Y-118364000D01*
X109800571Y-119234857D02*
X109655428Y-119307428D01*
X109292571Y-119307428D01*
X109147428Y-119234857D01*
X109074857Y-119089714D01*
X109074857Y-118944571D01*
X109147428Y-118799428D01*
X109292571Y-118726857D01*
X109655428Y-118726857D01*
X109800571Y-118654285D01*
X110381142Y-118291428D02*
X110744000Y-119307428D01*
X111106857Y-118291428D01*
X112268000Y-119234857D02*
X112122857Y-119307428D01*
X111832571Y-119307428D01*
X111687428Y-119234857D01*
X111614857Y-119089714D01*
X111614857Y-118509142D01*
X111687428Y-118364000D01*
X111832571Y-118291428D01*
X112122857Y-118291428D01*
X112268000Y-118364000D01*
X112340571Y-118509142D01*
X112340571Y-118654285D01*
X111614857Y-118799428D01*
X114154857Y-119307428D02*
X114154857Y-117783428D01*
X114808000Y-117928571D02*
X114880571Y-117856000D01*
X115025714Y-117783428D01*
X115388571Y-117783428D01*
X115533714Y-117856000D01*
X115606285Y-117928571D01*
X115678857Y-118073714D01*
X115678857Y-118218857D01*
X115606285Y-118436571D01*
X114735428Y-119307428D01*
X115678857Y-119307428D01*
X117202857Y-119162285D02*
X117130285Y-119234857D01*
X116912571Y-119307428D01*
X116767428Y-119307428D01*
X116549714Y-119234857D01*
X116404571Y-119089714D01*
X116332000Y-118944571D01*
X116259428Y-118654285D01*
X116259428Y-118436571D01*
X116332000Y-118146285D01*
X116404571Y-118001142D01*
X116549714Y-117856000D01*
X116767428Y-117783428D01*
X116912571Y-117783428D01*
X117130285Y-117856000D01*
X117202857Y-117928571D01*
D10*
X103124000Y-118364000D02*
X103124000Y-104140000D01*
X120904000Y-104140000D02*
X120904000Y-118364000D01*
X103124000Y-104140000D02*
X120904000Y-104140000D01*
D15*
X178054000Y-97644857D02*
X178271714Y-97717428D01*
X178634571Y-97717428D01*
X178779714Y-97644857D01*
X178852285Y-97572285D01*
X178924857Y-97427142D01*
X178924857Y-97282000D01*
X178852285Y-97136857D01*
X178779714Y-97064285D01*
X178634571Y-96991714D01*
X178344285Y-96919142D01*
X178199142Y-96846571D01*
X178126571Y-96774000D01*
X178054000Y-96628857D01*
X178054000Y-96483714D01*
X178126571Y-96338571D01*
X178199142Y-96266000D01*
X178344285Y-96193428D01*
X178707142Y-96193428D01*
X178924857Y-96266000D01*
X179795714Y-97717428D02*
X179650571Y-97644857D01*
X179578000Y-97499714D01*
X179578000Y-96193428D01*
X181029428Y-97717428D02*
X181029428Y-96919142D01*
X180956857Y-96774000D01*
X180811714Y-96701428D01*
X180521428Y-96701428D01*
X180376285Y-96774000D01*
X181029428Y-97644857D02*
X180884285Y-97717428D01*
X180521428Y-97717428D01*
X180376285Y-97644857D01*
X180303714Y-97499714D01*
X180303714Y-97354571D01*
X180376285Y-97209428D01*
X180521428Y-97136857D01*
X180884285Y-97136857D01*
X181029428Y-97064285D01*
X181610000Y-96701428D02*
X181972857Y-97717428D01*
X182335714Y-96701428D01*
X183496857Y-97644857D02*
X183351714Y-97717428D01*
X183061428Y-97717428D01*
X182916285Y-97644857D01*
X182843714Y-97499714D01*
X182843714Y-96919142D01*
X182916285Y-96774000D01*
X183061428Y-96701428D01*
X183351714Y-96701428D01*
X183496857Y-96774000D01*
X183569428Y-96919142D01*
X183569428Y-97064285D01*
X182843714Y-97209428D01*
X185311142Y-97282000D02*
X186036857Y-97282000D01*
X185166000Y-97717428D02*
X185674000Y-96193428D01*
X186182000Y-97717428D01*
X187343142Y-97717428D02*
X187343142Y-96193428D01*
X187343142Y-97644857D02*
X187198000Y-97717428D01*
X186907714Y-97717428D01*
X186762571Y-97644857D01*
X186690000Y-97572285D01*
X186617428Y-97427142D01*
X186617428Y-96991714D01*
X186690000Y-96846571D01*
X186762571Y-96774000D01*
X186907714Y-96701428D01*
X187198000Y-96701428D01*
X187343142Y-96774000D01*
X188722000Y-97717428D02*
X188722000Y-96193428D01*
X188722000Y-97644857D02*
X188576857Y-97717428D01*
X188286571Y-97717428D01*
X188141428Y-97644857D01*
X188068857Y-97572285D01*
X187996285Y-97427142D01*
X187996285Y-96991714D01*
X188068857Y-96846571D01*
X188141428Y-96774000D01*
X188286571Y-96701428D01*
X188576857Y-96701428D01*
X188722000Y-96774000D01*
X189447714Y-97717428D02*
X189447714Y-96701428D01*
X189447714Y-96991714D02*
X189520285Y-96846571D01*
X189592857Y-96774000D01*
X189738000Y-96701428D01*
X189883142Y-96701428D01*
X166116000Y-118799428D02*
X166116000Y-117275428D01*
X166696571Y-117275428D01*
X166841714Y-117348000D01*
X166914285Y-117420571D01*
X166986857Y-117565714D01*
X166986857Y-117783428D01*
X166914285Y-117928571D01*
X166841714Y-118001142D01*
X166696571Y-118073714D01*
X166116000Y-118073714D01*
X168510857Y-118799428D02*
X168002857Y-118073714D01*
X167640000Y-118799428D02*
X167640000Y-117275428D01*
X168220571Y-117275428D01*
X168365714Y-117348000D01*
X168438285Y-117420571D01*
X168510857Y-117565714D01*
X168510857Y-117783428D01*
X168438285Y-117928571D01*
X168365714Y-118001142D01*
X168220571Y-118073714D01*
X167640000Y-118073714D01*
X169962285Y-117348000D02*
X169817142Y-117275428D01*
X169599428Y-117275428D01*
X169381714Y-117348000D01*
X169236571Y-117493142D01*
X169164000Y-117638285D01*
X169091428Y-117928571D01*
X169091428Y-118146285D01*
X169164000Y-118436571D01*
X169236571Y-118581714D01*
X169381714Y-118726857D01*
X169599428Y-118799428D01*
X169744571Y-118799428D01*
X169962285Y-118726857D01*
X170034857Y-118654285D01*
X170034857Y-118146285D01*
X169744571Y-118146285D01*
X170688000Y-118799428D02*
X170688000Y-117275428D01*
X171196000Y-118364000D01*
X171704000Y-117275428D01*
X171704000Y-118799428D01*
X169236571Y-105772857D02*
X169454285Y-105845428D01*
X169817142Y-105845428D01*
X169962285Y-105772857D01*
X170034857Y-105700285D01*
X170107428Y-105555142D01*
X170107428Y-105410000D01*
X170034857Y-105264857D01*
X169962285Y-105192285D01*
X169817142Y-105119714D01*
X169526857Y-105047142D01*
X169381714Y-104974571D01*
X169309142Y-104902000D01*
X169236571Y-104756857D01*
X169236571Y-104611714D01*
X169309142Y-104466571D01*
X169381714Y-104394000D01*
X169526857Y-104321428D01*
X169889714Y-104321428D01*
X170107428Y-104394000D01*
X171413714Y-105772857D02*
X171268571Y-105845428D01*
X170978285Y-105845428D01*
X170833142Y-105772857D01*
X170760571Y-105700285D01*
X170688000Y-105555142D01*
X170688000Y-105119714D01*
X170760571Y-104974571D01*
X170833142Y-104902000D01*
X170978285Y-104829428D01*
X171268571Y-104829428D01*
X171413714Y-104902000D01*
X172720000Y-105845428D02*
X172720000Y-105047142D01*
X172647428Y-104902000D01*
X172502285Y-104829428D01*
X172212000Y-104829428D01*
X172066857Y-104902000D01*
X172720000Y-105772857D02*
X172574857Y-105845428D01*
X172212000Y-105845428D01*
X172066857Y-105772857D01*
X171994285Y-105627714D01*
X171994285Y-105482571D01*
X172066857Y-105337428D01*
X172212000Y-105264857D01*
X172574857Y-105264857D01*
X172720000Y-105192285D01*
X173445714Y-104829428D02*
X173445714Y-105845428D01*
X173445714Y-104974571D02*
X173518285Y-104902000D01*
X173663428Y-104829428D01*
X173881142Y-104829428D01*
X174026285Y-104902000D01*
X174098857Y-105047142D01*
X174098857Y-105845428D01*
X160818285Y-105047142D02*
X161326285Y-105047142D01*
X161544000Y-105845428D02*
X160818285Y-105845428D01*
X160818285Y-104321428D01*
X161544000Y-104321428D01*
X162197142Y-105845428D02*
X162197142Y-104829428D01*
X162197142Y-105119714D02*
X162269714Y-104974571D01*
X162342285Y-104902000D01*
X162487428Y-104829428D01*
X162632571Y-104829428D01*
X163793714Y-105845428D02*
X163793714Y-105047142D01*
X163721142Y-104902000D01*
X163576000Y-104829428D01*
X163285714Y-104829428D01*
X163140571Y-104902000D01*
X163793714Y-105772857D02*
X163648571Y-105845428D01*
X163285714Y-105845428D01*
X163140571Y-105772857D01*
X163068000Y-105627714D01*
X163068000Y-105482571D01*
X163140571Y-105337428D01*
X163285714Y-105264857D01*
X163648571Y-105264857D01*
X163793714Y-105192285D01*
X164446857Y-105772857D02*
X164592000Y-105845428D01*
X164882285Y-105845428D01*
X165027428Y-105772857D01*
X165100000Y-105627714D01*
X165100000Y-105555142D01*
X165027428Y-105410000D01*
X164882285Y-105337428D01*
X164664571Y-105337428D01*
X164519428Y-105264857D01*
X164446857Y-105119714D01*
X164446857Y-105047142D01*
X164519428Y-104902000D01*
X164664571Y-104829428D01*
X164882285Y-104829428D01*
X165027428Y-104902000D01*
X166333714Y-105772857D02*
X166188571Y-105845428D01*
X165898285Y-105845428D01*
X165753142Y-105772857D01*
X165680571Y-105627714D01*
X165680571Y-105047142D01*
X165753142Y-104902000D01*
X165898285Y-104829428D01*
X166188571Y-104829428D01*
X166333714Y-104902000D01*
X166406285Y-105047142D01*
X166406285Y-105192285D01*
X165680571Y-105337428D01*
D18*
G36*
X134620000Y-90424000D02*
G01*
X133096000Y-88900000D01*
X136144000Y-88900000D01*
X134620000Y-90424000D01*
G37*
X134620000Y-90424000D02*
X133096000Y-88900000D01*
X136144000Y-88900000D01*
X134620000Y-90424000D01*
D10*
G04 #@! TO.C,R24*
X153373064Y-113311000D02*
X152918936Y-113311000D01*
X153373064Y-114781000D02*
X152918936Y-114781000D01*
G04 #@! TO.C,C5*
X152754000Y-111082064D02*
X152754000Y-110627936D01*
X151284000Y-111082064D02*
X151284000Y-110627936D01*
G04 #@! TO.C,U1*
X137770000Y-98425000D02*
X138570000Y-97625000D01*
X138570000Y-97625000D02*
X144170000Y-97625000D01*
X144170000Y-97625000D02*
X144170000Y-115735000D01*
X144170000Y-115735000D02*
X137770000Y-115735000D01*
X137770000Y-115735000D02*
X137770000Y-98425000D01*
G04 #@! TO.C,J11*
X168765000Y-126255000D02*
X162745000Y-126255000D01*
X162745000Y-126255000D02*
X162745000Y-141715000D01*
X162745000Y-141715000D02*
X168765000Y-141715000D01*
X168765000Y-141715000D02*
X168765000Y-126255000D01*
X167735000Y-125965000D02*
X163735000Y-125965000D01*
X162745000Y-127635000D02*
X163745000Y-127635000D01*
X163745000Y-127635000D02*
X163745000Y-140335000D01*
X163745000Y-140335000D02*
X162745000Y-140335000D01*
X163745000Y-127635000D02*
X164275000Y-127885000D01*
X164275000Y-127885000D02*
X164275000Y-140085000D01*
X164275000Y-140085000D02*
X163745000Y-140335000D01*
X162745000Y-127885000D02*
X163745000Y-127885000D01*
X162745000Y-140085000D02*
X163745000Y-140085000D01*
X168765000Y-126835000D02*
X168165000Y-126835000D01*
X168165000Y-126835000D02*
X168165000Y-128435000D01*
X168165000Y-128435000D02*
X168765000Y-128435000D01*
X168765000Y-129375000D02*
X168165000Y-129375000D01*
X168165000Y-129375000D02*
X168165000Y-130975000D01*
X168165000Y-130975000D02*
X168765000Y-130975000D01*
X168765000Y-131915000D02*
X168165000Y-131915000D01*
X168165000Y-131915000D02*
X168165000Y-133515000D01*
X168165000Y-133515000D02*
X168765000Y-133515000D01*
X168765000Y-134455000D02*
X168165000Y-134455000D01*
X168165000Y-134455000D02*
X168165000Y-136055000D01*
X168165000Y-136055000D02*
X168765000Y-136055000D01*
X168765000Y-136995000D02*
X168165000Y-136995000D01*
X168165000Y-136995000D02*
X168165000Y-138595000D01*
X168165000Y-138595000D02*
X168765000Y-138595000D01*
X168765000Y-139535000D02*
X168165000Y-139535000D01*
X168165000Y-139535000D02*
X168165000Y-141135000D01*
X168165000Y-141135000D02*
X168765000Y-141135000D01*
G04 #@! TO.C,J12*
X178925000Y-126255000D02*
X172905000Y-126255000D01*
X172905000Y-126255000D02*
X172905000Y-141715000D01*
X172905000Y-141715000D02*
X178925000Y-141715000D01*
X178925000Y-141715000D02*
X178925000Y-126255000D01*
X177895000Y-125965000D02*
X173895000Y-125965000D01*
X172905000Y-127635000D02*
X173905000Y-127635000D01*
X173905000Y-127635000D02*
X173905000Y-140335000D01*
X173905000Y-140335000D02*
X172905000Y-140335000D01*
X173905000Y-127635000D02*
X174435000Y-127885000D01*
X174435000Y-127885000D02*
X174435000Y-140085000D01*
X174435000Y-140085000D02*
X173905000Y-140335000D01*
X172905000Y-127885000D02*
X173905000Y-127885000D01*
X172905000Y-140085000D02*
X173905000Y-140085000D01*
X178925000Y-126835000D02*
X178325000Y-126835000D01*
X178325000Y-126835000D02*
X178325000Y-128435000D01*
X178325000Y-128435000D02*
X178925000Y-128435000D01*
X178925000Y-129375000D02*
X178325000Y-129375000D01*
X178325000Y-129375000D02*
X178325000Y-130975000D01*
X178325000Y-130975000D02*
X178925000Y-130975000D01*
X178925000Y-131915000D02*
X178325000Y-131915000D01*
X178325000Y-131915000D02*
X178325000Y-133515000D01*
X178325000Y-133515000D02*
X178925000Y-133515000D01*
X178925000Y-134455000D02*
X178325000Y-134455000D01*
X178325000Y-134455000D02*
X178325000Y-136055000D01*
X178325000Y-136055000D02*
X178925000Y-136055000D01*
X178925000Y-136995000D02*
X178325000Y-136995000D01*
X178325000Y-136995000D02*
X178325000Y-138595000D01*
X178325000Y-138595000D02*
X178925000Y-138595000D01*
X178925000Y-139535000D02*
X178325000Y-139535000D01*
X178325000Y-139535000D02*
X178325000Y-141135000D01*
X178325000Y-141135000D02*
X178925000Y-141135000D01*
G04 #@! TO.C,J10*
X158605000Y-126255000D02*
X152585000Y-126255000D01*
X152585000Y-126255000D02*
X152585000Y-141715000D01*
X152585000Y-141715000D02*
X158605000Y-141715000D01*
X158605000Y-141715000D02*
X158605000Y-126255000D01*
X157575000Y-125965000D02*
X153575000Y-125965000D01*
X152585000Y-127635000D02*
X153585000Y-127635000D01*
X153585000Y-127635000D02*
X153585000Y-140335000D01*
X153585000Y-140335000D02*
X152585000Y-140335000D01*
X153585000Y-127635000D02*
X154115000Y-127885000D01*
X154115000Y-127885000D02*
X154115000Y-140085000D01*
X154115000Y-140085000D02*
X153585000Y-140335000D01*
X152585000Y-127885000D02*
X153585000Y-127885000D01*
X152585000Y-140085000D02*
X153585000Y-140085000D01*
X158605000Y-126835000D02*
X158005000Y-126835000D01*
X158005000Y-126835000D02*
X158005000Y-128435000D01*
X158005000Y-128435000D02*
X158605000Y-128435000D01*
X158605000Y-129375000D02*
X158005000Y-129375000D01*
X158005000Y-129375000D02*
X158005000Y-130975000D01*
X158005000Y-130975000D02*
X158605000Y-130975000D01*
X158605000Y-131915000D02*
X158005000Y-131915000D01*
X158005000Y-131915000D02*
X158005000Y-133515000D01*
X158005000Y-133515000D02*
X158605000Y-133515000D01*
X158605000Y-134455000D02*
X158005000Y-134455000D01*
X158005000Y-134455000D02*
X158005000Y-136055000D01*
X158005000Y-136055000D02*
X158605000Y-136055000D01*
X158605000Y-136995000D02*
X158005000Y-136995000D01*
X158005000Y-136995000D02*
X158005000Y-138595000D01*
X158005000Y-138595000D02*
X158605000Y-138595000D01*
X158605000Y-139535000D02*
X158005000Y-139535000D01*
X158005000Y-139535000D02*
X158005000Y-141135000D01*
X158005000Y-141135000D02*
X158605000Y-141135000D01*
G04 #@! TO.C,J9*
X148445000Y-126255000D02*
X142425000Y-126255000D01*
X142425000Y-126255000D02*
X142425000Y-141715000D01*
X142425000Y-141715000D02*
X148445000Y-141715000D01*
X148445000Y-141715000D02*
X148445000Y-126255000D01*
X147415000Y-125965000D02*
X143415000Y-125965000D01*
X142425000Y-127635000D02*
X143425000Y-127635000D01*
X143425000Y-127635000D02*
X143425000Y-140335000D01*
X143425000Y-140335000D02*
X142425000Y-140335000D01*
X143425000Y-127635000D02*
X143955000Y-127885000D01*
X143955000Y-127885000D02*
X143955000Y-140085000D01*
X143955000Y-140085000D02*
X143425000Y-140335000D01*
X142425000Y-127885000D02*
X143425000Y-127885000D01*
X142425000Y-140085000D02*
X143425000Y-140085000D01*
X148445000Y-126835000D02*
X147845000Y-126835000D01*
X147845000Y-126835000D02*
X147845000Y-128435000D01*
X147845000Y-128435000D02*
X148445000Y-128435000D01*
X148445000Y-129375000D02*
X147845000Y-129375000D01*
X147845000Y-129375000D02*
X147845000Y-130975000D01*
X147845000Y-130975000D02*
X148445000Y-130975000D01*
X148445000Y-131915000D02*
X147845000Y-131915000D01*
X147845000Y-131915000D02*
X147845000Y-133515000D01*
X147845000Y-133515000D02*
X148445000Y-133515000D01*
X148445000Y-134455000D02*
X147845000Y-134455000D01*
X147845000Y-134455000D02*
X147845000Y-136055000D01*
X147845000Y-136055000D02*
X148445000Y-136055000D01*
X148445000Y-136995000D02*
X147845000Y-136995000D01*
X147845000Y-136995000D02*
X147845000Y-138595000D01*
X147845000Y-138595000D02*
X148445000Y-138595000D01*
X148445000Y-139535000D02*
X147845000Y-139535000D01*
X147845000Y-139535000D02*
X147845000Y-141135000D01*
X147845000Y-141135000D02*
X148445000Y-141135000D01*
G04 #@! TO.C,J8*
X138285000Y-126255000D02*
X132265000Y-126255000D01*
X132265000Y-126255000D02*
X132265000Y-141715000D01*
X132265000Y-141715000D02*
X138285000Y-141715000D01*
X138285000Y-141715000D02*
X138285000Y-126255000D01*
X137255000Y-125965000D02*
X133255000Y-125965000D01*
X132265000Y-127635000D02*
X133265000Y-127635000D01*
X133265000Y-127635000D02*
X133265000Y-140335000D01*
X133265000Y-140335000D02*
X132265000Y-140335000D01*
X133265000Y-127635000D02*
X133795000Y-127885000D01*
X133795000Y-127885000D02*
X133795000Y-140085000D01*
X133795000Y-140085000D02*
X133265000Y-140335000D01*
X132265000Y-127885000D02*
X133265000Y-127885000D01*
X132265000Y-140085000D02*
X133265000Y-140085000D01*
X138285000Y-126835000D02*
X137685000Y-126835000D01*
X137685000Y-126835000D02*
X137685000Y-128435000D01*
X137685000Y-128435000D02*
X138285000Y-128435000D01*
X138285000Y-129375000D02*
X137685000Y-129375000D01*
X137685000Y-129375000D02*
X137685000Y-130975000D01*
X137685000Y-130975000D02*
X138285000Y-130975000D01*
X138285000Y-131915000D02*
X137685000Y-131915000D01*
X137685000Y-131915000D02*
X137685000Y-133515000D01*
X137685000Y-133515000D02*
X138285000Y-133515000D01*
X138285000Y-134455000D02*
X137685000Y-134455000D01*
X137685000Y-134455000D02*
X137685000Y-136055000D01*
X137685000Y-136055000D02*
X138285000Y-136055000D01*
X138285000Y-136995000D02*
X137685000Y-136995000D01*
X137685000Y-136995000D02*
X137685000Y-138595000D01*
X137685000Y-138595000D02*
X138285000Y-138595000D01*
X138285000Y-139535000D02*
X137685000Y-139535000D01*
X137685000Y-139535000D02*
X137685000Y-141135000D01*
X137685000Y-141135000D02*
X138285000Y-141135000D01*
G04 #@! TO.C,J7*
X128125000Y-126255000D02*
X122105000Y-126255000D01*
X122105000Y-126255000D02*
X122105000Y-141715000D01*
X122105000Y-141715000D02*
X128125000Y-141715000D01*
X128125000Y-141715000D02*
X128125000Y-126255000D01*
X127095000Y-125965000D02*
X123095000Y-125965000D01*
X122105000Y-127635000D02*
X123105000Y-127635000D01*
X123105000Y-127635000D02*
X123105000Y-140335000D01*
X123105000Y-140335000D02*
X122105000Y-140335000D01*
X123105000Y-127635000D02*
X123635000Y-127885000D01*
X123635000Y-127885000D02*
X123635000Y-140085000D01*
X123635000Y-140085000D02*
X123105000Y-140335000D01*
X122105000Y-127885000D02*
X123105000Y-127885000D01*
X122105000Y-140085000D02*
X123105000Y-140085000D01*
X128125000Y-126835000D02*
X127525000Y-126835000D01*
X127525000Y-126835000D02*
X127525000Y-128435000D01*
X127525000Y-128435000D02*
X128125000Y-128435000D01*
X128125000Y-129375000D02*
X127525000Y-129375000D01*
X127525000Y-129375000D02*
X127525000Y-130975000D01*
X127525000Y-130975000D02*
X128125000Y-130975000D01*
X128125000Y-131915000D02*
X127525000Y-131915000D01*
X127525000Y-131915000D02*
X127525000Y-133515000D01*
X127525000Y-133515000D02*
X128125000Y-133515000D01*
X128125000Y-134455000D02*
X127525000Y-134455000D01*
X127525000Y-134455000D02*
X127525000Y-136055000D01*
X127525000Y-136055000D02*
X128125000Y-136055000D01*
X128125000Y-136995000D02*
X127525000Y-136995000D01*
X127525000Y-136995000D02*
X127525000Y-138595000D01*
X127525000Y-138595000D02*
X128125000Y-138595000D01*
X128125000Y-139535000D02*
X127525000Y-139535000D01*
X127525000Y-139535000D02*
X127525000Y-141135000D01*
X127525000Y-141135000D02*
X128125000Y-141135000D01*
G04 #@! TO.C,J6*
X117965000Y-126255000D02*
X111945000Y-126255000D01*
X111945000Y-126255000D02*
X111945000Y-141715000D01*
X111945000Y-141715000D02*
X117965000Y-141715000D01*
X117965000Y-141715000D02*
X117965000Y-126255000D01*
X116935000Y-125965000D02*
X112935000Y-125965000D01*
X111945000Y-127635000D02*
X112945000Y-127635000D01*
X112945000Y-127635000D02*
X112945000Y-140335000D01*
X112945000Y-140335000D02*
X111945000Y-140335000D01*
X112945000Y-127635000D02*
X113475000Y-127885000D01*
X113475000Y-127885000D02*
X113475000Y-140085000D01*
X113475000Y-140085000D02*
X112945000Y-140335000D01*
X111945000Y-127885000D02*
X112945000Y-127885000D01*
X111945000Y-140085000D02*
X112945000Y-140085000D01*
X117965000Y-126835000D02*
X117365000Y-126835000D01*
X117365000Y-126835000D02*
X117365000Y-128435000D01*
X117365000Y-128435000D02*
X117965000Y-128435000D01*
X117965000Y-129375000D02*
X117365000Y-129375000D01*
X117365000Y-129375000D02*
X117365000Y-130975000D01*
X117365000Y-130975000D02*
X117965000Y-130975000D01*
X117965000Y-131915000D02*
X117365000Y-131915000D01*
X117365000Y-131915000D02*
X117365000Y-133515000D01*
X117365000Y-133515000D02*
X117965000Y-133515000D01*
X117965000Y-134455000D02*
X117365000Y-134455000D01*
X117365000Y-134455000D02*
X117365000Y-136055000D01*
X117365000Y-136055000D02*
X117965000Y-136055000D01*
X117965000Y-136995000D02*
X117365000Y-136995000D01*
X117365000Y-136995000D02*
X117365000Y-138595000D01*
X117365000Y-138595000D02*
X117965000Y-138595000D01*
X117965000Y-139535000D02*
X117365000Y-139535000D01*
X117365000Y-139535000D02*
X117365000Y-141135000D01*
X117365000Y-141135000D02*
X117965000Y-141135000D01*
G04 #@! TO.C,J5*
X107805000Y-126255000D02*
X101785000Y-126255000D01*
X101785000Y-126255000D02*
X101785000Y-141715000D01*
X101785000Y-141715000D02*
X107805000Y-141715000D01*
X107805000Y-141715000D02*
X107805000Y-126255000D01*
X106775000Y-125965000D02*
X102775000Y-125965000D01*
X101785000Y-127635000D02*
X102785000Y-127635000D01*
X102785000Y-127635000D02*
X102785000Y-140335000D01*
X102785000Y-140335000D02*
X101785000Y-140335000D01*
X102785000Y-127635000D02*
X103315000Y-127885000D01*
X103315000Y-127885000D02*
X103315000Y-140085000D01*
X103315000Y-140085000D02*
X102785000Y-140335000D01*
X101785000Y-127885000D02*
X102785000Y-127885000D01*
X101785000Y-140085000D02*
X102785000Y-140085000D01*
X107805000Y-126835000D02*
X107205000Y-126835000D01*
X107205000Y-126835000D02*
X107205000Y-128435000D01*
X107205000Y-128435000D02*
X107805000Y-128435000D01*
X107805000Y-129375000D02*
X107205000Y-129375000D01*
X107205000Y-129375000D02*
X107205000Y-130975000D01*
X107205000Y-130975000D02*
X107805000Y-130975000D01*
X107805000Y-131915000D02*
X107205000Y-131915000D01*
X107205000Y-131915000D02*
X107205000Y-133515000D01*
X107205000Y-133515000D02*
X107805000Y-133515000D01*
X107805000Y-134455000D02*
X107205000Y-134455000D01*
X107205000Y-134455000D02*
X107205000Y-136055000D01*
X107205000Y-136055000D02*
X107805000Y-136055000D01*
X107805000Y-136995000D02*
X107205000Y-136995000D01*
X107205000Y-136995000D02*
X107205000Y-138595000D01*
X107205000Y-138595000D02*
X107805000Y-138595000D01*
X107805000Y-139535000D02*
X107205000Y-139535000D01*
X107205000Y-139535000D02*
X107205000Y-141135000D01*
X107205000Y-141135000D02*
X107805000Y-141135000D01*
G04 #@! TO.C,J1*
X90424000Y-111714000D02*
X91059000Y-111714000D01*
X90424000Y-111206000D02*
X90424000Y-111714000D01*
X91059000Y-111206000D02*
X90424000Y-111206000D01*
X91059000Y-111460000D02*
X91059000Y-111841000D01*
X90424000Y-116032000D02*
X91059000Y-116032000D01*
X90424000Y-116540000D02*
X90424000Y-116032000D01*
X90424000Y-106888000D02*
X91059000Y-106888000D01*
X90424000Y-106380000D02*
X90424000Y-106888000D01*
X91059000Y-106380000D02*
X90424000Y-106380000D01*
X91059000Y-116540000D02*
X90424000Y-116540000D01*
X91059000Y-106380000D02*
X95250000Y-106380000D01*
X91059000Y-116540000D02*
X91059000Y-106380000D01*
X99441000Y-116540000D02*
X91059000Y-116540000D01*
X99441000Y-106380000D02*
X99441000Y-116540000D01*
X95250000Y-106380000D02*
X99441000Y-106380000D01*
G04 #@! TO.C,D1*
X95566500Y-99878000D02*
X92881500Y-99878000D01*
X92881500Y-99878000D02*
X92881500Y-101798000D01*
X92881500Y-101798000D02*
X95566500Y-101798000D01*
G04 #@! TO.C,C2*
X157580000Y-106468936D02*
X157580000Y-106923064D01*
X156110000Y-106468936D02*
X156110000Y-106923064D01*
G04 #@! TO.C,C1*
X102589000Y-111516936D02*
X102589000Y-111971064D01*
X101119000Y-111516936D02*
X101119000Y-111971064D01*
G04 #@! TO.C,C3*
X127281000Y-91651064D02*
X127281000Y-91196936D01*
X128751000Y-91651064D02*
X128751000Y-91196936D01*
G04 #@! TO.C,C4*
X98922064Y-128805000D02*
X98467936Y-128805000D01*
X98922064Y-130275000D02*
X98467936Y-130275000D01*
G04 #@! TO.C,D2*
X170505000Y-94092500D02*
X170505000Y-91407500D01*
X168585000Y-94092500D02*
X170505000Y-94092500D01*
X168585000Y-91407500D02*
X168585000Y-94092500D01*
G04 #@! TO.C,D3*
X167330000Y-94092500D02*
X167330000Y-91407500D01*
X165410000Y-94092500D02*
X167330000Y-94092500D01*
X165410000Y-91407500D02*
X165410000Y-94092500D01*
G04 #@! TO.C,D4*
X164155000Y-94092500D02*
X164155000Y-91407500D01*
X162235000Y-94092500D02*
X164155000Y-94092500D01*
X162235000Y-91407500D02*
X162235000Y-94092500D01*
G04 #@! TO.C,D5*
X159060000Y-91407500D02*
X159060000Y-94092500D01*
X159060000Y-94092500D02*
X160980000Y-94092500D01*
X160980000Y-94092500D02*
X160980000Y-91407500D01*
G04 #@! TO.C,D6*
X157805000Y-94092500D02*
X157805000Y-91407500D01*
X155885000Y-94092500D02*
X157805000Y-94092500D01*
X155885000Y-91407500D02*
X155885000Y-94092500D01*
G04 #@! TO.C,D7*
X152710000Y-91407500D02*
X152710000Y-94092500D01*
X152710000Y-94092500D02*
X154630000Y-94092500D01*
X154630000Y-94092500D02*
X154630000Y-91407500D01*
G04 #@! TO.C,D8*
X131516000Y-97775500D02*
X131516000Y-95090500D01*
X129596000Y-97775500D02*
X131516000Y-97775500D01*
X129596000Y-95090500D02*
X129596000Y-97775500D01*
G04 #@! TO.C,D9*
X123500000Y-95264500D02*
X123500000Y-97949500D01*
X125420000Y-95264500D02*
X123500000Y-95264500D01*
X125420000Y-97949500D02*
X125420000Y-95264500D01*
G04 #@! TO.C,D10*
X122372000Y-97949500D02*
X122372000Y-95264500D01*
X122372000Y-95264500D02*
X120452000Y-95264500D01*
X120452000Y-95264500D02*
X120452000Y-97949500D01*
G04 #@! TO.C,D11*
X117404000Y-95264500D02*
X117404000Y-97949500D01*
X119324000Y-95264500D02*
X117404000Y-95264500D01*
X119324000Y-97949500D02*
X119324000Y-95264500D01*
G04 #@! TO.C,D12*
X116276000Y-97949500D02*
X116276000Y-95264500D01*
X116276000Y-95264500D02*
X114356000Y-95264500D01*
X114356000Y-95264500D02*
X114356000Y-97949500D01*
G04 #@! TO.C,D13*
X113228000Y-97949500D02*
X113228000Y-95264500D01*
X113228000Y-95264500D02*
X111308000Y-95264500D01*
X111308000Y-95264500D02*
X111308000Y-97949500D01*
G04 #@! TO.C,D14*
X110180000Y-97949500D02*
X110180000Y-95264500D01*
X110180000Y-95264500D02*
X108260000Y-95264500D01*
X108260000Y-95264500D02*
X108260000Y-97949500D01*
G04 #@! TO.C,D15*
X107132000Y-97949500D02*
X107132000Y-95264500D01*
X107132000Y-95264500D02*
X105212000Y-95264500D01*
X105212000Y-95264500D02*
X105212000Y-97949500D01*
G04 #@! TO.C,D16*
X102164000Y-95264500D02*
X102164000Y-97949500D01*
X104084000Y-95264500D02*
X102164000Y-95264500D01*
X104084000Y-97949500D02*
X104084000Y-95264500D01*
G04 #@! TO.C,J2*
X110218000Y-106570000D02*
X104198000Y-106570000D01*
X104198000Y-106570000D02*
X104198000Y-116950000D01*
X104198000Y-116950000D02*
X110218000Y-116950000D01*
X110218000Y-116950000D02*
X110218000Y-106570000D01*
X109188000Y-106280000D02*
X105188000Y-106280000D01*
X104198000Y-107950000D02*
X105198000Y-107950000D01*
X105198000Y-107950000D02*
X105198000Y-115570000D01*
X105198000Y-115570000D02*
X104198000Y-115570000D01*
X105198000Y-107950000D02*
X105728000Y-108200000D01*
X105728000Y-108200000D02*
X105728000Y-115320000D01*
X105728000Y-115320000D02*
X105198000Y-115570000D01*
X104198000Y-108200000D02*
X105198000Y-108200000D01*
X104198000Y-115320000D02*
X105198000Y-115320000D01*
X110218000Y-107150000D02*
X109618000Y-107150000D01*
X109618000Y-107150000D02*
X109618000Y-108750000D01*
X109618000Y-108750000D02*
X110218000Y-108750000D01*
X110218000Y-109690000D02*
X109618000Y-109690000D01*
X109618000Y-109690000D02*
X109618000Y-111290000D01*
X109618000Y-111290000D02*
X110218000Y-111290000D01*
X110218000Y-112230000D02*
X109618000Y-112230000D01*
X109618000Y-112230000D02*
X109618000Y-113830000D01*
X109618000Y-113830000D02*
X110218000Y-113830000D01*
X110218000Y-114770000D02*
X109618000Y-114770000D01*
X109618000Y-114770000D02*
X109618000Y-116370000D01*
X109618000Y-116370000D02*
X110218000Y-116370000D01*
G04 #@! TO.C,J3*
X133290000Y-94040000D02*
X133290000Y-92710000D01*
X134620000Y-94040000D02*
X133290000Y-94040000D01*
X135890000Y-94040000D02*
X135890000Y-91380000D01*
X135890000Y-91380000D02*
X148650000Y-91380000D01*
X135890000Y-94040000D02*
X148650000Y-94040000D01*
X148650000Y-94040000D02*
X148650000Y-91380000D01*
G04 #@! TO.C,J4*
X119270000Y-116370000D02*
X119870000Y-116370000D01*
X119270000Y-114770000D02*
X119270000Y-116370000D01*
X119870000Y-114770000D02*
X119270000Y-114770000D01*
X119270000Y-113830000D02*
X119870000Y-113830000D01*
X119270000Y-112230000D02*
X119270000Y-113830000D01*
X119870000Y-112230000D02*
X119270000Y-112230000D01*
X119270000Y-111290000D02*
X119870000Y-111290000D01*
X119270000Y-109690000D02*
X119270000Y-111290000D01*
X119870000Y-109690000D02*
X119270000Y-109690000D01*
X119270000Y-108750000D02*
X119870000Y-108750000D01*
X119270000Y-107150000D02*
X119270000Y-108750000D01*
X119870000Y-107150000D02*
X119270000Y-107150000D01*
X113850000Y-115320000D02*
X114850000Y-115320000D01*
X113850000Y-108200000D02*
X114850000Y-108200000D01*
X115380000Y-115320000D02*
X114850000Y-115570000D01*
X115380000Y-108200000D02*
X115380000Y-115320000D01*
X114850000Y-107950000D02*
X115380000Y-108200000D01*
X114850000Y-115570000D02*
X113850000Y-115570000D01*
X114850000Y-107950000D02*
X114850000Y-115570000D01*
X113850000Y-107950000D02*
X114850000Y-107950000D01*
X118840000Y-106280000D02*
X114840000Y-106280000D01*
X119870000Y-116950000D02*
X119870000Y-106570000D01*
X113850000Y-116950000D02*
X119870000Y-116950000D01*
X113850000Y-106570000D02*
X113850000Y-116950000D01*
X119870000Y-106570000D02*
X113850000Y-106570000D01*
G04 #@! TO.C,JP1*
X171510000Y-119320000D02*
X171510000Y-120650000D01*
X170180000Y-119320000D02*
X171510000Y-119320000D01*
X168910000Y-119320000D02*
X168910000Y-121980000D01*
X168910000Y-121980000D02*
X166310000Y-121980000D01*
X168910000Y-119320000D02*
X166310000Y-119320000D01*
X166310000Y-119320000D02*
X166310000Y-121980000D01*
G04 #@! TO.C,JP2*
X125797000Y-118558000D02*
X127127000Y-118558000D01*
X125797000Y-119888000D02*
X125797000Y-118558000D01*
X125797000Y-121158000D02*
X128457000Y-121158000D01*
X128457000Y-121158000D02*
X128457000Y-123758000D01*
X125797000Y-121158000D02*
X125797000Y-123758000D01*
X125797000Y-123758000D02*
X128457000Y-123758000D01*
G04 #@! TO.C,JP3*
X129480000Y-123758000D02*
X132140000Y-123758000D01*
X129480000Y-121158000D02*
X129480000Y-123758000D01*
X132140000Y-121158000D02*
X132140000Y-123758000D01*
X129480000Y-121158000D02*
X132140000Y-121158000D01*
X129480000Y-119888000D02*
X129480000Y-118558000D01*
X129480000Y-118558000D02*
X130810000Y-118558000D01*
G04 #@! TO.C,JP4*
X133290000Y-118558000D02*
X134620000Y-118558000D01*
X133290000Y-119888000D02*
X133290000Y-118558000D01*
X133290000Y-121158000D02*
X135950000Y-121158000D01*
X135950000Y-121158000D02*
X135950000Y-123758000D01*
X133290000Y-121158000D02*
X133290000Y-123758000D01*
X133290000Y-123758000D02*
X135950000Y-123758000D01*
G04 #@! TO.C,JP5*
X137100000Y-118558000D02*
X138430000Y-118558000D01*
X137100000Y-119888000D02*
X137100000Y-118558000D01*
X137100000Y-121158000D02*
X139760000Y-121158000D01*
X139760000Y-121158000D02*
X139760000Y-123758000D01*
X137100000Y-121158000D02*
X137100000Y-123758000D01*
X137100000Y-123758000D02*
X139760000Y-123758000D01*
G04 #@! TO.C,JP6*
X140910000Y-123758000D02*
X143570000Y-123758000D01*
X140910000Y-121158000D02*
X140910000Y-123758000D01*
X143570000Y-121158000D02*
X143570000Y-123758000D01*
X140910000Y-121158000D02*
X143570000Y-121158000D01*
X140910000Y-119888000D02*
X140910000Y-118558000D01*
X140910000Y-118558000D02*
X142240000Y-118558000D01*
G04 #@! TO.C,JP7*
X144720000Y-123758000D02*
X147380000Y-123758000D01*
X144720000Y-121158000D02*
X144720000Y-123758000D01*
X147380000Y-121158000D02*
X147380000Y-123758000D01*
X144720000Y-121158000D02*
X147380000Y-121158000D01*
X144720000Y-119888000D02*
X144720000Y-118558000D01*
X144720000Y-118558000D02*
X146050000Y-118558000D01*
G04 #@! TO.C,JP8*
X148530000Y-123758000D02*
X151190000Y-123758000D01*
X148530000Y-121158000D02*
X148530000Y-123758000D01*
X151190000Y-121158000D02*
X151190000Y-123758000D01*
X148530000Y-121158000D02*
X151190000Y-121158000D01*
X148530000Y-119888000D02*
X148530000Y-118558000D01*
X148530000Y-118558000D02*
X149860000Y-118558000D01*
G04 #@! TO.C,JP9*
X152340000Y-123758000D02*
X155000000Y-123758000D01*
X152340000Y-121158000D02*
X152340000Y-123758000D01*
X155000000Y-121158000D02*
X155000000Y-123758000D01*
X152340000Y-121158000D02*
X155000000Y-121158000D01*
X152340000Y-119888000D02*
X152340000Y-118558000D01*
X152340000Y-118558000D02*
X153670000Y-118558000D01*
G04 #@! TO.C,R1*
X94244936Y-104113000D02*
X94699064Y-104113000D01*
X94244936Y-102643000D02*
X94699064Y-102643000D01*
G04 #@! TO.C,R2*
X129821000Y-91196936D02*
X129821000Y-91651064D01*
X131291000Y-91196936D02*
X131291000Y-91651064D01*
G04 #@! TO.C,R3*
X123687064Y-109755000D02*
X123232936Y-109755000D01*
X123687064Y-111225000D02*
X123232936Y-111225000D01*
G04 #@! TO.C,R4*
X123687064Y-113765000D02*
X123232936Y-113765000D01*
X123687064Y-112295000D02*
X123232936Y-112295000D01*
G04 #@! TO.C,R5*
X168810000Y-96562936D02*
X168810000Y-97017064D01*
X170280000Y-96562936D02*
X170280000Y-97017064D01*
G04 #@! TO.C,R6*
X167105000Y-96562936D02*
X167105000Y-97017064D01*
X165635000Y-96562936D02*
X165635000Y-97017064D01*
G04 #@! TO.C,R7*
X162460000Y-96562936D02*
X162460000Y-97017064D01*
X163930000Y-96562936D02*
X163930000Y-97017064D01*
G04 #@! TO.C,R8*
X160755000Y-96562936D02*
X160755000Y-97017064D01*
X159285000Y-96562936D02*
X159285000Y-97017064D01*
G04 #@! TO.C,R9*
X156110000Y-96562936D02*
X156110000Y-97017064D01*
X157580000Y-96562936D02*
X157580000Y-97017064D01*
G04 #@! TO.C,R10*
X154405000Y-96562936D02*
X154405000Y-97017064D01*
X152935000Y-96562936D02*
X152935000Y-97017064D01*
G04 #@! TO.C,R11*
X180494000Y-121422936D02*
X180494000Y-121877064D01*
X181964000Y-121422936D02*
X181964000Y-121877064D01*
G04 #@! TO.C,R12*
X178535000Y-121422936D02*
X178535000Y-121877064D01*
X177065000Y-121422936D02*
X177065000Y-121877064D01*
G04 #@! TO.C,R13*
X157580000Y-111082064D02*
X157580000Y-110627936D01*
X156110000Y-111082064D02*
X156110000Y-110627936D01*
G04 #@! TO.C,R14*
X153697000Y-111082064D02*
X153697000Y-110627936D01*
X155167000Y-111082064D02*
X155167000Y-110627936D01*
G04 #@! TO.C,R15*
X148871000Y-111082064D02*
X148871000Y-110627936D01*
X150341000Y-111082064D02*
X150341000Y-110627936D01*
G04 #@! TO.C,R16*
X125195000Y-92699064D02*
X125195000Y-92244936D01*
X123725000Y-92699064D02*
X123725000Y-92244936D01*
G04 #@! TO.C,R17*
X120677000Y-92699064D02*
X120677000Y-92244936D01*
X122147000Y-92699064D02*
X122147000Y-92244936D01*
G04 #@! TO.C,R18*
X117629000Y-92699064D02*
X117629000Y-92244936D01*
X119099000Y-92699064D02*
X119099000Y-92244936D01*
G04 #@! TO.C,R19*
X116051000Y-92699064D02*
X116051000Y-92244936D01*
X114581000Y-92699064D02*
X114581000Y-92244936D01*
G04 #@! TO.C,R20*
X111533000Y-92699064D02*
X111533000Y-92244936D01*
X113003000Y-92699064D02*
X113003000Y-92244936D01*
G04 #@! TO.C,R21*
X109955000Y-92699064D02*
X109955000Y-92244936D01*
X108485000Y-92699064D02*
X108485000Y-92244936D01*
G04 #@! TO.C,R22*
X106907000Y-92699064D02*
X106907000Y-92244936D01*
X105437000Y-92699064D02*
X105437000Y-92244936D01*
G04 #@! TO.C,R23*
X103859000Y-92699064D02*
X103859000Y-92244936D01*
X102389000Y-92699064D02*
X102389000Y-92244936D01*
G04 #@! TO.C,SW1*
X184318667Y-101600000D02*
X184318667Y-100330000D01*
X185672000Y-100400000D02*
X184318667Y-100400000D01*
X185672000Y-100520000D02*
X184318667Y-100520000D01*
X185672000Y-100640000D02*
X184318667Y-100640000D01*
X185672000Y-100760000D02*
X184318667Y-100760000D01*
X185672000Y-100880000D02*
X184318667Y-100880000D01*
X185672000Y-101000000D02*
X184318667Y-101000000D01*
X185672000Y-101120000D02*
X184318667Y-101120000D01*
X185672000Y-101240000D02*
X184318667Y-101240000D01*
X185672000Y-101360000D02*
X184318667Y-101360000D01*
X185672000Y-101480000D02*
X184318667Y-101480000D01*
X181612000Y-101600000D02*
X185672000Y-101600000D01*
X181612000Y-100330000D02*
X181612000Y-101600000D01*
X185672000Y-100330000D02*
X181612000Y-100330000D01*
X185672000Y-101600000D02*
X185672000Y-100330000D01*
X184318667Y-104140000D02*
X184318667Y-102870000D01*
X185672000Y-102940000D02*
X184318667Y-102940000D01*
X185672000Y-103060000D02*
X184318667Y-103060000D01*
X185672000Y-103180000D02*
X184318667Y-103180000D01*
X185672000Y-103300000D02*
X184318667Y-103300000D01*
X185672000Y-103420000D02*
X184318667Y-103420000D01*
X185672000Y-103540000D02*
X184318667Y-103540000D01*
X185672000Y-103660000D02*
X184318667Y-103660000D01*
X185672000Y-103780000D02*
X184318667Y-103780000D01*
X185672000Y-103900000D02*
X184318667Y-103900000D01*
X185672000Y-104020000D02*
X184318667Y-104020000D01*
X181612000Y-104140000D02*
X185672000Y-104140000D01*
X181612000Y-102870000D02*
X181612000Y-104140000D01*
X185672000Y-102870000D02*
X181612000Y-102870000D01*
X185672000Y-104140000D02*
X185672000Y-102870000D01*
X184318667Y-106680000D02*
X184318667Y-105410000D01*
X185672000Y-105480000D02*
X184318667Y-105480000D01*
X185672000Y-105600000D02*
X184318667Y-105600000D01*
X185672000Y-105720000D02*
X184318667Y-105720000D01*
X185672000Y-105840000D02*
X184318667Y-105840000D01*
X185672000Y-105960000D02*
X184318667Y-105960000D01*
X185672000Y-106080000D02*
X184318667Y-106080000D01*
X185672000Y-106200000D02*
X184318667Y-106200000D01*
X185672000Y-106320000D02*
X184318667Y-106320000D01*
X185672000Y-106440000D02*
X184318667Y-106440000D01*
X185672000Y-106560000D02*
X184318667Y-106560000D01*
X181612000Y-106680000D02*
X185672000Y-106680000D01*
X181612000Y-105410000D02*
X181612000Y-106680000D01*
X185672000Y-105410000D02*
X181612000Y-105410000D01*
X185672000Y-106680000D02*
X185672000Y-105410000D01*
X184318667Y-109220000D02*
X184318667Y-107950000D01*
X185672000Y-108020000D02*
X184318667Y-108020000D01*
X185672000Y-108140000D02*
X184318667Y-108140000D01*
X185672000Y-108260000D02*
X184318667Y-108260000D01*
X185672000Y-108380000D02*
X184318667Y-108380000D01*
X185672000Y-108500000D02*
X184318667Y-108500000D01*
X185672000Y-108620000D02*
X184318667Y-108620000D01*
X185672000Y-108740000D02*
X184318667Y-108740000D01*
X185672000Y-108860000D02*
X184318667Y-108860000D01*
X185672000Y-108980000D02*
X184318667Y-108980000D01*
X185672000Y-109100000D02*
X184318667Y-109100000D01*
X181612000Y-109220000D02*
X185672000Y-109220000D01*
X181612000Y-107950000D02*
X181612000Y-109220000D01*
X185672000Y-107950000D02*
X181612000Y-107950000D01*
X185672000Y-109220000D02*
X185672000Y-107950000D01*
X184318667Y-111760000D02*
X184318667Y-110490000D01*
X185672000Y-110560000D02*
X184318667Y-110560000D01*
X185672000Y-110680000D02*
X184318667Y-110680000D01*
X185672000Y-110800000D02*
X184318667Y-110800000D01*
X185672000Y-110920000D02*
X184318667Y-110920000D01*
X185672000Y-111040000D02*
X184318667Y-111040000D01*
X185672000Y-111160000D02*
X184318667Y-111160000D01*
X185672000Y-111280000D02*
X184318667Y-111280000D01*
X185672000Y-111400000D02*
X184318667Y-111400000D01*
X185672000Y-111520000D02*
X184318667Y-111520000D01*
X185672000Y-111640000D02*
X184318667Y-111640000D01*
X181612000Y-111760000D02*
X185672000Y-111760000D01*
X181612000Y-110490000D02*
X181612000Y-111760000D01*
X185672000Y-110490000D02*
X181612000Y-110490000D01*
X185672000Y-111760000D02*
X185672000Y-110490000D01*
X184318667Y-114300000D02*
X184318667Y-113030000D01*
X185672000Y-113100000D02*
X184318667Y-113100000D01*
X185672000Y-113220000D02*
X184318667Y-113220000D01*
X185672000Y-113340000D02*
X184318667Y-113340000D01*
X185672000Y-113460000D02*
X184318667Y-113460000D01*
X185672000Y-113580000D02*
X184318667Y-113580000D01*
X185672000Y-113700000D02*
X184318667Y-113700000D01*
X185672000Y-113820000D02*
X184318667Y-113820000D01*
X185672000Y-113940000D02*
X184318667Y-113940000D01*
X185672000Y-114060000D02*
X184318667Y-114060000D01*
X185672000Y-114180000D02*
X184318667Y-114180000D01*
X181612000Y-114300000D02*
X185672000Y-114300000D01*
X181612000Y-113030000D02*
X181612000Y-114300000D01*
X185672000Y-113030000D02*
X181612000Y-113030000D01*
X185672000Y-114300000D02*
X185672000Y-113030000D01*
X188832000Y-116325000D02*
X188832000Y-114942000D01*
X188832000Y-116325000D02*
X187448000Y-116325000D01*
X178692000Y-116085000D02*
X178692000Y-98545000D01*
X188592000Y-116085000D02*
X188592000Y-98545000D01*
X188592000Y-98545000D02*
X178692000Y-98545000D01*
X188592000Y-116085000D02*
X178692000Y-116085000D01*
G04 #@! TO.C,SW2*
X162735000Y-114700000D02*
X164235000Y-114700000D01*
X166735000Y-113450000D02*
X166735000Y-108950000D01*
X164235000Y-107700000D02*
X162735000Y-107700000D01*
X160235000Y-108950000D02*
X160235000Y-113450000D01*
G04 #@! TO.C,SW3*
X168490000Y-108950000D02*
X168490000Y-113450000D01*
X172490000Y-107700000D02*
X170990000Y-107700000D01*
X174990000Y-113450000D02*
X174990000Y-108950000D01*
X170990000Y-114700000D02*
X172490000Y-114700000D01*
G04 #@! TO.C,R24*
D12*
X155948142Y-114498380D02*
X155614809Y-114022190D01*
X155376714Y-114498380D02*
X155376714Y-113498380D01*
X155757666Y-113498380D01*
X155852904Y-113546000D01*
X155900523Y-113593619D01*
X155948142Y-113688857D01*
X155948142Y-113831714D01*
X155900523Y-113926952D01*
X155852904Y-113974571D01*
X155757666Y-114022190D01*
X155376714Y-114022190D01*
X156329095Y-113593619D02*
X156376714Y-113546000D01*
X156471952Y-113498380D01*
X156710047Y-113498380D01*
X156805285Y-113546000D01*
X156852904Y-113593619D01*
X156900523Y-113688857D01*
X156900523Y-113784095D01*
X156852904Y-113926952D01*
X156281476Y-114498380D01*
X156900523Y-114498380D01*
X157757666Y-113831714D02*
X157757666Y-114498380D01*
X157519571Y-113450761D02*
X157281476Y-114165047D01*
X157900523Y-114165047D01*
G04 #@! TO.C,C5*
X152376142Y-107989666D02*
X152423761Y-108037285D01*
X152471380Y-108180142D01*
X152471380Y-108275380D01*
X152423761Y-108418238D01*
X152328523Y-108513476D01*
X152233285Y-108561095D01*
X152042809Y-108608714D01*
X151899952Y-108608714D01*
X151709476Y-108561095D01*
X151614238Y-108513476D01*
X151519000Y-108418238D01*
X151471380Y-108275380D01*
X151471380Y-108180142D01*
X151519000Y-108037285D01*
X151566619Y-107989666D01*
X151471380Y-107084904D02*
X151471380Y-107561095D01*
X151947571Y-107608714D01*
X151899952Y-107561095D01*
X151852333Y-107465857D01*
X151852333Y-107227761D01*
X151899952Y-107132523D01*
X151947571Y-107084904D01*
X152042809Y-107037285D01*
X152280904Y-107037285D01*
X152376142Y-107084904D01*
X152423761Y-107132523D01*
X152471380Y-107227761D01*
X152471380Y-107465857D01*
X152423761Y-107561095D01*
X152376142Y-107608714D01*
G04 #@! TO.C,U1*
X140208095Y-96077380D02*
X140208095Y-96886904D01*
X140255714Y-96982142D01*
X140303333Y-97029761D01*
X140398571Y-97077380D01*
X140589047Y-97077380D01*
X140684285Y-97029761D01*
X140731904Y-96982142D01*
X140779523Y-96886904D01*
X140779523Y-96077380D01*
X141779523Y-97077380D02*
X141208095Y-97077380D01*
X141493809Y-97077380D02*
X141493809Y-96077380D01*
X141398571Y-96220238D01*
X141303333Y-96315476D01*
X141208095Y-96363095D01*
G04 #@! TO.C,J11*
X165052476Y-124674380D02*
X165052476Y-125388666D01*
X165004857Y-125531523D01*
X164909619Y-125626761D01*
X164766761Y-125674380D01*
X164671523Y-125674380D01*
X166052476Y-125674380D02*
X165481047Y-125674380D01*
X165766761Y-125674380D02*
X165766761Y-124674380D01*
X165671523Y-124817238D01*
X165576285Y-124912476D01*
X165481047Y-124960095D01*
X167004857Y-125674380D02*
X166433428Y-125674380D01*
X166719142Y-125674380D02*
X166719142Y-124674380D01*
X166623904Y-124817238D01*
X166528666Y-124912476D01*
X166433428Y-124960095D01*
G04 #@! TO.C,J12*
X174958476Y-124674380D02*
X174958476Y-125388666D01*
X174910857Y-125531523D01*
X174815619Y-125626761D01*
X174672761Y-125674380D01*
X174577523Y-125674380D01*
X175958476Y-125674380D02*
X175387047Y-125674380D01*
X175672761Y-125674380D02*
X175672761Y-124674380D01*
X175577523Y-124817238D01*
X175482285Y-124912476D01*
X175387047Y-124960095D01*
X176339428Y-124769619D02*
X176387047Y-124722000D01*
X176482285Y-124674380D01*
X176720380Y-124674380D01*
X176815619Y-124722000D01*
X176863238Y-124769619D01*
X176910857Y-124864857D01*
X176910857Y-124960095D01*
X176863238Y-125102952D01*
X176291809Y-125674380D01*
X176910857Y-125674380D01*
G04 #@! TO.C,J10*
X154892476Y-124674380D02*
X154892476Y-125388666D01*
X154844857Y-125531523D01*
X154749619Y-125626761D01*
X154606761Y-125674380D01*
X154511523Y-125674380D01*
X155892476Y-125674380D02*
X155321047Y-125674380D01*
X155606761Y-125674380D02*
X155606761Y-124674380D01*
X155511523Y-124817238D01*
X155416285Y-124912476D01*
X155321047Y-124960095D01*
X156511523Y-124674380D02*
X156606761Y-124674380D01*
X156702000Y-124722000D01*
X156749619Y-124769619D01*
X156797238Y-124864857D01*
X156844857Y-125055333D01*
X156844857Y-125293428D01*
X156797238Y-125483904D01*
X156749619Y-125579142D01*
X156702000Y-125626761D01*
X156606761Y-125674380D01*
X156511523Y-125674380D01*
X156416285Y-125626761D01*
X156368666Y-125579142D01*
X156321047Y-125483904D01*
X156273428Y-125293428D01*
X156273428Y-125055333D01*
X156321047Y-124864857D01*
X156368666Y-124769619D01*
X156416285Y-124722000D01*
X156511523Y-124674380D01*
G04 #@! TO.C,J9*
X145208666Y-124674380D02*
X145208666Y-125388666D01*
X145161047Y-125531523D01*
X145065809Y-125626761D01*
X144922952Y-125674380D01*
X144827714Y-125674380D01*
X145732476Y-125674380D02*
X145922952Y-125674380D01*
X146018190Y-125626761D01*
X146065809Y-125579142D01*
X146161047Y-125436285D01*
X146208666Y-125245809D01*
X146208666Y-124864857D01*
X146161047Y-124769619D01*
X146113428Y-124722000D01*
X146018190Y-124674380D01*
X145827714Y-124674380D01*
X145732476Y-124722000D01*
X145684857Y-124769619D01*
X145637238Y-124864857D01*
X145637238Y-125102952D01*
X145684857Y-125198190D01*
X145732476Y-125245809D01*
X145827714Y-125293428D01*
X146018190Y-125293428D01*
X146113428Y-125245809D01*
X146161047Y-125198190D01*
X146208666Y-125102952D01*
G04 #@! TO.C,J8*
X135048666Y-124674380D02*
X135048666Y-125388666D01*
X135001047Y-125531523D01*
X134905809Y-125626761D01*
X134762952Y-125674380D01*
X134667714Y-125674380D01*
X135667714Y-125102952D02*
X135572476Y-125055333D01*
X135524857Y-125007714D01*
X135477238Y-124912476D01*
X135477238Y-124864857D01*
X135524857Y-124769619D01*
X135572476Y-124722000D01*
X135667714Y-124674380D01*
X135858190Y-124674380D01*
X135953428Y-124722000D01*
X136001047Y-124769619D01*
X136048666Y-124864857D01*
X136048666Y-124912476D01*
X136001047Y-125007714D01*
X135953428Y-125055333D01*
X135858190Y-125102952D01*
X135667714Y-125102952D01*
X135572476Y-125150571D01*
X135524857Y-125198190D01*
X135477238Y-125293428D01*
X135477238Y-125483904D01*
X135524857Y-125579142D01*
X135572476Y-125626761D01*
X135667714Y-125674380D01*
X135858190Y-125674380D01*
X135953428Y-125626761D01*
X136001047Y-125579142D01*
X136048666Y-125483904D01*
X136048666Y-125293428D01*
X136001047Y-125198190D01*
X135953428Y-125150571D01*
X135858190Y-125102952D01*
G04 #@! TO.C,J7*
X124888666Y-124674380D02*
X124888666Y-125388666D01*
X124841047Y-125531523D01*
X124745809Y-125626761D01*
X124602952Y-125674380D01*
X124507714Y-125674380D01*
X125269619Y-124674380D02*
X125936285Y-124674380D01*
X125507714Y-125674380D01*
G04 #@! TO.C,J6*
X114601666Y-124547380D02*
X114601666Y-125261666D01*
X114554047Y-125404523D01*
X114458809Y-125499761D01*
X114315952Y-125547380D01*
X114220714Y-125547380D01*
X115506428Y-124547380D02*
X115315952Y-124547380D01*
X115220714Y-124595000D01*
X115173095Y-124642619D01*
X115077857Y-124785476D01*
X115030238Y-124975952D01*
X115030238Y-125356904D01*
X115077857Y-125452142D01*
X115125476Y-125499761D01*
X115220714Y-125547380D01*
X115411190Y-125547380D01*
X115506428Y-125499761D01*
X115554047Y-125452142D01*
X115601666Y-125356904D01*
X115601666Y-125118809D01*
X115554047Y-125023571D01*
X115506428Y-124975952D01*
X115411190Y-124928333D01*
X115220714Y-124928333D01*
X115125476Y-124975952D01*
X115077857Y-125023571D01*
X115030238Y-125118809D01*
G04 #@! TO.C,J5*
X104441666Y-124547380D02*
X104441666Y-125261666D01*
X104394047Y-125404523D01*
X104298809Y-125499761D01*
X104155952Y-125547380D01*
X104060714Y-125547380D01*
X105394047Y-124547380D02*
X104917857Y-124547380D01*
X104870238Y-125023571D01*
X104917857Y-124975952D01*
X105013095Y-124928333D01*
X105251190Y-124928333D01*
X105346428Y-124975952D01*
X105394047Y-125023571D01*
X105441666Y-125118809D01*
X105441666Y-125356904D01*
X105394047Y-125452142D01*
X105346428Y-125499761D01*
X105251190Y-125547380D01*
X105013095Y-125547380D01*
X104917857Y-125499761D01*
X104870238Y-125452142D01*
G04 #@! TO.C,J1*
X99782380Y-111793333D02*
X100496666Y-111793333D01*
X100639523Y-111840952D01*
X100734761Y-111936190D01*
X100782380Y-112079047D01*
X100782380Y-112174285D01*
X100782380Y-110793333D02*
X100782380Y-111364761D01*
X100782380Y-111079047D02*
X99782380Y-111079047D01*
X99925238Y-111174285D01*
X100020476Y-111269523D01*
X100068095Y-111364761D01*
G04 #@! TO.C,D1*
X96797904Y-101290380D02*
X96797904Y-100290380D01*
X97036000Y-100290380D01*
X97178857Y-100338000D01*
X97274095Y-100433238D01*
X97321714Y-100528476D01*
X97369333Y-100718952D01*
X97369333Y-100861809D01*
X97321714Y-101052285D01*
X97274095Y-101147523D01*
X97178857Y-101242761D01*
X97036000Y-101290380D01*
X96797904Y-101290380D01*
X98321714Y-101290380D02*
X97750285Y-101290380D01*
X98036000Y-101290380D02*
X98036000Y-100290380D01*
X97940761Y-100433238D01*
X97845523Y-100528476D01*
X97750285Y-100576095D01*
G04 #@! TO.C,C2*
X156678333Y-104370142D02*
X156630714Y-104417761D01*
X156487857Y-104465380D01*
X156392619Y-104465380D01*
X156249761Y-104417761D01*
X156154523Y-104322523D01*
X156106904Y-104227285D01*
X156059285Y-104036809D01*
X156059285Y-103893952D01*
X156106904Y-103703476D01*
X156154523Y-103608238D01*
X156249761Y-103513000D01*
X156392619Y-103465380D01*
X156487857Y-103465380D01*
X156630714Y-103513000D01*
X156678333Y-103560619D01*
X157059285Y-103560619D02*
X157106904Y-103513000D01*
X157202142Y-103465380D01*
X157440238Y-103465380D01*
X157535476Y-103513000D01*
X157583095Y-103560619D01*
X157630714Y-103655857D01*
X157630714Y-103751095D01*
X157583095Y-103893952D01*
X157011666Y-104465380D01*
X157630714Y-104465380D01*
G04 #@! TO.C,C1*
X101687333Y-114911142D02*
X101639714Y-114958761D01*
X101496857Y-115006380D01*
X101401619Y-115006380D01*
X101258761Y-114958761D01*
X101163523Y-114863523D01*
X101115904Y-114768285D01*
X101068285Y-114577809D01*
X101068285Y-114434952D01*
X101115904Y-114244476D01*
X101163523Y-114149238D01*
X101258761Y-114054000D01*
X101401619Y-114006380D01*
X101496857Y-114006380D01*
X101639714Y-114054000D01*
X101687333Y-114101619D01*
X102639714Y-115006380D02*
X102068285Y-115006380D01*
X102354000Y-115006380D02*
X102354000Y-114006380D01*
X102258761Y-114149238D01*
X102163523Y-114244476D01*
X102068285Y-114292095D01*
G04 #@! TO.C,C3*
X127849333Y-89225142D02*
X127801714Y-89272761D01*
X127658857Y-89320380D01*
X127563619Y-89320380D01*
X127420761Y-89272761D01*
X127325523Y-89177523D01*
X127277904Y-89082285D01*
X127230285Y-88891809D01*
X127230285Y-88748952D01*
X127277904Y-88558476D01*
X127325523Y-88463238D01*
X127420761Y-88368000D01*
X127563619Y-88320380D01*
X127658857Y-88320380D01*
X127801714Y-88368000D01*
X127849333Y-88415619D01*
X128182666Y-88320380D02*
X128801714Y-88320380D01*
X128468380Y-88701333D01*
X128611238Y-88701333D01*
X128706476Y-88748952D01*
X128754095Y-88796571D01*
X128801714Y-88891809D01*
X128801714Y-89129904D01*
X128754095Y-89225142D01*
X128706476Y-89272761D01*
X128611238Y-89320380D01*
X128325523Y-89320380D01*
X128230285Y-89272761D01*
X128182666Y-89225142D01*
G04 #@! TO.C,C4*
X95337333Y-129897142D02*
X95289714Y-129944761D01*
X95146857Y-129992380D01*
X95051619Y-129992380D01*
X94908761Y-129944761D01*
X94813523Y-129849523D01*
X94765904Y-129754285D01*
X94718285Y-129563809D01*
X94718285Y-129420952D01*
X94765904Y-129230476D01*
X94813523Y-129135238D01*
X94908761Y-129040000D01*
X95051619Y-128992380D01*
X95146857Y-128992380D01*
X95289714Y-129040000D01*
X95337333Y-129087619D01*
X96194476Y-129325714D02*
X96194476Y-129992380D01*
X95956380Y-128944761D02*
X95718285Y-129659047D01*
X96337333Y-129659047D01*
G04 #@! TO.C,D2*
X168806904Y-90622380D02*
X168806904Y-89622380D01*
X169045000Y-89622380D01*
X169187857Y-89670000D01*
X169283095Y-89765238D01*
X169330714Y-89860476D01*
X169378333Y-90050952D01*
X169378333Y-90193809D01*
X169330714Y-90384285D01*
X169283095Y-90479523D01*
X169187857Y-90574761D01*
X169045000Y-90622380D01*
X168806904Y-90622380D01*
X169759285Y-89717619D02*
X169806904Y-89670000D01*
X169902142Y-89622380D01*
X170140238Y-89622380D01*
X170235476Y-89670000D01*
X170283095Y-89717619D01*
X170330714Y-89812857D01*
X170330714Y-89908095D01*
X170283095Y-90050952D01*
X169711666Y-90622380D01*
X170330714Y-90622380D01*
G04 #@! TO.C,D3*
X165631904Y-90622380D02*
X165631904Y-89622380D01*
X165870000Y-89622380D01*
X166012857Y-89670000D01*
X166108095Y-89765238D01*
X166155714Y-89860476D01*
X166203333Y-90050952D01*
X166203333Y-90193809D01*
X166155714Y-90384285D01*
X166108095Y-90479523D01*
X166012857Y-90574761D01*
X165870000Y-90622380D01*
X165631904Y-90622380D01*
X166536666Y-89622380D02*
X167155714Y-89622380D01*
X166822380Y-90003333D01*
X166965238Y-90003333D01*
X167060476Y-90050952D01*
X167108095Y-90098571D01*
X167155714Y-90193809D01*
X167155714Y-90431904D01*
X167108095Y-90527142D01*
X167060476Y-90574761D01*
X166965238Y-90622380D01*
X166679523Y-90622380D01*
X166584285Y-90574761D01*
X166536666Y-90527142D01*
G04 #@! TO.C,D4*
X162456904Y-90622380D02*
X162456904Y-89622380D01*
X162695000Y-89622380D01*
X162837857Y-89670000D01*
X162933095Y-89765238D01*
X162980714Y-89860476D01*
X163028333Y-90050952D01*
X163028333Y-90193809D01*
X162980714Y-90384285D01*
X162933095Y-90479523D01*
X162837857Y-90574761D01*
X162695000Y-90622380D01*
X162456904Y-90622380D01*
X163885476Y-89955714D02*
X163885476Y-90622380D01*
X163647380Y-89574761D02*
X163409285Y-90289047D01*
X164028333Y-90289047D01*
G04 #@! TO.C,D5*
X159281904Y-90622380D02*
X159281904Y-89622380D01*
X159520000Y-89622380D01*
X159662857Y-89670000D01*
X159758095Y-89765238D01*
X159805714Y-89860476D01*
X159853333Y-90050952D01*
X159853333Y-90193809D01*
X159805714Y-90384285D01*
X159758095Y-90479523D01*
X159662857Y-90574761D01*
X159520000Y-90622380D01*
X159281904Y-90622380D01*
X160758095Y-89622380D02*
X160281904Y-89622380D01*
X160234285Y-90098571D01*
X160281904Y-90050952D01*
X160377142Y-90003333D01*
X160615238Y-90003333D01*
X160710476Y-90050952D01*
X160758095Y-90098571D01*
X160805714Y-90193809D01*
X160805714Y-90431904D01*
X160758095Y-90527142D01*
X160710476Y-90574761D01*
X160615238Y-90622380D01*
X160377142Y-90622380D01*
X160281904Y-90574761D01*
X160234285Y-90527142D01*
G04 #@! TO.C,D6*
X156106904Y-90622380D02*
X156106904Y-89622380D01*
X156345000Y-89622380D01*
X156487857Y-89670000D01*
X156583095Y-89765238D01*
X156630714Y-89860476D01*
X156678333Y-90050952D01*
X156678333Y-90193809D01*
X156630714Y-90384285D01*
X156583095Y-90479523D01*
X156487857Y-90574761D01*
X156345000Y-90622380D01*
X156106904Y-90622380D01*
X157535476Y-89622380D02*
X157345000Y-89622380D01*
X157249761Y-89670000D01*
X157202142Y-89717619D01*
X157106904Y-89860476D01*
X157059285Y-90050952D01*
X157059285Y-90431904D01*
X157106904Y-90527142D01*
X157154523Y-90574761D01*
X157249761Y-90622380D01*
X157440238Y-90622380D01*
X157535476Y-90574761D01*
X157583095Y-90527142D01*
X157630714Y-90431904D01*
X157630714Y-90193809D01*
X157583095Y-90098571D01*
X157535476Y-90050952D01*
X157440238Y-90003333D01*
X157249761Y-90003333D01*
X157154523Y-90050952D01*
X157106904Y-90098571D01*
X157059285Y-90193809D01*
G04 #@! TO.C,D7*
X152931904Y-90622380D02*
X152931904Y-89622380D01*
X153170000Y-89622380D01*
X153312857Y-89670000D01*
X153408095Y-89765238D01*
X153455714Y-89860476D01*
X153503333Y-90050952D01*
X153503333Y-90193809D01*
X153455714Y-90384285D01*
X153408095Y-90479523D01*
X153312857Y-90574761D01*
X153170000Y-90622380D01*
X152931904Y-90622380D01*
X153836666Y-89622380D02*
X154503333Y-89622380D01*
X154074761Y-90622380D01*
G04 #@! TO.C,D8*
X129817904Y-99161380D02*
X129817904Y-98161380D01*
X130056000Y-98161380D01*
X130198857Y-98209000D01*
X130294095Y-98304238D01*
X130341714Y-98399476D01*
X130389333Y-98589952D01*
X130389333Y-98732809D01*
X130341714Y-98923285D01*
X130294095Y-99018523D01*
X130198857Y-99113761D01*
X130056000Y-99161380D01*
X129817904Y-99161380D01*
X130960761Y-98589952D02*
X130865523Y-98542333D01*
X130817904Y-98494714D01*
X130770285Y-98399476D01*
X130770285Y-98351857D01*
X130817904Y-98256619D01*
X130865523Y-98209000D01*
X130960761Y-98161380D01*
X131151238Y-98161380D01*
X131246476Y-98209000D01*
X131294095Y-98256619D01*
X131341714Y-98351857D01*
X131341714Y-98399476D01*
X131294095Y-98494714D01*
X131246476Y-98542333D01*
X131151238Y-98589952D01*
X130960761Y-98589952D01*
X130865523Y-98637571D01*
X130817904Y-98685190D01*
X130770285Y-98780428D01*
X130770285Y-98970904D01*
X130817904Y-99066142D01*
X130865523Y-99113761D01*
X130960761Y-99161380D01*
X131151238Y-99161380D01*
X131246476Y-99113761D01*
X131294095Y-99066142D01*
X131341714Y-98970904D01*
X131341714Y-98780428D01*
X131294095Y-98685190D01*
X131246476Y-98637571D01*
X131151238Y-98589952D01*
G04 #@! TO.C,D9*
X124785380Y-100530095D02*
X123785380Y-100530095D01*
X123785380Y-100292000D01*
X123833000Y-100149142D01*
X123928238Y-100053904D01*
X124023476Y-100006285D01*
X124213952Y-99958666D01*
X124356809Y-99958666D01*
X124547285Y-100006285D01*
X124642523Y-100053904D01*
X124737761Y-100149142D01*
X124785380Y-100292000D01*
X124785380Y-100530095D01*
X124785380Y-99482476D02*
X124785380Y-99292000D01*
X124737761Y-99196761D01*
X124690142Y-99149142D01*
X124547285Y-99053904D01*
X124356809Y-99006285D01*
X123975857Y-99006285D01*
X123880619Y-99053904D01*
X123833000Y-99101523D01*
X123785380Y-99196761D01*
X123785380Y-99387238D01*
X123833000Y-99482476D01*
X123880619Y-99530095D01*
X123975857Y-99577714D01*
X124213952Y-99577714D01*
X124309190Y-99530095D01*
X124356809Y-99482476D01*
X124404428Y-99387238D01*
X124404428Y-99196761D01*
X124356809Y-99101523D01*
X124309190Y-99053904D01*
X124213952Y-99006285D01*
G04 #@! TO.C,D10*
X121864380Y-101290285D02*
X120864380Y-101290285D01*
X120864380Y-101052190D01*
X120912000Y-100909333D01*
X121007238Y-100814095D01*
X121102476Y-100766476D01*
X121292952Y-100718857D01*
X121435809Y-100718857D01*
X121626285Y-100766476D01*
X121721523Y-100814095D01*
X121816761Y-100909333D01*
X121864380Y-101052190D01*
X121864380Y-101290285D01*
X121864380Y-99766476D02*
X121864380Y-100337904D01*
X121864380Y-100052190D02*
X120864380Y-100052190D01*
X121007238Y-100147428D01*
X121102476Y-100242666D01*
X121150095Y-100337904D01*
X120864380Y-99147428D02*
X120864380Y-99052190D01*
X120912000Y-98956952D01*
X120959619Y-98909333D01*
X121054857Y-98861714D01*
X121245333Y-98814095D01*
X121483428Y-98814095D01*
X121673904Y-98861714D01*
X121769142Y-98909333D01*
X121816761Y-98956952D01*
X121864380Y-99052190D01*
X121864380Y-99147428D01*
X121816761Y-99242666D01*
X121769142Y-99290285D01*
X121673904Y-99337904D01*
X121483428Y-99385523D01*
X121245333Y-99385523D01*
X121054857Y-99337904D01*
X120959619Y-99290285D01*
X120912000Y-99242666D01*
X120864380Y-99147428D01*
G04 #@! TO.C,D11*
X118816380Y-101290285D02*
X117816380Y-101290285D01*
X117816380Y-101052190D01*
X117864000Y-100909333D01*
X117959238Y-100814095D01*
X118054476Y-100766476D01*
X118244952Y-100718857D01*
X118387809Y-100718857D01*
X118578285Y-100766476D01*
X118673523Y-100814095D01*
X118768761Y-100909333D01*
X118816380Y-101052190D01*
X118816380Y-101290285D01*
X118816380Y-99766476D02*
X118816380Y-100337904D01*
X118816380Y-100052190D02*
X117816380Y-100052190D01*
X117959238Y-100147428D01*
X118054476Y-100242666D01*
X118102095Y-100337904D01*
X118816380Y-98814095D02*
X118816380Y-99385523D01*
X118816380Y-99099809D02*
X117816380Y-99099809D01*
X117959238Y-99195047D01*
X118054476Y-99290285D01*
X118102095Y-99385523D01*
G04 #@! TO.C,D12*
X115768380Y-101290285D02*
X114768380Y-101290285D01*
X114768380Y-101052190D01*
X114816000Y-100909333D01*
X114911238Y-100814095D01*
X115006476Y-100766476D01*
X115196952Y-100718857D01*
X115339809Y-100718857D01*
X115530285Y-100766476D01*
X115625523Y-100814095D01*
X115720761Y-100909333D01*
X115768380Y-101052190D01*
X115768380Y-101290285D01*
X115768380Y-99766476D02*
X115768380Y-100337904D01*
X115768380Y-100052190D02*
X114768380Y-100052190D01*
X114911238Y-100147428D01*
X115006476Y-100242666D01*
X115054095Y-100337904D01*
X114863619Y-99385523D02*
X114816000Y-99337904D01*
X114768380Y-99242666D01*
X114768380Y-99004571D01*
X114816000Y-98909333D01*
X114863619Y-98861714D01*
X114958857Y-98814095D01*
X115054095Y-98814095D01*
X115196952Y-98861714D01*
X115768380Y-99433142D01*
X115768380Y-98814095D01*
G04 #@! TO.C,D13*
X112720380Y-101290285D02*
X111720380Y-101290285D01*
X111720380Y-101052190D01*
X111768000Y-100909333D01*
X111863238Y-100814095D01*
X111958476Y-100766476D01*
X112148952Y-100718857D01*
X112291809Y-100718857D01*
X112482285Y-100766476D01*
X112577523Y-100814095D01*
X112672761Y-100909333D01*
X112720380Y-101052190D01*
X112720380Y-101290285D01*
X112720380Y-99766476D02*
X112720380Y-100337904D01*
X112720380Y-100052190D02*
X111720380Y-100052190D01*
X111863238Y-100147428D01*
X111958476Y-100242666D01*
X112006095Y-100337904D01*
X111720380Y-99433142D02*
X111720380Y-98814095D01*
X112101333Y-99147428D01*
X112101333Y-99004571D01*
X112148952Y-98909333D01*
X112196571Y-98861714D01*
X112291809Y-98814095D01*
X112529904Y-98814095D01*
X112625142Y-98861714D01*
X112672761Y-98909333D01*
X112720380Y-99004571D01*
X112720380Y-99290285D01*
X112672761Y-99385523D01*
X112625142Y-99433142D01*
G04 #@! TO.C,D14*
X109672380Y-101290285D02*
X108672380Y-101290285D01*
X108672380Y-101052190D01*
X108720000Y-100909333D01*
X108815238Y-100814095D01*
X108910476Y-100766476D01*
X109100952Y-100718857D01*
X109243809Y-100718857D01*
X109434285Y-100766476D01*
X109529523Y-100814095D01*
X109624761Y-100909333D01*
X109672380Y-101052190D01*
X109672380Y-101290285D01*
X109672380Y-99766476D02*
X109672380Y-100337904D01*
X109672380Y-100052190D02*
X108672380Y-100052190D01*
X108815238Y-100147428D01*
X108910476Y-100242666D01*
X108958095Y-100337904D01*
X109005714Y-98909333D02*
X109672380Y-98909333D01*
X108624761Y-99147428D02*
X109339047Y-99385523D01*
X109339047Y-98766476D01*
G04 #@! TO.C,D15*
X106624380Y-101290285D02*
X105624380Y-101290285D01*
X105624380Y-101052190D01*
X105672000Y-100909333D01*
X105767238Y-100814095D01*
X105862476Y-100766476D01*
X106052952Y-100718857D01*
X106195809Y-100718857D01*
X106386285Y-100766476D01*
X106481523Y-100814095D01*
X106576761Y-100909333D01*
X106624380Y-101052190D01*
X106624380Y-101290285D01*
X106624380Y-99766476D02*
X106624380Y-100337904D01*
X106624380Y-100052190D02*
X105624380Y-100052190D01*
X105767238Y-100147428D01*
X105862476Y-100242666D01*
X105910095Y-100337904D01*
X105624380Y-98861714D02*
X105624380Y-99337904D01*
X106100571Y-99385523D01*
X106052952Y-99337904D01*
X106005333Y-99242666D01*
X106005333Y-99004571D01*
X106052952Y-98909333D01*
X106100571Y-98861714D01*
X106195809Y-98814095D01*
X106433904Y-98814095D01*
X106529142Y-98861714D01*
X106576761Y-98909333D01*
X106624380Y-99004571D01*
X106624380Y-99242666D01*
X106576761Y-99337904D01*
X106529142Y-99385523D01*
G04 #@! TO.C,D16*
X103576380Y-101290285D02*
X102576380Y-101290285D01*
X102576380Y-101052190D01*
X102624000Y-100909333D01*
X102719238Y-100814095D01*
X102814476Y-100766476D01*
X103004952Y-100718857D01*
X103147809Y-100718857D01*
X103338285Y-100766476D01*
X103433523Y-100814095D01*
X103528761Y-100909333D01*
X103576380Y-101052190D01*
X103576380Y-101290285D01*
X103576380Y-99766476D02*
X103576380Y-100337904D01*
X103576380Y-100052190D02*
X102576380Y-100052190D01*
X102719238Y-100147428D01*
X102814476Y-100242666D01*
X102862095Y-100337904D01*
X102576380Y-98909333D02*
X102576380Y-99099809D01*
X102624000Y-99195047D01*
X102671619Y-99242666D01*
X102814476Y-99337904D01*
X103004952Y-99385523D01*
X103385904Y-99385523D01*
X103481142Y-99337904D01*
X103528761Y-99290285D01*
X103576380Y-99195047D01*
X103576380Y-99004571D01*
X103528761Y-98909333D01*
X103481142Y-98861714D01*
X103385904Y-98814095D01*
X103147809Y-98814095D01*
X103052571Y-98861714D01*
X103004952Y-98909333D01*
X102957333Y-99004571D01*
X102957333Y-99195047D01*
X103004952Y-99290285D01*
X103052571Y-99337904D01*
X103147809Y-99385523D01*
G04 #@! TO.C,J2*
X106854666Y-104862380D02*
X106854666Y-105576666D01*
X106807047Y-105719523D01*
X106711809Y-105814761D01*
X106568952Y-105862380D01*
X106473714Y-105862380D01*
X107283238Y-104957619D02*
X107330857Y-104910000D01*
X107426095Y-104862380D01*
X107664190Y-104862380D01*
X107759428Y-104910000D01*
X107807047Y-104957619D01*
X107854666Y-105052857D01*
X107854666Y-105148095D01*
X107807047Y-105290952D01*
X107235619Y-105862380D01*
X107854666Y-105862380D01*
G04 #@! TO.C,J3*
X147866666Y-95052380D02*
X147866666Y-95766666D01*
X147819047Y-95909523D01*
X147723809Y-96004761D01*
X147580952Y-96052380D01*
X147485714Y-96052380D01*
X148247619Y-95052380D02*
X148866666Y-95052380D01*
X148533333Y-95433333D01*
X148676190Y-95433333D01*
X148771428Y-95480952D01*
X148819047Y-95528571D01*
X148866666Y-95623809D01*
X148866666Y-95861904D01*
X148819047Y-95957142D01*
X148771428Y-96004761D01*
X148676190Y-96052380D01*
X148390476Y-96052380D01*
X148295238Y-96004761D01*
X148247619Y-95957142D01*
G04 #@! TO.C,J4*
X116506666Y-104862380D02*
X116506666Y-105576666D01*
X116459047Y-105719523D01*
X116363809Y-105814761D01*
X116220952Y-105862380D01*
X116125714Y-105862380D01*
X117411428Y-105195714D02*
X117411428Y-105862380D01*
X117173333Y-104814761D02*
X116935238Y-105529047D01*
X117554285Y-105529047D01*
G04 #@! TO.C,JP1*
X171962380Y-121483333D02*
X172676666Y-121483333D01*
X172819523Y-121530952D01*
X172914761Y-121626190D01*
X172962380Y-121769047D01*
X172962380Y-121864285D01*
X172962380Y-121007142D02*
X171962380Y-121007142D01*
X171962380Y-120626190D01*
X172010000Y-120530952D01*
X172057619Y-120483333D01*
X172152857Y-120435714D01*
X172295714Y-120435714D01*
X172390952Y-120483333D01*
X172438571Y-120530952D01*
X172486190Y-120626190D01*
X172486190Y-121007142D01*
X172962380Y-119483333D02*
X172962380Y-120054761D01*
X172962380Y-119769047D02*
X171962380Y-119769047D01*
X172105238Y-119864285D01*
X172200476Y-119959523D01*
X172248095Y-120054761D01*
G04 #@! TO.C,JP2*
X126293666Y-117070379D02*
X126293666Y-117784665D01*
X126246047Y-117927522D01*
X126150809Y-118022760D01*
X126007952Y-118070379D01*
X125912714Y-118070379D01*
X126769857Y-118070379D02*
X126769857Y-117070379D01*
X127150809Y-117070379D01*
X127246047Y-117117999D01*
X127293666Y-117165618D01*
X127341285Y-117260856D01*
X127341285Y-117403713D01*
X127293666Y-117498951D01*
X127246047Y-117546570D01*
X127150809Y-117594189D01*
X126769857Y-117594189D01*
X127722238Y-117165618D02*
X127769857Y-117117999D01*
X127865095Y-117070379D01*
X128103190Y-117070379D01*
X128198428Y-117117999D01*
X128246047Y-117165618D01*
X128293666Y-117260856D01*
X128293666Y-117356094D01*
X128246047Y-117498951D01*
X127674619Y-118070379D01*
X128293666Y-118070379D01*
G04 #@! TO.C,JP3*
X129976666Y-117010380D02*
X129976666Y-117724666D01*
X129929047Y-117867523D01*
X129833809Y-117962761D01*
X129690952Y-118010380D01*
X129595714Y-118010380D01*
X130452857Y-118010380D02*
X130452857Y-117010380D01*
X130833809Y-117010380D01*
X130929047Y-117058000D01*
X130976666Y-117105619D01*
X131024285Y-117200857D01*
X131024285Y-117343714D01*
X130976666Y-117438952D01*
X130929047Y-117486571D01*
X130833809Y-117534190D01*
X130452857Y-117534190D01*
X131357619Y-117010380D02*
X131976666Y-117010380D01*
X131643333Y-117391333D01*
X131786190Y-117391333D01*
X131881428Y-117438952D01*
X131929047Y-117486571D01*
X131976666Y-117581809D01*
X131976666Y-117819904D01*
X131929047Y-117915142D01*
X131881428Y-117962761D01*
X131786190Y-118010380D01*
X131500476Y-118010380D01*
X131405238Y-117962761D01*
X131357619Y-117915142D01*
G04 #@! TO.C,JP4*
X133786666Y-117010380D02*
X133786666Y-117724666D01*
X133739047Y-117867523D01*
X133643809Y-117962761D01*
X133500952Y-118010380D01*
X133405714Y-118010380D01*
X134262857Y-118010380D02*
X134262857Y-117010380D01*
X134643809Y-117010380D01*
X134739047Y-117058000D01*
X134786666Y-117105619D01*
X134834285Y-117200857D01*
X134834285Y-117343714D01*
X134786666Y-117438952D01*
X134739047Y-117486571D01*
X134643809Y-117534190D01*
X134262857Y-117534190D01*
X135691428Y-117343714D02*
X135691428Y-118010380D01*
X135453333Y-116962761D02*
X135215238Y-117677047D01*
X135834285Y-117677047D01*
G04 #@! TO.C,JP5*
X137596666Y-117010380D02*
X137596666Y-117724666D01*
X137549047Y-117867523D01*
X137453809Y-117962761D01*
X137310952Y-118010380D01*
X137215714Y-118010380D01*
X138072857Y-118010380D02*
X138072857Y-117010380D01*
X138453809Y-117010380D01*
X138549047Y-117058000D01*
X138596666Y-117105619D01*
X138644285Y-117200857D01*
X138644285Y-117343714D01*
X138596666Y-117438952D01*
X138549047Y-117486571D01*
X138453809Y-117534190D01*
X138072857Y-117534190D01*
X139549047Y-117010380D02*
X139072857Y-117010380D01*
X139025238Y-117486571D01*
X139072857Y-117438952D01*
X139168095Y-117391333D01*
X139406190Y-117391333D01*
X139501428Y-117438952D01*
X139549047Y-117486571D01*
X139596666Y-117581809D01*
X139596666Y-117819904D01*
X139549047Y-117915142D01*
X139501428Y-117962761D01*
X139406190Y-118010380D01*
X139168095Y-118010380D01*
X139072857Y-117962761D01*
X139025238Y-117915142D01*
G04 #@! TO.C,JP6*
X141406666Y-117010380D02*
X141406666Y-117724666D01*
X141359047Y-117867523D01*
X141263809Y-117962761D01*
X141120952Y-118010380D01*
X141025714Y-118010380D01*
X141882857Y-118010380D02*
X141882857Y-117010380D01*
X142263809Y-117010380D01*
X142359047Y-117058000D01*
X142406666Y-117105619D01*
X142454285Y-117200857D01*
X142454285Y-117343714D01*
X142406666Y-117438952D01*
X142359047Y-117486571D01*
X142263809Y-117534190D01*
X141882857Y-117534190D01*
X143311428Y-117010380D02*
X143120952Y-117010380D01*
X143025714Y-117058000D01*
X142978095Y-117105619D01*
X142882857Y-117248476D01*
X142835238Y-117438952D01*
X142835238Y-117819904D01*
X142882857Y-117915142D01*
X142930476Y-117962761D01*
X143025714Y-118010380D01*
X143216190Y-118010380D01*
X143311428Y-117962761D01*
X143359047Y-117915142D01*
X143406666Y-117819904D01*
X143406666Y-117581809D01*
X143359047Y-117486571D01*
X143311428Y-117438952D01*
X143216190Y-117391333D01*
X143025714Y-117391333D01*
X142930476Y-117438952D01*
X142882857Y-117486571D01*
X142835238Y-117581809D01*
G04 #@! TO.C,JP7*
X145216666Y-117010380D02*
X145216666Y-117724666D01*
X145169047Y-117867523D01*
X145073809Y-117962761D01*
X144930952Y-118010380D01*
X144835714Y-118010380D01*
X145692857Y-118010380D02*
X145692857Y-117010380D01*
X146073809Y-117010380D01*
X146169047Y-117058000D01*
X146216666Y-117105619D01*
X146264285Y-117200857D01*
X146264285Y-117343714D01*
X146216666Y-117438952D01*
X146169047Y-117486571D01*
X146073809Y-117534190D01*
X145692857Y-117534190D01*
X146597619Y-117010380D02*
X147264285Y-117010380D01*
X146835714Y-118010380D01*
G04 #@! TO.C,JP8*
X149026666Y-117010380D02*
X149026666Y-117724666D01*
X148979047Y-117867523D01*
X148883809Y-117962761D01*
X148740952Y-118010380D01*
X148645714Y-118010380D01*
X149502857Y-118010380D02*
X149502857Y-117010380D01*
X149883809Y-117010380D01*
X149979047Y-117058000D01*
X150026666Y-117105619D01*
X150074285Y-117200857D01*
X150074285Y-117343714D01*
X150026666Y-117438952D01*
X149979047Y-117486571D01*
X149883809Y-117534190D01*
X149502857Y-117534190D01*
X150645714Y-117438952D02*
X150550476Y-117391333D01*
X150502857Y-117343714D01*
X150455238Y-117248476D01*
X150455238Y-117200857D01*
X150502857Y-117105619D01*
X150550476Y-117058000D01*
X150645714Y-117010380D01*
X150836190Y-117010380D01*
X150931428Y-117058000D01*
X150979047Y-117105619D01*
X151026666Y-117200857D01*
X151026666Y-117248476D01*
X150979047Y-117343714D01*
X150931428Y-117391333D01*
X150836190Y-117438952D01*
X150645714Y-117438952D01*
X150550476Y-117486571D01*
X150502857Y-117534190D01*
X150455238Y-117629428D01*
X150455238Y-117819904D01*
X150502857Y-117915142D01*
X150550476Y-117962761D01*
X150645714Y-118010380D01*
X150836190Y-118010380D01*
X150931428Y-117962761D01*
X150979047Y-117915142D01*
X151026666Y-117819904D01*
X151026666Y-117629428D01*
X150979047Y-117534190D01*
X150931428Y-117486571D01*
X150836190Y-117438952D01*
G04 #@! TO.C,JP9*
X152836666Y-117010380D02*
X152836666Y-117724666D01*
X152789047Y-117867523D01*
X152693809Y-117962761D01*
X152550952Y-118010380D01*
X152455714Y-118010380D01*
X153312857Y-118010380D02*
X153312857Y-117010380D01*
X153693809Y-117010380D01*
X153789047Y-117058000D01*
X153836666Y-117105619D01*
X153884285Y-117200857D01*
X153884285Y-117343714D01*
X153836666Y-117438952D01*
X153789047Y-117486571D01*
X153693809Y-117534190D01*
X153312857Y-117534190D01*
X154360476Y-118010380D02*
X154550952Y-118010380D01*
X154646190Y-117962761D01*
X154693809Y-117915142D01*
X154789047Y-117772285D01*
X154836666Y-117581809D01*
X154836666Y-117200857D01*
X154789047Y-117105619D01*
X154741428Y-117058000D01*
X154646190Y-117010380D01*
X154455714Y-117010380D01*
X154360476Y-117058000D01*
X154312857Y-117105619D01*
X154265238Y-117200857D01*
X154265238Y-117438952D01*
X154312857Y-117534190D01*
X154360476Y-117581809D01*
X154455714Y-117629428D01*
X154646190Y-117629428D01*
X154741428Y-117581809D01*
X154789047Y-117534190D01*
X154836666Y-117438952D01*
G04 #@! TO.C,R1*
X97337333Y-103830380D02*
X97004000Y-103354190D01*
X96765904Y-103830380D02*
X96765904Y-102830380D01*
X97146857Y-102830380D01*
X97242095Y-102878000D01*
X97289714Y-102925619D01*
X97337333Y-103020857D01*
X97337333Y-103163714D01*
X97289714Y-103258952D01*
X97242095Y-103306571D01*
X97146857Y-103354190D01*
X96765904Y-103354190D01*
X98289714Y-103830380D02*
X97718285Y-103830380D01*
X98004000Y-103830380D02*
X98004000Y-102830380D01*
X97908761Y-102973238D01*
X97813523Y-103068476D01*
X97718285Y-103116095D01*
G04 #@! TO.C,R2*
X130389333Y-89320380D02*
X130056000Y-88844190D01*
X129817904Y-89320380D02*
X129817904Y-88320380D01*
X130198857Y-88320380D01*
X130294095Y-88368000D01*
X130341714Y-88415619D01*
X130389333Y-88510857D01*
X130389333Y-88653714D01*
X130341714Y-88748952D01*
X130294095Y-88796571D01*
X130198857Y-88844190D01*
X129817904Y-88844190D01*
X130770285Y-88415619D02*
X130817904Y-88368000D01*
X130913142Y-88320380D01*
X131151238Y-88320380D01*
X131246476Y-88368000D01*
X131294095Y-88415619D01*
X131341714Y-88510857D01*
X131341714Y-88606095D01*
X131294095Y-88748952D01*
X130722666Y-89320380D01*
X131341714Y-89320380D01*
G04 #@! TO.C,R3*
X126198333Y-110942380D02*
X125865000Y-110466190D01*
X125626904Y-110942380D02*
X125626904Y-109942380D01*
X126007857Y-109942380D01*
X126103095Y-109990000D01*
X126150714Y-110037619D01*
X126198333Y-110132857D01*
X126198333Y-110275714D01*
X126150714Y-110370952D01*
X126103095Y-110418571D01*
X126007857Y-110466190D01*
X125626904Y-110466190D01*
X126531666Y-109942380D02*
X127150714Y-109942380D01*
X126817380Y-110323333D01*
X126960238Y-110323333D01*
X127055476Y-110370952D01*
X127103095Y-110418571D01*
X127150714Y-110513809D01*
X127150714Y-110751904D01*
X127103095Y-110847142D01*
X127055476Y-110894761D01*
X126960238Y-110942380D01*
X126674523Y-110942380D01*
X126579285Y-110894761D01*
X126531666Y-110847142D01*
G04 #@! TO.C,R4*
X126103333Y-113482380D02*
X125770000Y-113006190D01*
X125531904Y-113482380D02*
X125531904Y-112482380D01*
X125912857Y-112482380D01*
X126008095Y-112530000D01*
X126055714Y-112577619D01*
X126103333Y-112672857D01*
X126103333Y-112815714D01*
X126055714Y-112910952D01*
X126008095Y-112958571D01*
X125912857Y-113006190D01*
X125531904Y-113006190D01*
X126960476Y-112815714D02*
X126960476Y-113482380D01*
X126722380Y-112434761D02*
X126484285Y-113149047D01*
X127103333Y-113149047D01*
G04 #@! TO.C,R5*
X169378333Y-100147380D02*
X169045000Y-99671190D01*
X168806904Y-100147380D02*
X168806904Y-99147380D01*
X169187857Y-99147380D01*
X169283095Y-99195000D01*
X169330714Y-99242619D01*
X169378333Y-99337857D01*
X169378333Y-99480714D01*
X169330714Y-99575952D01*
X169283095Y-99623571D01*
X169187857Y-99671190D01*
X168806904Y-99671190D01*
X170283095Y-99147380D02*
X169806904Y-99147380D01*
X169759285Y-99623571D01*
X169806904Y-99575952D01*
X169902142Y-99528333D01*
X170140238Y-99528333D01*
X170235476Y-99575952D01*
X170283095Y-99623571D01*
X170330714Y-99718809D01*
X170330714Y-99956904D01*
X170283095Y-100052142D01*
X170235476Y-100099761D01*
X170140238Y-100147380D01*
X169902142Y-100147380D01*
X169806904Y-100099761D01*
X169759285Y-100052142D01*
G04 #@! TO.C,R6*
X166203333Y-100147380D02*
X165870000Y-99671190D01*
X165631904Y-100147380D02*
X165631904Y-99147380D01*
X166012857Y-99147380D01*
X166108095Y-99195000D01*
X166155714Y-99242619D01*
X166203333Y-99337857D01*
X166203333Y-99480714D01*
X166155714Y-99575952D01*
X166108095Y-99623571D01*
X166012857Y-99671190D01*
X165631904Y-99671190D01*
X167060476Y-99147380D02*
X166870000Y-99147380D01*
X166774761Y-99195000D01*
X166727142Y-99242619D01*
X166631904Y-99385476D01*
X166584285Y-99575952D01*
X166584285Y-99956904D01*
X166631904Y-100052142D01*
X166679523Y-100099761D01*
X166774761Y-100147380D01*
X166965238Y-100147380D01*
X167060476Y-100099761D01*
X167108095Y-100052142D01*
X167155714Y-99956904D01*
X167155714Y-99718809D01*
X167108095Y-99623571D01*
X167060476Y-99575952D01*
X166965238Y-99528333D01*
X166774761Y-99528333D01*
X166679523Y-99575952D01*
X166631904Y-99623571D01*
X166584285Y-99718809D01*
G04 #@! TO.C,R7*
X163028333Y-100147380D02*
X162695000Y-99671190D01*
X162456904Y-100147380D02*
X162456904Y-99147380D01*
X162837857Y-99147380D01*
X162933095Y-99195000D01*
X162980714Y-99242619D01*
X163028333Y-99337857D01*
X163028333Y-99480714D01*
X162980714Y-99575952D01*
X162933095Y-99623571D01*
X162837857Y-99671190D01*
X162456904Y-99671190D01*
X163361666Y-99147380D02*
X164028333Y-99147380D01*
X163599761Y-100147380D01*
G04 #@! TO.C,R8*
X159853333Y-100147380D02*
X159520000Y-99671190D01*
X159281904Y-100147380D02*
X159281904Y-99147380D01*
X159662857Y-99147380D01*
X159758095Y-99195000D01*
X159805714Y-99242619D01*
X159853333Y-99337857D01*
X159853333Y-99480714D01*
X159805714Y-99575952D01*
X159758095Y-99623571D01*
X159662857Y-99671190D01*
X159281904Y-99671190D01*
X160424761Y-99575952D02*
X160329523Y-99528333D01*
X160281904Y-99480714D01*
X160234285Y-99385476D01*
X160234285Y-99337857D01*
X160281904Y-99242619D01*
X160329523Y-99195000D01*
X160424761Y-99147380D01*
X160615238Y-99147380D01*
X160710476Y-99195000D01*
X160758095Y-99242619D01*
X160805714Y-99337857D01*
X160805714Y-99385476D01*
X160758095Y-99480714D01*
X160710476Y-99528333D01*
X160615238Y-99575952D01*
X160424761Y-99575952D01*
X160329523Y-99623571D01*
X160281904Y-99671190D01*
X160234285Y-99766428D01*
X160234285Y-99956904D01*
X160281904Y-100052142D01*
X160329523Y-100099761D01*
X160424761Y-100147380D01*
X160615238Y-100147380D01*
X160710476Y-100099761D01*
X160758095Y-100052142D01*
X160805714Y-99956904D01*
X160805714Y-99766428D01*
X160758095Y-99671190D01*
X160710476Y-99623571D01*
X160615238Y-99575952D01*
G04 #@! TO.C,R9*
X156678333Y-100147380D02*
X156345000Y-99671190D01*
X156106904Y-100147380D02*
X156106904Y-99147380D01*
X156487857Y-99147380D01*
X156583095Y-99195000D01*
X156630714Y-99242619D01*
X156678333Y-99337857D01*
X156678333Y-99480714D01*
X156630714Y-99575952D01*
X156583095Y-99623571D01*
X156487857Y-99671190D01*
X156106904Y-99671190D01*
X157154523Y-100147380D02*
X157345000Y-100147380D01*
X157440238Y-100099761D01*
X157487857Y-100052142D01*
X157583095Y-99909285D01*
X157630714Y-99718809D01*
X157630714Y-99337857D01*
X157583095Y-99242619D01*
X157535476Y-99195000D01*
X157440238Y-99147380D01*
X157249761Y-99147380D01*
X157154523Y-99195000D01*
X157106904Y-99242619D01*
X157059285Y-99337857D01*
X157059285Y-99575952D01*
X157106904Y-99671190D01*
X157154523Y-99718809D01*
X157249761Y-99766428D01*
X157440238Y-99766428D01*
X157535476Y-99718809D01*
X157583095Y-99671190D01*
X157630714Y-99575952D01*
G04 #@! TO.C,R10*
X153027142Y-100147380D02*
X152693809Y-99671190D01*
X152455714Y-100147380D02*
X152455714Y-99147380D01*
X152836666Y-99147380D01*
X152931904Y-99195000D01*
X152979523Y-99242619D01*
X153027142Y-99337857D01*
X153027142Y-99480714D01*
X152979523Y-99575952D01*
X152931904Y-99623571D01*
X152836666Y-99671190D01*
X152455714Y-99671190D01*
X153979523Y-100147380D02*
X153408095Y-100147380D01*
X153693809Y-100147380D02*
X153693809Y-99147380D01*
X153598571Y-99290238D01*
X153503333Y-99385476D01*
X153408095Y-99433095D01*
X154598571Y-99147380D02*
X154693809Y-99147380D01*
X154789047Y-99195000D01*
X154836666Y-99242619D01*
X154884285Y-99337857D01*
X154931904Y-99528333D01*
X154931904Y-99766428D01*
X154884285Y-99956904D01*
X154836666Y-100052142D01*
X154789047Y-100099761D01*
X154693809Y-100147380D01*
X154598571Y-100147380D01*
X154503333Y-100099761D01*
X154455714Y-100052142D01*
X154408095Y-99956904D01*
X154360476Y-99766428D01*
X154360476Y-99528333D01*
X154408095Y-99337857D01*
X154455714Y-99242619D01*
X154503333Y-99195000D01*
X154598571Y-99147380D01*
G04 #@! TO.C,R11*
X180586142Y-119324380D02*
X180252809Y-118848190D01*
X180014714Y-119324380D02*
X180014714Y-118324380D01*
X180395666Y-118324380D01*
X180490904Y-118372000D01*
X180538523Y-118419619D01*
X180586142Y-118514857D01*
X180586142Y-118657714D01*
X180538523Y-118752952D01*
X180490904Y-118800571D01*
X180395666Y-118848190D01*
X180014714Y-118848190D01*
X181538523Y-119324380D02*
X180967095Y-119324380D01*
X181252809Y-119324380D02*
X181252809Y-118324380D01*
X181157571Y-118467238D01*
X181062333Y-118562476D01*
X180967095Y-118610095D01*
X182490904Y-119324380D02*
X181919476Y-119324380D01*
X182205190Y-119324380D02*
X182205190Y-118324380D01*
X182109952Y-118467238D01*
X182014714Y-118562476D01*
X181919476Y-118610095D01*
G04 #@! TO.C,R12*
X177157142Y-119324380D02*
X176823809Y-118848190D01*
X176585714Y-119324380D02*
X176585714Y-118324380D01*
X176966666Y-118324380D01*
X177061904Y-118372000D01*
X177109523Y-118419619D01*
X177157142Y-118514857D01*
X177157142Y-118657714D01*
X177109523Y-118752952D01*
X177061904Y-118800571D01*
X176966666Y-118848190D01*
X176585714Y-118848190D01*
X178109523Y-119324380D02*
X177538095Y-119324380D01*
X177823809Y-119324380D02*
X177823809Y-118324380D01*
X177728571Y-118467238D01*
X177633333Y-118562476D01*
X177538095Y-118610095D01*
X178490476Y-118419619D02*
X178538095Y-118372000D01*
X178633333Y-118324380D01*
X178871428Y-118324380D01*
X178966666Y-118372000D01*
X179014285Y-118419619D01*
X179061904Y-118514857D01*
X179061904Y-118610095D01*
X179014285Y-118752952D01*
X178442857Y-119324380D01*
X179061904Y-119324380D01*
G04 #@! TO.C,R13*
X158948380Y-111735857D02*
X158472190Y-112069190D01*
X158948380Y-112307285D02*
X157948380Y-112307285D01*
X157948380Y-111926333D01*
X157996000Y-111831095D01*
X158043619Y-111783476D01*
X158138857Y-111735857D01*
X158281714Y-111735857D01*
X158376952Y-111783476D01*
X158424571Y-111831095D01*
X158472190Y-111926333D01*
X158472190Y-112307285D01*
X158948380Y-110783476D02*
X158948380Y-111354904D01*
X158948380Y-111069190D02*
X157948380Y-111069190D01*
X158091238Y-111164428D01*
X158186476Y-111259666D01*
X158234095Y-111354904D01*
X157948380Y-110450142D02*
X157948380Y-109831095D01*
X158329333Y-110164428D01*
X158329333Y-110021571D01*
X158376952Y-109926333D01*
X158424571Y-109878714D01*
X158519809Y-109831095D01*
X158757904Y-109831095D01*
X158853142Y-109878714D01*
X158900761Y-109926333D01*
X158948380Y-110021571D01*
X158948380Y-110307285D01*
X158900761Y-110402523D01*
X158853142Y-110450142D01*
G04 #@! TO.C,R14*
X154884380Y-107957857D02*
X154408190Y-108291190D01*
X154884380Y-108529285D02*
X153884380Y-108529285D01*
X153884380Y-108148333D01*
X153932000Y-108053095D01*
X153979619Y-108005476D01*
X154074857Y-107957857D01*
X154217714Y-107957857D01*
X154312952Y-108005476D01*
X154360571Y-108053095D01*
X154408190Y-108148333D01*
X154408190Y-108529285D01*
X154884380Y-107005476D02*
X154884380Y-107576904D01*
X154884380Y-107291190D02*
X153884380Y-107291190D01*
X154027238Y-107386428D01*
X154122476Y-107481666D01*
X154170095Y-107576904D01*
X154217714Y-106148333D02*
X154884380Y-106148333D01*
X153836761Y-106386428D02*
X154551047Y-106624523D01*
X154551047Y-106005476D01*
G04 #@! TO.C,R15*
X150185380Y-108084857D02*
X149709190Y-108418190D01*
X150185380Y-108656285D02*
X149185380Y-108656285D01*
X149185380Y-108275333D01*
X149233000Y-108180095D01*
X149280619Y-108132476D01*
X149375857Y-108084857D01*
X149518714Y-108084857D01*
X149613952Y-108132476D01*
X149661571Y-108180095D01*
X149709190Y-108275333D01*
X149709190Y-108656285D01*
X150185380Y-107132476D02*
X150185380Y-107703904D01*
X150185380Y-107418190D02*
X149185380Y-107418190D01*
X149328238Y-107513428D01*
X149423476Y-107608666D01*
X149471095Y-107703904D01*
X149185380Y-106227714D02*
X149185380Y-106703904D01*
X149661571Y-106751523D01*
X149613952Y-106703904D01*
X149566333Y-106608666D01*
X149566333Y-106370571D01*
X149613952Y-106275333D01*
X149661571Y-106227714D01*
X149756809Y-106180095D01*
X149994904Y-106180095D01*
X150090142Y-106227714D01*
X150137761Y-106275333D01*
X150185380Y-106370571D01*
X150185380Y-106608666D01*
X150137761Y-106703904D01*
X150090142Y-106751523D01*
G04 #@! TO.C,R16*
X124912380Y-89542857D02*
X124436190Y-89876190D01*
X124912380Y-90114285D02*
X123912380Y-90114285D01*
X123912380Y-89733333D01*
X123960000Y-89638095D01*
X124007619Y-89590476D01*
X124102857Y-89542857D01*
X124245714Y-89542857D01*
X124340952Y-89590476D01*
X124388571Y-89638095D01*
X124436190Y-89733333D01*
X124436190Y-90114285D01*
X124912380Y-88590476D02*
X124912380Y-89161904D01*
X124912380Y-88876190D02*
X123912380Y-88876190D01*
X124055238Y-88971428D01*
X124150476Y-89066666D01*
X124198095Y-89161904D01*
X123912380Y-87733333D02*
X123912380Y-87923809D01*
X123960000Y-88019047D01*
X124007619Y-88066666D01*
X124150476Y-88161904D01*
X124340952Y-88209523D01*
X124721904Y-88209523D01*
X124817142Y-88161904D01*
X124864761Y-88114285D01*
X124912380Y-88019047D01*
X124912380Y-87828571D01*
X124864761Y-87733333D01*
X124817142Y-87685714D01*
X124721904Y-87638095D01*
X124483809Y-87638095D01*
X124388571Y-87685714D01*
X124340952Y-87733333D01*
X124293333Y-87828571D01*
X124293333Y-88019047D01*
X124340952Y-88114285D01*
X124388571Y-88161904D01*
X124483809Y-88209523D01*
G04 #@! TO.C,R17*
X121864380Y-89542857D02*
X121388190Y-89876190D01*
X121864380Y-90114285D02*
X120864380Y-90114285D01*
X120864380Y-89733333D01*
X120912000Y-89638095D01*
X120959619Y-89590476D01*
X121054857Y-89542857D01*
X121197714Y-89542857D01*
X121292952Y-89590476D01*
X121340571Y-89638095D01*
X121388190Y-89733333D01*
X121388190Y-90114285D01*
X121864380Y-88590476D02*
X121864380Y-89161904D01*
X121864380Y-88876190D02*
X120864380Y-88876190D01*
X121007238Y-88971428D01*
X121102476Y-89066666D01*
X121150095Y-89161904D01*
X120864380Y-88257142D02*
X120864380Y-87590476D01*
X121864380Y-88019047D01*
G04 #@! TO.C,R18*
X118816380Y-89542857D02*
X118340190Y-89876190D01*
X118816380Y-90114285D02*
X117816380Y-90114285D01*
X117816380Y-89733333D01*
X117864000Y-89638095D01*
X117911619Y-89590476D01*
X118006857Y-89542857D01*
X118149714Y-89542857D01*
X118244952Y-89590476D01*
X118292571Y-89638095D01*
X118340190Y-89733333D01*
X118340190Y-90114285D01*
X118816380Y-88590476D02*
X118816380Y-89161904D01*
X118816380Y-88876190D02*
X117816380Y-88876190D01*
X117959238Y-88971428D01*
X118054476Y-89066666D01*
X118102095Y-89161904D01*
X118244952Y-88019047D02*
X118197333Y-88114285D01*
X118149714Y-88161904D01*
X118054476Y-88209523D01*
X118006857Y-88209523D01*
X117911619Y-88161904D01*
X117864000Y-88114285D01*
X117816380Y-88019047D01*
X117816380Y-87828571D01*
X117864000Y-87733333D01*
X117911619Y-87685714D01*
X118006857Y-87638095D01*
X118054476Y-87638095D01*
X118149714Y-87685714D01*
X118197333Y-87733333D01*
X118244952Y-87828571D01*
X118244952Y-88019047D01*
X118292571Y-88114285D01*
X118340190Y-88161904D01*
X118435428Y-88209523D01*
X118625904Y-88209523D01*
X118721142Y-88161904D01*
X118768761Y-88114285D01*
X118816380Y-88019047D01*
X118816380Y-87828571D01*
X118768761Y-87733333D01*
X118721142Y-87685714D01*
X118625904Y-87638095D01*
X118435428Y-87638095D01*
X118340190Y-87685714D01*
X118292571Y-87733333D01*
X118244952Y-87828571D01*
G04 #@! TO.C,R19*
X115768380Y-89542857D02*
X115292190Y-89876190D01*
X115768380Y-90114285D02*
X114768380Y-90114285D01*
X114768380Y-89733333D01*
X114816000Y-89638095D01*
X114863619Y-89590476D01*
X114958857Y-89542857D01*
X115101714Y-89542857D01*
X115196952Y-89590476D01*
X115244571Y-89638095D01*
X115292190Y-89733333D01*
X115292190Y-90114285D01*
X115768380Y-88590476D02*
X115768380Y-89161904D01*
X115768380Y-88876190D02*
X114768380Y-88876190D01*
X114911238Y-88971428D01*
X115006476Y-89066666D01*
X115054095Y-89161904D01*
X115768380Y-88114285D02*
X115768380Y-87923809D01*
X115720761Y-87828571D01*
X115673142Y-87780952D01*
X115530285Y-87685714D01*
X115339809Y-87638095D01*
X114958857Y-87638095D01*
X114863619Y-87685714D01*
X114816000Y-87733333D01*
X114768380Y-87828571D01*
X114768380Y-88019047D01*
X114816000Y-88114285D01*
X114863619Y-88161904D01*
X114958857Y-88209523D01*
X115196952Y-88209523D01*
X115292190Y-88161904D01*
X115339809Y-88114285D01*
X115387428Y-88019047D01*
X115387428Y-87828571D01*
X115339809Y-87733333D01*
X115292190Y-87685714D01*
X115196952Y-87638095D01*
G04 #@! TO.C,R20*
X112720380Y-89542857D02*
X112244190Y-89876190D01*
X112720380Y-90114285D02*
X111720380Y-90114285D01*
X111720380Y-89733333D01*
X111768000Y-89638095D01*
X111815619Y-89590476D01*
X111910857Y-89542857D01*
X112053714Y-89542857D01*
X112148952Y-89590476D01*
X112196571Y-89638095D01*
X112244190Y-89733333D01*
X112244190Y-90114285D01*
X111815619Y-89161904D02*
X111768000Y-89114285D01*
X111720380Y-89019047D01*
X111720380Y-88780952D01*
X111768000Y-88685714D01*
X111815619Y-88638095D01*
X111910857Y-88590476D01*
X112006095Y-88590476D01*
X112148952Y-88638095D01*
X112720380Y-89209523D01*
X112720380Y-88590476D01*
X111720380Y-87971428D02*
X111720380Y-87876190D01*
X111768000Y-87780952D01*
X111815619Y-87733333D01*
X111910857Y-87685714D01*
X112101333Y-87638095D01*
X112339428Y-87638095D01*
X112529904Y-87685714D01*
X112625142Y-87733333D01*
X112672761Y-87780952D01*
X112720380Y-87876190D01*
X112720380Y-87971428D01*
X112672761Y-88066666D01*
X112625142Y-88114285D01*
X112529904Y-88161904D01*
X112339428Y-88209523D01*
X112101333Y-88209523D01*
X111910857Y-88161904D01*
X111815619Y-88114285D01*
X111768000Y-88066666D01*
X111720380Y-87971428D01*
G04 #@! TO.C,R21*
X109672380Y-89542857D02*
X109196190Y-89876190D01*
X109672380Y-90114285D02*
X108672380Y-90114285D01*
X108672380Y-89733333D01*
X108720000Y-89638095D01*
X108767619Y-89590476D01*
X108862857Y-89542857D01*
X109005714Y-89542857D01*
X109100952Y-89590476D01*
X109148571Y-89638095D01*
X109196190Y-89733333D01*
X109196190Y-90114285D01*
X108767619Y-89161904D02*
X108720000Y-89114285D01*
X108672380Y-89019047D01*
X108672380Y-88780952D01*
X108720000Y-88685714D01*
X108767619Y-88638095D01*
X108862857Y-88590476D01*
X108958095Y-88590476D01*
X109100952Y-88638095D01*
X109672380Y-89209523D01*
X109672380Y-88590476D01*
X109672380Y-87638095D02*
X109672380Y-88209523D01*
X109672380Y-87923809D02*
X108672380Y-87923809D01*
X108815238Y-88019047D01*
X108910476Y-88114285D01*
X108958095Y-88209523D01*
G04 #@! TO.C,R22*
X106624380Y-89542857D02*
X106148190Y-89876190D01*
X106624380Y-90114285D02*
X105624380Y-90114285D01*
X105624380Y-89733333D01*
X105672000Y-89638095D01*
X105719619Y-89590476D01*
X105814857Y-89542857D01*
X105957714Y-89542857D01*
X106052952Y-89590476D01*
X106100571Y-89638095D01*
X106148190Y-89733333D01*
X106148190Y-90114285D01*
X105719619Y-89161904D02*
X105672000Y-89114285D01*
X105624380Y-89019047D01*
X105624380Y-88780952D01*
X105672000Y-88685714D01*
X105719619Y-88638095D01*
X105814857Y-88590476D01*
X105910095Y-88590476D01*
X106052952Y-88638095D01*
X106624380Y-89209523D01*
X106624380Y-88590476D01*
X105719619Y-88209523D02*
X105672000Y-88161904D01*
X105624380Y-88066666D01*
X105624380Y-87828571D01*
X105672000Y-87733333D01*
X105719619Y-87685714D01*
X105814857Y-87638095D01*
X105910095Y-87638095D01*
X106052952Y-87685714D01*
X106624380Y-88257142D01*
X106624380Y-87638095D01*
G04 #@! TO.C,R23*
X103576380Y-89542857D02*
X103100190Y-89876190D01*
X103576380Y-90114285D02*
X102576380Y-90114285D01*
X102576380Y-89733333D01*
X102624000Y-89638095D01*
X102671619Y-89590476D01*
X102766857Y-89542857D01*
X102909714Y-89542857D01*
X103004952Y-89590476D01*
X103052571Y-89638095D01*
X103100190Y-89733333D01*
X103100190Y-90114285D01*
X102671619Y-89161904D02*
X102624000Y-89114285D01*
X102576380Y-89019047D01*
X102576380Y-88780952D01*
X102624000Y-88685714D01*
X102671619Y-88638095D01*
X102766857Y-88590476D01*
X102862095Y-88590476D01*
X103004952Y-88638095D01*
X103576380Y-89209523D01*
X103576380Y-88590476D01*
X102576380Y-88257142D02*
X102576380Y-87638095D01*
X102957333Y-87971428D01*
X102957333Y-87828571D01*
X103004952Y-87733333D01*
X103052571Y-87685714D01*
X103147809Y-87638095D01*
X103385904Y-87638095D01*
X103481142Y-87685714D01*
X103528761Y-87733333D01*
X103576380Y-87828571D01*
X103576380Y-88114285D01*
X103528761Y-88209523D01*
X103481142Y-88257142D01*
G04 #@! TO.C,SW1*
X183578666Y-117498761D02*
X183721523Y-117546380D01*
X183959619Y-117546380D01*
X184054857Y-117498761D01*
X184102476Y-117451142D01*
X184150095Y-117355904D01*
X184150095Y-117260666D01*
X184102476Y-117165428D01*
X184054857Y-117117809D01*
X183959619Y-117070190D01*
X183769142Y-117022571D01*
X183673904Y-116974952D01*
X183626285Y-116927333D01*
X183578666Y-116832095D01*
X183578666Y-116736857D01*
X183626285Y-116641619D01*
X183673904Y-116594000D01*
X183769142Y-116546380D01*
X184007238Y-116546380D01*
X184150095Y-116594000D01*
X184483428Y-116546380D02*
X184721523Y-117546380D01*
X184912000Y-116832095D01*
X185102476Y-117546380D01*
X185340571Y-116546380D01*
X186245333Y-117546380D02*
X185673904Y-117546380D01*
X185959619Y-117546380D02*
X185959619Y-116546380D01*
X185864380Y-116689238D01*
X185769142Y-116784476D01*
X185673904Y-116832095D01*
G04 #@! TO.C,SW2*
X163798761Y-112458333D02*
X163846380Y-112315476D01*
X163846380Y-112077380D01*
X163798761Y-111982142D01*
X163751142Y-111934523D01*
X163655904Y-111886904D01*
X163560666Y-111886904D01*
X163465428Y-111934523D01*
X163417809Y-111982142D01*
X163370190Y-112077380D01*
X163322571Y-112267857D01*
X163274952Y-112363095D01*
X163227333Y-112410714D01*
X163132095Y-112458333D01*
X163036857Y-112458333D01*
X162941619Y-112410714D01*
X162894000Y-112363095D01*
X162846380Y-112267857D01*
X162846380Y-112029761D01*
X162894000Y-111886904D01*
X162846380Y-111553571D02*
X163846380Y-111315476D01*
X163132095Y-111125000D01*
X163846380Y-110934523D01*
X162846380Y-110696428D01*
X162941619Y-110363095D02*
X162894000Y-110315476D01*
X162846380Y-110220238D01*
X162846380Y-109982142D01*
X162894000Y-109886904D01*
X162941619Y-109839285D01*
X163036857Y-109791666D01*
X163132095Y-109791666D01*
X163274952Y-109839285D01*
X163846380Y-110410714D01*
X163846380Y-109791666D01*
G04 #@! TO.C,SW3*
X172108761Y-112712333D02*
X172156380Y-112569476D01*
X172156380Y-112331380D01*
X172108761Y-112236142D01*
X172061142Y-112188523D01*
X171965904Y-112140904D01*
X171870666Y-112140904D01*
X171775428Y-112188523D01*
X171727809Y-112236142D01*
X171680190Y-112331380D01*
X171632571Y-112521857D01*
X171584952Y-112617095D01*
X171537333Y-112664714D01*
X171442095Y-112712333D01*
X171346857Y-112712333D01*
X171251619Y-112664714D01*
X171204000Y-112617095D01*
X171156380Y-112521857D01*
X171156380Y-112283761D01*
X171204000Y-112140904D01*
X171156380Y-111807571D02*
X172156380Y-111569476D01*
X171442095Y-111379000D01*
X172156380Y-111188523D01*
X171156380Y-110950428D01*
X171156380Y-110664714D02*
X171156380Y-110045666D01*
X171537333Y-110379000D01*
X171537333Y-110236142D01*
X171584952Y-110140904D01*
X171632571Y-110093285D01*
X171727809Y-110045666D01*
X171965904Y-110045666D01*
X172061142Y-110093285D01*
X172108761Y-110140904D01*
X172156380Y-110236142D01*
X172156380Y-110521857D01*
X172108761Y-110617095D01*
X172061142Y-110664714D01*
G04 #@! TD*
M02*
