M48
; DRILL file {KiCad (5.1.9)-1} date 03/14/22 10:23:37
; FORMAT={-:-/ absolute / inch / decimal}
; #@! TF.CreationDate,2022-03-14T10:23:37-06:00
; #@! TF.GenerationSoftware,Kicad,Pcbnew,(5.1.9)-1
; #@! TF.FileFunction,Plated,1,2,PTH
FMAT,2
INCH
T1C0.0120
T2C0.0180
T3C0.0315
T4C0.0394
T5C0.0433
T6C0.0469
T7C0.0600
T8C0.1550
%
G90
G05
T1
X4.15Y-4.1
X4.22Y-4.1
X4.9Y-4.35
X5.525Y-4.5
X5.525Y-4.95
X5.525Y-5.125
X5.85Y-4.525
X6.175Y-3.85
X6.175Y-4.0
X6.3Y-3.85
X6.3Y-4.025
X6.425Y-3.85
X6.425Y-4.05
X6.55Y-3.85
X6.55Y-4.075
X6.675Y-3.85
X6.675Y-4.1
T2
X5.04Y-3.56
T3
X7.08Y-3.975
X7.08Y-4.075
X7.08Y-4.175
X7.08Y-4.275
X7.08Y-4.375
X7.08Y-4.475
X7.38Y-3.975
X7.38Y-4.075
X7.38Y-4.175
X7.38Y-4.275
X7.38Y-4.375
X7.38Y-4.475
T4
X5.005Y-4.72
X5.005Y-4.82
X5.15Y-4.72
X5.15Y-4.82
X5.3Y-3.65
X5.3Y-4.72
X5.3Y-4.82
X5.4Y-3.65
X5.45Y-4.72
X5.45Y-4.82
X5.5Y-3.65
X5.6Y-3.65
X5.6Y-4.72
X5.6Y-4.82
X5.7Y-3.65
X5.75Y-4.72
X5.75Y-4.82
X5.8Y-3.65
X5.9Y-4.72
X5.9Y-4.82
X6.05Y-4.72
X6.05Y-4.82
X6.6Y-4.75
X6.7Y-4.75
T5
X6.3478Y-4.25
X6.3478Y-4.5059
X6.525Y-4.25
X6.525Y-4.5059
X6.6728Y-4.25
X6.6728Y-4.5059
X6.85Y-4.25
X6.85Y-4.5059
T6
X4.125Y-5.025
X4.125Y-5.125
X4.125Y-5.225
X4.125Y-5.325
X4.125Y-5.425
X4.125Y-5.525
X4.22Y-4.25
X4.22Y-4.35
X4.22Y-4.45
X4.22Y-4.55
X4.525Y-5.025
X4.525Y-5.125
X4.525Y-5.225
X4.525Y-5.325
X4.525Y-5.425
X4.525Y-5.525
X4.6Y-4.25
X4.6Y-4.35
X4.6Y-4.45
X4.6Y-4.55
X4.925Y-5.025
X4.925Y-5.125
X4.925Y-5.225
X4.925Y-5.325
X4.925Y-5.425
X4.925Y-5.525
X5.325Y-5.025
X5.325Y-5.125
X5.325Y-5.225
X5.325Y-5.325
X5.325Y-5.425
X5.325Y-5.525
X5.725Y-5.025
X5.725Y-5.125
X5.725Y-5.225
X5.725Y-5.325
X5.725Y-5.425
X5.725Y-5.525
X6.125Y-5.025
X6.125Y-5.125
X6.125Y-5.225
X6.125Y-5.325
X6.125Y-5.425
X6.125Y-5.525
X6.525Y-5.025
X6.525Y-5.125
X6.525Y-5.225
X6.525Y-5.325
X6.525Y-5.425
X6.525Y-5.525
X6.925Y-5.025
X6.925Y-5.125
X6.925Y-5.225
X6.925Y-5.325
X6.925Y-5.425
X6.925Y-5.525
T7
X3.75Y-4.2882
X3.75Y-4.4882
T8
X3.7Y-3.55
X3.7Y-5.48
X7.35Y-3.55
X7.35Y-5.48
T0
M30
