G04 #@! TF.GenerationSoftware,KiCad,Pcbnew,(5.1.9)-1*
G04 #@! TF.CreationDate,2022-03-14T10:23:35-06:00*
G04 #@! TF.ProjectId,SensorBoard,53656e73-6f72-4426-9f61-72642e6b6963,rev?*
G04 #@! TF.SameCoordinates,Original*
G04 #@! TF.FileFunction,Copper,L1,Top*
G04 #@! TF.FilePolarity,Positive*
%FSLAX46Y46*%
G04 Gerber Fmt 4.6, Leading zero omitted, Abs format (unit mm)*
G04 Created by KiCad (PCBNEW (5.1.9)-1) date 2022-03-14 10:23:35*
%MOMM*%
%LPD*%
G01*
G04 APERTURE LIST*
G04 #@! TA.AperFunction,SMDPad,CuDef*
%ADD10R,2.794000X0.600000*%
G04 #@! TD*
G04 #@! TA.AperFunction,ComponentPad*
%ADD11O,2.190000X1.740000*%
G04 #@! TD*
G04 #@! TA.AperFunction,ComponentPad*
%ADD12R,2.413000X2.413000*%
G04 #@! TD*
G04 #@! TA.AperFunction,ComponentPad*
%ADD13R,6.756400X6.756400*%
G04 #@! TD*
G04 #@! TA.AperFunction,ComponentPad*
%ADD14R,1.700000X1.700000*%
G04 #@! TD*
G04 #@! TA.AperFunction,ComponentPad*
%ADD15O,1.700000X1.700000*%
G04 #@! TD*
G04 #@! TA.AperFunction,ComponentPad*
%ADD16R,1.600000X1.600000*%
G04 #@! TD*
G04 #@! TA.AperFunction,ComponentPad*
%ADD17O,1.600000X1.600000*%
G04 #@! TD*
G04 #@! TA.AperFunction,ComponentPad*
%ADD18C,2.000000*%
G04 #@! TD*
G04 #@! TA.AperFunction,ViaPad*
%ADD19C,0.762000*%
G04 #@! TD*
G04 #@! TA.AperFunction,ViaPad*
%ADD20C,0.660400*%
G04 #@! TD*
G04 #@! TA.AperFunction,Conductor*
%ADD21C,0.508000*%
G04 #@! TD*
G04 #@! TA.AperFunction,Conductor*
%ADD22C,0.203200*%
G04 #@! TD*
G04 APERTURE END LIST*
G04 #@! TO.P,R24,2*
G04 #@! TO.N,Net-(C5-Pad1)*
G04 #@! TA.AperFunction,SMDPad,CuDef*
G36*
G01*
X152746000Y-113595999D02*
X152746000Y-114496001D01*
G75*
G02*
X152496001Y-114746000I-249999J0D01*
G01*
X151795999Y-114746000D01*
G75*
G02*
X151546000Y-114496001I0J249999D01*
G01*
X151546000Y-113595999D01*
G75*
G02*
X151795999Y-113346000I249999J0D01*
G01*
X152496001Y-113346000D01*
G75*
G02*
X152746000Y-113595999I0J-249999D01*
G01*
G37*
G04 #@! TD.AperFunction*
G04 #@! TO.P,R24,1*
G04 #@! TO.N,Net-(R14-Pad1)*
G04 #@! TA.AperFunction,SMDPad,CuDef*
G36*
G01*
X154746000Y-113595999D02*
X154746000Y-114496001D01*
G75*
G02*
X154496001Y-114746000I-249999J0D01*
G01*
X153795999Y-114746000D01*
G75*
G02*
X153546000Y-114496001I0J249999D01*
G01*
X153546000Y-113595999D01*
G75*
G02*
X153795999Y-113346000I249999J0D01*
G01*
X154496001Y-113346000D01*
G75*
G02*
X154746000Y-113595999I0J-249999D01*
G01*
G37*
G04 #@! TD.AperFunction*
G04 #@! TD*
G04 #@! TO.P,C5,2*
G04 #@! TO.N,GND*
G04 #@! TA.AperFunction,SMDPad,CuDef*
G36*
G01*
X152469001Y-110455000D02*
X151568999Y-110455000D01*
G75*
G02*
X151319000Y-110205001I0J249999D01*
G01*
X151319000Y-109504999D01*
G75*
G02*
X151568999Y-109255000I249999J0D01*
G01*
X152469001Y-109255000D01*
G75*
G02*
X152719000Y-109504999I0J-249999D01*
G01*
X152719000Y-110205001D01*
G75*
G02*
X152469001Y-110455000I-249999J0D01*
G01*
G37*
G04 #@! TD.AperFunction*
G04 #@! TO.P,C5,1*
G04 #@! TO.N,Net-(C5-Pad1)*
G04 #@! TA.AperFunction,SMDPad,CuDef*
G36*
G01*
X152469001Y-112455000D02*
X151568999Y-112455000D01*
G75*
G02*
X151319000Y-112205001I0J249999D01*
G01*
X151319000Y-111504999D01*
G75*
G02*
X151568999Y-111255000I249999J0D01*
G01*
X152469001Y-111255000D01*
G75*
G02*
X152719000Y-111504999I0J-249999D01*
G01*
X152719000Y-112205001D01*
G75*
G02*
X152469001Y-112455000I-249999J0D01*
G01*
G37*
G04 #@! TD.AperFunction*
G04 #@! TD*
D10*
G04 #@! TO.P,U1,14*
G04 #@! TO.N,SCL2*
X136270000Y-114935000D03*
G04 #@! TO.P,U1,15*
G04 #@! TO.N,Net-(R13-Pad1)*
X145670000Y-114935000D03*
G04 #@! TO.P,U1,13*
G04 #@! TO.N,SDA2*
X136270000Y-113665000D03*
G04 #@! TO.P,U1,16*
G04 #@! TO.N,Net-(C5-Pad1)*
X145670000Y-113665000D03*
G04 #@! TO.P,U1,12*
G04 #@! TO.N,Net-(J2-Pad3)*
X136270000Y-112395000D03*
G04 #@! TO.P,U1,17*
G04 #@! TO.N,Net-(JP1-Pad2)*
X145670000Y-112395000D03*
G04 #@! TO.P,U1,11*
G04 #@! TO.N,Net-(J2-Pad2)*
X136270000Y-111125000D03*
G04 #@! TO.P,U1,18*
G04 #@! TO.N,Net-(U1-Pad18)*
X145670000Y-111125000D03*
G04 #@! TO.P,U1,10*
G04 #@! TO.N,Net-(D15-Pad2)*
X136270000Y-109855000D03*
G04 #@! TO.P,U1,19*
G04 #@! TO.N,GND*
X145670000Y-109855000D03*
G04 #@! TO.P,U1,9*
G04 #@! TO.N,Net-(D16-Pad2)*
X136270000Y-108585000D03*
G04 #@! TO.P,U1,20*
G04 #@! TO.N,+5V*
X145670000Y-108585000D03*
G04 #@! TO.P,U1,8*
G04 #@! TO.N,GND*
X136270000Y-107315000D03*
G04 #@! TO.P,U1,21*
G04 #@! TO.N,Net-(R5-Pad2)*
X145670000Y-107315000D03*
G04 #@! TO.P,U1,7*
G04 #@! TO.N,Net-(D14-Pad2)*
X136270000Y-106045000D03*
G04 #@! TO.P,U1,22*
G04 #@! TO.N,Net-(R6-Pad2)*
X145670000Y-106045000D03*
G04 #@! TO.P,U1,6*
G04 #@! TO.N,Net-(D13-Pad2)*
X136270000Y-104775000D03*
G04 #@! TO.P,U1,23*
G04 #@! TO.N,Net-(R7-Pad2)*
X145670000Y-104775000D03*
G04 #@! TO.P,U1,5*
G04 #@! TO.N,Net-(D12-Pad2)*
X136270000Y-103505000D03*
G04 #@! TO.P,U1,24*
G04 #@! TO.N,Net-(R8-Pad2)*
X145670000Y-103505000D03*
G04 #@! TO.P,U1,4*
G04 #@! TO.N,Net-(D11-Pad2)*
X136270000Y-102235000D03*
G04 #@! TO.P,U1,25*
G04 #@! TO.N,Net-(R9-Pad2)*
X145670000Y-102235000D03*
G04 #@! TO.P,U1,3*
G04 #@! TO.N,Net-(D10-Pad2)*
X136270000Y-100965000D03*
G04 #@! TO.P,U1,26*
G04 #@! TO.N,Net-(R10-Pad2)*
X145670000Y-100965000D03*
G04 #@! TO.P,U1,2*
G04 #@! TO.N,Net-(D9-Pad2)*
X136270000Y-99695000D03*
G04 #@! TO.P,U1,27*
G04 #@! TO.N,RB6*
X145670000Y-99695000D03*
G04 #@! TO.P,U1,1*
G04 #@! TO.N,Net-(D8-Pad1)*
X136270000Y-98425000D03*
G04 #@! TO.P,U1,28*
G04 #@! TO.N,RB7*
X145670000Y-98425000D03*
G04 #@! TD*
D11*
G04 #@! TO.P,J11,6*
G04 #@! TO.N,Net-(J11-Pad6)*
X165735000Y-140335000D03*
G04 #@! TO.P,J11,5*
G04 #@! TO.N,GND*
X165735000Y-137795000D03*
G04 #@! TO.P,J11,4*
X165735000Y-135255000D03*
G04 #@! TO.P,J11,3*
G04 #@! TO.N,Net-(J11-Pad3)*
X165735000Y-132715000D03*
G04 #@! TO.P,J11,2*
G04 #@! TO.N,SDA2*
X165735000Y-130175000D03*
G04 #@! TO.P,J11,1*
G04 #@! TO.N,+5V*
G04 #@! TA.AperFunction,ComponentPad*
G36*
G01*
X164889999Y-126765000D02*
X166580001Y-126765000D01*
G75*
G02*
X166830000Y-127014999I0J-249999D01*
G01*
X166830000Y-128255001D01*
G75*
G02*
X166580001Y-128505000I-249999J0D01*
G01*
X164889999Y-128505000D01*
G75*
G02*
X164640000Y-128255001I0J249999D01*
G01*
X164640000Y-127014999D01*
G75*
G02*
X164889999Y-126765000I249999J0D01*
G01*
G37*
G04 #@! TD.AperFunction*
G04 #@! TD*
G04 #@! TO.P,J12,6*
G04 #@! TO.N,Net-(J12-Pad6)*
X175895000Y-140335000D03*
G04 #@! TO.P,J12,5*
G04 #@! TO.N,GND*
X175895000Y-137795000D03*
G04 #@! TO.P,J12,4*
X175895000Y-135255000D03*
G04 #@! TO.P,J12,3*
G04 #@! TO.N,Net-(J12-Pad3)*
X175895000Y-132715000D03*
G04 #@! TO.P,J12,2*
G04 #@! TO.N,SDA2*
X175895000Y-130175000D03*
G04 #@! TO.P,J12,1*
G04 #@! TO.N,+5V*
G04 #@! TA.AperFunction,ComponentPad*
G36*
G01*
X175049999Y-126765000D02*
X176740001Y-126765000D01*
G75*
G02*
X176990000Y-127014999I0J-249999D01*
G01*
X176990000Y-128255001D01*
G75*
G02*
X176740001Y-128505000I-249999J0D01*
G01*
X175049999Y-128505000D01*
G75*
G02*
X174800000Y-128255001I0J249999D01*
G01*
X174800000Y-127014999D01*
G75*
G02*
X175049999Y-126765000I249999J0D01*
G01*
G37*
G04 #@! TD.AperFunction*
G04 #@! TD*
G04 #@! TO.P,J10,6*
G04 #@! TO.N,Net-(J10-Pad6)*
X155575000Y-140335000D03*
G04 #@! TO.P,J10,5*
G04 #@! TO.N,GND*
X155575000Y-137795000D03*
G04 #@! TO.P,J10,4*
X155575000Y-135255000D03*
G04 #@! TO.P,J10,3*
G04 #@! TO.N,Net-(J10-Pad3)*
X155575000Y-132715000D03*
G04 #@! TO.P,J10,2*
G04 #@! TO.N,SDA2*
X155575000Y-130175000D03*
G04 #@! TO.P,J10,1*
G04 #@! TO.N,+5V*
G04 #@! TA.AperFunction,ComponentPad*
G36*
G01*
X154729999Y-126765000D02*
X156420001Y-126765000D01*
G75*
G02*
X156670000Y-127014999I0J-249999D01*
G01*
X156670000Y-128255001D01*
G75*
G02*
X156420001Y-128505000I-249999J0D01*
G01*
X154729999Y-128505000D01*
G75*
G02*
X154480000Y-128255001I0J249999D01*
G01*
X154480000Y-127014999D01*
G75*
G02*
X154729999Y-126765000I249999J0D01*
G01*
G37*
G04 #@! TD.AperFunction*
G04 #@! TD*
G04 #@! TO.P,J9,6*
G04 #@! TO.N,Net-(J9-Pad6)*
X145415000Y-140335000D03*
G04 #@! TO.P,J9,5*
G04 #@! TO.N,GND*
X145415000Y-137795000D03*
G04 #@! TO.P,J9,4*
X145415000Y-135255000D03*
G04 #@! TO.P,J9,3*
G04 #@! TO.N,Net-(J9-Pad3)*
X145415000Y-132715000D03*
G04 #@! TO.P,J9,2*
G04 #@! TO.N,SDA2*
X145415000Y-130175000D03*
G04 #@! TO.P,J9,1*
G04 #@! TO.N,+5V*
G04 #@! TA.AperFunction,ComponentPad*
G36*
G01*
X144569999Y-126765000D02*
X146260001Y-126765000D01*
G75*
G02*
X146510000Y-127014999I0J-249999D01*
G01*
X146510000Y-128255001D01*
G75*
G02*
X146260001Y-128505000I-249999J0D01*
G01*
X144569999Y-128505000D01*
G75*
G02*
X144320000Y-128255001I0J249999D01*
G01*
X144320000Y-127014999D01*
G75*
G02*
X144569999Y-126765000I249999J0D01*
G01*
G37*
G04 #@! TD.AperFunction*
G04 #@! TD*
G04 #@! TO.P,J8,6*
G04 #@! TO.N,Net-(J8-Pad6)*
X135255000Y-140335000D03*
G04 #@! TO.P,J8,5*
G04 #@! TO.N,GND*
X135255000Y-137795000D03*
G04 #@! TO.P,J8,4*
X135255000Y-135255000D03*
G04 #@! TO.P,J8,3*
G04 #@! TO.N,Net-(J8-Pad3)*
X135255000Y-132715000D03*
G04 #@! TO.P,J8,2*
G04 #@! TO.N,SDA2*
X135255000Y-130175000D03*
G04 #@! TO.P,J8,1*
G04 #@! TO.N,+5V*
G04 #@! TA.AperFunction,ComponentPad*
G36*
G01*
X134409999Y-126765000D02*
X136100001Y-126765000D01*
G75*
G02*
X136350000Y-127014999I0J-249999D01*
G01*
X136350000Y-128255001D01*
G75*
G02*
X136100001Y-128505000I-249999J0D01*
G01*
X134409999Y-128505000D01*
G75*
G02*
X134160000Y-128255001I0J249999D01*
G01*
X134160000Y-127014999D01*
G75*
G02*
X134409999Y-126765000I249999J0D01*
G01*
G37*
G04 #@! TD.AperFunction*
G04 #@! TD*
G04 #@! TO.P,J7,6*
G04 #@! TO.N,Net-(J7-Pad6)*
X125095000Y-140335000D03*
G04 #@! TO.P,J7,5*
G04 #@! TO.N,GND*
X125095000Y-137795000D03*
G04 #@! TO.P,J7,4*
X125095000Y-135255000D03*
G04 #@! TO.P,J7,3*
G04 #@! TO.N,Net-(J7-Pad3)*
X125095000Y-132715000D03*
G04 #@! TO.P,J7,2*
G04 #@! TO.N,SDA2*
X125095000Y-130175000D03*
G04 #@! TO.P,J7,1*
G04 #@! TO.N,+5V*
G04 #@! TA.AperFunction,ComponentPad*
G36*
G01*
X124249999Y-126765000D02*
X125940001Y-126765000D01*
G75*
G02*
X126190000Y-127014999I0J-249999D01*
G01*
X126190000Y-128255001D01*
G75*
G02*
X125940001Y-128505000I-249999J0D01*
G01*
X124249999Y-128505000D01*
G75*
G02*
X124000000Y-128255001I0J249999D01*
G01*
X124000000Y-127014999D01*
G75*
G02*
X124249999Y-126765000I249999J0D01*
G01*
G37*
G04 #@! TD.AperFunction*
G04 #@! TD*
G04 #@! TO.P,J6,6*
G04 #@! TO.N,Net-(J6-Pad6)*
X114935000Y-140335000D03*
G04 #@! TO.P,J6,5*
G04 #@! TO.N,GND*
X114935000Y-137795000D03*
G04 #@! TO.P,J6,4*
X114935000Y-135255000D03*
G04 #@! TO.P,J6,3*
G04 #@! TO.N,Net-(J6-Pad3)*
X114935000Y-132715000D03*
G04 #@! TO.P,J6,2*
G04 #@! TO.N,SDA2*
X114935000Y-130175000D03*
G04 #@! TO.P,J6,1*
G04 #@! TO.N,+5V*
G04 #@! TA.AperFunction,ComponentPad*
G36*
G01*
X114089999Y-126765000D02*
X115780001Y-126765000D01*
G75*
G02*
X116030000Y-127014999I0J-249999D01*
G01*
X116030000Y-128255001D01*
G75*
G02*
X115780001Y-128505000I-249999J0D01*
G01*
X114089999Y-128505000D01*
G75*
G02*
X113840000Y-128255001I0J249999D01*
G01*
X113840000Y-127014999D01*
G75*
G02*
X114089999Y-126765000I249999J0D01*
G01*
G37*
G04 #@! TD.AperFunction*
G04 #@! TD*
G04 #@! TO.P,J5,6*
G04 #@! TO.N,Net-(J5-Pad6)*
X104775000Y-140335000D03*
G04 #@! TO.P,J5,5*
G04 #@! TO.N,GND*
X104775000Y-137795000D03*
G04 #@! TO.P,J5,4*
X104775000Y-135255000D03*
G04 #@! TO.P,J5,3*
G04 #@! TO.N,Net-(J5-Pad3)*
X104775000Y-132715000D03*
G04 #@! TO.P,J5,2*
G04 #@! TO.N,SDA2*
X104775000Y-130175000D03*
G04 #@! TO.P,J5,1*
G04 #@! TO.N,+5V*
G04 #@! TA.AperFunction,ComponentPad*
G36*
G01*
X103929999Y-126765000D02*
X105620001Y-126765000D01*
G75*
G02*
X105870000Y-127014999I0J-249999D01*
G01*
X105870000Y-128255001D01*
G75*
G02*
X105620001Y-128505000I-249999J0D01*
G01*
X103929999Y-128505000D01*
G75*
G02*
X103680000Y-128255001I0J249999D01*
G01*
X103680000Y-127014999D01*
G75*
G02*
X103929999Y-126765000I249999J0D01*
G01*
G37*
G04 #@! TD.AperFunction*
G04 #@! TD*
D12*
G04 #@! TO.P,J1,2*
G04 #@! TO.N,GND*
X95250000Y-114000000D03*
G04 #@! TO.P,J1,1*
G04 #@! TO.N,+5V*
X95250000Y-108920000D03*
G04 #@! TD*
G04 #@! TO.P,D1,2*
G04 #@! TO.N,Net-(D1-Pad2)*
G04 #@! TA.AperFunction,SMDPad,CuDef*
G36*
G01*
X95016500Y-101294250D02*
X95016500Y-100381750D01*
G75*
G02*
X95260250Y-100138000I243750J0D01*
G01*
X95747750Y-100138000D01*
G75*
G02*
X95991500Y-100381750I0J-243750D01*
G01*
X95991500Y-101294250D01*
G75*
G02*
X95747750Y-101538000I-243750J0D01*
G01*
X95260250Y-101538000D01*
G75*
G02*
X95016500Y-101294250I0J243750D01*
G01*
G37*
G04 #@! TD.AperFunction*
G04 #@! TO.P,D1,1*
G04 #@! TO.N,GND*
G04 #@! TA.AperFunction,SMDPad,CuDef*
G36*
G01*
X93141500Y-101294250D02*
X93141500Y-100381750D01*
G75*
G02*
X93385250Y-100138000I243750J0D01*
G01*
X93872750Y-100138000D01*
G75*
G02*
X94116500Y-100381750I0J-243750D01*
G01*
X94116500Y-101294250D01*
G75*
G02*
X93872750Y-101538000I-243750J0D01*
G01*
X93385250Y-101538000D01*
G75*
G02*
X93141500Y-101294250I0J243750D01*
G01*
G37*
G04 #@! TD.AperFunction*
G04 #@! TD*
G04 #@! TO.P,C2,2*
G04 #@! TO.N,GND*
G04 #@! TA.AperFunction,SMDPad,CuDef*
G36*
G01*
X156394999Y-107096000D02*
X157295001Y-107096000D01*
G75*
G02*
X157545000Y-107345999I0J-249999D01*
G01*
X157545000Y-108046001D01*
G75*
G02*
X157295001Y-108296000I-249999J0D01*
G01*
X156394999Y-108296000D01*
G75*
G02*
X156145000Y-108046001I0J249999D01*
G01*
X156145000Y-107345999D01*
G75*
G02*
X156394999Y-107096000I249999J0D01*
G01*
G37*
G04 #@! TD.AperFunction*
G04 #@! TO.P,C2,1*
G04 #@! TO.N,+5V*
G04 #@! TA.AperFunction,SMDPad,CuDef*
G36*
G01*
X156394999Y-105096000D02*
X157295001Y-105096000D01*
G75*
G02*
X157545000Y-105345999I0J-249999D01*
G01*
X157545000Y-106046001D01*
G75*
G02*
X157295001Y-106296000I-249999J0D01*
G01*
X156394999Y-106296000D01*
G75*
G02*
X156145000Y-106046001I0J249999D01*
G01*
X156145000Y-105345999D01*
G75*
G02*
X156394999Y-105096000I249999J0D01*
G01*
G37*
G04 #@! TD.AperFunction*
G04 #@! TD*
D13*
G04 #@! TO.P,REF\u002A\u002A,1*
G04 #@! TO.N,N/C*
X186690000Y-139192000D03*
G04 #@! TD*
G04 #@! TO.P,REF\u002A\u002A,1*
G04 #@! TO.N,N/C*
X93980000Y-139192000D03*
G04 #@! TD*
G04 #@! TO.P,REF\u002A\u002A,1*
G04 #@! TO.N,N/C*
X93980000Y-90170000D03*
G04 #@! TD*
G04 #@! TO.P,REF\u002A\u002A,1*
G04 #@! TO.N,N/C*
X186690000Y-90170000D03*
G04 #@! TD*
G04 #@! TO.P,C1,2*
G04 #@! TO.N,GND*
G04 #@! TA.AperFunction,SMDPad,CuDef*
G36*
G01*
X101403999Y-112144000D02*
X102304001Y-112144000D01*
G75*
G02*
X102554000Y-112393999I0J-249999D01*
G01*
X102554000Y-113094001D01*
G75*
G02*
X102304001Y-113344000I-249999J0D01*
G01*
X101403999Y-113344000D01*
G75*
G02*
X101154000Y-113094001I0J249999D01*
G01*
X101154000Y-112393999D01*
G75*
G02*
X101403999Y-112144000I249999J0D01*
G01*
G37*
G04 #@! TD.AperFunction*
G04 #@! TO.P,C1,1*
G04 #@! TO.N,+5V*
G04 #@! TA.AperFunction,SMDPad,CuDef*
G36*
G01*
X101403999Y-110144000D02*
X102304001Y-110144000D01*
G75*
G02*
X102554000Y-110393999I0J-249999D01*
G01*
X102554000Y-111094001D01*
G75*
G02*
X102304001Y-111344000I-249999J0D01*
G01*
X101403999Y-111344000D01*
G75*
G02*
X101154000Y-111094001I0J249999D01*
G01*
X101154000Y-110393999D01*
G75*
G02*
X101403999Y-110144000I249999J0D01*
G01*
G37*
G04 #@! TD.AperFunction*
G04 #@! TD*
G04 #@! TO.P,C3,2*
G04 #@! TO.N,GND*
G04 #@! TA.AperFunction,SMDPad,CuDef*
G36*
G01*
X128466001Y-91024000D02*
X127565999Y-91024000D01*
G75*
G02*
X127316000Y-90774001I0J249999D01*
G01*
X127316000Y-90073999D01*
G75*
G02*
X127565999Y-89824000I249999J0D01*
G01*
X128466001Y-89824000D01*
G75*
G02*
X128716000Y-90073999I0J-249999D01*
G01*
X128716000Y-90774001D01*
G75*
G02*
X128466001Y-91024000I-249999J0D01*
G01*
G37*
G04 #@! TD.AperFunction*
G04 #@! TO.P,C3,1*
G04 #@! TO.N,Net-(C3-Pad1)*
G04 #@! TA.AperFunction,SMDPad,CuDef*
G36*
G01*
X128466001Y-93024000D02*
X127565999Y-93024000D01*
G75*
G02*
X127316000Y-92774001I0J249999D01*
G01*
X127316000Y-92073999D01*
G75*
G02*
X127565999Y-91824000I249999J0D01*
G01*
X128466001Y-91824000D01*
G75*
G02*
X128716000Y-92073999I0J-249999D01*
G01*
X128716000Y-92774001D01*
G75*
G02*
X128466001Y-93024000I-249999J0D01*
G01*
G37*
G04 #@! TD.AperFunction*
G04 #@! TD*
G04 #@! TO.P,C4,1*
G04 #@! TO.N,+5V*
G04 #@! TA.AperFunction,SMDPad,CuDef*
G36*
G01*
X100295000Y-129089999D02*
X100295000Y-129990001D01*
G75*
G02*
X100045001Y-130240000I-249999J0D01*
G01*
X99344999Y-130240000D01*
G75*
G02*
X99095000Y-129990001I0J249999D01*
G01*
X99095000Y-129089999D01*
G75*
G02*
X99344999Y-128840000I249999J0D01*
G01*
X100045001Y-128840000D01*
G75*
G02*
X100295000Y-129089999I0J-249999D01*
G01*
G37*
G04 #@! TD.AperFunction*
G04 #@! TO.P,C4,2*
G04 #@! TO.N,GND*
G04 #@! TA.AperFunction,SMDPad,CuDef*
G36*
G01*
X98295000Y-129089999D02*
X98295000Y-129990001D01*
G75*
G02*
X98045001Y-130240000I-249999J0D01*
G01*
X97344999Y-130240000D01*
G75*
G02*
X97095000Y-129990001I0J249999D01*
G01*
X97095000Y-129089999D01*
G75*
G02*
X97344999Y-128840000I249999J0D01*
G01*
X98045001Y-128840000D01*
G75*
G02*
X98295000Y-129089999I0J-249999D01*
G01*
G37*
G04 #@! TD.AperFunction*
G04 #@! TD*
G04 #@! TO.P,D2,1*
G04 #@! TO.N,Net-(D2-Pad1)*
G04 #@! TA.AperFunction,SMDPad,CuDef*
G36*
G01*
X170001250Y-93832500D02*
X169088750Y-93832500D01*
G75*
G02*
X168845000Y-93588750I0J243750D01*
G01*
X168845000Y-93101250D01*
G75*
G02*
X169088750Y-92857500I243750J0D01*
G01*
X170001250Y-92857500D01*
G75*
G02*
X170245000Y-93101250I0J-243750D01*
G01*
X170245000Y-93588750D01*
G75*
G02*
X170001250Y-93832500I-243750J0D01*
G01*
G37*
G04 #@! TD.AperFunction*
G04 #@! TO.P,D2,2*
G04 #@! TO.N,+5V*
G04 #@! TA.AperFunction,SMDPad,CuDef*
G36*
G01*
X170001250Y-91957500D02*
X169088750Y-91957500D01*
G75*
G02*
X168845000Y-91713750I0J243750D01*
G01*
X168845000Y-91226250D01*
G75*
G02*
X169088750Y-90982500I243750J0D01*
G01*
X170001250Y-90982500D01*
G75*
G02*
X170245000Y-91226250I0J-243750D01*
G01*
X170245000Y-91713750D01*
G75*
G02*
X170001250Y-91957500I-243750J0D01*
G01*
G37*
G04 #@! TD.AperFunction*
G04 #@! TD*
G04 #@! TO.P,D3,1*
G04 #@! TO.N,Net-(D3-Pad1)*
G04 #@! TA.AperFunction,SMDPad,CuDef*
G36*
G01*
X166826250Y-93832500D02*
X165913750Y-93832500D01*
G75*
G02*
X165670000Y-93588750I0J243750D01*
G01*
X165670000Y-93101250D01*
G75*
G02*
X165913750Y-92857500I243750J0D01*
G01*
X166826250Y-92857500D01*
G75*
G02*
X167070000Y-93101250I0J-243750D01*
G01*
X167070000Y-93588750D01*
G75*
G02*
X166826250Y-93832500I-243750J0D01*
G01*
G37*
G04 #@! TD.AperFunction*
G04 #@! TO.P,D3,2*
G04 #@! TO.N,+5V*
G04 #@! TA.AperFunction,SMDPad,CuDef*
G36*
G01*
X166826250Y-91957500D02*
X165913750Y-91957500D01*
G75*
G02*
X165670000Y-91713750I0J243750D01*
G01*
X165670000Y-91226250D01*
G75*
G02*
X165913750Y-90982500I243750J0D01*
G01*
X166826250Y-90982500D01*
G75*
G02*
X167070000Y-91226250I0J-243750D01*
G01*
X167070000Y-91713750D01*
G75*
G02*
X166826250Y-91957500I-243750J0D01*
G01*
G37*
G04 #@! TD.AperFunction*
G04 #@! TD*
G04 #@! TO.P,D4,1*
G04 #@! TO.N,Net-(D4-Pad1)*
G04 #@! TA.AperFunction,SMDPad,CuDef*
G36*
G01*
X163651250Y-93832500D02*
X162738750Y-93832500D01*
G75*
G02*
X162495000Y-93588750I0J243750D01*
G01*
X162495000Y-93101250D01*
G75*
G02*
X162738750Y-92857500I243750J0D01*
G01*
X163651250Y-92857500D01*
G75*
G02*
X163895000Y-93101250I0J-243750D01*
G01*
X163895000Y-93588750D01*
G75*
G02*
X163651250Y-93832500I-243750J0D01*
G01*
G37*
G04 #@! TD.AperFunction*
G04 #@! TO.P,D4,2*
G04 #@! TO.N,+5V*
G04 #@! TA.AperFunction,SMDPad,CuDef*
G36*
G01*
X163651250Y-91957500D02*
X162738750Y-91957500D01*
G75*
G02*
X162495000Y-91713750I0J243750D01*
G01*
X162495000Y-91226250D01*
G75*
G02*
X162738750Y-90982500I243750J0D01*
G01*
X163651250Y-90982500D01*
G75*
G02*
X163895000Y-91226250I0J-243750D01*
G01*
X163895000Y-91713750D01*
G75*
G02*
X163651250Y-91957500I-243750J0D01*
G01*
G37*
G04 #@! TD.AperFunction*
G04 #@! TD*
G04 #@! TO.P,D5,2*
G04 #@! TO.N,+5V*
G04 #@! TA.AperFunction,SMDPad,CuDef*
G36*
G01*
X160476250Y-91957500D02*
X159563750Y-91957500D01*
G75*
G02*
X159320000Y-91713750I0J243750D01*
G01*
X159320000Y-91226250D01*
G75*
G02*
X159563750Y-90982500I243750J0D01*
G01*
X160476250Y-90982500D01*
G75*
G02*
X160720000Y-91226250I0J-243750D01*
G01*
X160720000Y-91713750D01*
G75*
G02*
X160476250Y-91957500I-243750J0D01*
G01*
G37*
G04 #@! TD.AperFunction*
G04 #@! TO.P,D5,1*
G04 #@! TO.N,Net-(D5-Pad1)*
G04 #@! TA.AperFunction,SMDPad,CuDef*
G36*
G01*
X160476250Y-93832500D02*
X159563750Y-93832500D01*
G75*
G02*
X159320000Y-93588750I0J243750D01*
G01*
X159320000Y-93101250D01*
G75*
G02*
X159563750Y-92857500I243750J0D01*
G01*
X160476250Y-92857500D01*
G75*
G02*
X160720000Y-93101250I0J-243750D01*
G01*
X160720000Y-93588750D01*
G75*
G02*
X160476250Y-93832500I-243750J0D01*
G01*
G37*
G04 #@! TD.AperFunction*
G04 #@! TD*
G04 #@! TO.P,D6,1*
G04 #@! TO.N,Net-(D6-Pad1)*
G04 #@! TA.AperFunction,SMDPad,CuDef*
G36*
G01*
X157301250Y-93832500D02*
X156388750Y-93832500D01*
G75*
G02*
X156145000Y-93588750I0J243750D01*
G01*
X156145000Y-93101250D01*
G75*
G02*
X156388750Y-92857500I243750J0D01*
G01*
X157301250Y-92857500D01*
G75*
G02*
X157545000Y-93101250I0J-243750D01*
G01*
X157545000Y-93588750D01*
G75*
G02*
X157301250Y-93832500I-243750J0D01*
G01*
G37*
G04 #@! TD.AperFunction*
G04 #@! TO.P,D6,2*
G04 #@! TO.N,+5V*
G04 #@! TA.AperFunction,SMDPad,CuDef*
G36*
G01*
X157301250Y-91957500D02*
X156388750Y-91957500D01*
G75*
G02*
X156145000Y-91713750I0J243750D01*
G01*
X156145000Y-91226250D01*
G75*
G02*
X156388750Y-90982500I243750J0D01*
G01*
X157301250Y-90982500D01*
G75*
G02*
X157545000Y-91226250I0J-243750D01*
G01*
X157545000Y-91713750D01*
G75*
G02*
X157301250Y-91957500I-243750J0D01*
G01*
G37*
G04 #@! TD.AperFunction*
G04 #@! TD*
G04 #@! TO.P,D7,2*
G04 #@! TO.N,+5V*
G04 #@! TA.AperFunction,SMDPad,CuDef*
G36*
G01*
X154126250Y-91957500D02*
X153213750Y-91957500D01*
G75*
G02*
X152970000Y-91713750I0J243750D01*
G01*
X152970000Y-91226250D01*
G75*
G02*
X153213750Y-90982500I243750J0D01*
G01*
X154126250Y-90982500D01*
G75*
G02*
X154370000Y-91226250I0J-243750D01*
G01*
X154370000Y-91713750D01*
G75*
G02*
X154126250Y-91957500I-243750J0D01*
G01*
G37*
G04 #@! TD.AperFunction*
G04 #@! TO.P,D7,1*
G04 #@! TO.N,Net-(D7-Pad1)*
G04 #@! TA.AperFunction,SMDPad,CuDef*
G36*
G01*
X154126250Y-93832500D02*
X153213750Y-93832500D01*
G75*
G02*
X152970000Y-93588750I0J243750D01*
G01*
X152970000Y-93101250D01*
G75*
G02*
X153213750Y-92857500I243750J0D01*
G01*
X154126250Y-92857500D01*
G75*
G02*
X154370000Y-93101250I0J-243750D01*
G01*
X154370000Y-93588750D01*
G75*
G02*
X154126250Y-93832500I-243750J0D01*
G01*
G37*
G04 #@! TD.AperFunction*
G04 #@! TD*
G04 #@! TO.P,D8,1*
G04 #@! TO.N,Net-(D8-Pad1)*
G04 #@! TA.AperFunction,SMDPad,CuDef*
G36*
G01*
X131012250Y-97515500D02*
X130099750Y-97515500D01*
G75*
G02*
X129856000Y-97271750I0J243750D01*
G01*
X129856000Y-96784250D01*
G75*
G02*
X130099750Y-96540500I243750J0D01*
G01*
X131012250Y-96540500D01*
G75*
G02*
X131256000Y-96784250I0J-243750D01*
G01*
X131256000Y-97271750D01*
G75*
G02*
X131012250Y-97515500I-243750J0D01*
G01*
G37*
G04 #@! TD.AperFunction*
G04 #@! TO.P,D8,2*
G04 #@! TO.N,Net-(C3-Pad1)*
G04 #@! TA.AperFunction,SMDPad,CuDef*
G36*
G01*
X131012250Y-95640500D02*
X130099750Y-95640500D01*
G75*
G02*
X129856000Y-95396750I0J243750D01*
G01*
X129856000Y-94909250D01*
G75*
G02*
X130099750Y-94665500I243750J0D01*
G01*
X131012250Y-94665500D01*
G75*
G02*
X131256000Y-94909250I0J-243750D01*
G01*
X131256000Y-95396750D01*
G75*
G02*
X131012250Y-95640500I-243750J0D01*
G01*
G37*
G04 #@! TD.AperFunction*
G04 #@! TD*
G04 #@! TO.P,D9,1*
G04 #@! TO.N,Net-(D9-Pad1)*
G04 #@! TA.AperFunction,SMDPad,CuDef*
G36*
G01*
X124003750Y-95524500D02*
X124916250Y-95524500D01*
G75*
G02*
X125160000Y-95768250I0J-243750D01*
G01*
X125160000Y-96255750D01*
G75*
G02*
X124916250Y-96499500I-243750J0D01*
G01*
X124003750Y-96499500D01*
G75*
G02*
X123760000Y-96255750I0J243750D01*
G01*
X123760000Y-95768250D01*
G75*
G02*
X124003750Y-95524500I243750J0D01*
G01*
G37*
G04 #@! TD.AperFunction*
G04 #@! TO.P,D9,2*
G04 #@! TO.N,Net-(D9-Pad2)*
G04 #@! TA.AperFunction,SMDPad,CuDef*
G36*
G01*
X124003750Y-97399500D02*
X124916250Y-97399500D01*
G75*
G02*
X125160000Y-97643250I0J-243750D01*
G01*
X125160000Y-98130750D01*
G75*
G02*
X124916250Y-98374500I-243750J0D01*
G01*
X124003750Y-98374500D01*
G75*
G02*
X123760000Y-98130750I0J243750D01*
G01*
X123760000Y-97643250D01*
G75*
G02*
X124003750Y-97399500I243750J0D01*
G01*
G37*
G04 #@! TD.AperFunction*
G04 #@! TD*
G04 #@! TO.P,D10,2*
G04 #@! TO.N,Net-(D10-Pad2)*
G04 #@! TA.AperFunction,SMDPad,CuDef*
G36*
G01*
X120955750Y-97399500D02*
X121868250Y-97399500D01*
G75*
G02*
X122112000Y-97643250I0J-243750D01*
G01*
X122112000Y-98130750D01*
G75*
G02*
X121868250Y-98374500I-243750J0D01*
G01*
X120955750Y-98374500D01*
G75*
G02*
X120712000Y-98130750I0J243750D01*
G01*
X120712000Y-97643250D01*
G75*
G02*
X120955750Y-97399500I243750J0D01*
G01*
G37*
G04 #@! TD.AperFunction*
G04 #@! TO.P,D10,1*
G04 #@! TO.N,Net-(D10-Pad1)*
G04 #@! TA.AperFunction,SMDPad,CuDef*
G36*
G01*
X120955750Y-95524500D02*
X121868250Y-95524500D01*
G75*
G02*
X122112000Y-95768250I0J-243750D01*
G01*
X122112000Y-96255750D01*
G75*
G02*
X121868250Y-96499500I-243750J0D01*
G01*
X120955750Y-96499500D01*
G75*
G02*
X120712000Y-96255750I0J243750D01*
G01*
X120712000Y-95768250D01*
G75*
G02*
X120955750Y-95524500I243750J0D01*
G01*
G37*
G04 #@! TD.AperFunction*
G04 #@! TD*
G04 #@! TO.P,D11,1*
G04 #@! TO.N,Net-(D11-Pad1)*
G04 #@! TA.AperFunction,SMDPad,CuDef*
G36*
G01*
X117907750Y-95524500D02*
X118820250Y-95524500D01*
G75*
G02*
X119064000Y-95768250I0J-243750D01*
G01*
X119064000Y-96255750D01*
G75*
G02*
X118820250Y-96499500I-243750J0D01*
G01*
X117907750Y-96499500D01*
G75*
G02*
X117664000Y-96255750I0J243750D01*
G01*
X117664000Y-95768250D01*
G75*
G02*
X117907750Y-95524500I243750J0D01*
G01*
G37*
G04 #@! TD.AperFunction*
G04 #@! TO.P,D11,2*
G04 #@! TO.N,Net-(D11-Pad2)*
G04 #@! TA.AperFunction,SMDPad,CuDef*
G36*
G01*
X117907750Y-97399500D02*
X118820250Y-97399500D01*
G75*
G02*
X119064000Y-97643250I0J-243750D01*
G01*
X119064000Y-98130750D01*
G75*
G02*
X118820250Y-98374500I-243750J0D01*
G01*
X117907750Y-98374500D01*
G75*
G02*
X117664000Y-98130750I0J243750D01*
G01*
X117664000Y-97643250D01*
G75*
G02*
X117907750Y-97399500I243750J0D01*
G01*
G37*
G04 #@! TD.AperFunction*
G04 #@! TD*
G04 #@! TO.P,D12,2*
G04 #@! TO.N,Net-(D12-Pad2)*
G04 #@! TA.AperFunction,SMDPad,CuDef*
G36*
G01*
X114859750Y-97399500D02*
X115772250Y-97399500D01*
G75*
G02*
X116016000Y-97643250I0J-243750D01*
G01*
X116016000Y-98130750D01*
G75*
G02*
X115772250Y-98374500I-243750J0D01*
G01*
X114859750Y-98374500D01*
G75*
G02*
X114616000Y-98130750I0J243750D01*
G01*
X114616000Y-97643250D01*
G75*
G02*
X114859750Y-97399500I243750J0D01*
G01*
G37*
G04 #@! TD.AperFunction*
G04 #@! TO.P,D12,1*
G04 #@! TO.N,Net-(D12-Pad1)*
G04 #@! TA.AperFunction,SMDPad,CuDef*
G36*
G01*
X114859750Y-95524500D02*
X115772250Y-95524500D01*
G75*
G02*
X116016000Y-95768250I0J-243750D01*
G01*
X116016000Y-96255750D01*
G75*
G02*
X115772250Y-96499500I-243750J0D01*
G01*
X114859750Y-96499500D01*
G75*
G02*
X114616000Y-96255750I0J243750D01*
G01*
X114616000Y-95768250D01*
G75*
G02*
X114859750Y-95524500I243750J0D01*
G01*
G37*
G04 #@! TD.AperFunction*
G04 #@! TD*
G04 #@! TO.P,D13,2*
G04 #@! TO.N,Net-(D13-Pad2)*
G04 #@! TA.AperFunction,SMDPad,CuDef*
G36*
G01*
X111811750Y-97399500D02*
X112724250Y-97399500D01*
G75*
G02*
X112968000Y-97643250I0J-243750D01*
G01*
X112968000Y-98130750D01*
G75*
G02*
X112724250Y-98374500I-243750J0D01*
G01*
X111811750Y-98374500D01*
G75*
G02*
X111568000Y-98130750I0J243750D01*
G01*
X111568000Y-97643250D01*
G75*
G02*
X111811750Y-97399500I243750J0D01*
G01*
G37*
G04 #@! TD.AperFunction*
G04 #@! TO.P,D13,1*
G04 #@! TO.N,Net-(D13-Pad1)*
G04 #@! TA.AperFunction,SMDPad,CuDef*
G36*
G01*
X111811750Y-95524500D02*
X112724250Y-95524500D01*
G75*
G02*
X112968000Y-95768250I0J-243750D01*
G01*
X112968000Y-96255750D01*
G75*
G02*
X112724250Y-96499500I-243750J0D01*
G01*
X111811750Y-96499500D01*
G75*
G02*
X111568000Y-96255750I0J243750D01*
G01*
X111568000Y-95768250D01*
G75*
G02*
X111811750Y-95524500I243750J0D01*
G01*
G37*
G04 #@! TD.AperFunction*
G04 #@! TD*
G04 #@! TO.P,D14,2*
G04 #@! TO.N,Net-(D14-Pad2)*
G04 #@! TA.AperFunction,SMDPad,CuDef*
G36*
G01*
X108763750Y-97399500D02*
X109676250Y-97399500D01*
G75*
G02*
X109920000Y-97643250I0J-243750D01*
G01*
X109920000Y-98130750D01*
G75*
G02*
X109676250Y-98374500I-243750J0D01*
G01*
X108763750Y-98374500D01*
G75*
G02*
X108520000Y-98130750I0J243750D01*
G01*
X108520000Y-97643250D01*
G75*
G02*
X108763750Y-97399500I243750J0D01*
G01*
G37*
G04 #@! TD.AperFunction*
G04 #@! TO.P,D14,1*
G04 #@! TO.N,Net-(D14-Pad1)*
G04 #@! TA.AperFunction,SMDPad,CuDef*
G36*
G01*
X108763750Y-95524500D02*
X109676250Y-95524500D01*
G75*
G02*
X109920000Y-95768250I0J-243750D01*
G01*
X109920000Y-96255750D01*
G75*
G02*
X109676250Y-96499500I-243750J0D01*
G01*
X108763750Y-96499500D01*
G75*
G02*
X108520000Y-96255750I0J243750D01*
G01*
X108520000Y-95768250D01*
G75*
G02*
X108763750Y-95524500I243750J0D01*
G01*
G37*
G04 #@! TD.AperFunction*
G04 #@! TD*
G04 #@! TO.P,D15,2*
G04 #@! TO.N,Net-(D15-Pad2)*
G04 #@! TA.AperFunction,SMDPad,CuDef*
G36*
G01*
X105715750Y-97399500D02*
X106628250Y-97399500D01*
G75*
G02*
X106872000Y-97643250I0J-243750D01*
G01*
X106872000Y-98130750D01*
G75*
G02*
X106628250Y-98374500I-243750J0D01*
G01*
X105715750Y-98374500D01*
G75*
G02*
X105472000Y-98130750I0J243750D01*
G01*
X105472000Y-97643250D01*
G75*
G02*
X105715750Y-97399500I243750J0D01*
G01*
G37*
G04 #@! TD.AperFunction*
G04 #@! TO.P,D15,1*
G04 #@! TO.N,Net-(D15-Pad1)*
G04 #@! TA.AperFunction,SMDPad,CuDef*
G36*
G01*
X105715750Y-95524500D02*
X106628250Y-95524500D01*
G75*
G02*
X106872000Y-95768250I0J-243750D01*
G01*
X106872000Y-96255750D01*
G75*
G02*
X106628250Y-96499500I-243750J0D01*
G01*
X105715750Y-96499500D01*
G75*
G02*
X105472000Y-96255750I0J243750D01*
G01*
X105472000Y-95768250D01*
G75*
G02*
X105715750Y-95524500I243750J0D01*
G01*
G37*
G04 #@! TD.AperFunction*
G04 #@! TD*
G04 #@! TO.P,D16,1*
G04 #@! TO.N,Net-(D16-Pad1)*
G04 #@! TA.AperFunction,SMDPad,CuDef*
G36*
G01*
X102667750Y-95524500D02*
X103580250Y-95524500D01*
G75*
G02*
X103824000Y-95768250I0J-243750D01*
G01*
X103824000Y-96255750D01*
G75*
G02*
X103580250Y-96499500I-243750J0D01*
G01*
X102667750Y-96499500D01*
G75*
G02*
X102424000Y-96255750I0J243750D01*
G01*
X102424000Y-95768250D01*
G75*
G02*
X102667750Y-95524500I243750J0D01*
G01*
G37*
G04 #@! TD.AperFunction*
G04 #@! TO.P,D16,2*
G04 #@! TO.N,Net-(D16-Pad2)*
G04 #@! TA.AperFunction,SMDPad,CuDef*
G36*
G01*
X102667750Y-97399500D02*
X103580250Y-97399500D01*
G75*
G02*
X103824000Y-97643250I0J-243750D01*
G01*
X103824000Y-98130750D01*
G75*
G02*
X103580250Y-98374500I-243750J0D01*
G01*
X102667750Y-98374500D01*
G75*
G02*
X102424000Y-98130750I0J243750D01*
G01*
X102424000Y-97643250D01*
G75*
G02*
X102667750Y-97399500I243750J0D01*
G01*
G37*
G04 #@! TD.AperFunction*
G04 #@! TD*
D11*
G04 #@! TO.P,J2,4*
G04 #@! TO.N,GND*
X107188000Y-115570000D03*
G04 #@! TO.P,J2,3*
G04 #@! TO.N,Net-(J2-Pad3)*
X107188000Y-113030000D03*
G04 #@! TO.P,J2,2*
G04 #@! TO.N,Net-(J2-Pad2)*
X107188000Y-110490000D03*
G04 #@! TO.P,J2,1*
G04 #@! TO.N,+5V*
G04 #@! TA.AperFunction,ComponentPad*
G36*
G01*
X106342999Y-107080000D02*
X108033001Y-107080000D01*
G75*
G02*
X108283000Y-107329999I0J-249999D01*
G01*
X108283000Y-108570001D01*
G75*
G02*
X108033001Y-108820000I-249999J0D01*
G01*
X106342999Y-108820000D01*
G75*
G02*
X106093000Y-108570001I0J249999D01*
G01*
X106093000Y-107329999D01*
G75*
G02*
X106342999Y-107080000I249999J0D01*
G01*
G37*
G04 #@! TD.AperFunction*
G04 #@! TD*
D14*
G04 #@! TO.P,J3,1*
G04 #@! TO.N,Net-(D8-Pad1)*
X134620000Y-92710000D03*
D15*
G04 #@! TO.P,J3,2*
G04 #@! TO.N,+5V*
X137160000Y-92710000D03*
G04 #@! TO.P,J3,3*
G04 #@! TO.N,GND*
X139700000Y-92710000D03*
G04 #@! TO.P,J3,4*
G04 #@! TO.N,RB7*
X142240000Y-92710000D03*
G04 #@! TO.P,J3,5*
G04 #@! TO.N,RB6*
X144780000Y-92710000D03*
G04 #@! TO.P,J3,6*
G04 #@! TO.N,Net-(J3-Pad6)*
X147320000Y-92710000D03*
G04 #@! TD*
G04 #@! TO.P,J4,1*
G04 #@! TO.N,+5V*
G04 #@! TA.AperFunction,ComponentPad*
G36*
G01*
X115994999Y-107080000D02*
X117685001Y-107080000D01*
G75*
G02*
X117935000Y-107329999I0J-249999D01*
G01*
X117935000Y-108570001D01*
G75*
G02*
X117685001Y-108820000I-249999J0D01*
G01*
X115994999Y-108820000D01*
G75*
G02*
X115745000Y-108570001I0J249999D01*
G01*
X115745000Y-107329999D01*
G75*
G02*
X115994999Y-107080000I249999J0D01*
G01*
G37*
G04 #@! TD.AperFunction*
D11*
G04 #@! TO.P,J4,2*
G04 #@! TO.N,Net-(J2-Pad2)*
X116840000Y-110490000D03*
G04 #@! TO.P,J4,3*
G04 #@! TO.N,Net-(J2-Pad3)*
X116840000Y-113030000D03*
G04 #@! TO.P,J4,4*
G04 #@! TO.N,GND*
X116840000Y-115570000D03*
G04 #@! TD*
D14*
G04 #@! TO.P,JP1,1*
G04 #@! TO.N,+5V*
X170180000Y-120650000D03*
D15*
G04 #@! TO.P,JP1,2*
G04 #@! TO.N,Net-(JP1-Pad2)*
X167640000Y-120650000D03*
G04 #@! TD*
D14*
G04 #@! TO.P,JP2,1*
G04 #@! TO.N,SCL2*
X127127000Y-119888000D03*
D15*
G04 #@! TO.P,JP2,2*
G04 #@! TO.N,Net-(J5-Pad3)*
X127127000Y-122428000D03*
G04 #@! TD*
G04 #@! TO.P,JP3,2*
G04 #@! TO.N,Net-(J6-Pad3)*
X130810000Y-122428000D03*
D14*
G04 #@! TO.P,JP3,1*
G04 #@! TO.N,SCL2*
X130810000Y-119888000D03*
G04 #@! TD*
G04 #@! TO.P,JP4,1*
G04 #@! TO.N,SCL2*
X134620000Y-119888000D03*
D15*
G04 #@! TO.P,JP4,2*
G04 #@! TO.N,Net-(J7-Pad3)*
X134620000Y-122428000D03*
G04 #@! TD*
D14*
G04 #@! TO.P,JP5,1*
G04 #@! TO.N,SCL2*
X138430000Y-119888000D03*
D15*
G04 #@! TO.P,JP5,2*
G04 #@! TO.N,Net-(J8-Pad3)*
X138430000Y-122428000D03*
G04 #@! TD*
G04 #@! TO.P,JP6,2*
G04 #@! TO.N,Net-(J9-Pad3)*
X142240000Y-122428000D03*
D14*
G04 #@! TO.P,JP6,1*
G04 #@! TO.N,SCL2*
X142240000Y-119888000D03*
G04 #@! TD*
D15*
G04 #@! TO.P,JP7,2*
G04 #@! TO.N,Net-(J10-Pad3)*
X146050000Y-122428000D03*
D14*
G04 #@! TO.P,JP7,1*
G04 #@! TO.N,SCL2*
X146050000Y-119888000D03*
G04 #@! TD*
D15*
G04 #@! TO.P,JP8,2*
G04 #@! TO.N,Net-(J11-Pad3)*
X149860000Y-122428000D03*
D14*
G04 #@! TO.P,JP8,1*
G04 #@! TO.N,SCL2*
X149860000Y-119888000D03*
G04 #@! TD*
D15*
G04 #@! TO.P,JP9,2*
G04 #@! TO.N,Net-(J12-Pad3)*
X153670000Y-122428000D03*
D14*
G04 #@! TO.P,JP9,1*
G04 #@! TO.N,SCL2*
X153670000Y-119888000D03*
G04 #@! TD*
G04 #@! TO.P,R1,1*
G04 #@! TO.N,+5V*
G04 #@! TA.AperFunction,SMDPad,CuDef*
G36*
G01*
X92872000Y-103828001D02*
X92872000Y-102927999D01*
G75*
G02*
X93121999Y-102678000I249999J0D01*
G01*
X93822001Y-102678000D01*
G75*
G02*
X94072000Y-102927999I0J-249999D01*
G01*
X94072000Y-103828001D01*
G75*
G02*
X93822001Y-104078000I-249999J0D01*
G01*
X93121999Y-104078000D01*
G75*
G02*
X92872000Y-103828001I0J249999D01*
G01*
G37*
G04 #@! TD.AperFunction*
G04 #@! TO.P,R1,2*
G04 #@! TO.N,Net-(D1-Pad2)*
G04 #@! TA.AperFunction,SMDPad,CuDef*
G36*
G01*
X94872000Y-103828001D02*
X94872000Y-102927999D01*
G75*
G02*
X95121999Y-102678000I249999J0D01*
G01*
X95822001Y-102678000D01*
G75*
G02*
X96072000Y-102927999I0J-249999D01*
G01*
X96072000Y-103828001D01*
G75*
G02*
X95822001Y-104078000I-249999J0D01*
G01*
X95121999Y-104078000D01*
G75*
G02*
X94872000Y-103828001I0J249999D01*
G01*
G37*
G04 #@! TD.AperFunction*
G04 #@! TD*
G04 #@! TO.P,R2,1*
G04 #@! TO.N,+5V*
G04 #@! TA.AperFunction,SMDPad,CuDef*
G36*
G01*
X130105999Y-89824000D02*
X131006001Y-89824000D01*
G75*
G02*
X131256000Y-90073999I0J-249999D01*
G01*
X131256000Y-90774001D01*
G75*
G02*
X131006001Y-91024000I-249999J0D01*
G01*
X130105999Y-91024000D01*
G75*
G02*
X129856000Y-90774001I0J249999D01*
G01*
X129856000Y-90073999D01*
G75*
G02*
X130105999Y-89824000I249999J0D01*
G01*
G37*
G04 #@! TD.AperFunction*
G04 #@! TO.P,R2,2*
G04 #@! TO.N,Net-(C3-Pad1)*
G04 #@! TA.AperFunction,SMDPad,CuDef*
G36*
G01*
X130105999Y-91824000D02*
X131006001Y-91824000D01*
G75*
G02*
X131256000Y-92073999I0J-249999D01*
G01*
X131256000Y-92774001D01*
G75*
G02*
X131006001Y-93024000I-249999J0D01*
G01*
X130105999Y-93024000D01*
G75*
G02*
X129856000Y-92774001I0J249999D01*
G01*
X129856000Y-92073999D01*
G75*
G02*
X130105999Y-91824000I249999J0D01*
G01*
G37*
G04 #@! TD.AperFunction*
G04 #@! TD*
G04 #@! TO.P,R3,1*
G04 #@! TO.N,+5V*
G04 #@! TA.AperFunction,SMDPad,CuDef*
G36*
G01*
X125060000Y-110039999D02*
X125060000Y-110940001D01*
G75*
G02*
X124810001Y-111190000I-249999J0D01*
G01*
X124109999Y-111190000D01*
G75*
G02*
X123860000Y-110940001I0J249999D01*
G01*
X123860000Y-110039999D01*
G75*
G02*
X124109999Y-109790000I249999J0D01*
G01*
X124810001Y-109790000D01*
G75*
G02*
X125060000Y-110039999I0J-249999D01*
G01*
G37*
G04 #@! TD.AperFunction*
G04 #@! TO.P,R3,2*
G04 #@! TO.N,Net-(J2-Pad2)*
G04 #@! TA.AperFunction,SMDPad,CuDef*
G36*
G01*
X123060000Y-110039999D02*
X123060000Y-110940001D01*
G75*
G02*
X122810001Y-111190000I-249999J0D01*
G01*
X122109999Y-111190000D01*
G75*
G02*
X121860000Y-110940001I0J249999D01*
G01*
X121860000Y-110039999D01*
G75*
G02*
X122109999Y-109790000I249999J0D01*
G01*
X122810001Y-109790000D01*
G75*
G02*
X123060000Y-110039999I0J-249999D01*
G01*
G37*
G04 #@! TD.AperFunction*
G04 #@! TD*
G04 #@! TO.P,R4,2*
G04 #@! TO.N,Net-(J2-Pad3)*
G04 #@! TA.AperFunction,SMDPad,CuDef*
G36*
G01*
X123060000Y-112579999D02*
X123060000Y-113480001D01*
G75*
G02*
X122810001Y-113730000I-249999J0D01*
G01*
X122109999Y-113730000D01*
G75*
G02*
X121860000Y-113480001I0J249999D01*
G01*
X121860000Y-112579999D01*
G75*
G02*
X122109999Y-112330000I249999J0D01*
G01*
X122810001Y-112330000D01*
G75*
G02*
X123060000Y-112579999I0J-249999D01*
G01*
G37*
G04 #@! TD.AperFunction*
G04 #@! TO.P,R4,1*
G04 #@! TO.N,+5V*
G04 #@! TA.AperFunction,SMDPad,CuDef*
G36*
G01*
X125060000Y-112579999D02*
X125060000Y-113480001D01*
G75*
G02*
X124810001Y-113730000I-249999J0D01*
G01*
X124109999Y-113730000D01*
G75*
G02*
X123860000Y-113480001I0J249999D01*
G01*
X123860000Y-112579999D01*
G75*
G02*
X124109999Y-112330000I249999J0D01*
G01*
X124810001Y-112330000D01*
G75*
G02*
X125060000Y-112579999I0J-249999D01*
G01*
G37*
G04 #@! TD.AperFunction*
G04 #@! TD*
G04 #@! TO.P,R5,1*
G04 #@! TO.N,Net-(D2-Pad1)*
G04 #@! TA.AperFunction,SMDPad,CuDef*
G36*
G01*
X169094999Y-95190000D02*
X169995001Y-95190000D01*
G75*
G02*
X170245000Y-95439999I0J-249999D01*
G01*
X170245000Y-96140001D01*
G75*
G02*
X169995001Y-96390000I-249999J0D01*
G01*
X169094999Y-96390000D01*
G75*
G02*
X168845000Y-96140001I0J249999D01*
G01*
X168845000Y-95439999D01*
G75*
G02*
X169094999Y-95190000I249999J0D01*
G01*
G37*
G04 #@! TD.AperFunction*
G04 #@! TO.P,R5,2*
G04 #@! TO.N,Net-(R5-Pad2)*
G04 #@! TA.AperFunction,SMDPad,CuDef*
G36*
G01*
X169094999Y-97190000D02*
X169995001Y-97190000D01*
G75*
G02*
X170245000Y-97439999I0J-249999D01*
G01*
X170245000Y-98140001D01*
G75*
G02*
X169995001Y-98390000I-249999J0D01*
G01*
X169094999Y-98390000D01*
G75*
G02*
X168845000Y-98140001I0J249999D01*
G01*
X168845000Y-97439999D01*
G75*
G02*
X169094999Y-97190000I249999J0D01*
G01*
G37*
G04 #@! TD.AperFunction*
G04 #@! TD*
G04 #@! TO.P,R6,2*
G04 #@! TO.N,Net-(R6-Pad2)*
G04 #@! TA.AperFunction,SMDPad,CuDef*
G36*
G01*
X165919999Y-97190000D02*
X166820001Y-97190000D01*
G75*
G02*
X167070000Y-97439999I0J-249999D01*
G01*
X167070000Y-98140001D01*
G75*
G02*
X166820001Y-98390000I-249999J0D01*
G01*
X165919999Y-98390000D01*
G75*
G02*
X165670000Y-98140001I0J249999D01*
G01*
X165670000Y-97439999D01*
G75*
G02*
X165919999Y-97190000I249999J0D01*
G01*
G37*
G04 #@! TD.AperFunction*
G04 #@! TO.P,R6,1*
G04 #@! TO.N,Net-(D3-Pad1)*
G04 #@! TA.AperFunction,SMDPad,CuDef*
G36*
G01*
X165919999Y-95190000D02*
X166820001Y-95190000D01*
G75*
G02*
X167070000Y-95439999I0J-249999D01*
G01*
X167070000Y-96140001D01*
G75*
G02*
X166820001Y-96390000I-249999J0D01*
G01*
X165919999Y-96390000D01*
G75*
G02*
X165670000Y-96140001I0J249999D01*
G01*
X165670000Y-95439999D01*
G75*
G02*
X165919999Y-95190000I249999J0D01*
G01*
G37*
G04 #@! TD.AperFunction*
G04 #@! TD*
G04 #@! TO.P,R7,1*
G04 #@! TO.N,Net-(D4-Pad1)*
G04 #@! TA.AperFunction,SMDPad,CuDef*
G36*
G01*
X162744999Y-95190000D02*
X163645001Y-95190000D01*
G75*
G02*
X163895000Y-95439999I0J-249999D01*
G01*
X163895000Y-96140001D01*
G75*
G02*
X163645001Y-96390000I-249999J0D01*
G01*
X162744999Y-96390000D01*
G75*
G02*
X162495000Y-96140001I0J249999D01*
G01*
X162495000Y-95439999D01*
G75*
G02*
X162744999Y-95190000I249999J0D01*
G01*
G37*
G04 #@! TD.AperFunction*
G04 #@! TO.P,R7,2*
G04 #@! TO.N,Net-(R7-Pad2)*
G04 #@! TA.AperFunction,SMDPad,CuDef*
G36*
G01*
X162744999Y-97190000D02*
X163645001Y-97190000D01*
G75*
G02*
X163895000Y-97439999I0J-249999D01*
G01*
X163895000Y-98140001D01*
G75*
G02*
X163645001Y-98390000I-249999J0D01*
G01*
X162744999Y-98390000D01*
G75*
G02*
X162495000Y-98140001I0J249999D01*
G01*
X162495000Y-97439999D01*
G75*
G02*
X162744999Y-97190000I249999J0D01*
G01*
G37*
G04 #@! TD.AperFunction*
G04 #@! TD*
G04 #@! TO.P,R8,2*
G04 #@! TO.N,Net-(R8-Pad2)*
G04 #@! TA.AperFunction,SMDPad,CuDef*
G36*
G01*
X159569999Y-97190000D02*
X160470001Y-97190000D01*
G75*
G02*
X160720000Y-97439999I0J-249999D01*
G01*
X160720000Y-98140001D01*
G75*
G02*
X160470001Y-98390000I-249999J0D01*
G01*
X159569999Y-98390000D01*
G75*
G02*
X159320000Y-98140001I0J249999D01*
G01*
X159320000Y-97439999D01*
G75*
G02*
X159569999Y-97190000I249999J0D01*
G01*
G37*
G04 #@! TD.AperFunction*
G04 #@! TO.P,R8,1*
G04 #@! TO.N,Net-(D5-Pad1)*
G04 #@! TA.AperFunction,SMDPad,CuDef*
G36*
G01*
X159569999Y-95190000D02*
X160470001Y-95190000D01*
G75*
G02*
X160720000Y-95439999I0J-249999D01*
G01*
X160720000Y-96140001D01*
G75*
G02*
X160470001Y-96390000I-249999J0D01*
G01*
X159569999Y-96390000D01*
G75*
G02*
X159320000Y-96140001I0J249999D01*
G01*
X159320000Y-95439999D01*
G75*
G02*
X159569999Y-95190000I249999J0D01*
G01*
G37*
G04 #@! TD.AperFunction*
G04 #@! TD*
G04 #@! TO.P,R9,1*
G04 #@! TO.N,Net-(D6-Pad1)*
G04 #@! TA.AperFunction,SMDPad,CuDef*
G36*
G01*
X156394999Y-95190000D02*
X157295001Y-95190000D01*
G75*
G02*
X157545000Y-95439999I0J-249999D01*
G01*
X157545000Y-96140001D01*
G75*
G02*
X157295001Y-96390000I-249999J0D01*
G01*
X156394999Y-96390000D01*
G75*
G02*
X156145000Y-96140001I0J249999D01*
G01*
X156145000Y-95439999D01*
G75*
G02*
X156394999Y-95190000I249999J0D01*
G01*
G37*
G04 #@! TD.AperFunction*
G04 #@! TO.P,R9,2*
G04 #@! TO.N,Net-(R9-Pad2)*
G04 #@! TA.AperFunction,SMDPad,CuDef*
G36*
G01*
X156394999Y-97190000D02*
X157295001Y-97190000D01*
G75*
G02*
X157545000Y-97439999I0J-249999D01*
G01*
X157545000Y-98140001D01*
G75*
G02*
X157295001Y-98390000I-249999J0D01*
G01*
X156394999Y-98390000D01*
G75*
G02*
X156145000Y-98140001I0J249999D01*
G01*
X156145000Y-97439999D01*
G75*
G02*
X156394999Y-97190000I249999J0D01*
G01*
G37*
G04 #@! TD.AperFunction*
G04 #@! TD*
G04 #@! TO.P,R10,2*
G04 #@! TO.N,Net-(R10-Pad2)*
G04 #@! TA.AperFunction,SMDPad,CuDef*
G36*
G01*
X153219999Y-97190000D02*
X154120001Y-97190000D01*
G75*
G02*
X154370000Y-97439999I0J-249999D01*
G01*
X154370000Y-98140001D01*
G75*
G02*
X154120001Y-98390000I-249999J0D01*
G01*
X153219999Y-98390000D01*
G75*
G02*
X152970000Y-98140001I0J249999D01*
G01*
X152970000Y-97439999D01*
G75*
G02*
X153219999Y-97190000I249999J0D01*
G01*
G37*
G04 #@! TD.AperFunction*
G04 #@! TO.P,R10,1*
G04 #@! TO.N,Net-(D7-Pad1)*
G04 #@! TA.AperFunction,SMDPad,CuDef*
G36*
G01*
X153219999Y-95190000D02*
X154120001Y-95190000D01*
G75*
G02*
X154370000Y-95439999I0J-249999D01*
G01*
X154370000Y-96140001D01*
G75*
G02*
X154120001Y-96390000I-249999J0D01*
G01*
X153219999Y-96390000D01*
G75*
G02*
X152970000Y-96140001I0J249999D01*
G01*
X152970000Y-95439999D01*
G75*
G02*
X153219999Y-95190000I249999J0D01*
G01*
G37*
G04 #@! TD.AperFunction*
G04 #@! TD*
G04 #@! TO.P,R11,1*
G04 #@! TO.N,+5V*
G04 #@! TA.AperFunction,SMDPad,CuDef*
G36*
G01*
X180778999Y-120050000D02*
X181679001Y-120050000D01*
G75*
G02*
X181929000Y-120299999I0J-249999D01*
G01*
X181929000Y-121000001D01*
G75*
G02*
X181679001Y-121250000I-249999J0D01*
G01*
X180778999Y-121250000D01*
G75*
G02*
X180529000Y-121000001I0J249999D01*
G01*
X180529000Y-120299999D01*
G75*
G02*
X180778999Y-120050000I249999J0D01*
G01*
G37*
G04 #@! TD.AperFunction*
G04 #@! TO.P,R11,2*
G04 #@! TO.N,SDA2*
G04 #@! TA.AperFunction,SMDPad,CuDef*
G36*
G01*
X180778999Y-122050000D02*
X181679001Y-122050000D01*
G75*
G02*
X181929000Y-122299999I0J-249999D01*
G01*
X181929000Y-123000001D01*
G75*
G02*
X181679001Y-123250000I-249999J0D01*
G01*
X180778999Y-123250000D01*
G75*
G02*
X180529000Y-123000001I0J249999D01*
G01*
X180529000Y-122299999D01*
G75*
G02*
X180778999Y-122050000I249999J0D01*
G01*
G37*
G04 #@! TD.AperFunction*
G04 #@! TD*
G04 #@! TO.P,R12,2*
G04 #@! TO.N,SCL2*
G04 #@! TA.AperFunction,SMDPad,CuDef*
G36*
G01*
X177349999Y-122050000D02*
X178250001Y-122050000D01*
G75*
G02*
X178500000Y-122299999I0J-249999D01*
G01*
X178500000Y-123000001D01*
G75*
G02*
X178250001Y-123250000I-249999J0D01*
G01*
X177349999Y-123250000D01*
G75*
G02*
X177100000Y-123000001I0J249999D01*
G01*
X177100000Y-122299999D01*
G75*
G02*
X177349999Y-122050000I249999J0D01*
G01*
G37*
G04 #@! TD.AperFunction*
G04 #@! TO.P,R12,1*
G04 #@! TO.N,+5V*
G04 #@! TA.AperFunction,SMDPad,CuDef*
G36*
G01*
X177349999Y-120050000D02*
X178250001Y-120050000D01*
G75*
G02*
X178500000Y-120299999I0J-249999D01*
G01*
X178500000Y-121000001D01*
G75*
G02*
X178250001Y-121250000I-249999J0D01*
G01*
X177349999Y-121250000D01*
G75*
G02*
X177100000Y-121000001I0J249999D01*
G01*
X177100000Y-120299999D01*
G75*
G02*
X177349999Y-120050000I249999J0D01*
G01*
G37*
G04 #@! TD.AperFunction*
G04 #@! TD*
G04 #@! TO.P,R13,1*
G04 #@! TO.N,Net-(R13-Pad1)*
G04 #@! TA.AperFunction,SMDPad,CuDef*
G36*
G01*
X157295001Y-112455000D02*
X156394999Y-112455000D01*
G75*
G02*
X156145000Y-112205001I0J249999D01*
G01*
X156145000Y-111504999D01*
G75*
G02*
X156394999Y-111255000I249999J0D01*
G01*
X157295001Y-111255000D01*
G75*
G02*
X157545000Y-111504999I0J-249999D01*
G01*
X157545000Y-112205001D01*
G75*
G02*
X157295001Y-112455000I-249999J0D01*
G01*
G37*
G04 #@! TD.AperFunction*
G04 #@! TO.P,R13,2*
G04 #@! TO.N,GND*
G04 #@! TA.AperFunction,SMDPad,CuDef*
G36*
G01*
X157295001Y-110455000D02*
X156394999Y-110455000D01*
G75*
G02*
X156145000Y-110205001I0J249999D01*
G01*
X156145000Y-109504999D01*
G75*
G02*
X156394999Y-109255000I249999J0D01*
G01*
X157295001Y-109255000D01*
G75*
G02*
X157545000Y-109504999I0J-249999D01*
G01*
X157545000Y-110205001D01*
G75*
G02*
X157295001Y-110455000I-249999J0D01*
G01*
G37*
G04 #@! TD.AperFunction*
G04 #@! TD*
G04 #@! TO.P,R14,2*
G04 #@! TO.N,GND*
G04 #@! TA.AperFunction,SMDPad,CuDef*
G36*
G01*
X154882001Y-110455000D02*
X153981999Y-110455000D01*
G75*
G02*
X153732000Y-110205001I0J249999D01*
G01*
X153732000Y-109504999D01*
G75*
G02*
X153981999Y-109255000I249999J0D01*
G01*
X154882001Y-109255000D01*
G75*
G02*
X155132000Y-109504999I0J-249999D01*
G01*
X155132000Y-110205001D01*
G75*
G02*
X154882001Y-110455000I-249999J0D01*
G01*
G37*
G04 #@! TD.AperFunction*
G04 #@! TO.P,R14,1*
G04 #@! TO.N,Net-(R14-Pad1)*
G04 #@! TA.AperFunction,SMDPad,CuDef*
G36*
G01*
X154882001Y-112455000D02*
X153981999Y-112455000D01*
G75*
G02*
X153732000Y-112205001I0J249999D01*
G01*
X153732000Y-111504999D01*
G75*
G02*
X153981999Y-111255000I249999J0D01*
G01*
X154882001Y-111255000D01*
G75*
G02*
X155132000Y-111504999I0J-249999D01*
G01*
X155132000Y-112205001D01*
G75*
G02*
X154882001Y-112455000I-249999J0D01*
G01*
G37*
G04 #@! TD.AperFunction*
G04 #@! TD*
G04 #@! TO.P,R15,2*
G04 #@! TO.N,GND*
G04 #@! TA.AperFunction,SMDPad,CuDef*
G36*
G01*
X150056001Y-110455000D02*
X149155999Y-110455000D01*
G75*
G02*
X148906000Y-110205001I0J249999D01*
G01*
X148906000Y-109504999D01*
G75*
G02*
X149155999Y-109255000I249999J0D01*
G01*
X150056001Y-109255000D01*
G75*
G02*
X150306000Y-109504999I0J-249999D01*
G01*
X150306000Y-110205001D01*
G75*
G02*
X150056001Y-110455000I-249999J0D01*
G01*
G37*
G04 #@! TD.AperFunction*
G04 #@! TO.P,R15,1*
G04 #@! TO.N,Net-(JP1-Pad2)*
G04 #@! TA.AperFunction,SMDPad,CuDef*
G36*
G01*
X150056001Y-112455000D02*
X149155999Y-112455000D01*
G75*
G02*
X148906000Y-112205001I0J249999D01*
G01*
X148906000Y-111504999D01*
G75*
G02*
X149155999Y-111255000I249999J0D01*
G01*
X150056001Y-111255000D01*
G75*
G02*
X150306000Y-111504999I0J-249999D01*
G01*
X150306000Y-112205001D01*
G75*
G02*
X150056001Y-112455000I-249999J0D01*
G01*
G37*
G04 #@! TD.AperFunction*
G04 #@! TD*
G04 #@! TO.P,R16,1*
G04 #@! TO.N,Net-(D9-Pad1)*
G04 #@! TA.AperFunction,SMDPad,CuDef*
G36*
G01*
X124910001Y-94072000D02*
X124009999Y-94072000D01*
G75*
G02*
X123760000Y-93822001I0J249999D01*
G01*
X123760000Y-93121999D01*
G75*
G02*
X124009999Y-92872000I249999J0D01*
G01*
X124910001Y-92872000D01*
G75*
G02*
X125160000Y-93121999I0J-249999D01*
G01*
X125160000Y-93822001D01*
G75*
G02*
X124910001Y-94072000I-249999J0D01*
G01*
G37*
G04 #@! TD.AperFunction*
G04 #@! TO.P,R16,2*
G04 #@! TO.N,GND*
G04 #@! TA.AperFunction,SMDPad,CuDef*
G36*
G01*
X124910001Y-92072000D02*
X124009999Y-92072000D01*
G75*
G02*
X123760000Y-91822001I0J249999D01*
G01*
X123760000Y-91121999D01*
G75*
G02*
X124009999Y-90872000I249999J0D01*
G01*
X124910001Y-90872000D01*
G75*
G02*
X125160000Y-91121999I0J-249999D01*
G01*
X125160000Y-91822001D01*
G75*
G02*
X124910001Y-92072000I-249999J0D01*
G01*
G37*
G04 #@! TD.AperFunction*
G04 #@! TD*
G04 #@! TO.P,R17,2*
G04 #@! TO.N,GND*
G04 #@! TA.AperFunction,SMDPad,CuDef*
G36*
G01*
X121862001Y-92072000D02*
X120961999Y-92072000D01*
G75*
G02*
X120712000Y-91822001I0J249999D01*
G01*
X120712000Y-91121999D01*
G75*
G02*
X120961999Y-90872000I249999J0D01*
G01*
X121862001Y-90872000D01*
G75*
G02*
X122112000Y-91121999I0J-249999D01*
G01*
X122112000Y-91822001D01*
G75*
G02*
X121862001Y-92072000I-249999J0D01*
G01*
G37*
G04 #@! TD.AperFunction*
G04 #@! TO.P,R17,1*
G04 #@! TO.N,Net-(D10-Pad1)*
G04 #@! TA.AperFunction,SMDPad,CuDef*
G36*
G01*
X121862001Y-94072000D02*
X120961999Y-94072000D01*
G75*
G02*
X120712000Y-93822001I0J249999D01*
G01*
X120712000Y-93121999D01*
G75*
G02*
X120961999Y-92872000I249999J0D01*
G01*
X121862001Y-92872000D01*
G75*
G02*
X122112000Y-93121999I0J-249999D01*
G01*
X122112000Y-93822001D01*
G75*
G02*
X121862001Y-94072000I-249999J0D01*
G01*
G37*
G04 #@! TD.AperFunction*
G04 #@! TD*
G04 #@! TO.P,R18,2*
G04 #@! TO.N,GND*
G04 #@! TA.AperFunction,SMDPad,CuDef*
G36*
G01*
X118814001Y-92072000D02*
X117913999Y-92072000D01*
G75*
G02*
X117664000Y-91822001I0J249999D01*
G01*
X117664000Y-91121999D01*
G75*
G02*
X117913999Y-90872000I249999J0D01*
G01*
X118814001Y-90872000D01*
G75*
G02*
X119064000Y-91121999I0J-249999D01*
G01*
X119064000Y-91822001D01*
G75*
G02*
X118814001Y-92072000I-249999J0D01*
G01*
G37*
G04 #@! TD.AperFunction*
G04 #@! TO.P,R18,1*
G04 #@! TO.N,Net-(D11-Pad1)*
G04 #@! TA.AperFunction,SMDPad,CuDef*
G36*
G01*
X118814001Y-94072000D02*
X117913999Y-94072000D01*
G75*
G02*
X117664000Y-93822001I0J249999D01*
G01*
X117664000Y-93121999D01*
G75*
G02*
X117913999Y-92872000I249999J0D01*
G01*
X118814001Y-92872000D01*
G75*
G02*
X119064000Y-93121999I0J-249999D01*
G01*
X119064000Y-93822001D01*
G75*
G02*
X118814001Y-94072000I-249999J0D01*
G01*
G37*
G04 #@! TD.AperFunction*
G04 #@! TD*
G04 #@! TO.P,R19,1*
G04 #@! TO.N,Net-(D12-Pad1)*
G04 #@! TA.AperFunction,SMDPad,CuDef*
G36*
G01*
X115766001Y-94072000D02*
X114865999Y-94072000D01*
G75*
G02*
X114616000Y-93822001I0J249999D01*
G01*
X114616000Y-93121999D01*
G75*
G02*
X114865999Y-92872000I249999J0D01*
G01*
X115766001Y-92872000D01*
G75*
G02*
X116016000Y-93121999I0J-249999D01*
G01*
X116016000Y-93822001D01*
G75*
G02*
X115766001Y-94072000I-249999J0D01*
G01*
G37*
G04 #@! TD.AperFunction*
G04 #@! TO.P,R19,2*
G04 #@! TO.N,GND*
G04 #@! TA.AperFunction,SMDPad,CuDef*
G36*
G01*
X115766001Y-92072000D02*
X114865999Y-92072000D01*
G75*
G02*
X114616000Y-91822001I0J249999D01*
G01*
X114616000Y-91121999D01*
G75*
G02*
X114865999Y-90872000I249999J0D01*
G01*
X115766001Y-90872000D01*
G75*
G02*
X116016000Y-91121999I0J-249999D01*
G01*
X116016000Y-91822001D01*
G75*
G02*
X115766001Y-92072000I-249999J0D01*
G01*
G37*
G04 #@! TD.AperFunction*
G04 #@! TD*
G04 #@! TO.P,R20,2*
G04 #@! TO.N,GND*
G04 #@! TA.AperFunction,SMDPad,CuDef*
G36*
G01*
X112718001Y-92072000D02*
X111817999Y-92072000D01*
G75*
G02*
X111568000Y-91822001I0J249999D01*
G01*
X111568000Y-91121999D01*
G75*
G02*
X111817999Y-90872000I249999J0D01*
G01*
X112718001Y-90872000D01*
G75*
G02*
X112968000Y-91121999I0J-249999D01*
G01*
X112968000Y-91822001D01*
G75*
G02*
X112718001Y-92072000I-249999J0D01*
G01*
G37*
G04 #@! TD.AperFunction*
G04 #@! TO.P,R20,1*
G04 #@! TO.N,Net-(D13-Pad1)*
G04 #@! TA.AperFunction,SMDPad,CuDef*
G36*
G01*
X112718001Y-94072000D02*
X111817999Y-94072000D01*
G75*
G02*
X111568000Y-93822001I0J249999D01*
G01*
X111568000Y-93121999D01*
G75*
G02*
X111817999Y-92872000I249999J0D01*
G01*
X112718001Y-92872000D01*
G75*
G02*
X112968000Y-93121999I0J-249999D01*
G01*
X112968000Y-93822001D01*
G75*
G02*
X112718001Y-94072000I-249999J0D01*
G01*
G37*
G04 #@! TD.AperFunction*
G04 #@! TD*
G04 #@! TO.P,R21,1*
G04 #@! TO.N,Net-(D14-Pad1)*
G04 #@! TA.AperFunction,SMDPad,CuDef*
G36*
G01*
X109670001Y-94072000D02*
X108769999Y-94072000D01*
G75*
G02*
X108520000Y-93822001I0J249999D01*
G01*
X108520000Y-93121999D01*
G75*
G02*
X108769999Y-92872000I249999J0D01*
G01*
X109670001Y-92872000D01*
G75*
G02*
X109920000Y-93121999I0J-249999D01*
G01*
X109920000Y-93822001D01*
G75*
G02*
X109670001Y-94072000I-249999J0D01*
G01*
G37*
G04 #@! TD.AperFunction*
G04 #@! TO.P,R21,2*
G04 #@! TO.N,GND*
G04 #@! TA.AperFunction,SMDPad,CuDef*
G36*
G01*
X109670001Y-92072000D02*
X108769999Y-92072000D01*
G75*
G02*
X108520000Y-91822001I0J249999D01*
G01*
X108520000Y-91121999D01*
G75*
G02*
X108769999Y-90872000I249999J0D01*
G01*
X109670001Y-90872000D01*
G75*
G02*
X109920000Y-91121999I0J-249999D01*
G01*
X109920000Y-91822001D01*
G75*
G02*
X109670001Y-92072000I-249999J0D01*
G01*
G37*
G04 #@! TD.AperFunction*
G04 #@! TD*
G04 #@! TO.P,R22,1*
G04 #@! TO.N,Net-(D15-Pad1)*
G04 #@! TA.AperFunction,SMDPad,CuDef*
G36*
G01*
X106622001Y-94072000D02*
X105721999Y-94072000D01*
G75*
G02*
X105472000Y-93822001I0J249999D01*
G01*
X105472000Y-93121999D01*
G75*
G02*
X105721999Y-92872000I249999J0D01*
G01*
X106622001Y-92872000D01*
G75*
G02*
X106872000Y-93121999I0J-249999D01*
G01*
X106872000Y-93822001D01*
G75*
G02*
X106622001Y-94072000I-249999J0D01*
G01*
G37*
G04 #@! TD.AperFunction*
G04 #@! TO.P,R22,2*
G04 #@! TO.N,GND*
G04 #@! TA.AperFunction,SMDPad,CuDef*
G36*
G01*
X106622001Y-92072000D02*
X105721999Y-92072000D01*
G75*
G02*
X105472000Y-91822001I0J249999D01*
G01*
X105472000Y-91121999D01*
G75*
G02*
X105721999Y-90872000I249999J0D01*
G01*
X106622001Y-90872000D01*
G75*
G02*
X106872000Y-91121999I0J-249999D01*
G01*
X106872000Y-91822001D01*
G75*
G02*
X106622001Y-92072000I-249999J0D01*
G01*
G37*
G04 #@! TD.AperFunction*
G04 #@! TD*
G04 #@! TO.P,R23,1*
G04 #@! TO.N,Net-(D16-Pad1)*
G04 #@! TA.AperFunction,SMDPad,CuDef*
G36*
G01*
X103574001Y-94072000D02*
X102673999Y-94072000D01*
G75*
G02*
X102424000Y-93822001I0J249999D01*
G01*
X102424000Y-93121999D01*
G75*
G02*
X102673999Y-92872000I249999J0D01*
G01*
X103574001Y-92872000D01*
G75*
G02*
X103824000Y-93121999I0J-249999D01*
G01*
X103824000Y-93822001D01*
G75*
G02*
X103574001Y-94072000I-249999J0D01*
G01*
G37*
G04 #@! TD.AperFunction*
G04 #@! TO.P,R23,2*
G04 #@! TO.N,GND*
G04 #@! TA.AperFunction,SMDPad,CuDef*
G36*
G01*
X103574001Y-92072000D02*
X102673999Y-92072000D01*
G75*
G02*
X102424000Y-91822001I0J249999D01*
G01*
X102424000Y-91121999D01*
G75*
G02*
X102673999Y-90872000I249999J0D01*
G01*
X103574001Y-90872000D01*
G75*
G02*
X103824000Y-91121999I0J-249999D01*
G01*
X103824000Y-91822001D01*
G75*
G02*
X103574001Y-92072000I-249999J0D01*
G01*
G37*
G04 #@! TD.AperFunction*
G04 #@! TD*
D16*
G04 #@! TO.P,SW1,1*
G04 #@! TO.N,GND*
X187452000Y-113665000D03*
D17*
G04 #@! TO.P,SW1,7*
G04 #@! TO.N,Net-(R10-Pad2)*
X179832000Y-100965000D03*
G04 #@! TO.P,SW1,2*
G04 #@! TO.N,GND*
X187452000Y-111125000D03*
G04 #@! TO.P,SW1,8*
G04 #@! TO.N,Net-(R9-Pad2)*
X179832000Y-103505000D03*
G04 #@! TO.P,SW1,3*
G04 #@! TO.N,GND*
X187452000Y-108585000D03*
G04 #@! TO.P,SW1,9*
G04 #@! TO.N,Net-(R8-Pad2)*
X179832000Y-106045000D03*
G04 #@! TO.P,SW1,4*
G04 #@! TO.N,GND*
X187452000Y-106045000D03*
G04 #@! TO.P,SW1,10*
G04 #@! TO.N,Net-(R7-Pad2)*
X179832000Y-108585000D03*
G04 #@! TO.P,SW1,5*
G04 #@! TO.N,GND*
X187452000Y-103505000D03*
G04 #@! TO.P,SW1,11*
G04 #@! TO.N,Net-(R6-Pad2)*
X179832000Y-111125000D03*
G04 #@! TO.P,SW1,6*
G04 #@! TO.N,GND*
X187452000Y-100965000D03*
G04 #@! TO.P,SW1,12*
G04 #@! TO.N,Net-(R5-Pad2)*
X179832000Y-113665000D03*
G04 #@! TD*
D18*
G04 #@! TO.P,SW2,2*
G04 #@! TO.N,Net-(R13-Pad1)*
X161235000Y-107950000D03*
G04 #@! TO.P,SW2,1*
G04 #@! TO.N,+5V*
X165735000Y-107950000D03*
G04 #@! TO.P,SW2,2*
G04 #@! TO.N,Net-(R13-Pad1)*
X161235000Y-114450000D03*
G04 #@! TO.P,SW2,1*
G04 #@! TO.N,+5V*
X165735000Y-114450000D03*
G04 #@! TD*
G04 #@! TO.P,SW3,1*
G04 #@! TO.N,+5V*
X173990000Y-114450000D03*
G04 #@! TO.P,SW3,2*
G04 #@! TO.N,Net-(R14-Pad1)*
X169490000Y-114450000D03*
G04 #@! TO.P,SW3,1*
G04 #@! TO.N,+5V*
X173990000Y-107950000D03*
G04 #@! TO.P,SW3,2*
G04 #@! TO.N,Net-(R14-Pad1)*
X169490000Y-107950000D03*
G04 #@! TD*
D19*
G04 #@! TO.N,GND*
X128016000Y-90424000D03*
D20*
G04 #@! TO.N,+5V*
X124460000Y-110490000D03*
G04 #@! TO.N,Net-(D16-Pad2)*
X107188000Y-104140000D03*
X105410000Y-104140000D03*
G04 #@! TO.N,SDA2*
X140335000Y-114300000D03*
X140335000Y-125730000D03*
X140335000Y-130175000D03*
G04 #@! TO.N,Net-(R5-Pad2)*
X169545000Y-97790000D03*
X169545000Y-104140000D03*
G04 #@! TO.N,Net-(R6-Pad2)*
X166370000Y-97790000D03*
X166370000Y-103505000D03*
G04 #@! TO.N,Net-(R7-Pad2)*
X163195000Y-97790000D03*
X163195000Y-102870000D03*
G04 #@! TO.N,Net-(R8-Pad2)*
X160020000Y-97790000D03*
X160020000Y-102235000D03*
G04 #@! TO.N,Net-(R9-Pad2)*
X156845000Y-97790000D03*
X156845000Y-101600000D03*
G04 #@! TO.N,Net-(R13-Pad1)*
X148590000Y-114935000D03*
G04 #@! TD*
D21*
G04 #@! TO.N,GND*
X124460000Y-91472000D02*
X121412000Y-91472000D01*
X121412000Y-91472000D02*
X118364000Y-91472000D01*
X115316000Y-91472000D02*
X118364000Y-91472000D01*
X115316000Y-91472000D02*
X112268000Y-91472000D01*
X112268000Y-91472000D02*
X109220000Y-91472000D01*
X109220000Y-91472000D02*
X106172000Y-91472000D01*
X103124000Y-91472000D02*
X106172000Y-91472000D01*
X139700000Y-92710000D02*
X139700000Y-106680000D01*
X140335000Y-109855000D02*
X140335000Y-109855000D01*
X139700000Y-109220000D02*
X140335000Y-109855000D01*
X139700000Y-107188000D02*
X139700000Y-109220000D01*
X139700000Y-106680000D02*
X139700000Y-107188000D01*
X128016000Y-90424000D02*
X128016000Y-90424000D01*
X125952000Y-91472000D02*
X124460000Y-91472000D01*
X127000000Y-90424000D02*
X125952000Y-91472000D01*
X128016000Y-90424000D02*
X127000000Y-90424000D01*
X107188000Y-115570000D02*
X116840000Y-115570000D01*
X101854000Y-112744000D02*
X101854000Y-115570000D01*
X107188000Y-115570000D02*
X101854000Y-115570000D01*
X97695000Y-129540000D02*
X97695000Y-120809000D01*
X97695000Y-120809000D02*
X95250000Y-118364000D01*
X91694000Y-113538000D02*
X92456000Y-114300000D01*
X91694000Y-101600000D02*
X91694000Y-113538000D01*
X92456000Y-100838000D02*
X91694000Y-101600000D01*
X93629000Y-100838000D02*
X92456000Y-100838000D01*
X93629000Y-100838000D02*
X93629000Y-97887000D01*
X93629000Y-97887000D02*
X95504000Y-96012000D01*
X95504000Y-96012000D02*
X97282000Y-96012000D01*
X97282000Y-96012000D02*
X99060000Y-94234000D01*
X99060000Y-94234000D02*
X99060000Y-92456000D01*
X100044000Y-91472000D02*
X103124000Y-91472000D01*
X99060000Y-92456000D02*
X100044000Y-91472000D01*
X101854000Y-115570000D02*
X99822000Y-115570000D01*
X99822000Y-115570000D02*
X98552000Y-114300000D01*
X98552000Y-114300000D02*
X95250000Y-114300000D01*
X92456000Y-114300000D02*
X95250000Y-114300000D01*
X95250000Y-118364000D02*
X95250000Y-114300000D01*
X97695000Y-129540000D02*
X97695000Y-133763000D01*
X99187000Y-135255000D02*
X104775000Y-135255000D01*
X97695000Y-133763000D02*
X99187000Y-135255000D01*
X104775000Y-135255000D02*
X104775000Y-137795000D01*
X104775000Y-135255000D02*
X114935000Y-135255000D01*
X114935000Y-135255000D02*
X114935000Y-137795000D01*
X114935000Y-135255000D02*
X125095000Y-135255000D01*
X125095000Y-135255000D02*
X125095000Y-137795000D01*
X125095000Y-135255000D02*
X135255000Y-135255000D01*
X135255000Y-135255000D02*
X135255000Y-137795000D01*
X135255000Y-135255000D02*
X145415000Y-135255000D01*
X145415000Y-135255000D02*
X145415000Y-137795000D01*
X145415000Y-135255000D02*
X155575000Y-135255000D01*
X155575000Y-135255000D02*
X155575000Y-137795000D01*
X155575000Y-135255000D02*
X165735000Y-135255000D01*
X165735000Y-135255000D02*
X165735000Y-137795000D01*
X165735000Y-135255000D02*
X175895000Y-135255000D01*
X175895000Y-135255000D02*
X175895000Y-137795000D01*
X175895000Y-135255000D02*
X181229000Y-135255000D01*
X187452000Y-129032000D02*
X187452000Y-113665000D01*
X181229000Y-135255000D02*
X187452000Y-129032000D01*
X140335000Y-109855000D02*
X145670000Y-109855000D01*
X139573000Y-107315000D02*
X139700000Y-107188000D01*
X136270000Y-107315000D02*
X139573000Y-107315000D01*
X145670000Y-109855000D02*
X149606000Y-109855000D01*
X149606000Y-109855000D02*
X152019000Y-109855000D01*
X152019000Y-109855000D02*
X154432000Y-109855000D01*
X156845000Y-109855000D02*
X154432000Y-109855000D01*
X156845000Y-109855000D02*
X156845000Y-107696000D01*
G04 #@! TO.N,+5V*
X156845000Y-91470000D02*
X153670000Y-91470000D01*
X156845000Y-91470000D02*
X160020000Y-91470000D01*
X160020000Y-91470000D02*
X163195000Y-91470000D01*
X166370000Y-91470000D02*
X163195000Y-91470000D01*
X166370000Y-91470000D02*
X169545000Y-91470000D01*
X153670000Y-90170000D02*
X153670000Y-91470000D01*
X152908000Y-89408000D02*
X153670000Y-90170000D01*
X138176000Y-89408000D02*
X152908000Y-89408000D01*
X137160000Y-90424000D02*
X138176000Y-89408000D01*
X137160000Y-92710000D02*
X137160000Y-90424000D01*
X137160000Y-90424000D02*
X130556000Y-90424000D01*
X124460000Y-113030000D02*
X124460000Y-110490000D01*
X124460000Y-110490000D02*
X124460000Y-110490000D01*
X107188000Y-107950000D02*
X116840000Y-107950000D01*
X99822000Y-107950000D02*
X98552000Y-109220000D01*
X101854000Y-110744000D02*
X101854000Y-107950000D01*
X101854000Y-107950000D02*
X99822000Y-107950000D01*
X107188000Y-107950000D02*
X101854000Y-107950000D01*
X171736000Y-105696000D02*
X173990000Y-107950000D01*
X93472000Y-105410000D02*
X93472000Y-103378000D01*
X95250000Y-107188000D02*
X93472000Y-105410000D01*
X95250000Y-107188000D02*
X95250000Y-109220000D01*
X98552000Y-109220000D02*
X95250000Y-109220000D01*
X170180000Y-120650000D02*
X173990000Y-120650000D01*
X173990000Y-120650000D02*
X173990000Y-114450000D01*
X104775000Y-127635000D02*
X100203000Y-127635000D01*
X99695000Y-128143000D02*
X99695000Y-129540000D01*
X100203000Y-127635000D02*
X99695000Y-128143000D01*
X173990000Y-120650000D02*
X177800000Y-120650000D01*
X177800000Y-120650000D02*
X181229000Y-120650000D01*
X145670000Y-108585000D02*
X148717000Y-108585000D01*
X148717000Y-108585000D02*
X151606000Y-105696000D01*
X156718000Y-105696000D02*
X151606000Y-105696000D01*
X165735000Y-105791000D02*
X165640000Y-105696000D01*
X165640000Y-105696000D02*
X171736000Y-105696000D01*
X165735000Y-107950000D02*
X165735000Y-105791000D01*
X156718000Y-105696000D02*
X165640000Y-105696000D01*
X165735000Y-107950000D02*
X165735000Y-114450000D01*
X173990000Y-114450000D02*
X173990000Y-107950000D01*
D22*
G04 #@! TO.N,Net-(C3-Pad1)*
X128016000Y-92424000D02*
X130556000Y-92424000D01*
X130556000Y-92424000D02*
X130556000Y-95153000D01*
G04 #@! TO.N,Net-(D1-Pad2)*
X95472000Y-100870000D02*
X95504000Y-100838000D01*
X95472000Y-103378000D02*
X95472000Y-100870000D01*
G04 #@! TO.N,Net-(D2-Pad1)*
X169545000Y-93345000D02*
X169545000Y-95790000D01*
G04 #@! TO.N,Net-(D3-Pad1)*
X166370000Y-93345000D02*
X166370000Y-95790000D01*
G04 #@! TO.N,Net-(D4-Pad1)*
X163195000Y-93345000D02*
X163195000Y-95790000D01*
G04 #@! TO.N,Net-(D5-Pad1)*
X160020000Y-93345000D02*
X160020000Y-95790000D01*
G04 #@! TO.N,Net-(D6-Pad1)*
X156845000Y-93345000D02*
X156845000Y-95790000D01*
G04 #@! TO.N,Net-(D7-Pad1)*
X153670000Y-93345000D02*
X153670000Y-95790000D01*
G04 #@! TO.N,Net-(D8-Pad1)*
X130556000Y-97028000D02*
X134620000Y-97028000D01*
X134620000Y-97028000D02*
X135890000Y-97028000D01*
X136270000Y-97408000D02*
X136270000Y-98425000D01*
X135890000Y-97028000D02*
X136270000Y-97408000D01*
X134620000Y-96012000D02*
X134620000Y-97028000D01*
X134620000Y-96012000D02*
X134620000Y-92710000D01*
G04 #@! TO.N,Net-(D9-Pad1)*
X124460000Y-96012000D02*
X124460000Y-93472000D01*
G04 #@! TO.N,Net-(D9-Pad2)*
X124460000Y-99060000D02*
X124460000Y-97887000D01*
X125095000Y-99695000D02*
X124460000Y-99060000D01*
X125095000Y-99695000D02*
X136270000Y-99695000D01*
G04 #@! TO.N,Net-(D10-Pad2)*
X134366000Y-100965000D02*
X136270000Y-100965000D01*
X133731000Y-100330000D02*
X134366000Y-100965000D01*
X121920000Y-100330000D02*
X133731000Y-100330000D01*
X121412000Y-99822000D02*
X121920000Y-100330000D01*
X121412000Y-97887000D02*
X121412000Y-99822000D01*
G04 #@! TO.N,Net-(D10-Pad1)*
X121412000Y-93472000D02*
X121412000Y-96012000D01*
G04 #@! TO.N,Net-(D11-Pad1)*
X118364000Y-96012000D02*
X118364000Y-93472000D01*
G04 #@! TO.N,Net-(D11-Pad2)*
X134366000Y-102235000D02*
X136270000Y-102235000D01*
X133223000Y-101092000D02*
X134366000Y-102235000D01*
X118872000Y-101092000D02*
X133223000Y-101092000D01*
X118364000Y-100584000D02*
X118872000Y-101092000D01*
X118364000Y-97887000D02*
X118364000Y-100584000D01*
G04 #@! TO.N,Net-(D12-Pad2)*
X134366000Y-103505000D02*
X136270000Y-103505000D01*
X132715000Y-101854000D02*
X134366000Y-103505000D01*
X116078000Y-101854000D02*
X132715000Y-101854000D01*
X115316000Y-101092000D02*
X116078000Y-101854000D01*
X115316000Y-97887000D02*
X115316000Y-101092000D01*
G04 #@! TO.N,Net-(D12-Pad1)*
X115316000Y-93472000D02*
X115316000Y-96012000D01*
G04 #@! TO.N,Net-(D13-Pad2)*
X134366000Y-104775000D02*
X136270000Y-104775000D01*
X112776000Y-102616000D02*
X132207000Y-102616000D01*
X132207000Y-102616000D02*
X134366000Y-104775000D01*
X112268000Y-102108000D02*
X112776000Y-102616000D01*
X112268000Y-97887000D02*
X112268000Y-102108000D01*
G04 #@! TO.N,Net-(D13-Pad1)*
X112268000Y-94935378D02*
X112268000Y-93472000D01*
X112268000Y-96012000D02*
X112268000Y-94935378D01*
G04 #@! TO.N,Net-(D14-Pad2)*
X131699000Y-103378000D02*
X134366000Y-106045000D01*
X134366000Y-106045000D02*
X136270000Y-106045000D01*
X109728000Y-103378000D02*
X131699000Y-103378000D01*
X109220000Y-102870000D02*
X109728000Y-103378000D01*
X109220000Y-97887000D02*
X109220000Y-102870000D01*
G04 #@! TO.N,Net-(D14-Pad1)*
X109220000Y-93472000D02*
X109220000Y-96012000D01*
G04 #@! TO.N,Net-(D15-Pad2)*
X134366000Y-109855000D02*
X136270000Y-109855000D01*
X133223000Y-108712000D02*
X134366000Y-109855000D01*
X106934000Y-104902000D02*
X130937000Y-104902000D01*
X130937000Y-104902000D02*
X133223000Y-107188000D01*
X106172000Y-104140000D02*
X106934000Y-104902000D01*
X133223000Y-107188000D02*
X133223000Y-108712000D01*
X106172000Y-97887000D02*
X106172000Y-104140000D01*
G04 #@! TO.N,Net-(D15-Pad1)*
X106172000Y-96012000D02*
X106172000Y-93472000D01*
G04 #@! TO.N,Net-(D16-Pad1)*
X103124000Y-93472000D02*
X103124000Y-96012000D01*
G04 #@! TO.N,Net-(D16-Pad2)*
X103124000Y-97887000D02*
X103124000Y-103378000D01*
X103124000Y-103378000D02*
X103886000Y-104140000D01*
X103886000Y-104140000D02*
X105410000Y-104140000D01*
X107188000Y-104140000D02*
X107188000Y-104140000D01*
X105410000Y-104140000D02*
X105410000Y-104140000D01*
X134366000Y-108585000D02*
X136270000Y-108585000D01*
X133731000Y-107950000D02*
X134366000Y-108585000D01*
X133731000Y-106680000D02*
X133731000Y-107950000D01*
X131191000Y-104140000D02*
X133731000Y-106680000D01*
X107188000Y-104140000D02*
X131191000Y-104140000D01*
G04 #@! TO.N,Net-(J2-Pad3)*
X122460000Y-113030000D02*
X116840000Y-113030000D01*
X123190000Y-114935000D02*
X122460000Y-114205000D01*
X130175000Y-114935000D02*
X123190000Y-114935000D01*
X132715000Y-112395000D02*
X130175000Y-114935000D01*
X122460000Y-114205000D02*
X122460000Y-113030000D01*
X107188000Y-113030000D02*
X116840000Y-113030000D01*
X136270000Y-112395000D02*
X132715000Y-112395000D01*
G04 #@! TO.N,Net-(J2-Pad2)*
X122460000Y-110490000D02*
X116840000Y-110490000D01*
X122460000Y-109315000D02*
X122460000Y-110490000D01*
X123190000Y-108585000D02*
X122460000Y-109315000D01*
X130175000Y-108585000D02*
X123190000Y-108585000D01*
X132715000Y-111125000D02*
X130175000Y-108585000D01*
X107188000Y-110490000D02*
X116840000Y-110490000D01*
X132715000Y-111125000D02*
X136270000Y-111125000D01*
G04 #@! TO.N,RB7*
X142240000Y-92710000D02*
X142240000Y-97282000D01*
X143383000Y-98425000D02*
X145670000Y-98425000D01*
X142240000Y-97282000D02*
X143383000Y-98425000D01*
G04 #@! TO.N,RB6*
X144780000Y-92710000D02*
X144780000Y-94488000D01*
X144780000Y-94488000D02*
X147828000Y-97536000D01*
X147828000Y-97536000D02*
X147828000Y-99314000D01*
X147447000Y-99695000D02*
X145670000Y-99695000D01*
X147828000Y-99314000D02*
X147447000Y-99695000D01*
G04 #@! TO.N,Net-(J5-Pad3)*
X109982000Y-132080000D02*
X109347000Y-132715000D01*
X109347000Y-132715000D02*
X104775000Y-132715000D01*
X109982000Y-125476000D02*
X109982000Y-132080000D01*
X110490000Y-124968000D02*
X109982000Y-125476000D01*
X126746000Y-124968000D02*
X110490000Y-124968000D01*
X127127000Y-124587000D02*
X126746000Y-124968000D01*
X127127000Y-122428000D02*
X127127000Y-124587000D01*
G04 #@! TO.N,SDA2*
X181229000Y-122650000D02*
X181229000Y-128778000D01*
X179832000Y-130175000D02*
X175895000Y-130175000D01*
X181229000Y-128778000D02*
X179832000Y-130175000D01*
X139700000Y-113665000D02*
X140335000Y-114300000D01*
X140335000Y-114300000D02*
X140335000Y-114300000D01*
X140335000Y-129540000D02*
X140335000Y-129540000D01*
X139700000Y-113665000D02*
X136270000Y-113665000D01*
X140335000Y-129540000D02*
X140335000Y-130175000D01*
X140335000Y-125730000D02*
X140335000Y-129540000D01*
G04 #@! TO.N,Net-(J6-Pad3)*
X119507000Y-132715000D02*
X114935000Y-132715000D01*
X120142000Y-132080000D02*
X119507000Y-132715000D01*
X120142000Y-125984000D02*
X120142000Y-132080000D01*
X120650000Y-125476000D02*
X120142000Y-125984000D01*
X130235250Y-125476000D02*
X120650000Y-125476000D01*
X130810000Y-124901250D02*
X130235250Y-125476000D01*
X130810000Y-122428000D02*
X130810000Y-124901250D01*
G04 #@! TO.N,Net-(J7-Pad3)*
X129413000Y-132715000D02*
X125095000Y-132715000D01*
X130302000Y-131826000D02*
X129413000Y-132715000D01*
X130810000Y-125476000D02*
X130302000Y-125984000D01*
X133858000Y-125476000D02*
X130810000Y-125476000D01*
X130302000Y-125984000D02*
X130302000Y-131826000D01*
X134620000Y-124714000D02*
X133858000Y-125476000D01*
X134620000Y-122428000D02*
X134620000Y-124714000D01*
G04 #@! TO.N,Net-(J8-Pad3)*
X138430000Y-122428000D02*
X138430000Y-131826000D01*
X137541000Y-132715000D02*
X135255000Y-132715000D01*
X138430000Y-131826000D02*
X137541000Y-132715000D01*
G04 #@! TO.N,Net-(J9-Pad3)*
X142240000Y-122428000D02*
X142240000Y-131826000D01*
X143129000Y-132715000D02*
X145415000Y-132715000D01*
X142240000Y-131826000D02*
X143129000Y-132715000D01*
G04 #@! TO.N,Net-(J10-Pad3)*
X151511000Y-132715000D02*
X155575000Y-132715000D01*
X150622000Y-131826000D02*
X151511000Y-132715000D01*
X150622000Y-125984000D02*
X150622000Y-131826000D01*
X150114000Y-125476000D02*
X150622000Y-125984000D01*
X146558000Y-125476000D02*
X150114000Y-125476000D01*
X146050000Y-124968000D02*
X146558000Y-125476000D01*
X146050000Y-122428000D02*
X146050000Y-124968000D01*
G04 #@! TO.N,Net-(J11-Pad3)*
X160782000Y-132080000D02*
X161417000Y-132715000D01*
X161417000Y-132715000D02*
X165735000Y-132715000D01*
X160782000Y-125984000D02*
X160782000Y-132080000D01*
X160274000Y-125476000D02*
X160782000Y-125984000D01*
X150876000Y-125476000D02*
X160274000Y-125476000D01*
X149860000Y-124460000D02*
X150876000Y-125476000D01*
X149860000Y-122428000D02*
X149860000Y-124460000D01*
G04 #@! TO.N,Net-(J12-Pad3)*
X171577000Y-132715000D02*
X175895000Y-132715000D01*
X170942000Y-125476000D02*
X170942000Y-132080000D01*
X170942000Y-132080000D02*
X171577000Y-132715000D01*
X170535590Y-125069590D02*
X170942000Y-125476000D01*
X154279590Y-125069590D02*
X170535590Y-125069590D01*
X153670000Y-124460000D02*
X154279590Y-125069590D01*
X153670000Y-122428000D02*
X153670000Y-124460000D01*
G04 #@! TO.N,Net-(JP1-Pad2)*
X143002000Y-117221000D02*
X164211000Y-117221000D01*
X142113000Y-116332000D02*
X143002000Y-117221000D01*
X164211000Y-117221000D02*
X167640000Y-120650000D01*
X142113000Y-113157000D02*
X142113000Y-116332000D01*
X142875000Y-112395000D02*
X142113000Y-113157000D01*
X142875000Y-112395000D02*
X145670000Y-112395000D01*
X149606000Y-111855000D02*
X148241000Y-111855000D01*
X147701000Y-112395000D02*
X145670000Y-112395000D01*
X148241000Y-111855000D02*
X147701000Y-112395000D01*
G04 #@! TO.N,SCL2*
X139065000Y-114935000D02*
X140335000Y-116205000D01*
X127127000Y-119888000D02*
X130810000Y-119888000D01*
X130810000Y-119888000D02*
X134620000Y-119888000D01*
X134620000Y-119888000D02*
X138430000Y-119888000D01*
X142240000Y-119888000D02*
X146050000Y-119888000D01*
X146050000Y-119888000D02*
X149860000Y-119888000D01*
X149860000Y-119888000D02*
X153670000Y-119888000D01*
X165195000Y-122650000D02*
X177800000Y-122650000D01*
X162433000Y-119888000D02*
X165195000Y-122650000D01*
X153670000Y-119888000D02*
X162433000Y-119888000D01*
X140335000Y-119761000D02*
X140462000Y-119888000D01*
X140335000Y-116205000D02*
X140335000Y-119761000D01*
X140462000Y-119888000D02*
X142240000Y-119888000D01*
X138430000Y-119888000D02*
X140462000Y-119888000D01*
X139065000Y-114935000D02*
X136270000Y-114935000D01*
G04 #@! TO.N,Net-(R5-Pad2)*
X176276000Y-113665000D02*
X179832000Y-113665000D01*
X175768000Y-113157000D02*
X176276000Y-113665000D01*
X175768000Y-104394000D02*
X175768000Y-113157000D01*
X175514000Y-104140000D02*
X175768000Y-104394000D01*
X169545000Y-104140000D02*
X175514000Y-104140000D01*
X148463000Y-107315000D02*
X145670000Y-107315000D01*
X151638000Y-104140000D02*
X148463000Y-107315000D01*
X169545000Y-104140000D02*
X151638000Y-104140000D01*
G04 #@! TO.N,Net-(R6-Pad2)*
X166370000Y-103505000D02*
X176149000Y-103505000D01*
X176149000Y-103505000D02*
X176403000Y-103759000D01*
X176403000Y-103759000D02*
X176403000Y-110617000D01*
X176403000Y-110617000D02*
X176911000Y-111125000D01*
X176911000Y-111125000D02*
X179832000Y-111125000D01*
X148209000Y-106045000D02*
X145670000Y-106045000D01*
X150749000Y-103505000D02*
X148209000Y-106045000D01*
X166370000Y-103505000D02*
X150749000Y-103505000D01*
G04 #@! TO.N,Net-(R7-Pad2)*
X177038000Y-108077000D02*
X177546000Y-108585000D01*
X177038000Y-103124000D02*
X177038000Y-108077000D01*
X176784000Y-102870000D02*
X177038000Y-103124000D01*
X177546000Y-108585000D02*
X179832000Y-108585000D01*
X163195000Y-102870000D02*
X176784000Y-102870000D01*
X147955000Y-104775000D02*
X145670000Y-104775000D01*
X149860000Y-102870000D02*
X147955000Y-104775000D01*
X163195000Y-102870000D02*
X149860000Y-102870000D01*
G04 #@! TO.N,Net-(R8-Pad2)*
X160020000Y-102235000D02*
X177419000Y-102235000D01*
X177419000Y-102235000D02*
X177673000Y-102489000D01*
X177673000Y-102489000D02*
X177673000Y-105664000D01*
X178054000Y-106045000D02*
X179832000Y-106045000D01*
X177673000Y-105664000D02*
X178054000Y-106045000D01*
X147701000Y-103505000D02*
X145670000Y-103505000D01*
X148971000Y-102235000D02*
X147701000Y-103505000D01*
X160020000Y-102235000D02*
X148971000Y-102235000D01*
G04 #@! TO.N,Net-(R9-Pad2)*
X178181000Y-103124000D02*
X178562000Y-103505000D01*
X178562000Y-103505000D02*
X179832000Y-103505000D01*
X178181000Y-101981000D02*
X178181000Y-103124000D01*
X177800000Y-101600000D02*
X178181000Y-101981000D01*
X156845000Y-101600000D02*
X177800000Y-101600000D01*
X156845000Y-101600000D02*
X148336000Y-101600000D01*
X148336000Y-101600000D02*
X147701000Y-102235000D01*
X147701000Y-102235000D02*
X145670000Y-102235000D01*
G04 #@! TO.N,Net-(R10-Pad2)*
X153670000Y-97790000D02*
X153670000Y-100965000D01*
X153670000Y-100965000D02*
X153035000Y-100965000D01*
X153670000Y-100965000D02*
X179832000Y-100965000D01*
X153035000Y-100965000D02*
X145670000Y-100965000D01*
G04 #@! TO.N,Net-(R13-Pad1)*
X158640000Y-111855000D02*
X161235000Y-114450000D01*
X156845000Y-111855000D02*
X158640000Y-111855000D01*
X161235000Y-107950000D02*
X161235000Y-114450000D01*
X148590000Y-114935000D02*
X145670000Y-114935000D01*
G04 #@! TO.N,Net-(R14-Pad1)*
X154146000Y-112141000D02*
X154432000Y-111855000D01*
X154146000Y-114046000D02*
X154146000Y-112141000D01*
X154146000Y-114046000D02*
X156845000Y-114046000D01*
X156845000Y-114046000D02*
X159131000Y-116332000D01*
X167608000Y-116332000D02*
X169490000Y-114450000D01*
X159131000Y-116332000D02*
X167608000Y-116332000D01*
X169490000Y-107950000D02*
X169490000Y-114450000D01*
G04 #@! TO.N,Net-(C5-Pad1)*
X145670000Y-113665000D02*
X149225000Y-113665000D01*
X149606000Y-114046000D02*
X152146000Y-114046000D01*
X149225000Y-113665000D02*
X149606000Y-114046000D01*
X152019000Y-113919000D02*
X152146000Y-114046000D01*
X152019000Y-111855000D02*
X152019000Y-113919000D01*
G04 #@! TD*
M02*
