G04 #@! TF.GenerationSoftware,KiCad,Pcbnew,(5.1.9)-1*
G04 #@! TF.CreationDate,2022-03-14T10:23:35-06:00*
G04 #@! TF.ProjectId,SensorBoard,53656e73-6f72-4426-9f61-72642e6b6963,rev?*
G04 #@! TF.SameCoordinates,Original*
G04 #@! TF.FileFunction,Soldermask,Top*
G04 #@! TF.FilePolarity,Negative*
%FSLAX46Y46*%
G04 Gerber Fmt 4.6, Leading zero omitted, Abs format (unit mm)*
G04 Created by KiCad (PCBNEW (5.1.9)-1) date 2022-03-14 10:23:35*
%MOMM*%
%LPD*%
G01*
G04 APERTURE LIST*
%ADD10R,2.794000X0.600000*%
%ADD11O,2.190000X1.740000*%
%ADD12R,2.413000X2.413000*%
%ADD13R,6.756400X6.756400*%
%ADD14R,1.700000X1.700000*%
%ADD15O,1.700000X1.700000*%
%ADD16R,1.600000X1.600000*%
%ADD17O,1.600000X1.600000*%
%ADD18C,2.000000*%
G04 APERTURE END LIST*
G04 #@! TO.C,R24*
G36*
G01*
X152746000Y-113595999D02*
X152746000Y-114496001D01*
G75*
G02*
X152496001Y-114746000I-249999J0D01*
G01*
X151795999Y-114746000D01*
G75*
G02*
X151546000Y-114496001I0J249999D01*
G01*
X151546000Y-113595999D01*
G75*
G02*
X151795999Y-113346000I249999J0D01*
G01*
X152496001Y-113346000D01*
G75*
G02*
X152746000Y-113595999I0J-249999D01*
G01*
G37*
G36*
G01*
X154746000Y-113595999D02*
X154746000Y-114496001D01*
G75*
G02*
X154496001Y-114746000I-249999J0D01*
G01*
X153795999Y-114746000D01*
G75*
G02*
X153546000Y-114496001I0J249999D01*
G01*
X153546000Y-113595999D01*
G75*
G02*
X153795999Y-113346000I249999J0D01*
G01*
X154496001Y-113346000D01*
G75*
G02*
X154746000Y-113595999I0J-249999D01*
G01*
G37*
G04 #@! TD*
G04 #@! TO.C,C5*
G36*
G01*
X152469001Y-110455000D02*
X151568999Y-110455000D01*
G75*
G02*
X151319000Y-110205001I0J249999D01*
G01*
X151319000Y-109504999D01*
G75*
G02*
X151568999Y-109255000I249999J0D01*
G01*
X152469001Y-109255000D01*
G75*
G02*
X152719000Y-109504999I0J-249999D01*
G01*
X152719000Y-110205001D01*
G75*
G02*
X152469001Y-110455000I-249999J0D01*
G01*
G37*
G36*
G01*
X152469001Y-112455000D02*
X151568999Y-112455000D01*
G75*
G02*
X151319000Y-112205001I0J249999D01*
G01*
X151319000Y-111504999D01*
G75*
G02*
X151568999Y-111255000I249999J0D01*
G01*
X152469001Y-111255000D01*
G75*
G02*
X152719000Y-111504999I0J-249999D01*
G01*
X152719000Y-112205001D01*
G75*
G02*
X152469001Y-112455000I-249999J0D01*
G01*
G37*
G04 #@! TD*
D10*
G04 #@! TO.C,U1*
X136270000Y-114935000D03*
X145670000Y-114935000D03*
X136270000Y-113665000D03*
X145670000Y-113665000D03*
X136270000Y-112395000D03*
X145670000Y-112395000D03*
X136270000Y-111125000D03*
X145670000Y-111125000D03*
X136270000Y-109855000D03*
X145670000Y-109855000D03*
X136270000Y-108585000D03*
X145670000Y-108585000D03*
X136270000Y-107315000D03*
X145670000Y-107315000D03*
X136270000Y-106045000D03*
X145670000Y-106045000D03*
X136270000Y-104775000D03*
X145670000Y-104775000D03*
X136270000Y-103505000D03*
X145670000Y-103505000D03*
X136270000Y-102235000D03*
X145670000Y-102235000D03*
X136270000Y-100965000D03*
X145670000Y-100965000D03*
X136270000Y-99695000D03*
X145670000Y-99695000D03*
X136270000Y-98425000D03*
X145670000Y-98425000D03*
G04 #@! TD*
D11*
G04 #@! TO.C,J11*
X165735000Y-140335000D03*
X165735000Y-137795000D03*
X165735000Y-135255000D03*
X165735000Y-132715000D03*
X165735000Y-130175000D03*
G36*
G01*
X164889999Y-126765000D02*
X166580001Y-126765000D01*
G75*
G02*
X166830000Y-127014999I0J-249999D01*
G01*
X166830000Y-128255001D01*
G75*
G02*
X166580001Y-128505000I-249999J0D01*
G01*
X164889999Y-128505000D01*
G75*
G02*
X164640000Y-128255001I0J249999D01*
G01*
X164640000Y-127014999D01*
G75*
G02*
X164889999Y-126765000I249999J0D01*
G01*
G37*
G04 #@! TD*
G04 #@! TO.C,J12*
X175895000Y-140335000D03*
X175895000Y-137795000D03*
X175895000Y-135255000D03*
X175895000Y-132715000D03*
X175895000Y-130175000D03*
G36*
G01*
X175049999Y-126765000D02*
X176740001Y-126765000D01*
G75*
G02*
X176990000Y-127014999I0J-249999D01*
G01*
X176990000Y-128255001D01*
G75*
G02*
X176740001Y-128505000I-249999J0D01*
G01*
X175049999Y-128505000D01*
G75*
G02*
X174800000Y-128255001I0J249999D01*
G01*
X174800000Y-127014999D01*
G75*
G02*
X175049999Y-126765000I249999J0D01*
G01*
G37*
G04 #@! TD*
G04 #@! TO.C,J10*
X155575000Y-140335000D03*
X155575000Y-137795000D03*
X155575000Y-135255000D03*
X155575000Y-132715000D03*
X155575000Y-130175000D03*
G36*
G01*
X154729999Y-126765000D02*
X156420001Y-126765000D01*
G75*
G02*
X156670000Y-127014999I0J-249999D01*
G01*
X156670000Y-128255001D01*
G75*
G02*
X156420001Y-128505000I-249999J0D01*
G01*
X154729999Y-128505000D01*
G75*
G02*
X154480000Y-128255001I0J249999D01*
G01*
X154480000Y-127014999D01*
G75*
G02*
X154729999Y-126765000I249999J0D01*
G01*
G37*
G04 #@! TD*
G04 #@! TO.C,J9*
X145415000Y-140335000D03*
X145415000Y-137795000D03*
X145415000Y-135255000D03*
X145415000Y-132715000D03*
X145415000Y-130175000D03*
G36*
G01*
X144569999Y-126765000D02*
X146260001Y-126765000D01*
G75*
G02*
X146510000Y-127014999I0J-249999D01*
G01*
X146510000Y-128255001D01*
G75*
G02*
X146260001Y-128505000I-249999J0D01*
G01*
X144569999Y-128505000D01*
G75*
G02*
X144320000Y-128255001I0J249999D01*
G01*
X144320000Y-127014999D01*
G75*
G02*
X144569999Y-126765000I249999J0D01*
G01*
G37*
G04 #@! TD*
G04 #@! TO.C,J8*
X135255000Y-140335000D03*
X135255000Y-137795000D03*
X135255000Y-135255000D03*
X135255000Y-132715000D03*
X135255000Y-130175000D03*
G36*
G01*
X134409999Y-126765000D02*
X136100001Y-126765000D01*
G75*
G02*
X136350000Y-127014999I0J-249999D01*
G01*
X136350000Y-128255001D01*
G75*
G02*
X136100001Y-128505000I-249999J0D01*
G01*
X134409999Y-128505000D01*
G75*
G02*
X134160000Y-128255001I0J249999D01*
G01*
X134160000Y-127014999D01*
G75*
G02*
X134409999Y-126765000I249999J0D01*
G01*
G37*
G04 #@! TD*
G04 #@! TO.C,J7*
X125095000Y-140335000D03*
X125095000Y-137795000D03*
X125095000Y-135255000D03*
X125095000Y-132715000D03*
X125095000Y-130175000D03*
G36*
G01*
X124249999Y-126765000D02*
X125940001Y-126765000D01*
G75*
G02*
X126190000Y-127014999I0J-249999D01*
G01*
X126190000Y-128255001D01*
G75*
G02*
X125940001Y-128505000I-249999J0D01*
G01*
X124249999Y-128505000D01*
G75*
G02*
X124000000Y-128255001I0J249999D01*
G01*
X124000000Y-127014999D01*
G75*
G02*
X124249999Y-126765000I249999J0D01*
G01*
G37*
G04 #@! TD*
G04 #@! TO.C,J6*
X114935000Y-140335000D03*
X114935000Y-137795000D03*
X114935000Y-135255000D03*
X114935000Y-132715000D03*
X114935000Y-130175000D03*
G36*
G01*
X114089999Y-126765000D02*
X115780001Y-126765000D01*
G75*
G02*
X116030000Y-127014999I0J-249999D01*
G01*
X116030000Y-128255001D01*
G75*
G02*
X115780001Y-128505000I-249999J0D01*
G01*
X114089999Y-128505000D01*
G75*
G02*
X113840000Y-128255001I0J249999D01*
G01*
X113840000Y-127014999D01*
G75*
G02*
X114089999Y-126765000I249999J0D01*
G01*
G37*
G04 #@! TD*
G04 #@! TO.C,J5*
X104775000Y-140335000D03*
X104775000Y-137795000D03*
X104775000Y-135255000D03*
X104775000Y-132715000D03*
X104775000Y-130175000D03*
G36*
G01*
X103929999Y-126765000D02*
X105620001Y-126765000D01*
G75*
G02*
X105870000Y-127014999I0J-249999D01*
G01*
X105870000Y-128255001D01*
G75*
G02*
X105620001Y-128505000I-249999J0D01*
G01*
X103929999Y-128505000D01*
G75*
G02*
X103680000Y-128255001I0J249999D01*
G01*
X103680000Y-127014999D01*
G75*
G02*
X103929999Y-126765000I249999J0D01*
G01*
G37*
G04 #@! TD*
D12*
G04 #@! TO.C,J1*
X95250000Y-114000000D03*
X95250000Y-108920000D03*
G04 #@! TD*
G04 #@! TO.C,D1*
G36*
G01*
X95016500Y-101294250D02*
X95016500Y-100381750D01*
G75*
G02*
X95260250Y-100138000I243750J0D01*
G01*
X95747750Y-100138000D01*
G75*
G02*
X95991500Y-100381750I0J-243750D01*
G01*
X95991500Y-101294250D01*
G75*
G02*
X95747750Y-101538000I-243750J0D01*
G01*
X95260250Y-101538000D01*
G75*
G02*
X95016500Y-101294250I0J243750D01*
G01*
G37*
G36*
G01*
X93141500Y-101294250D02*
X93141500Y-100381750D01*
G75*
G02*
X93385250Y-100138000I243750J0D01*
G01*
X93872750Y-100138000D01*
G75*
G02*
X94116500Y-100381750I0J-243750D01*
G01*
X94116500Y-101294250D01*
G75*
G02*
X93872750Y-101538000I-243750J0D01*
G01*
X93385250Y-101538000D01*
G75*
G02*
X93141500Y-101294250I0J243750D01*
G01*
G37*
G04 #@! TD*
G04 #@! TO.C,C2*
G36*
G01*
X156394999Y-107096000D02*
X157295001Y-107096000D01*
G75*
G02*
X157545000Y-107345999I0J-249999D01*
G01*
X157545000Y-108046001D01*
G75*
G02*
X157295001Y-108296000I-249999J0D01*
G01*
X156394999Y-108296000D01*
G75*
G02*
X156145000Y-108046001I0J249999D01*
G01*
X156145000Y-107345999D01*
G75*
G02*
X156394999Y-107096000I249999J0D01*
G01*
G37*
G36*
G01*
X156394999Y-105096000D02*
X157295001Y-105096000D01*
G75*
G02*
X157545000Y-105345999I0J-249999D01*
G01*
X157545000Y-106046001D01*
G75*
G02*
X157295001Y-106296000I-249999J0D01*
G01*
X156394999Y-106296000D01*
G75*
G02*
X156145000Y-106046001I0J249999D01*
G01*
X156145000Y-105345999D01*
G75*
G02*
X156394999Y-105096000I249999J0D01*
G01*
G37*
G04 #@! TD*
D13*
G04 #@! TO.C,REF\u002A\u002A*
X186690000Y-139192000D03*
G04 #@! TD*
G04 #@! TO.C,REF\u002A\u002A*
X93980000Y-139192000D03*
G04 #@! TD*
G04 #@! TO.C,REF\u002A\u002A*
X93980000Y-90170000D03*
G04 #@! TD*
G04 #@! TO.C,REF\u002A\u002A*
X186690000Y-90170000D03*
G04 #@! TD*
G04 #@! TO.C,C1*
G36*
G01*
X101403999Y-112144000D02*
X102304001Y-112144000D01*
G75*
G02*
X102554000Y-112393999I0J-249999D01*
G01*
X102554000Y-113094001D01*
G75*
G02*
X102304001Y-113344000I-249999J0D01*
G01*
X101403999Y-113344000D01*
G75*
G02*
X101154000Y-113094001I0J249999D01*
G01*
X101154000Y-112393999D01*
G75*
G02*
X101403999Y-112144000I249999J0D01*
G01*
G37*
G36*
G01*
X101403999Y-110144000D02*
X102304001Y-110144000D01*
G75*
G02*
X102554000Y-110393999I0J-249999D01*
G01*
X102554000Y-111094001D01*
G75*
G02*
X102304001Y-111344000I-249999J0D01*
G01*
X101403999Y-111344000D01*
G75*
G02*
X101154000Y-111094001I0J249999D01*
G01*
X101154000Y-110393999D01*
G75*
G02*
X101403999Y-110144000I249999J0D01*
G01*
G37*
G04 #@! TD*
G04 #@! TO.C,C3*
G36*
G01*
X128466001Y-91024000D02*
X127565999Y-91024000D01*
G75*
G02*
X127316000Y-90774001I0J249999D01*
G01*
X127316000Y-90073999D01*
G75*
G02*
X127565999Y-89824000I249999J0D01*
G01*
X128466001Y-89824000D01*
G75*
G02*
X128716000Y-90073999I0J-249999D01*
G01*
X128716000Y-90774001D01*
G75*
G02*
X128466001Y-91024000I-249999J0D01*
G01*
G37*
G36*
G01*
X128466001Y-93024000D02*
X127565999Y-93024000D01*
G75*
G02*
X127316000Y-92774001I0J249999D01*
G01*
X127316000Y-92073999D01*
G75*
G02*
X127565999Y-91824000I249999J0D01*
G01*
X128466001Y-91824000D01*
G75*
G02*
X128716000Y-92073999I0J-249999D01*
G01*
X128716000Y-92774001D01*
G75*
G02*
X128466001Y-93024000I-249999J0D01*
G01*
G37*
G04 #@! TD*
G04 #@! TO.C,C4*
G36*
G01*
X100295000Y-129089999D02*
X100295000Y-129990001D01*
G75*
G02*
X100045001Y-130240000I-249999J0D01*
G01*
X99344999Y-130240000D01*
G75*
G02*
X99095000Y-129990001I0J249999D01*
G01*
X99095000Y-129089999D01*
G75*
G02*
X99344999Y-128840000I249999J0D01*
G01*
X100045001Y-128840000D01*
G75*
G02*
X100295000Y-129089999I0J-249999D01*
G01*
G37*
G36*
G01*
X98295000Y-129089999D02*
X98295000Y-129990001D01*
G75*
G02*
X98045001Y-130240000I-249999J0D01*
G01*
X97344999Y-130240000D01*
G75*
G02*
X97095000Y-129990001I0J249999D01*
G01*
X97095000Y-129089999D01*
G75*
G02*
X97344999Y-128840000I249999J0D01*
G01*
X98045001Y-128840000D01*
G75*
G02*
X98295000Y-129089999I0J-249999D01*
G01*
G37*
G04 #@! TD*
G04 #@! TO.C,D2*
G36*
G01*
X170001250Y-93832500D02*
X169088750Y-93832500D01*
G75*
G02*
X168845000Y-93588750I0J243750D01*
G01*
X168845000Y-93101250D01*
G75*
G02*
X169088750Y-92857500I243750J0D01*
G01*
X170001250Y-92857500D01*
G75*
G02*
X170245000Y-93101250I0J-243750D01*
G01*
X170245000Y-93588750D01*
G75*
G02*
X170001250Y-93832500I-243750J0D01*
G01*
G37*
G36*
G01*
X170001250Y-91957500D02*
X169088750Y-91957500D01*
G75*
G02*
X168845000Y-91713750I0J243750D01*
G01*
X168845000Y-91226250D01*
G75*
G02*
X169088750Y-90982500I243750J0D01*
G01*
X170001250Y-90982500D01*
G75*
G02*
X170245000Y-91226250I0J-243750D01*
G01*
X170245000Y-91713750D01*
G75*
G02*
X170001250Y-91957500I-243750J0D01*
G01*
G37*
G04 #@! TD*
G04 #@! TO.C,D3*
G36*
G01*
X166826250Y-93832500D02*
X165913750Y-93832500D01*
G75*
G02*
X165670000Y-93588750I0J243750D01*
G01*
X165670000Y-93101250D01*
G75*
G02*
X165913750Y-92857500I243750J0D01*
G01*
X166826250Y-92857500D01*
G75*
G02*
X167070000Y-93101250I0J-243750D01*
G01*
X167070000Y-93588750D01*
G75*
G02*
X166826250Y-93832500I-243750J0D01*
G01*
G37*
G36*
G01*
X166826250Y-91957500D02*
X165913750Y-91957500D01*
G75*
G02*
X165670000Y-91713750I0J243750D01*
G01*
X165670000Y-91226250D01*
G75*
G02*
X165913750Y-90982500I243750J0D01*
G01*
X166826250Y-90982500D01*
G75*
G02*
X167070000Y-91226250I0J-243750D01*
G01*
X167070000Y-91713750D01*
G75*
G02*
X166826250Y-91957500I-243750J0D01*
G01*
G37*
G04 #@! TD*
G04 #@! TO.C,D4*
G36*
G01*
X163651250Y-93832500D02*
X162738750Y-93832500D01*
G75*
G02*
X162495000Y-93588750I0J243750D01*
G01*
X162495000Y-93101250D01*
G75*
G02*
X162738750Y-92857500I243750J0D01*
G01*
X163651250Y-92857500D01*
G75*
G02*
X163895000Y-93101250I0J-243750D01*
G01*
X163895000Y-93588750D01*
G75*
G02*
X163651250Y-93832500I-243750J0D01*
G01*
G37*
G36*
G01*
X163651250Y-91957500D02*
X162738750Y-91957500D01*
G75*
G02*
X162495000Y-91713750I0J243750D01*
G01*
X162495000Y-91226250D01*
G75*
G02*
X162738750Y-90982500I243750J0D01*
G01*
X163651250Y-90982500D01*
G75*
G02*
X163895000Y-91226250I0J-243750D01*
G01*
X163895000Y-91713750D01*
G75*
G02*
X163651250Y-91957500I-243750J0D01*
G01*
G37*
G04 #@! TD*
G04 #@! TO.C,D5*
G36*
G01*
X160476250Y-91957500D02*
X159563750Y-91957500D01*
G75*
G02*
X159320000Y-91713750I0J243750D01*
G01*
X159320000Y-91226250D01*
G75*
G02*
X159563750Y-90982500I243750J0D01*
G01*
X160476250Y-90982500D01*
G75*
G02*
X160720000Y-91226250I0J-243750D01*
G01*
X160720000Y-91713750D01*
G75*
G02*
X160476250Y-91957500I-243750J0D01*
G01*
G37*
G36*
G01*
X160476250Y-93832500D02*
X159563750Y-93832500D01*
G75*
G02*
X159320000Y-93588750I0J243750D01*
G01*
X159320000Y-93101250D01*
G75*
G02*
X159563750Y-92857500I243750J0D01*
G01*
X160476250Y-92857500D01*
G75*
G02*
X160720000Y-93101250I0J-243750D01*
G01*
X160720000Y-93588750D01*
G75*
G02*
X160476250Y-93832500I-243750J0D01*
G01*
G37*
G04 #@! TD*
G04 #@! TO.C,D6*
G36*
G01*
X157301250Y-93832500D02*
X156388750Y-93832500D01*
G75*
G02*
X156145000Y-93588750I0J243750D01*
G01*
X156145000Y-93101250D01*
G75*
G02*
X156388750Y-92857500I243750J0D01*
G01*
X157301250Y-92857500D01*
G75*
G02*
X157545000Y-93101250I0J-243750D01*
G01*
X157545000Y-93588750D01*
G75*
G02*
X157301250Y-93832500I-243750J0D01*
G01*
G37*
G36*
G01*
X157301250Y-91957500D02*
X156388750Y-91957500D01*
G75*
G02*
X156145000Y-91713750I0J243750D01*
G01*
X156145000Y-91226250D01*
G75*
G02*
X156388750Y-90982500I243750J0D01*
G01*
X157301250Y-90982500D01*
G75*
G02*
X157545000Y-91226250I0J-243750D01*
G01*
X157545000Y-91713750D01*
G75*
G02*
X157301250Y-91957500I-243750J0D01*
G01*
G37*
G04 #@! TD*
G04 #@! TO.C,D7*
G36*
G01*
X154126250Y-91957500D02*
X153213750Y-91957500D01*
G75*
G02*
X152970000Y-91713750I0J243750D01*
G01*
X152970000Y-91226250D01*
G75*
G02*
X153213750Y-90982500I243750J0D01*
G01*
X154126250Y-90982500D01*
G75*
G02*
X154370000Y-91226250I0J-243750D01*
G01*
X154370000Y-91713750D01*
G75*
G02*
X154126250Y-91957500I-243750J0D01*
G01*
G37*
G36*
G01*
X154126250Y-93832500D02*
X153213750Y-93832500D01*
G75*
G02*
X152970000Y-93588750I0J243750D01*
G01*
X152970000Y-93101250D01*
G75*
G02*
X153213750Y-92857500I243750J0D01*
G01*
X154126250Y-92857500D01*
G75*
G02*
X154370000Y-93101250I0J-243750D01*
G01*
X154370000Y-93588750D01*
G75*
G02*
X154126250Y-93832500I-243750J0D01*
G01*
G37*
G04 #@! TD*
G04 #@! TO.C,D8*
G36*
G01*
X131012250Y-97515500D02*
X130099750Y-97515500D01*
G75*
G02*
X129856000Y-97271750I0J243750D01*
G01*
X129856000Y-96784250D01*
G75*
G02*
X130099750Y-96540500I243750J0D01*
G01*
X131012250Y-96540500D01*
G75*
G02*
X131256000Y-96784250I0J-243750D01*
G01*
X131256000Y-97271750D01*
G75*
G02*
X131012250Y-97515500I-243750J0D01*
G01*
G37*
G36*
G01*
X131012250Y-95640500D02*
X130099750Y-95640500D01*
G75*
G02*
X129856000Y-95396750I0J243750D01*
G01*
X129856000Y-94909250D01*
G75*
G02*
X130099750Y-94665500I243750J0D01*
G01*
X131012250Y-94665500D01*
G75*
G02*
X131256000Y-94909250I0J-243750D01*
G01*
X131256000Y-95396750D01*
G75*
G02*
X131012250Y-95640500I-243750J0D01*
G01*
G37*
G04 #@! TD*
G04 #@! TO.C,D9*
G36*
G01*
X124003750Y-95524500D02*
X124916250Y-95524500D01*
G75*
G02*
X125160000Y-95768250I0J-243750D01*
G01*
X125160000Y-96255750D01*
G75*
G02*
X124916250Y-96499500I-243750J0D01*
G01*
X124003750Y-96499500D01*
G75*
G02*
X123760000Y-96255750I0J243750D01*
G01*
X123760000Y-95768250D01*
G75*
G02*
X124003750Y-95524500I243750J0D01*
G01*
G37*
G36*
G01*
X124003750Y-97399500D02*
X124916250Y-97399500D01*
G75*
G02*
X125160000Y-97643250I0J-243750D01*
G01*
X125160000Y-98130750D01*
G75*
G02*
X124916250Y-98374500I-243750J0D01*
G01*
X124003750Y-98374500D01*
G75*
G02*
X123760000Y-98130750I0J243750D01*
G01*
X123760000Y-97643250D01*
G75*
G02*
X124003750Y-97399500I243750J0D01*
G01*
G37*
G04 #@! TD*
G04 #@! TO.C,D10*
G36*
G01*
X120955750Y-97399500D02*
X121868250Y-97399500D01*
G75*
G02*
X122112000Y-97643250I0J-243750D01*
G01*
X122112000Y-98130750D01*
G75*
G02*
X121868250Y-98374500I-243750J0D01*
G01*
X120955750Y-98374500D01*
G75*
G02*
X120712000Y-98130750I0J243750D01*
G01*
X120712000Y-97643250D01*
G75*
G02*
X120955750Y-97399500I243750J0D01*
G01*
G37*
G36*
G01*
X120955750Y-95524500D02*
X121868250Y-95524500D01*
G75*
G02*
X122112000Y-95768250I0J-243750D01*
G01*
X122112000Y-96255750D01*
G75*
G02*
X121868250Y-96499500I-243750J0D01*
G01*
X120955750Y-96499500D01*
G75*
G02*
X120712000Y-96255750I0J243750D01*
G01*
X120712000Y-95768250D01*
G75*
G02*
X120955750Y-95524500I243750J0D01*
G01*
G37*
G04 #@! TD*
G04 #@! TO.C,D11*
G36*
G01*
X117907750Y-95524500D02*
X118820250Y-95524500D01*
G75*
G02*
X119064000Y-95768250I0J-243750D01*
G01*
X119064000Y-96255750D01*
G75*
G02*
X118820250Y-96499500I-243750J0D01*
G01*
X117907750Y-96499500D01*
G75*
G02*
X117664000Y-96255750I0J243750D01*
G01*
X117664000Y-95768250D01*
G75*
G02*
X117907750Y-95524500I243750J0D01*
G01*
G37*
G36*
G01*
X117907750Y-97399500D02*
X118820250Y-97399500D01*
G75*
G02*
X119064000Y-97643250I0J-243750D01*
G01*
X119064000Y-98130750D01*
G75*
G02*
X118820250Y-98374500I-243750J0D01*
G01*
X117907750Y-98374500D01*
G75*
G02*
X117664000Y-98130750I0J243750D01*
G01*
X117664000Y-97643250D01*
G75*
G02*
X117907750Y-97399500I243750J0D01*
G01*
G37*
G04 #@! TD*
G04 #@! TO.C,D12*
G36*
G01*
X114859750Y-97399500D02*
X115772250Y-97399500D01*
G75*
G02*
X116016000Y-97643250I0J-243750D01*
G01*
X116016000Y-98130750D01*
G75*
G02*
X115772250Y-98374500I-243750J0D01*
G01*
X114859750Y-98374500D01*
G75*
G02*
X114616000Y-98130750I0J243750D01*
G01*
X114616000Y-97643250D01*
G75*
G02*
X114859750Y-97399500I243750J0D01*
G01*
G37*
G36*
G01*
X114859750Y-95524500D02*
X115772250Y-95524500D01*
G75*
G02*
X116016000Y-95768250I0J-243750D01*
G01*
X116016000Y-96255750D01*
G75*
G02*
X115772250Y-96499500I-243750J0D01*
G01*
X114859750Y-96499500D01*
G75*
G02*
X114616000Y-96255750I0J243750D01*
G01*
X114616000Y-95768250D01*
G75*
G02*
X114859750Y-95524500I243750J0D01*
G01*
G37*
G04 #@! TD*
G04 #@! TO.C,D13*
G36*
G01*
X111811750Y-97399500D02*
X112724250Y-97399500D01*
G75*
G02*
X112968000Y-97643250I0J-243750D01*
G01*
X112968000Y-98130750D01*
G75*
G02*
X112724250Y-98374500I-243750J0D01*
G01*
X111811750Y-98374500D01*
G75*
G02*
X111568000Y-98130750I0J243750D01*
G01*
X111568000Y-97643250D01*
G75*
G02*
X111811750Y-97399500I243750J0D01*
G01*
G37*
G36*
G01*
X111811750Y-95524500D02*
X112724250Y-95524500D01*
G75*
G02*
X112968000Y-95768250I0J-243750D01*
G01*
X112968000Y-96255750D01*
G75*
G02*
X112724250Y-96499500I-243750J0D01*
G01*
X111811750Y-96499500D01*
G75*
G02*
X111568000Y-96255750I0J243750D01*
G01*
X111568000Y-95768250D01*
G75*
G02*
X111811750Y-95524500I243750J0D01*
G01*
G37*
G04 #@! TD*
G04 #@! TO.C,D14*
G36*
G01*
X108763750Y-97399500D02*
X109676250Y-97399500D01*
G75*
G02*
X109920000Y-97643250I0J-243750D01*
G01*
X109920000Y-98130750D01*
G75*
G02*
X109676250Y-98374500I-243750J0D01*
G01*
X108763750Y-98374500D01*
G75*
G02*
X108520000Y-98130750I0J243750D01*
G01*
X108520000Y-97643250D01*
G75*
G02*
X108763750Y-97399500I243750J0D01*
G01*
G37*
G36*
G01*
X108763750Y-95524500D02*
X109676250Y-95524500D01*
G75*
G02*
X109920000Y-95768250I0J-243750D01*
G01*
X109920000Y-96255750D01*
G75*
G02*
X109676250Y-96499500I-243750J0D01*
G01*
X108763750Y-96499500D01*
G75*
G02*
X108520000Y-96255750I0J243750D01*
G01*
X108520000Y-95768250D01*
G75*
G02*
X108763750Y-95524500I243750J0D01*
G01*
G37*
G04 #@! TD*
G04 #@! TO.C,D15*
G36*
G01*
X105715750Y-97399500D02*
X106628250Y-97399500D01*
G75*
G02*
X106872000Y-97643250I0J-243750D01*
G01*
X106872000Y-98130750D01*
G75*
G02*
X106628250Y-98374500I-243750J0D01*
G01*
X105715750Y-98374500D01*
G75*
G02*
X105472000Y-98130750I0J243750D01*
G01*
X105472000Y-97643250D01*
G75*
G02*
X105715750Y-97399500I243750J0D01*
G01*
G37*
G36*
G01*
X105715750Y-95524500D02*
X106628250Y-95524500D01*
G75*
G02*
X106872000Y-95768250I0J-243750D01*
G01*
X106872000Y-96255750D01*
G75*
G02*
X106628250Y-96499500I-243750J0D01*
G01*
X105715750Y-96499500D01*
G75*
G02*
X105472000Y-96255750I0J243750D01*
G01*
X105472000Y-95768250D01*
G75*
G02*
X105715750Y-95524500I243750J0D01*
G01*
G37*
G04 #@! TD*
G04 #@! TO.C,D16*
G36*
G01*
X102667750Y-95524500D02*
X103580250Y-95524500D01*
G75*
G02*
X103824000Y-95768250I0J-243750D01*
G01*
X103824000Y-96255750D01*
G75*
G02*
X103580250Y-96499500I-243750J0D01*
G01*
X102667750Y-96499500D01*
G75*
G02*
X102424000Y-96255750I0J243750D01*
G01*
X102424000Y-95768250D01*
G75*
G02*
X102667750Y-95524500I243750J0D01*
G01*
G37*
G36*
G01*
X102667750Y-97399500D02*
X103580250Y-97399500D01*
G75*
G02*
X103824000Y-97643250I0J-243750D01*
G01*
X103824000Y-98130750D01*
G75*
G02*
X103580250Y-98374500I-243750J0D01*
G01*
X102667750Y-98374500D01*
G75*
G02*
X102424000Y-98130750I0J243750D01*
G01*
X102424000Y-97643250D01*
G75*
G02*
X102667750Y-97399500I243750J0D01*
G01*
G37*
G04 #@! TD*
D11*
G04 #@! TO.C,J2*
X107188000Y-115570000D03*
X107188000Y-113030000D03*
X107188000Y-110490000D03*
G36*
G01*
X106342999Y-107080000D02*
X108033001Y-107080000D01*
G75*
G02*
X108283000Y-107329999I0J-249999D01*
G01*
X108283000Y-108570001D01*
G75*
G02*
X108033001Y-108820000I-249999J0D01*
G01*
X106342999Y-108820000D01*
G75*
G02*
X106093000Y-108570001I0J249999D01*
G01*
X106093000Y-107329999D01*
G75*
G02*
X106342999Y-107080000I249999J0D01*
G01*
G37*
G04 #@! TD*
D14*
G04 #@! TO.C,J3*
X134620000Y-92710000D03*
D15*
X137160000Y-92710000D03*
X139700000Y-92710000D03*
X142240000Y-92710000D03*
X144780000Y-92710000D03*
X147320000Y-92710000D03*
G04 #@! TD*
G04 #@! TO.C,J4*
G36*
G01*
X115994999Y-107080000D02*
X117685001Y-107080000D01*
G75*
G02*
X117935000Y-107329999I0J-249999D01*
G01*
X117935000Y-108570001D01*
G75*
G02*
X117685001Y-108820000I-249999J0D01*
G01*
X115994999Y-108820000D01*
G75*
G02*
X115745000Y-108570001I0J249999D01*
G01*
X115745000Y-107329999D01*
G75*
G02*
X115994999Y-107080000I249999J0D01*
G01*
G37*
D11*
X116840000Y-110490000D03*
X116840000Y-113030000D03*
X116840000Y-115570000D03*
G04 #@! TD*
D14*
G04 #@! TO.C,JP1*
X170180000Y-120650000D03*
D15*
X167640000Y-120650000D03*
G04 #@! TD*
D14*
G04 #@! TO.C,JP2*
X127127000Y-119888000D03*
D15*
X127127000Y-122428000D03*
G04 #@! TD*
G04 #@! TO.C,JP3*
X130810000Y-122428000D03*
D14*
X130810000Y-119888000D03*
G04 #@! TD*
G04 #@! TO.C,JP4*
X134620000Y-119888000D03*
D15*
X134620000Y-122428000D03*
G04 #@! TD*
D14*
G04 #@! TO.C,JP5*
X138430000Y-119888000D03*
D15*
X138430000Y-122428000D03*
G04 #@! TD*
G04 #@! TO.C,JP6*
X142240000Y-122428000D03*
D14*
X142240000Y-119888000D03*
G04 #@! TD*
D15*
G04 #@! TO.C,JP7*
X146050000Y-122428000D03*
D14*
X146050000Y-119888000D03*
G04 #@! TD*
D15*
G04 #@! TO.C,JP8*
X149860000Y-122428000D03*
D14*
X149860000Y-119888000D03*
G04 #@! TD*
D15*
G04 #@! TO.C,JP9*
X153670000Y-122428000D03*
D14*
X153670000Y-119888000D03*
G04 #@! TD*
G04 #@! TO.C,R1*
G36*
G01*
X92872000Y-103828001D02*
X92872000Y-102927999D01*
G75*
G02*
X93121999Y-102678000I249999J0D01*
G01*
X93822001Y-102678000D01*
G75*
G02*
X94072000Y-102927999I0J-249999D01*
G01*
X94072000Y-103828001D01*
G75*
G02*
X93822001Y-104078000I-249999J0D01*
G01*
X93121999Y-104078000D01*
G75*
G02*
X92872000Y-103828001I0J249999D01*
G01*
G37*
G36*
G01*
X94872000Y-103828001D02*
X94872000Y-102927999D01*
G75*
G02*
X95121999Y-102678000I249999J0D01*
G01*
X95822001Y-102678000D01*
G75*
G02*
X96072000Y-102927999I0J-249999D01*
G01*
X96072000Y-103828001D01*
G75*
G02*
X95822001Y-104078000I-249999J0D01*
G01*
X95121999Y-104078000D01*
G75*
G02*
X94872000Y-103828001I0J249999D01*
G01*
G37*
G04 #@! TD*
G04 #@! TO.C,R2*
G36*
G01*
X130105999Y-89824000D02*
X131006001Y-89824000D01*
G75*
G02*
X131256000Y-90073999I0J-249999D01*
G01*
X131256000Y-90774001D01*
G75*
G02*
X131006001Y-91024000I-249999J0D01*
G01*
X130105999Y-91024000D01*
G75*
G02*
X129856000Y-90774001I0J249999D01*
G01*
X129856000Y-90073999D01*
G75*
G02*
X130105999Y-89824000I249999J0D01*
G01*
G37*
G36*
G01*
X130105999Y-91824000D02*
X131006001Y-91824000D01*
G75*
G02*
X131256000Y-92073999I0J-249999D01*
G01*
X131256000Y-92774001D01*
G75*
G02*
X131006001Y-93024000I-249999J0D01*
G01*
X130105999Y-93024000D01*
G75*
G02*
X129856000Y-92774001I0J249999D01*
G01*
X129856000Y-92073999D01*
G75*
G02*
X130105999Y-91824000I249999J0D01*
G01*
G37*
G04 #@! TD*
G04 #@! TO.C,R3*
G36*
G01*
X125060000Y-110039999D02*
X125060000Y-110940001D01*
G75*
G02*
X124810001Y-111190000I-249999J0D01*
G01*
X124109999Y-111190000D01*
G75*
G02*
X123860000Y-110940001I0J249999D01*
G01*
X123860000Y-110039999D01*
G75*
G02*
X124109999Y-109790000I249999J0D01*
G01*
X124810001Y-109790000D01*
G75*
G02*
X125060000Y-110039999I0J-249999D01*
G01*
G37*
G36*
G01*
X123060000Y-110039999D02*
X123060000Y-110940001D01*
G75*
G02*
X122810001Y-111190000I-249999J0D01*
G01*
X122109999Y-111190000D01*
G75*
G02*
X121860000Y-110940001I0J249999D01*
G01*
X121860000Y-110039999D01*
G75*
G02*
X122109999Y-109790000I249999J0D01*
G01*
X122810001Y-109790000D01*
G75*
G02*
X123060000Y-110039999I0J-249999D01*
G01*
G37*
G04 #@! TD*
G04 #@! TO.C,R4*
G36*
G01*
X123060000Y-112579999D02*
X123060000Y-113480001D01*
G75*
G02*
X122810001Y-113730000I-249999J0D01*
G01*
X122109999Y-113730000D01*
G75*
G02*
X121860000Y-113480001I0J249999D01*
G01*
X121860000Y-112579999D01*
G75*
G02*
X122109999Y-112330000I249999J0D01*
G01*
X122810001Y-112330000D01*
G75*
G02*
X123060000Y-112579999I0J-249999D01*
G01*
G37*
G36*
G01*
X125060000Y-112579999D02*
X125060000Y-113480001D01*
G75*
G02*
X124810001Y-113730000I-249999J0D01*
G01*
X124109999Y-113730000D01*
G75*
G02*
X123860000Y-113480001I0J249999D01*
G01*
X123860000Y-112579999D01*
G75*
G02*
X124109999Y-112330000I249999J0D01*
G01*
X124810001Y-112330000D01*
G75*
G02*
X125060000Y-112579999I0J-249999D01*
G01*
G37*
G04 #@! TD*
G04 #@! TO.C,R5*
G36*
G01*
X169094999Y-95190000D02*
X169995001Y-95190000D01*
G75*
G02*
X170245000Y-95439999I0J-249999D01*
G01*
X170245000Y-96140001D01*
G75*
G02*
X169995001Y-96390000I-249999J0D01*
G01*
X169094999Y-96390000D01*
G75*
G02*
X168845000Y-96140001I0J249999D01*
G01*
X168845000Y-95439999D01*
G75*
G02*
X169094999Y-95190000I249999J0D01*
G01*
G37*
G36*
G01*
X169094999Y-97190000D02*
X169995001Y-97190000D01*
G75*
G02*
X170245000Y-97439999I0J-249999D01*
G01*
X170245000Y-98140001D01*
G75*
G02*
X169995001Y-98390000I-249999J0D01*
G01*
X169094999Y-98390000D01*
G75*
G02*
X168845000Y-98140001I0J249999D01*
G01*
X168845000Y-97439999D01*
G75*
G02*
X169094999Y-97190000I249999J0D01*
G01*
G37*
G04 #@! TD*
G04 #@! TO.C,R6*
G36*
G01*
X165919999Y-97190000D02*
X166820001Y-97190000D01*
G75*
G02*
X167070000Y-97439999I0J-249999D01*
G01*
X167070000Y-98140001D01*
G75*
G02*
X166820001Y-98390000I-249999J0D01*
G01*
X165919999Y-98390000D01*
G75*
G02*
X165670000Y-98140001I0J249999D01*
G01*
X165670000Y-97439999D01*
G75*
G02*
X165919999Y-97190000I249999J0D01*
G01*
G37*
G36*
G01*
X165919999Y-95190000D02*
X166820001Y-95190000D01*
G75*
G02*
X167070000Y-95439999I0J-249999D01*
G01*
X167070000Y-96140001D01*
G75*
G02*
X166820001Y-96390000I-249999J0D01*
G01*
X165919999Y-96390000D01*
G75*
G02*
X165670000Y-96140001I0J249999D01*
G01*
X165670000Y-95439999D01*
G75*
G02*
X165919999Y-95190000I249999J0D01*
G01*
G37*
G04 #@! TD*
G04 #@! TO.C,R7*
G36*
G01*
X162744999Y-95190000D02*
X163645001Y-95190000D01*
G75*
G02*
X163895000Y-95439999I0J-249999D01*
G01*
X163895000Y-96140001D01*
G75*
G02*
X163645001Y-96390000I-249999J0D01*
G01*
X162744999Y-96390000D01*
G75*
G02*
X162495000Y-96140001I0J249999D01*
G01*
X162495000Y-95439999D01*
G75*
G02*
X162744999Y-95190000I249999J0D01*
G01*
G37*
G36*
G01*
X162744999Y-97190000D02*
X163645001Y-97190000D01*
G75*
G02*
X163895000Y-97439999I0J-249999D01*
G01*
X163895000Y-98140001D01*
G75*
G02*
X163645001Y-98390000I-249999J0D01*
G01*
X162744999Y-98390000D01*
G75*
G02*
X162495000Y-98140001I0J249999D01*
G01*
X162495000Y-97439999D01*
G75*
G02*
X162744999Y-97190000I249999J0D01*
G01*
G37*
G04 #@! TD*
G04 #@! TO.C,R8*
G36*
G01*
X159569999Y-97190000D02*
X160470001Y-97190000D01*
G75*
G02*
X160720000Y-97439999I0J-249999D01*
G01*
X160720000Y-98140001D01*
G75*
G02*
X160470001Y-98390000I-249999J0D01*
G01*
X159569999Y-98390000D01*
G75*
G02*
X159320000Y-98140001I0J249999D01*
G01*
X159320000Y-97439999D01*
G75*
G02*
X159569999Y-97190000I249999J0D01*
G01*
G37*
G36*
G01*
X159569999Y-95190000D02*
X160470001Y-95190000D01*
G75*
G02*
X160720000Y-95439999I0J-249999D01*
G01*
X160720000Y-96140001D01*
G75*
G02*
X160470001Y-96390000I-249999J0D01*
G01*
X159569999Y-96390000D01*
G75*
G02*
X159320000Y-96140001I0J249999D01*
G01*
X159320000Y-95439999D01*
G75*
G02*
X159569999Y-95190000I249999J0D01*
G01*
G37*
G04 #@! TD*
G04 #@! TO.C,R9*
G36*
G01*
X156394999Y-95190000D02*
X157295001Y-95190000D01*
G75*
G02*
X157545000Y-95439999I0J-249999D01*
G01*
X157545000Y-96140001D01*
G75*
G02*
X157295001Y-96390000I-249999J0D01*
G01*
X156394999Y-96390000D01*
G75*
G02*
X156145000Y-96140001I0J249999D01*
G01*
X156145000Y-95439999D01*
G75*
G02*
X156394999Y-95190000I249999J0D01*
G01*
G37*
G36*
G01*
X156394999Y-97190000D02*
X157295001Y-97190000D01*
G75*
G02*
X157545000Y-97439999I0J-249999D01*
G01*
X157545000Y-98140001D01*
G75*
G02*
X157295001Y-98390000I-249999J0D01*
G01*
X156394999Y-98390000D01*
G75*
G02*
X156145000Y-98140001I0J249999D01*
G01*
X156145000Y-97439999D01*
G75*
G02*
X156394999Y-97190000I249999J0D01*
G01*
G37*
G04 #@! TD*
G04 #@! TO.C,R10*
G36*
G01*
X153219999Y-97190000D02*
X154120001Y-97190000D01*
G75*
G02*
X154370000Y-97439999I0J-249999D01*
G01*
X154370000Y-98140001D01*
G75*
G02*
X154120001Y-98390000I-249999J0D01*
G01*
X153219999Y-98390000D01*
G75*
G02*
X152970000Y-98140001I0J249999D01*
G01*
X152970000Y-97439999D01*
G75*
G02*
X153219999Y-97190000I249999J0D01*
G01*
G37*
G36*
G01*
X153219999Y-95190000D02*
X154120001Y-95190000D01*
G75*
G02*
X154370000Y-95439999I0J-249999D01*
G01*
X154370000Y-96140001D01*
G75*
G02*
X154120001Y-96390000I-249999J0D01*
G01*
X153219999Y-96390000D01*
G75*
G02*
X152970000Y-96140001I0J249999D01*
G01*
X152970000Y-95439999D01*
G75*
G02*
X153219999Y-95190000I249999J0D01*
G01*
G37*
G04 #@! TD*
G04 #@! TO.C,R11*
G36*
G01*
X180778999Y-120050000D02*
X181679001Y-120050000D01*
G75*
G02*
X181929000Y-120299999I0J-249999D01*
G01*
X181929000Y-121000001D01*
G75*
G02*
X181679001Y-121250000I-249999J0D01*
G01*
X180778999Y-121250000D01*
G75*
G02*
X180529000Y-121000001I0J249999D01*
G01*
X180529000Y-120299999D01*
G75*
G02*
X180778999Y-120050000I249999J0D01*
G01*
G37*
G36*
G01*
X180778999Y-122050000D02*
X181679001Y-122050000D01*
G75*
G02*
X181929000Y-122299999I0J-249999D01*
G01*
X181929000Y-123000001D01*
G75*
G02*
X181679001Y-123250000I-249999J0D01*
G01*
X180778999Y-123250000D01*
G75*
G02*
X180529000Y-123000001I0J249999D01*
G01*
X180529000Y-122299999D01*
G75*
G02*
X180778999Y-122050000I249999J0D01*
G01*
G37*
G04 #@! TD*
G04 #@! TO.C,R12*
G36*
G01*
X177349999Y-122050000D02*
X178250001Y-122050000D01*
G75*
G02*
X178500000Y-122299999I0J-249999D01*
G01*
X178500000Y-123000001D01*
G75*
G02*
X178250001Y-123250000I-249999J0D01*
G01*
X177349999Y-123250000D01*
G75*
G02*
X177100000Y-123000001I0J249999D01*
G01*
X177100000Y-122299999D01*
G75*
G02*
X177349999Y-122050000I249999J0D01*
G01*
G37*
G36*
G01*
X177349999Y-120050000D02*
X178250001Y-120050000D01*
G75*
G02*
X178500000Y-120299999I0J-249999D01*
G01*
X178500000Y-121000001D01*
G75*
G02*
X178250001Y-121250000I-249999J0D01*
G01*
X177349999Y-121250000D01*
G75*
G02*
X177100000Y-121000001I0J249999D01*
G01*
X177100000Y-120299999D01*
G75*
G02*
X177349999Y-120050000I249999J0D01*
G01*
G37*
G04 #@! TD*
G04 #@! TO.C,R13*
G36*
G01*
X157295001Y-112455000D02*
X156394999Y-112455000D01*
G75*
G02*
X156145000Y-112205001I0J249999D01*
G01*
X156145000Y-111504999D01*
G75*
G02*
X156394999Y-111255000I249999J0D01*
G01*
X157295001Y-111255000D01*
G75*
G02*
X157545000Y-111504999I0J-249999D01*
G01*
X157545000Y-112205001D01*
G75*
G02*
X157295001Y-112455000I-249999J0D01*
G01*
G37*
G36*
G01*
X157295001Y-110455000D02*
X156394999Y-110455000D01*
G75*
G02*
X156145000Y-110205001I0J249999D01*
G01*
X156145000Y-109504999D01*
G75*
G02*
X156394999Y-109255000I249999J0D01*
G01*
X157295001Y-109255000D01*
G75*
G02*
X157545000Y-109504999I0J-249999D01*
G01*
X157545000Y-110205001D01*
G75*
G02*
X157295001Y-110455000I-249999J0D01*
G01*
G37*
G04 #@! TD*
G04 #@! TO.C,R14*
G36*
G01*
X154882001Y-110455000D02*
X153981999Y-110455000D01*
G75*
G02*
X153732000Y-110205001I0J249999D01*
G01*
X153732000Y-109504999D01*
G75*
G02*
X153981999Y-109255000I249999J0D01*
G01*
X154882001Y-109255000D01*
G75*
G02*
X155132000Y-109504999I0J-249999D01*
G01*
X155132000Y-110205001D01*
G75*
G02*
X154882001Y-110455000I-249999J0D01*
G01*
G37*
G36*
G01*
X154882001Y-112455000D02*
X153981999Y-112455000D01*
G75*
G02*
X153732000Y-112205001I0J249999D01*
G01*
X153732000Y-111504999D01*
G75*
G02*
X153981999Y-111255000I249999J0D01*
G01*
X154882001Y-111255000D01*
G75*
G02*
X155132000Y-111504999I0J-249999D01*
G01*
X155132000Y-112205001D01*
G75*
G02*
X154882001Y-112455000I-249999J0D01*
G01*
G37*
G04 #@! TD*
G04 #@! TO.C,R15*
G36*
G01*
X150056001Y-110455000D02*
X149155999Y-110455000D01*
G75*
G02*
X148906000Y-110205001I0J249999D01*
G01*
X148906000Y-109504999D01*
G75*
G02*
X149155999Y-109255000I249999J0D01*
G01*
X150056001Y-109255000D01*
G75*
G02*
X150306000Y-109504999I0J-249999D01*
G01*
X150306000Y-110205001D01*
G75*
G02*
X150056001Y-110455000I-249999J0D01*
G01*
G37*
G36*
G01*
X150056001Y-112455000D02*
X149155999Y-112455000D01*
G75*
G02*
X148906000Y-112205001I0J249999D01*
G01*
X148906000Y-111504999D01*
G75*
G02*
X149155999Y-111255000I249999J0D01*
G01*
X150056001Y-111255000D01*
G75*
G02*
X150306000Y-111504999I0J-249999D01*
G01*
X150306000Y-112205001D01*
G75*
G02*
X150056001Y-112455000I-249999J0D01*
G01*
G37*
G04 #@! TD*
G04 #@! TO.C,R16*
G36*
G01*
X124910001Y-94072000D02*
X124009999Y-94072000D01*
G75*
G02*
X123760000Y-93822001I0J249999D01*
G01*
X123760000Y-93121999D01*
G75*
G02*
X124009999Y-92872000I249999J0D01*
G01*
X124910001Y-92872000D01*
G75*
G02*
X125160000Y-93121999I0J-249999D01*
G01*
X125160000Y-93822001D01*
G75*
G02*
X124910001Y-94072000I-249999J0D01*
G01*
G37*
G36*
G01*
X124910001Y-92072000D02*
X124009999Y-92072000D01*
G75*
G02*
X123760000Y-91822001I0J249999D01*
G01*
X123760000Y-91121999D01*
G75*
G02*
X124009999Y-90872000I249999J0D01*
G01*
X124910001Y-90872000D01*
G75*
G02*
X125160000Y-91121999I0J-249999D01*
G01*
X125160000Y-91822001D01*
G75*
G02*
X124910001Y-92072000I-249999J0D01*
G01*
G37*
G04 #@! TD*
G04 #@! TO.C,R17*
G36*
G01*
X121862001Y-92072000D02*
X120961999Y-92072000D01*
G75*
G02*
X120712000Y-91822001I0J249999D01*
G01*
X120712000Y-91121999D01*
G75*
G02*
X120961999Y-90872000I249999J0D01*
G01*
X121862001Y-90872000D01*
G75*
G02*
X122112000Y-91121999I0J-249999D01*
G01*
X122112000Y-91822001D01*
G75*
G02*
X121862001Y-92072000I-249999J0D01*
G01*
G37*
G36*
G01*
X121862001Y-94072000D02*
X120961999Y-94072000D01*
G75*
G02*
X120712000Y-93822001I0J249999D01*
G01*
X120712000Y-93121999D01*
G75*
G02*
X120961999Y-92872000I249999J0D01*
G01*
X121862001Y-92872000D01*
G75*
G02*
X122112000Y-93121999I0J-249999D01*
G01*
X122112000Y-93822001D01*
G75*
G02*
X121862001Y-94072000I-249999J0D01*
G01*
G37*
G04 #@! TD*
G04 #@! TO.C,R18*
G36*
G01*
X118814001Y-92072000D02*
X117913999Y-92072000D01*
G75*
G02*
X117664000Y-91822001I0J249999D01*
G01*
X117664000Y-91121999D01*
G75*
G02*
X117913999Y-90872000I249999J0D01*
G01*
X118814001Y-90872000D01*
G75*
G02*
X119064000Y-91121999I0J-249999D01*
G01*
X119064000Y-91822001D01*
G75*
G02*
X118814001Y-92072000I-249999J0D01*
G01*
G37*
G36*
G01*
X118814001Y-94072000D02*
X117913999Y-94072000D01*
G75*
G02*
X117664000Y-93822001I0J249999D01*
G01*
X117664000Y-93121999D01*
G75*
G02*
X117913999Y-92872000I249999J0D01*
G01*
X118814001Y-92872000D01*
G75*
G02*
X119064000Y-93121999I0J-249999D01*
G01*
X119064000Y-93822001D01*
G75*
G02*
X118814001Y-94072000I-249999J0D01*
G01*
G37*
G04 #@! TD*
G04 #@! TO.C,R19*
G36*
G01*
X115766001Y-94072000D02*
X114865999Y-94072000D01*
G75*
G02*
X114616000Y-93822001I0J249999D01*
G01*
X114616000Y-93121999D01*
G75*
G02*
X114865999Y-92872000I249999J0D01*
G01*
X115766001Y-92872000D01*
G75*
G02*
X116016000Y-93121999I0J-249999D01*
G01*
X116016000Y-93822001D01*
G75*
G02*
X115766001Y-94072000I-249999J0D01*
G01*
G37*
G36*
G01*
X115766001Y-92072000D02*
X114865999Y-92072000D01*
G75*
G02*
X114616000Y-91822001I0J249999D01*
G01*
X114616000Y-91121999D01*
G75*
G02*
X114865999Y-90872000I249999J0D01*
G01*
X115766001Y-90872000D01*
G75*
G02*
X116016000Y-91121999I0J-249999D01*
G01*
X116016000Y-91822001D01*
G75*
G02*
X115766001Y-92072000I-249999J0D01*
G01*
G37*
G04 #@! TD*
G04 #@! TO.C,R20*
G36*
G01*
X112718001Y-92072000D02*
X111817999Y-92072000D01*
G75*
G02*
X111568000Y-91822001I0J249999D01*
G01*
X111568000Y-91121999D01*
G75*
G02*
X111817999Y-90872000I249999J0D01*
G01*
X112718001Y-90872000D01*
G75*
G02*
X112968000Y-91121999I0J-249999D01*
G01*
X112968000Y-91822001D01*
G75*
G02*
X112718001Y-92072000I-249999J0D01*
G01*
G37*
G36*
G01*
X112718001Y-94072000D02*
X111817999Y-94072000D01*
G75*
G02*
X111568000Y-93822001I0J249999D01*
G01*
X111568000Y-93121999D01*
G75*
G02*
X111817999Y-92872000I249999J0D01*
G01*
X112718001Y-92872000D01*
G75*
G02*
X112968000Y-93121999I0J-249999D01*
G01*
X112968000Y-93822001D01*
G75*
G02*
X112718001Y-94072000I-249999J0D01*
G01*
G37*
G04 #@! TD*
G04 #@! TO.C,R21*
G36*
G01*
X109670001Y-94072000D02*
X108769999Y-94072000D01*
G75*
G02*
X108520000Y-93822001I0J249999D01*
G01*
X108520000Y-93121999D01*
G75*
G02*
X108769999Y-92872000I249999J0D01*
G01*
X109670001Y-92872000D01*
G75*
G02*
X109920000Y-93121999I0J-249999D01*
G01*
X109920000Y-93822001D01*
G75*
G02*
X109670001Y-94072000I-249999J0D01*
G01*
G37*
G36*
G01*
X109670001Y-92072000D02*
X108769999Y-92072000D01*
G75*
G02*
X108520000Y-91822001I0J249999D01*
G01*
X108520000Y-91121999D01*
G75*
G02*
X108769999Y-90872000I249999J0D01*
G01*
X109670001Y-90872000D01*
G75*
G02*
X109920000Y-91121999I0J-249999D01*
G01*
X109920000Y-91822001D01*
G75*
G02*
X109670001Y-92072000I-249999J0D01*
G01*
G37*
G04 #@! TD*
G04 #@! TO.C,R22*
G36*
G01*
X106622001Y-94072000D02*
X105721999Y-94072000D01*
G75*
G02*
X105472000Y-93822001I0J249999D01*
G01*
X105472000Y-93121999D01*
G75*
G02*
X105721999Y-92872000I249999J0D01*
G01*
X106622001Y-92872000D01*
G75*
G02*
X106872000Y-93121999I0J-249999D01*
G01*
X106872000Y-93822001D01*
G75*
G02*
X106622001Y-94072000I-249999J0D01*
G01*
G37*
G36*
G01*
X106622001Y-92072000D02*
X105721999Y-92072000D01*
G75*
G02*
X105472000Y-91822001I0J249999D01*
G01*
X105472000Y-91121999D01*
G75*
G02*
X105721999Y-90872000I249999J0D01*
G01*
X106622001Y-90872000D01*
G75*
G02*
X106872000Y-91121999I0J-249999D01*
G01*
X106872000Y-91822001D01*
G75*
G02*
X106622001Y-92072000I-249999J0D01*
G01*
G37*
G04 #@! TD*
G04 #@! TO.C,R23*
G36*
G01*
X103574001Y-94072000D02*
X102673999Y-94072000D01*
G75*
G02*
X102424000Y-93822001I0J249999D01*
G01*
X102424000Y-93121999D01*
G75*
G02*
X102673999Y-92872000I249999J0D01*
G01*
X103574001Y-92872000D01*
G75*
G02*
X103824000Y-93121999I0J-249999D01*
G01*
X103824000Y-93822001D01*
G75*
G02*
X103574001Y-94072000I-249999J0D01*
G01*
G37*
G36*
G01*
X103574001Y-92072000D02*
X102673999Y-92072000D01*
G75*
G02*
X102424000Y-91822001I0J249999D01*
G01*
X102424000Y-91121999D01*
G75*
G02*
X102673999Y-90872000I249999J0D01*
G01*
X103574001Y-90872000D01*
G75*
G02*
X103824000Y-91121999I0J-249999D01*
G01*
X103824000Y-91822001D01*
G75*
G02*
X103574001Y-92072000I-249999J0D01*
G01*
G37*
G04 #@! TD*
D16*
G04 #@! TO.C,SW1*
X187452000Y-113665000D03*
D17*
X179832000Y-100965000D03*
X187452000Y-111125000D03*
X179832000Y-103505000D03*
X187452000Y-108585000D03*
X179832000Y-106045000D03*
X187452000Y-106045000D03*
X179832000Y-108585000D03*
X187452000Y-103505000D03*
X179832000Y-111125000D03*
X187452000Y-100965000D03*
X179832000Y-113665000D03*
G04 #@! TD*
D18*
G04 #@! TO.C,SW2*
X161235000Y-107950000D03*
X165735000Y-107950000D03*
X161235000Y-114450000D03*
X165735000Y-114450000D03*
G04 #@! TD*
G04 #@! TO.C,SW3*
X173990000Y-114450000D03*
X169490000Y-114450000D03*
X173990000Y-107950000D03*
X169490000Y-107950000D03*
G04 #@! TD*
M02*
