G04 #@! TF.GenerationSoftware,KiCad,Pcbnew,(5.1.9)-1*
G04 #@! TF.CreationDate,2022-03-14T10:23:35-06:00*
G04 #@! TF.ProjectId,SensorBoard,53656e73-6f72-4426-9f61-72642e6b6963,rev?*
G04 #@! TF.SameCoordinates,Original*
G04 #@! TF.FileFunction,Copper,L2,Bot*
G04 #@! TF.FilePolarity,Positive*
%FSLAX46Y46*%
G04 Gerber Fmt 4.6, Leading zero omitted, Abs format (unit mm)*
G04 Created by KiCad (PCBNEW (5.1.9)-1) date 2022-03-14 10:23:35*
%MOMM*%
%LPD*%
G01*
G04 APERTURE LIST*
G04 #@! TA.AperFunction,ComponentPad*
%ADD10O,2.190000X1.740000*%
G04 #@! TD*
G04 #@! TA.AperFunction,ComponentPad*
%ADD11R,2.413000X2.413000*%
G04 #@! TD*
G04 #@! TA.AperFunction,ComponentPad*
%ADD12R,6.756400X6.756400*%
G04 #@! TD*
G04 #@! TA.AperFunction,ComponentPad*
%ADD13R,1.700000X1.700000*%
G04 #@! TD*
G04 #@! TA.AperFunction,ComponentPad*
%ADD14O,1.700000X1.700000*%
G04 #@! TD*
G04 #@! TA.AperFunction,ComponentPad*
%ADD15R,1.600000X1.600000*%
G04 #@! TD*
G04 #@! TA.AperFunction,ComponentPad*
%ADD16O,1.600000X1.600000*%
G04 #@! TD*
G04 #@! TA.AperFunction,ComponentPad*
%ADD17C,2.000000*%
G04 #@! TD*
G04 #@! TA.AperFunction,ViaPad*
%ADD18C,0.762000*%
G04 #@! TD*
G04 #@! TA.AperFunction,ViaPad*
%ADD19C,0.660400*%
G04 #@! TD*
G04 #@! TA.AperFunction,Conductor*
%ADD20C,0.508000*%
G04 #@! TD*
G04 #@! TA.AperFunction,Conductor*
%ADD21C,0.203200*%
G04 #@! TD*
G04 #@! TA.AperFunction,Conductor*
%ADD22C,0.254000*%
G04 #@! TD*
G04 #@! TA.AperFunction,Conductor*
%ADD23C,0.100000*%
G04 #@! TD*
G04 APERTURE END LIST*
D10*
G04 #@! TO.P,J11,6*
G04 #@! TO.N,Net-(J11-Pad6)*
X165735000Y-140335000D03*
G04 #@! TO.P,J11,5*
G04 #@! TO.N,GND*
X165735000Y-137795000D03*
G04 #@! TO.P,J11,4*
X165735000Y-135255000D03*
G04 #@! TO.P,J11,3*
G04 #@! TO.N,Net-(J11-Pad3)*
X165735000Y-132715000D03*
G04 #@! TO.P,J11,2*
G04 #@! TO.N,SDA2*
X165735000Y-130175000D03*
G04 #@! TO.P,J11,1*
G04 #@! TO.N,+5V*
G04 #@! TA.AperFunction,ComponentPad*
G36*
G01*
X164889999Y-126765000D02*
X166580001Y-126765000D01*
G75*
G02*
X166830000Y-127014999I0J-249999D01*
G01*
X166830000Y-128255001D01*
G75*
G02*
X166580001Y-128505000I-249999J0D01*
G01*
X164889999Y-128505000D01*
G75*
G02*
X164640000Y-128255001I0J249999D01*
G01*
X164640000Y-127014999D01*
G75*
G02*
X164889999Y-126765000I249999J0D01*
G01*
G37*
G04 #@! TD.AperFunction*
G04 #@! TD*
G04 #@! TO.P,J12,6*
G04 #@! TO.N,Net-(J12-Pad6)*
X175895000Y-140335000D03*
G04 #@! TO.P,J12,5*
G04 #@! TO.N,GND*
X175895000Y-137795000D03*
G04 #@! TO.P,J12,4*
X175895000Y-135255000D03*
G04 #@! TO.P,J12,3*
G04 #@! TO.N,Net-(J12-Pad3)*
X175895000Y-132715000D03*
G04 #@! TO.P,J12,2*
G04 #@! TO.N,SDA2*
X175895000Y-130175000D03*
G04 #@! TO.P,J12,1*
G04 #@! TO.N,+5V*
G04 #@! TA.AperFunction,ComponentPad*
G36*
G01*
X175049999Y-126765000D02*
X176740001Y-126765000D01*
G75*
G02*
X176990000Y-127014999I0J-249999D01*
G01*
X176990000Y-128255001D01*
G75*
G02*
X176740001Y-128505000I-249999J0D01*
G01*
X175049999Y-128505000D01*
G75*
G02*
X174800000Y-128255001I0J249999D01*
G01*
X174800000Y-127014999D01*
G75*
G02*
X175049999Y-126765000I249999J0D01*
G01*
G37*
G04 #@! TD.AperFunction*
G04 #@! TD*
G04 #@! TO.P,J10,6*
G04 #@! TO.N,Net-(J10-Pad6)*
X155575000Y-140335000D03*
G04 #@! TO.P,J10,5*
G04 #@! TO.N,GND*
X155575000Y-137795000D03*
G04 #@! TO.P,J10,4*
X155575000Y-135255000D03*
G04 #@! TO.P,J10,3*
G04 #@! TO.N,Net-(J10-Pad3)*
X155575000Y-132715000D03*
G04 #@! TO.P,J10,2*
G04 #@! TO.N,SDA2*
X155575000Y-130175000D03*
G04 #@! TO.P,J10,1*
G04 #@! TO.N,+5V*
G04 #@! TA.AperFunction,ComponentPad*
G36*
G01*
X154729999Y-126765000D02*
X156420001Y-126765000D01*
G75*
G02*
X156670000Y-127014999I0J-249999D01*
G01*
X156670000Y-128255001D01*
G75*
G02*
X156420001Y-128505000I-249999J0D01*
G01*
X154729999Y-128505000D01*
G75*
G02*
X154480000Y-128255001I0J249999D01*
G01*
X154480000Y-127014999D01*
G75*
G02*
X154729999Y-126765000I249999J0D01*
G01*
G37*
G04 #@! TD.AperFunction*
G04 #@! TD*
G04 #@! TO.P,J9,6*
G04 #@! TO.N,Net-(J9-Pad6)*
X145415000Y-140335000D03*
G04 #@! TO.P,J9,5*
G04 #@! TO.N,GND*
X145415000Y-137795000D03*
G04 #@! TO.P,J9,4*
X145415000Y-135255000D03*
G04 #@! TO.P,J9,3*
G04 #@! TO.N,Net-(J9-Pad3)*
X145415000Y-132715000D03*
G04 #@! TO.P,J9,2*
G04 #@! TO.N,SDA2*
X145415000Y-130175000D03*
G04 #@! TO.P,J9,1*
G04 #@! TO.N,+5V*
G04 #@! TA.AperFunction,ComponentPad*
G36*
G01*
X144569999Y-126765000D02*
X146260001Y-126765000D01*
G75*
G02*
X146510000Y-127014999I0J-249999D01*
G01*
X146510000Y-128255001D01*
G75*
G02*
X146260001Y-128505000I-249999J0D01*
G01*
X144569999Y-128505000D01*
G75*
G02*
X144320000Y-128255001I0J249999D01*
G01*
X144320000Y-127014999D01*
G75*
G02*
X144569999Y-126765000I249999J0D01*
G01*
G37*
G04 #@! TD.AperFunction*
G04 #@! TD*
G04 #@! TO.P,J8,6*
G04 #@! TO.N,Net-(J8-Pad6)*
X135255000Y-140335000D03*
G04 #@! TO.P,J8,5*
G04 #@! TO.N,GND*
X135255000Y-137795000D03*
G04 #@! TO.P,J8,4*
X135255000Y-135255000D03*
G04 #@! TO.P,J8,3*
G04 #@! TO.N,Net-(J8-Pad3)*
X135255000Y-132715000D03*
G04 #@! TO.P,J8,2*
G04 #@! TO.N,SDA2*
X135255000Y-130175000D03*
G04 #@! TO.P,J8,1*
G04 #@! TO.N,+5V*
G04 #@! TA.AperFunction,ComponentPad*
G36*
G01*
X134409999Y-126765000D02*
X136100001Y-126765000D01*
G75*
G02*
X136350000Y-127014999I0J-249999D01*
G01*
X136350000Y-128255001D01*
G75*
G02*
X136100001Y-128505000I-249999J0D01*
G01*
X134409999Y-128505000D01*
G75*
G02*
X134160000Y-128255001I0J249999D01*
G01*
X134160000Y-127014999D01*
G75*
G02*
X134409999Y-126765000I249999J0D01*
G01*
G37*
G04 #@! TD.AperFunction*
G04 #@! TD*
G04 #@! TO.P,J7,6*
G04 #@! TO.N,Net-(J7-Pad6)*
X125095000Y-140335000D03*
G04 #@! TO.P,J7,5*
G04 #@! TO.N,GND*
X125095000Y-137795000D03*
G04 #@! TO.P,J7,4*
X125095000Y-135255000D03*
G04 #@! TO.P,J7,3*
G04 #@! TO.N,Net-(J7-Pad3)*
X125095000Y-132715000D03*
G04 #@! TO.P,J7,2*
G04 #@! TO.N,SDA2*
X125095000Y-130175000D03*
G04 #@! TO.P,J7,1*
G04 #@! TO.N,+5V*
G04 #@! TA.AperFunction,ComponentPad*
G36*
G01*
X124249999Y-126765000D02*
X125940001Y-126765000D01*
G75*
G02*
X126190000Y-127014999I0J-249999D01*
G01*
X126190000Y-128255001D01*
G75*
G02*
X125940001Y-128505000I-249999J0D01*
G01*
X124249999Y-128505000D01*
G75*
G02*
X124000000Y-128255001I0J249999D01*
G01*
X124000000Y-127014999D01*
G75*
G02*
X124249999Y-126765000I249999J0D01*
G01*
G37*
G04 #@! TD.AperFunction*
G04 #@! TD*
G04 #@! TO.P,J6,6*
G04 #@! TO.N,Net-(J6-Pad6)*
X114935000Y-140335000D03*
G04 #@! TO.P,J6,5*
G04 #@! TO.N,GND*
X114935000Y-137795000D03*
G04 #@! TO.P,J6,4*
X114935000Y-135255000D03*
G04 #@! TO.P,J6,3*
G04 #@! TO.N,Net-(J6-Pad3)*
X114935000Y-132715000D03*
G04 #@! TO.P,J6,2*
G04 #@! TO.N,SDA2*
X114935000Y-130175000D03*
G04 #@! TO.P,J6,1*
G04 #@! TO.N,+5V*
G04 #@! TA.AperFunction,ComponentPad*
G36*
G01*
X114089999Y-126765000D02*
X115780001Y-126765000D01*
G75*
G02*
X116030000Y-127014999I0J-249999D01*
G01*
X116030000Y-128255001D01*
G75*
G02*
X115780001Y-128505000I-249999J0D01*
G01*
X114089999Y-128505000D01*
G75*
G02*
X113840000Y-128255001I0J249999D01*
G01*
X113840000Y-127014999D01*
G75*
G02*
X114089999Y-126765000I249999J0D01*
G01*
G37*
G04 #@! TD.AperFunction*
G04 #@! TD*
G04 #@! TO.P,J5,6*
G04 #@! TO.N,Net-(J5-Pad6)*
X104775000Y-140335000D03*
G04 #@! TO.P,J5,5*
G04 #@! TO.N,GND*
X104775000Y-137795000D03*
G04 #@! TO.P,J5,4*
X104775000Y-135255000D03*
G04 #@! TO.P,J5,3*
G04 #@! TO.N,Net-(J5-Pad3)*
X104775000Y-132715000D03*
G04 #@! TO.P,J5,2*
G04 #@! TO.N,SDA2*
X104775000Y-130175000D03*
G04 #@! TO.P,J5,1*
G04 #@! TO.N,+5V*
G04 #@! TA.AperFunction,ComponentPad*
G36*
G01*
X103929999Y-126765000D02*
X105620001Y-126765000D01*
G75*
G02*
X105870000Y-127014999I0J-249999D01*
G01*
X105870000Y-128255001D01*
G75*
G02*
X105620001Y-128505000I-249999J0D01*
G01*
X103929999Y-128505000D01*
G75*
G02*
X103680000Y-128255001I0J249999D01*
G01*
X103680000Y-127014999D01*
G75*
G02*
X103929999Y-126765000I249999J0D01*
G01*
G37*
G04 #@! TD.AperFunction*
G04 #@! TD*
D11*
G04 #@! TO.P,J1,2*
G04 #@! TO.N,GND*
X95250000Y-114000000D03*
G04 #@! TO.P,J1,1*
G04 #@! TO.N,+5V*
X95250000Y-108920000D03*
G04 #@! TD*
D12*
G04 #@! TO.P,REF\u002A\u002A,1*
G04 #@! TO.N,N/C*
X186690000Y-139192000D03*
G04 #@! TD*
G04 #@! TO.P,REF\u002A\u002A,1*
G04 #@! TO.N,N/C*
X93980000Y-139192000D03*
G04 #@! TD*
G04 #@! TO.P,REF\u002A\u002A,1*
G04 #@! TO.N,N/C*
X93980000Y-90170000D03*
G04 #@! TD*
G04 #@! TO.P,REF\u002A\u002A,1*
G04 #@! TO.N,N/C*
X186690000Y-90170000D03*
G04 #@! TD*
D10*
G04 #@! TO.P,J2,4*
G04 #@! TO.N,GND*
X107188000Y-115570000D03*
G04 #@! TO.P,J2,3*
G04 #@! TO.N,Net-(J2-Pad3)*
X107188000Y-113030000D03*
G04 #@! TO.P,J2,2*
G04 #@! TO.N,Net-(J2-Pad2)*
X107188000Y-110490000D03*
G04 #@! TO.P,J2,1*
G04 #@! TO.N,+5V*
G04 #@! TA.AperFunction,ComponentPad*
G36*
G01*
X106342999Y-107080000D02*
X108033001Y-107080000D01*
G75*
G02*
X108283000Y-107329999I0J-249999D01*
G01*
X108283000Y-108570001D01*
G75*
G02*
X108033001Y-108820000I-249999J0D01*
G01*
X106342999Y-108820000D01*
G75*
G02*
X106093000Y-108570001I0J249999D01*
G01*
X106093000Y-107329999D01*
G75*
G02*
X106342999Y-107080000I249999J0D01*
G01*
G37*
G04 #@! TD.AperFunction*
G04 #@! TD*
D13*
G04 #@! TO.P,J3,1*
G04 #@! TO.N,Net-(D8-Pad1)*
X134620000Y-92710000D03*
D14*
G04 #@! TO.P,J3,2*
G04 #@! TO.N,+5V*
X137160000Y-92710000D03*
G04 #@! TO.P,J3,3*
G04 #@! TO.N,GND*
X139700000Y-92710000D03*
G04 #@! TO.P,J3,4*
G04 #@! TO.N,RB7*
X142240000Y-92710000D03*
G04 #@! TO.P,J3,5*
G04 #@! TO.N,RB6*
X144780000Y-92710000D03*
G04 #@! TO.P,J3,6*
G04 #@! TO.N,Net-(J3-Pad6)*
X147320000Y-92710000D03*
G04 #@! TD*
G04 #@! TO.P,J4,1*
G04 #@! TO.N,+5V*
G04 #@! TA.AperFunction,ComponentPad*
G36*
G01*
X115994999Y-107080000D02*
X117685001Y-107080000D01*
G75*
G02*
X117935000Y-107329999I0J-249999D01*
G01*
X117935000Y-108570001D01*
G75*
G02*
X117685001Y-108820000I-249999J0D01*
G01*
X115994999Y-108820000D01*
G75*
G02*
X115745000Y-108570001I0J249999D01*
G01*
X115745000Y-107329999D01*
G75*
G02*
X115994999Y-107080000I249999J0D01*
G01*
G37*
G04 #@! TD.AperFunction*
D10*
G04 #@! TO.P,J4,2*
G04 #@! TO.N,Net-(J2-Pad2)*
X116840000Y-110490000D03*
G04 #@! TO.P,J4,3*
G04 #@! TO.N,Net-(J2-Pad3)*
X116840000Y-113030000D03*
G04 #@! TO.P,J4,4*
G04 #@! TO.N,GND*
X116840000Y-115570000D03*
G04 #@! TD*
D13*
G04 #@! TO.P,JP1,1*
G04 #@! TO.N,+5V*
X170180000Y-120650000D03*
D14*
G04 #@! TO.P,JP1,2*
G04 #@! TO.N,Net-(JP1-Pad2)*
X167640000Y-120650000D03*
G04 #@! TD*
D13*
G04 #@! TO.P,JP2,1*
G04 #@! TO.N,SCL2*
X127127000Y-119888000D03*
D14*
G04 #@! TO.P,JP2,2*
G04 #@! TO.N,Net-(J5-Pad3)*
X127127000Y-122428000D03*
G04 #@! TD*
G04 #@! TO.P,JP3,2*
G04 #@! TO.N,Net-(J6-Pad3)*
X130810000Y-122428000D03*
D13*
G04 #@! TO.P,JP3,1*
G04 #@! TO.N,SCL2*
X130810000Y-119888000D03*
G04 #@! TD*
G04 #@! TO.P,JP4,1*
G04 #@! TO.N,SCL2*
X134620000Y-119888000D03*
D14*
G04 #@! TO.P,JP4,2*
G04 #@! TO.N,Net-(J7-Pad3)*
X134620000Y-122428000D03*
G04 #@! TD*
D13*
G04 #@! TO.P,JP5,1*
G04 #@! TO.N,SCL2*
X138430000Y-119888000D03*
D14*
G04 #@! TO.P,JP5,2*
G04 #@! TO.N,Net-(J8-Pad3)*
X138430000Y-122428000D03*
G04 #@! TD*
G04 #@! TO.P,JP6,2*
G04 #@! TO.N,Net-(J9-Pad3)*
X142240000Y-122428000D03*
D13*
G04 #@! TO.P,JP6,1*
G04 #@! TO.N,SCL2*
X142240000Y-119888000D03*
G04 #@! TD*
D14*
G04 #@! TO.P,JP7,2*
G04 #@! TO.N,Net-(J10-Pad3)*
X146050000Y-122428000D03*
D13*
G04 #@! TO.P,JP7,1*
G04 #@! TO.N,SCL2*
X146050000Y-119888000D03*
G04 #@! TD*
D14*
G04 #@! TO.P,JP8,2*
G04 #@! TO.N,Net-(J11-Pad3)*
X149860000Y-122428000D03*
D13*
G04 #@! TO.P,JP8,1*
G04 #@! TO.N,SCL2*
X149860000Y-119888000D03*
G04 #@! TD*
D14*
G04 #@! TO.P,JP9,2*
G04 #@! TO.N,Net-(J12-Pad3)*
X153670000Y-122428000D03*
D13*
G04 #@! TO.P,JP9,1*
G04 #@! TO.N,SCL2*
X153670000Y-119888000D03*
G04 #@! TD*
D15*
G04 #@! TO.P,SW1,1*
G04 #@! TO.N,GND*
X187452000Y-113665000D03*
D16*
G04 #@! TO.P,SW1,7*
G04 #@! TO.N,Net-(R10-Pad2)*
X179832000Y-100965000D03*
G04 #@! TO.P,SW1,2*
G04 #@! TO.N,GND*
X187452000Y-111125000D03*
G04 #@! TO.P,SW1,8*
G04 #@! TO.N,Net-(R9-Pad2)*
X179832000Y-103505000D03*
G04 #@! TO.P,SW1,3*
G04 #@! TO.N,GND*
X187452000Y-108585000D03*
G04 #@! TO.P,SW1,9*
G04 #@! TO.N,Net-(R8-Pad2)*
X179832000Y-106045000D03*
G04 #@! TO.P,SW1,4*
G04 #@! TO.N,GND*
X187452000Y-106045000D03*
G04 #@! TO.P,SW1,10*
G04 #@! TO.N,Net-(R7-Pad2)*
X179832000Y-108585000D03*
G04 #@! TO.P,SW1,5*
G04 #@! TO.N,GND*
X187452000Y-103505000D03*
G04 #@! TO.P,SW1,11*
G04 #@! TO.N,Net-(R6-Pad2)*
X179832000Y-111125000D03*
G04 #@! TO.P,SW1,6*
G04 #@! TO.N,GND*
X187452000Y-100965000D03*
G04 #@! TO.P,SW1,12*
G04 #@! TO.N,Net-(R5-Pad2)*
X179832000Y-113665000D03*
G04 #@! TD*
D17*
G04 #@! TO.P,SW2,2*
G04 #@! TO.N,Net-(R13-Pad1)*
X161235000Y-107950000D03*
G04 #@! TO.P,SW2,1*
G04 #@! TO.N,+5V*
X165735000Y-107950000D03*
G04 #@! TO.P,SW2,2*
G04 #@! TO.N,Net-(R13-Pad1)*
X161235000Y-114450000D03*
G04 #@! TO.P,SW2,1*
G04 #@! TO.N,+5V*
X165735000Y-114450000D03*
G04 #@! TD*
G04 #@! TO.P,SW3,1*
G04 #@! TO.N,+5V*
X173990000Y-114450000D03*
G04 #@! TO.P,SW3,2*
G04 #@! TO.N,Net-(R14-Pad1)*
X169490000Y-114450000D03*
G04 #@! TO.P,SW3,1*
G04 #@! TO.N,+5V*
X173990000Y-107950000D03*
G04 #@! TO.P,SW3,2*
G04 #@! TO.N,Net-(R14-Pad1)*
X169490000Y-107950000D03*
G04 #@! TD*
D18*
G04 #@! TO.N,GND*
X128016000Y-90424000D03*
D19*
G04 #@! TO.N,+5V*
X124460000Y-110490000D03*
G04 #@! TO.N,Net-(D16-Pad2)*
X107188000Y-104140000D03*
X105410000Y-104140000D03*
G04 #@! TO.N,SDA2*
X140335000Y-114300000D03*
X140335000Y-125730000D03*
X140335000Y-130175000D03*
G04 #@! TO.N,Net-(R5-Pad2)*
X169545000Y-97790000D03*
X169545000Y-104140000D03*
G04 #@! TO.N,Net-(R6-Pad2)*
X166370000Y-97790000D03*
X166370000Y-103505000D03*
G04 #@! TO.N,Net-(R7-Pad2)*
X163195000Y-97790000D03*
X163195000Y-102870000D03*
G04 #@! TO.N,Net-(R8-Pad2)*
X160020000Y-97790000D03*
X160020000Y-102235000D03*
G04 #@! TO.N,Net-(R9-Pad2)*
X156845000Y-97790000D03*
X156845000Y-101600000D03*
G04 #@! TO.N,Net-(R13-Pad1)*
X148590000Y-114935000D03*
G04 #@! TD*
D20*
G04 #@! TO.N,GND*
X139700000Y-89154000D02*
X139700000Y-92710000D01*
X129286000Y-89154000D02*
X139700000Y-89154000D01*
X128016000Y-90424000D02*
X129286000Y-89154000D01*
X175641000Y-89154000D02*
X187452000Y-100965000D01*
X139700000Y-89154000D02*
X175641000Y-89154000D01*
X187452000Y-100965000D02*
X187452000Y-103505000D01*
X187452000Y-103505000D02*
X187452000Y-106045000D01*
X187452000Y-106045000D02*
X187452000Y-108585000D01*
X187452000Y-108585000D02*
X187452000Y-111125000D01*
X187452000Y-111125000D02*
X187452000Y-113665000D01*
G04 #@! TO.N,+5V*
X128143000Y-104902000D02*
X124460000Y-108585000D01*
X137160000Y-104902000D02*
X128143000Y-104902000D01*
X124460000Y-108585000D02*
X124460000Y-108458000D01*
X123952000Y-107950000D02*
X116840000Y-107950000D01*
X124460000Y-108458000D02*
X123952000Y-107950000D01*
X124460000Y-108458000D02*
X124460000Y-110490000D01*
X175895000Y-127635000D02*
X165735000Y-127635000D01*
X165735000Y-127635000D02*
X155575000Y-127635000D01*
X155575000Y-127635000D02*
X145415000Y-127635000D01*
X145415000Y-127635000D02*
X135255000Y-127635000D01*
X135255000Y-127635000D02*
X125095000Y-127635000D01*
X125095000Y-127635000D02*
X114935000Y-127635000D01*
X114935000Y-127635000D02*
X104775000Y-127635000D01*
X175895000Y-116355000D02*
X173990000Y-114450000D01*
X175895000Y-127635000D02*
X175895000Y-116355000D01*
X137160000Y-92710000D02*
X137160000Y-104902000D01*
X162687000Y-104902000D02*
X165735000Y-107950000D01*
X137160000Y-104902000D02*
X162687000Y-104902000D01*
D21*
G04 #@! TO.N,Net-(D16-Pad2)*
X105410000Y-104140000D02*
X107188000Y-104140000D01*
G04 #@! TO.N,SDA2*
X175895000Y-130175000D02*
X165735000Y-130175000D01*
X165735000Y-130175000D02*
X155575000Y-130175000D01*
X155575000Y-130175000D02*
X145415000Y-130175000D01*
X135255000Y-130175000D02*
X125095000Y-130175000D01*
X125095000Y-130175000D02*
X114935000Y-130175000D01*
X114935000Y-130175000D02*
X104775000Y-130175000D01*
X140335000Y-114300000D02*
X140335000Y-125730000D01*
X140335000Y-125730000D02*
X140335000Y-125730000D01*
X145415000Y-130175000D02*
X140970000Y-130175000D01*
X135255000Y-130175000D02*
X139700000Y-130175000D01*
X140970000Y-130175000D02*
X140335000Y-130175000D01*
X139700000Y-130175000D02*
X140335000Y-130175000D01*
G04 #@! TO.N,Net-(R5-Pad2)*
X169545000Y-97790000D02*
X169545000Y-104140000D01*
G04 #@! TO.N,Net-(R6-Pad2)*
X166370000Y-97790000D02*
X166370000Y-103505000D01*
G04 #@! TO.N,Net-(R7-Pad2)*
X163195000Y-97790000D02*
X163195000Y-102870000D01*
G04 #@! TO.N,Net-(R8-Pad2)*
X160020000Y-97790000D02*
X160020000Y-102235000D01*
G04 #@! TO.N,Net-(R9-Pad2)*
X156845000Y-97790000D02*
X156845000Y-101600000D01*
G04 #@! TO.N,Net-(R13-Pad1)*
X161235000Y-114450000D02*
X156441000Y-114450000D01*
X156441000Y-114450000D02*
X155956000Y-114935000D01*
X155956000Y-114935000D02*
X148590000Y-114935000D01*
X148590000Y-114935000D02*
X148590000Y-114935000D01*
G04 #@! TD*
D22*
G04 #@! TO.N,GND*
X182673728Y-86791800D02*
X182673728Y-93548200D01*
X182685988Y-93672682D01*
X182722298Y-93792380D01*
X182781263Y-93902694D01*
X182860615Y-93999385D01*
X182957306Y-94078737D01*
X183067620Y-94137702D01*
X183187318Y-94174012D01*
X183311800Y-94186272D01*
X190068200Y-94186272D01*
X190094000Y-94183731D01*
X190094001Y-135178269D01*
X190068200Y-135175728D01*
X183311800Y-135175728D01*
X183187318Y-135187988D01*
X183067620Y-135224298D01*
X182957306Y-135283263D01*
X182860615Y-135362615D01*
X182781263Y-135459306D01*
X182722298Y-135569620D01*
X182685988Y-135689318D01*
X182673728Y-135813800D01*
X182673728Y-142570200D01*
X182676269Y-142596000D01*
X97993731Y-142596000D01*
X97996272Y-142570200D01*
X97996272Y-140335000D01*
X103037718Y-140335000D01*
X103066776Y-140630032D01*
X103152834Y-140913725D01*
X103292583Y-141175179D01*
X103480655Y-141404345D01*
X103709821Y-141592417D01*
X103971275Y-141732166D01*
X104254968Y-141818224D01*
X104476064Y-141840000D01*
X105073936Y-141840000D01*
X105295032Y-141818224D01*
X105578725Y-141732166D01*
X105840179Y-141592417D01*
X106069345Y-141404345D01*
X106257417Y-141175179D01*
X106397166Y-140913725D01*
X106483224Y-140630032D01*
X106512282Y-140335000D01*
X113197718Y-140335000D01*
X113226776Y-140630032D01*
X113312834Y-140913725D01*
X113452583Y-141175179D01*
X113640655Y-141404345D01*
X113869821Y-141592417D01*
X114131275Y-141732166D01*
X114414968Y-141818224D01*
X114636064Y-141840000D01*
X115233936Y-141840000D01*
X115455032Y-141818224D01*
X115738725Y-141732166D01*
X116000179Y-141592417D01*
X116229345Y-141404345D01*
X116417417Y-141175179D01*
X116557166Y-140913725D01*
X116643224Y-140630032D01*
X116672282Y-140335000D01*
X123357718Y-140335000D01*
X123386776Y-140630032D01*
X123472834Y-140913725D01*
X123612583Y-141175179D01*
X123800655Y-141404345D01*
X124029821Y-141592417D01*
X124291275Y-141732166D01*
X124574968Y-141818224D01*
X124796064Y-141840000D01*
X125393936Y-141840000D01*
X125615032Y-141818224D01*
X125898725Y-141732166D01*
X126160179Y-141592417D01*
X126389345Y-141404345D01*
X126577417Y-141175179D01*
X126717166Y-140913725D01*
X126803224Y-140630032D01*
X126832282Y-140335000D01*
X133517718Y-140335000D01*
X133546776Y-140630032D01*
X133632834Y-140913725D01*
X133772583Y-141175179D01*
X133960655Y-141404345D01*
X134189821Y-141592417D01*
X134451275Y-141732166D01*
X134734968Y-141818224D01*
X134956064Y-141840000D01*
X135553936Y-141840000D01*
X135775032Y-141818224D01*
X136058725Y-141732166D01*
X136320179Y-141592417D01*
X136549345Y-141404345D01*
X136737417Y-141175179D01*
X136877166Y-140913725D01*
X136963224Y-140630032D01*
X136992282Y-140335000D01*
X143677718Y-140335000D01*
X143706776Y-140630032D01*
X143792834Y-140913725D01*
X143932583Y-141175179D01*
X144120655Y-141404345D01*
X144349821Y-141592417D01*
X144611275Y-141732166D01*
X144894968Y-141818224D01*
X145116064Y-141840000D01*
X145713936Y-141840000D01*
X145935032Y-141818224D01*
X146218725Y-141732166D01*
X146480179Y-141592417D01*
X146709345Y-141404345D01*
X146897417Y-141175179D01*
X147037166Y-140913725D01*
X147123224Y-140630032D01*
X147152282Y-140335000D01*
X153837718Y-140335000D01*
X153866776Y-140630032D01*
X153952834Y-140913725D01*
X154092583Y-141175179D01*
X154280655Y-141404345D01*
X154509821Y-141592417D01*
X154771275Y-141732166D01*
X155054968Y-141818224D01*
X155276064Y-141840000D01*
X155873936Y-141840000D01*
X156095032Y-141818224D01*
X156378725Y-141732166D01*
X156640179Y-141592417D01*
X156869345Y-141404345D01*
X157057417Y-141175179D01*
X157197166Y-140913725D01*
X157283224Y-140630032D01*
X157312282Y-140335000D01*
X163997718Y-140335000D01*
X164026776Y-140630032D01*
X164112834Y-140913725D01*
X164252583Y-141175179D01*
X164440655Y-141404345D01*
X164669821Y-141592417D01*
X164931275Y-141732166D01*
X165214968Y-141818224D01*
X165436064Y-141840000D01*
X166033936Y-141840000D01*
X166255032Y-141818224D01*
X166538725Y-141732166D01*
X166800179Y-141592417D01*
X167029345Y-141404345D01*
X167217417Y-141175179D01*
X167357166Y-140913725D01*
X167443224Y-140630032D01*
X167472282Y-140335000D01*
X174157718Y-140335000D01*
X174186776Y-140630032D01*
X174272834Y-140913725D01*
X174412583Y-141175179D01*
X174600655Y-141404345D01*
X174829821Y-141592417D01*
X175091275Y-141732166D01*
X175374968Y-141818224D01*
X175596064Y-141840000D01*
X176193936Y-141840000D01*
X176415032Y-141818224D01*
X176698725Y-141732166D01*
X176960179Y-141592417D01*
X177189345Y-141404345D01*
X177377417Y-141175179D01*
X177517166Y-140913725D01*
X177603224Y-140630032D01*
X177632282Y-140335000D01*
X177603224Y-140039968D01*
X177517166Y-139756275D01*
X177377417Y-139494821D01*
X177189345Y-139265655D01*
X176960179Y-139077583D01*
X176931848Y-139062440D01*
X177072433Y-138969708D01*
X177283306Y-138761326D01*
X177449474Y-138515809D01*
X177564551Y-138242591D01*
X177581302Y-138155031D01*
X177460246Y-137922000D01*
X176022000Y-137922000D01*
X176022000Y-137942000D01*
X175768000Y-137942000D01*
X175768000Y-137922000D01*
X174329754Y-137922000D01*
X174208698Y-138155031D01*
X174225449Y-138242591D01*
X174340526Y-138515809D01*
X174506694Y-138761326D01*
X174717567Y-138969708D01*
X174858152Y-139062440D01*
X174829821Y-139077583D01*
X174600655Y-139265655D01*
X174412583Y-139494821D01*
X174272834Y-139756275D01*
X174186776Y-140039968D01*
X174157718Y-140335000D01*
X167472282Y-140335000D01*
X167443224Y-140039968D01*
X167357166Y-139756275D01*
X167217417Y-139494821D01*
X167029345Y-139265655D01*
X166800179Y-139077583D01*
X166771848Y-139062440D01*
X166912433Y-138969708D01*
X167123306Y-138761326D01*
X167289474Y-138515809D01*
X167404551Y-138242591D01*
X167421302Y-138155031D01*
X167300246Y-137922000D01*
X165862000Y-137922000D01*
X165862000Y-137942000D01*
X165608000Y-137942000D01*
X165608000Y-137922000D01*
X164169754Y-137922000D01*
X164048698Y-138155031D01*
X164065449Y-138242591D01*
X164180526Y-138515809D01*
X164346694Y-138761326D01*
X164557567Y-138969708D01*
X164698152Y-139062440D01*
X164669821Y-139077583D01*
X164440655Y-139265655D01*
X164252583Y-139494821D01*
X164112834Y-139756275D01*
X164026776Y-140039968D01*
X163997718Y-140335000D01*
X157312282Y-140335000D01*
X157283224Y-140039968D01*
X157197166Y-139756275D01*
X157057417Y-139494821D01*
X156869345Y-139265655D01*
X156640179Y-139077583D01*
X156611848Y-139062440D01*
X156752433Y-138969708D01*
X156963306Y-138761326D01*
X157129474Y-138515809D01*
X157244551Y-138242591D01*
X157261302Y-138155031D01*
X157140246Y-137922000D01*
X155702000Y-137922000D01*
X155702000Y-137942000D01*
X155448000Y-137942000D01*
X155448000Y-137922000D01*
X154009754Y-137922000D01*
X153888698Y-138155031D01*
X153905449Y-138242591D01*
X154020526Y-138515809D01*
X154186694Y-138761326D01*
X154397567Y-138969708D01*
X154538152Y-139062440D01*
X154509821Y-139077583D01*
X154280655Y-139265655D01*
X154092583Y-139494821D01*
X153952834Y-139756275D01*
X153866776Y-140039968D01*
X153837718Y-140335000D01*
X147152282Y-140335000D01*
X147123224Y-140039968D01*
X147037166Y-139756275D01*
X146897417Y-139494821D01*
X146709345Y-139265655D01*
X146480179Y-139077583D01*
X146451848Y-139062440D01*
X146592433Y-138969708D01*
X146803306Y-138761326D01*
X146969474Y-138515809D01*
X147084551Y-138242591D01*
X147101302Y-138155031D01*
X146980246Y-137922000D01*
X145542000Y-137922000D01*
X145542000Y-137942000D01*
X145288000Y-137942000D01*
X145288000Y-137922000D01*
X143849754Y-137922000D01*
X143728698Y-138155031D01*
X143745449Y-138242591D01*
X143860526Y-138515809D01*
X144026694Y-138761326D01*
X144237567Y-138969708D01*
X144378152Y-139062440D01*
X144349821Y-139077583D01*
X144120655Y-139265655D01*
X143932583Y-139494821D01*
X143792834Y-139756275D01*
X143706776Y-140039968D01*
X143677718Y-140335000D01*
X136992282Y-140335000D01*
X136963224Y-140039968D01*
X136877166Y-139756275D01*
X136737417Y-139494821D01*
X136549345Y-139265655D01*
X136320179Y-139077583D01*
X136291848Y-139062440D01*
X136432433Y-138969708D01*
X136643306Y-138761326D01*
X136809474Y-138515809D01*
X136924551Y-138242591D01*
X136941302Y-138155031D01*
X136820246Y-137922000D01*
X135382000Y-137922000D01*
X135382000Y-137942000D01*
X135128000Y-137942000D01*
X135128000Y-137922000D01*
X133689754Y-137922000D01*
X133568698Y-138155031D01*
X133585449Y-138242591D01*
X133700526Y-138515809D01*
X133866694Y-138761326D01*
X134077567Y-138969708D01*
X134218152Y-139062440D01*
X134189821Y-139077583D01*
X133960655Y-139265655D01*
X133772583Y-139494821D01*
X133632834Y-139756275D01*
X133546776Y-140039968D01*
X133517718Y-140335000D01*
X126832282Y-140335000D01*
X126803224Y-140039968D01*
X126717166Y-139756275D01*
X126577417Y-139494821D01*
X126389345Y-139265655D01*
X126160179Y-139077583D01*
X126131848Y-139062440D01*
X126272433Y-138969708D01*
X126483306Y-138761326D01*
X126649474Y-138515809D01*
X126764551Y-138242591D01*
X126781302Y-138155031D01*
X126660246Y-137922000D01*
X125222000Y-137922000D01*
X125222000Y-137942000D01*
X124968000Y-137942000D01*
X124968000Y-137922000D01*
X123529754Y-137922000D01*
X123408698Y-138155031D01*
X123425449Y-138242591D01*
X123540526Y-138515809D01*
X123706694Y-138761326D01*
X123917567Y-138969708D01*
X124058152Y-139062440D01*
X124029821Y-139077583D01*
X123800655Y-139265655D01*
X123612583Y-139494821D01*
X123472834Y-139756275D01*
X123386776Y-140039968D01*
X123357718Y-140335000D01*
X116672282Y-140335000D01*
X116643224Y-140039968D01*
X116557166Y-139756275D01*
X116417417Y-139494821D01*
X116229345Y-139265655D01*
X116000179Y-139077583D01*
X115971848Y-139062440D01*
X116112433Y-138969708D01*
X116323306Y-138761326D01*
X116489474Y-138515809D01*
X116604551Y-138242591D01*
X116621302Y-138155031D01*
X116500246Y-137922000D01*
X115062000Y-137922000D01*
X115062000Y-137942000D01*
X114808000Y-137942000D01*
X114808000Y-137922000D01*
X113369754Y-137922000D01*
X113248698Y-138155031D01*
X113265449Y-138242591D01*
X113380526Y-138515809D01*
X113546694Y-138761326D01*
X113757567Y-138969708D01*
X113898152Y-139062440D01*
X113869821Y-139077583D01*
X113640655Y-139265655D01*
X113452583Y-139494821D01*
X113312834Y-139756275D01*
X113226776Y-140039968D01*
X113197718Y-140335000D01*
X106512282Y-140335000D01*
X106483224Y-140039968D01*
X106397166Y-139756275D01*
X106257417Y-139494821D01*
X106069345Y-139265655D01*
X105840179Y-139077583D01*
X105811848Y-139062440D01*
X105952433Y-138969708D01*
X106163306Y-138761326D01*
X106329474Y-138515809D01*
X106444551Y-138242591D01*
X106461302Y-138155031D01*
X106340246Y-137922000D01*
X104902000Y-137922000D01*
X104902000Y-137942000D01*
X104648000Y-137942000D01*
X104648000Y-137922000D01*
X103209754Y-137922000D01*
X103088698Y-138155031D01*
X103105449Y-138242591D01*
X103220526Y-138515809D01*
X103386694Y-138761326D01*
X103597567Y-138969708D01*
X103738152Y-139062440D01*
X103709821Y-139077583D01*
X103480655Y-139265655D01*
X103292583Y-139494821D01*
X103152834Y-139756275D01*
X103066776Y-140039968D01*
X103037718Y-140335000D01*
X97996272Y-140335000D01*
X97996272Y-135813800D01*
X97984012Y-135689318D01*
X97961478Y-135615031D01*
X103088698Y-135615031D01*
X103105449Y-135702591D01*
X103220526Y-135975809D01*
X103386694Y-136221326D01*
X103597567Y-136429708D01*
X103742032Y-136525000D01*
X103597567Y-136620292D01*
X103386694Y-136828674D01*
X103220526Y-137074191D01*
X103105449Y-137347409D01*
X103088698Y-137434969D01*
X103209754Y-137668000D01*
X104648000Y-137668000D01*
X104648000Y-135382000D01*
X104902000Y-135382000D01*
X104902000Y-137668000D01*
X106340246Y-137668000D01*
X106461302Y-137434969D01*
X106444551Y-137347409D01*
X106329474Y-137074191D01*
X106163306Y-136828674D01*
X105952433Y-136620292D01*
X105807968Y-136525000D01*
X105952433Y-136429708D01*
X106163306Y-136221326D01*
X106329474Y-135975809D01*
X106444551Y-135702591D01*
X106461302Y-135615031D01*
X113248698Y-135615031D01*
X113265449Y-135702591D01*
X113380526Y-135975809D01*
X113546694Y-136221326D01*
X113757567Y-136429708D01*
X113902032Y-136525000D01*
X113757567Y-136620292D01*
X113546694Y-136828674D01*
X113380526Y-137074191D01*
X113265449Y-137347409D01*
X113248698Y-137434969D01*
X113369754Y-137668000D01*
X114808000Y-137668000D01*
X114808000Y-135382000D01*
X115062000Y-135382000D01*
X115062000Y-137668000D01*
X116500246Y-137668000D01*
X116621302Y-137434969D01*
X116604551Y-137347409D01*
X116489474Y-137074191D01*
X116323306Y-136828674D01*
X116112433Y-136620292D01*
X115967968Y-136525000D01*
X116112433Y-136429708D01*
X116323306Y-136221326D01*
X116489474Y-135975809D01*
X116604551Y-135702591D01*
X116621302Y-135615031D01*
X123408698Y-135615031D01*
X123425449Y-135702591D01*
X123540526Y-135975809D01*
X123706694Y-136221326D01*
X123917567Y-136429708D01*
X124062032Y-136525000D01*
X123917567Y-136620292D01*
X123706694Y-136828674D01*
X123540526Y-137074191D01*
X123425449Y-137347409D01*
X123408698Y-137434969D01*
X123529754Y-137668000D01*
X124968000Y-137668000D01*
X124968000Y-135382000D01*
X125222000Y-135382000D01*
X125222000Y-137668000D01*
X126660246Y-137668000D01*
X126781302Y-137434969D01*
X126764551Y-137347409D01*
X126649474Y-137074191D01*
X126483306Y-136828674D01*
X126272433Y-136620292D01*
X126127968Y-136525000D01*
X126272433Y-136429708D01*
X126483306Y-136221326D01*
X126649474Y-135975809D01*
X126764551Y-135702591D01*
X126781302Y-135615031D01*
X133568698Y-135615031D01*
X133585449Y-135702591D01*
X133700526Y-135975809D01*
X133866694Y-136221326D01*
X134077567Y-136429708D01*
X134222032Y-136525000D01*
X134077567Y-136620292D01*
X133866694Y-136828674D01*
X133700526Y-137074191D01*
X133585449Y-137347409D01*
X133568698Y-137434969D01*
X133689754Y-137668000D01*
X135128000Y-137668000D01*
X135128000Y-135382000D01*
X135382000Y-135382000D01*
X135382000Y-137668000D01*
X136820246Y-137668000D01*
X136941302Y-137434969D01*
X136924551Y-137347409D01*
X136809474Y-137074191D01*
X136643306Y-136828674D01*
X136432433Y-136620292D01*
X136287968Y-136525000D01*
X136432433Y-136429708D01*
X136643306Y-136221326D01*
X136809474Y-135975809D01*
X136924551Y-135702591D01*
X136941302Y-135615031D01*
X143728698Y-135615031D01*
X143745449Y-135702591D01*
X143860526Y-135975809D01*
X144026694Y-136221326D01*
X144237567Y-136429708D01*
X144382032Y-136525000D01*
X144237567Y-136620292D01*
X144026694Y-136828674D01*
X143860526Y-137074191D01*
X143745449Y-137347409D01*
X143728698Y-137434969D01*
X143849754Y-137668000D01*
X145288000Y-137668000D01*
X145288000Y-135382000D01*
X145542000Y-135382000D01*
X145542000Y-137668000D01*
X146980246Y-137668000D01*
X147101302Y-137434969D01*
X147084551Y-137347409D01*
X146969474Y-137074191D01*
X146803306Y-136828674D01*
X146592433Y-136620292D01*
X146447968Y-136525000D01*
X146592433Y-136429708D01*
X146803306Y-136221326D01*
X146969474Y-135975809D01*
X147084551Y-135702591D01*
X147101302Y-135615031D01*
X153888698Y-135615031D01*
X153905449Y-135702591D01*
X154020526Y-135975809D01*
X154186694Y-136221326D01*
X154397567Y-136429708D01*
X154542032Y-136525000D01*
X154397567Y-136620292D01*
X154186694Y-136828674D01*
X154020526Y-137074191D01*
X153905449Y-137347409D01*
X153888698Y-137434969D01*
X154009754Y-137668000D01*
X155448000Y-137668000D01*
X155448000Y-135382000D01*
X155702000Y-135382000D01*
X155702000Y-137668000D01*
X157140246Y-137668000D01*
X157261302Y-137434969D01*
X157244551Y-137347409D01*
X157129474Y-137074191D01*
X156963306Y-136828674D01*
X156752433Y-136620292D01*
X156607968Y-136525000D01*
X156752433Y-136429708D01*
X156963306Y-136221326D01*
X157129474Y-135975809D01*
X157244551Y-135702591D01*
X157261302Y-135615031D01*
X164048698Y-135615031D01*
X164065449Y-135702591D01*
X164180526Y-135975809D01*
X164346694Y-136221326D01*
X164557567Y-136429708D01*
X164702032Y-136525000D01*
X164557567Y-136620292D01*
X164346694Y-136828674D01*
X164180526Y-137074191D01*
X164065449Y-137347409D01*
X164048698Y-137434969D01*
X164169754Y-137668000D01*
X165608000Y-137668000D01*
X165608000Y-135382000D01*
X165862000Y-135382000D01*
X165862000Y-137668000D01*
X167300246Y-137668000D01*
X167421302Y-137434969D01*
X167404551Y-137347409D01*
X167289474Y-137074191D01*
X167123306Y-136828674D01*
X166912433Y-136620292D01*
X166767968Y-136525000D01*
X166912433Y-136429708D01*
X167123306Y-136221326D01*
X167289474Y-135975809D01*
X167404551Y-135702591D01*
X167421302Y-135615031D01*
X174208698Y-135615031D01*
X174225449Y-135702591D01*
X174340526Y-135975809D01*
X174506694Y-136221326D01*
X174717567Y-136429708D01*
X174862032Y-136525000D01*
X174717567Y-136620292D01*
X174506694Y-136828674D01*
X174340526Y-137074191D01*
X174225449Y-137347409D01*
X174208698Y-137434969D01*
X174329754Y-137668000D01*
X175768000Y-137668000D01*
X175768000Y-135382000D01*
X176022000Y-135382000D01*
X176022000Y-137668000D01*
X177460246Y-137668000D01*
X177581302Y-137434969D01*
X177564551Y-137347409D01*
X177449474Y-137074191D01*
X177283306Y-136828674D01*
X177072433Y-136620292D01*
X176927968Y-136525000D01*
X177072433Y-136429708D01*
X177283306Y-136221326D01*
X177449474Y-135975809D01*
X177564551Y-135702591D01*
X177581302Y-135615031D01*
X177460246Y-135382000D01*
X176022000Y-135382000D01*
X175768000Y-135382000D01*
X174329754Y-135382000D01*
X174208698Y-135615031D01*
X167421302Y-135615031D01*
X167300246Y-135382000D01*
X165862000Y-135382000D01*
X165608000Y-135382000D01*
X164169754Y-135382000D01*
X164048698Y-135615031D01*
X157261302Y-135615031D01*
X157140246Y-135382000D01*
X155702000Y-135382000D01*
X155448000Y-135382000D01*
X154009754Y-135382000D01*
X153888698Y-135615031D01*
X147101302Y-135615031D01*
X146980246Y-135382000D01*
X145542000Y-135382000D01*
X145288000Y-135382000D01*
X143849754Y-135382000D01*
X143728698Y-135615031D01*
X136941302Y-135615031D01*
X136820246Y-135382000D01*
X135382000Y-135382000D01*
X135128000Y-135382000D01*
X133689754Y-135382000D01*
X133568698Y-135615031D01*
X126781302Y-135615031D01*
X126660246Y-135382000D01*
X125222000Y-135382000D01*
X124968000Y-135382000D01*
X123529754Y-135382000D01*
X123408698Y-135615031D01*
X116621302Y-135615031D01*
X116500246Y-135382000D01*
X115062000Y-135382000D01*
X114808000Y-135382000D01*
X113369754Y-135382000D01*
X113248698Y-135615031D01*
X106461302Y-135615031D01*
X106340246Y-135382000D01*
X104902000Y-135382000D01*
X104648000Y-135382000D01*
X103209754Y-135382000D01*
X103088698Y-135615031D01*
X97961478Y-135615031D01*
X97947702Y-135569620D01*
X97888737Y-135459306D01*
X97809385Y-135362615D01*
X97712694Y-135283263D01*
X97602380Y-135224298D01*
X97482682Y-135187988D01*
X97358200Y-135175728D01*
X90601800Y-135175728D01*
X90576000Y-135178269D01*
X90576000Y-130175000D01*
X103037718Y-130175000D01*
X103066776Y-130470032D01*
X103152834Y-130753725D01*
X103292583Y-131015179D01*
X103480655Y-131244345D01*
X103709821Y-131432417D01*
X103733362Y-131445000D01*
X103709821Y-131457583D01*
X103480655Y-131645655D01*
X103292583Y-131874821D01*
X103152834Y-132136275D01*
X103066776Y-132419968D01*
X103037718Y-132715000D01*
X103066776Y-133010032D01*
X103152834Y-133293725D01*
X103292583Y-133555179D01*
X103480655Y-133784345D01*
X103709821Y-133972417D01*
X103738152Y-133987560D01*
X103597567Y-134080292D01*
X103386694Y-134288674D01*
X103220526Y-134534191D01*
X103105449Y-134807409D01*
X103088698Y-134894969D01*
X103209754Y-135128000D01*
X104648000Y-135128000D01*
X104648000Y-135108000D01*
X104902000Y-135108000D01*
X104902000Y-135128000D01*
X106340246Y-135128000D01*
X106461302Y-134894969D01*
X106444551Y-134807409D01*
X106329474Y-134534191D01*
X106163306Y-134288674D01*
X105952433Y-134080292D01*
X105811848Y-133987560D01*
X105840179Y-133972417D01*
X106069345Y-133784345D01*
X106257417Y-133555179D01*
X106397166Y-133293725D01*
X106483224Y-133010032D01*
X106512282Y-132715000D01*
X106483224Y-132419968D01*
X106397166Y-132136275D01*
X106257417Y-131874821D01*
X106069345Y-131645655D01*
X105840179Y-131457583D01*
X105816638Y-131445000D01*
X105840179Y-131432417D01*
X106069345Y-131244345D01*
X106257417Y-131015179D01*
X106312781Y-130911600D01*
X113397219Y-130911600D01*
X113452583Y-131015179D01*
X113640655Y-131244345D01*
X113869821Y-131432417D01*
X113893362Y-131445000D01*
X113869821Y-131457583D01*
X113640655Y-131645655D01*
X113452583Y-131874821D01*
X113312834Y-132136275D01*
X113226776Y-132419968D01*
X113197718Y-132715000D01*
X113226776Y-133010032D01*
X113312834Y-133293725D01*
X113452583Y-133555179D01*
X113640655Y-133784345D01*
X113869821Y-133972417D01*
X113898152Y-133987560D01*
X113757567Y-134080292D01*
X113546694Y-134288674D01*
X113380526Y-134534191D01*
X113265449Y-134807409D01*
X113248698Y-134894969D01*
X113369754Y-135128000D01*
X114808000Y-135128000D01*
X114808000Y-135108000D01*
X115062000Y-135108000D01*
X115062000Y-135128000D01*
X116500246Y-135128000D01*
X116621302Y-134894969D01*
X116604551Y-134807409D01*
X116489474Y-134534191D01*
X116323306Y-134288674D01*
X116112433Y-134080292D01*
X115971848Y-133987560D01*
X116000179Y-133972417D01*
X116229345Y-133784345D01*
X116417417Y-133555179D01*
X116557166Y-133293725D01*
X116643224Y-133010032D01*
X116672282Y-132715000D01*
X116643224Y-132419968D01*
X116557166Y-132136275D01*
X116417417Y-131874821D01*
X116229345Y-131645655D01*
X116000179Y-131457583D01*
X115976638Y-131445000D01*
X116000179Y-131432417D01*
X116229345Y-131244345D01*
X116417417Y-131015179D01*
X116472781Y-130911600D01*
X123557219Y-130911600D01*
X123612583Y-131015179D01*
X123800655Y-131244345D01*
X124029821Y-131432417D01*
X124053362Y-131445000D01*
X124029821Y-131457583D01*
X123800655Y-131645655D01*
X123612583Y-131874821D01*
X123472834Y-132136275D01*
X123386776Y-132419968D01*
X123357718Y-132715000D01*
X123386776Y-133010032D01*
X123472834Y-133293725D01*
X123612583Y-133555179D01*
X123800655Y-133784345D01*
X124029821Y-133972417D01*
X124058152Y-133987560D01*
X123917567Y-134080292D01*
X123706694Y-134288674D01*
X123540526Y-134534191D01*
X123425449Y-134807409D01*
X123408698Y-134894969D01*
X123529754Y-135128000D01*
X124968000Y-135128000D01*
X124968000Y-135108000D01*
X125222000Y-135108000D01*
X125222000Y-135128000D01*
X126660246Y-135128000D01*
X126781302Y-134894969D01*
X126764551Y-134807409D01*
X126649474Y-134534191D01*
X126483306Y-134288674D01*
X126272433Y-134080292D01*
X126131848Y-133987560D01*
X126160179Y-133972417D01*
X126389345Y-133784345D01*
X126577417Y-133555179D01*
X126717166Y-133293725D01*
X126803224Y-133010032D01*
X126832282Y-132715000D01*
X126803224Y-132419968D01*
X126717166Y-132136275D01*
X126577417Y-131874821D01*
X126389345Y-131645655D01*
X126160179Y-131457583D01*
X126136638Y-131445000D01*
X126160179Y-131432417D01*
X126389345Y-131244345D01*
X126577417Y-131015179D01*
X126632781Y-130911600D01*
X133717219Y-130911600D01*
X133772583Y-131015179D01*
X133960655Y-131244345D01*
X134189821Y-131432417D01*
X134213362Y-131445000D01*
X134189821Y-131457583D01*
X133960655Y-131645655D01*
X133772583Y-131874821D01*
X133632834Y-132136275D01*
X133546776Y-132419968D01*
X133517718Y-132715000D01*
X133546776Y-133010032D01*
X133632834Y-133293725D01*
X133772583Y-133555179D01*
X133960655Y-133784345D01*
X134189821Y-133972417D01*
X134218152Y-133987560D01*
X134077567Y-134080292D01*
X133866694Y-134288674D01*
X133700526Y-134534191D01*
X133585449Y-134807409D01*
X133568698Y-134894969D01*
X133689754Y-135128000D01*
X135128000Y-135128000D01*
X135128000Y-135108000D01*
X135382000Y-135108000D01*
X135382000Y-135128000D01*
X136820246Y-135128000D01*
X136941302Y-134894969D01*
X136924551Y-134807409D01*
X136809474Y-134534191D01*
X136643306Y-134288674D01*
X136432433Y-134080292D01*
X136291848Y-133987560D01*
X136320179Y-133972417D01*
X136549345Y-133784345D01*
X136737417Y-133555179D01*
X136877166Y-133293725D01*
X136963224Y-133010032D01*
X136992282Y-132715000D01*
X136963224Y-132419968D01*
X136877166Y-132136275D01*
X136737417Y-131874821D01*
X136549345Y-131645655D01*
X136320179Y-131457583D01*
X136296638Y-131445000D01*
X136320179Y-131432417D01*
X136549345Y-131244345D01*
X136737417Y-131015179D01*
X136792781Y-130911600D01*
X139706601Y-130911600D01*
X139719721Y-130924720D01*
X139877806Y-131030349D01*
X140053462Y-131103108D01*
X140239936Y-131140200D01*
X140430064Y-131140200D01*
X140616538Y-131103108D01*
X140792194Y-131030349D01*
X140950279Y-130924720D01*
X140963399Y-130911600D01*
X143877219Y-130911600D01*
X143932583Y-131015179D01*
X144120655Y-131244345D01*
X144349821Y-131432417D01*
X144373362Y-131445000D01*
X144349821Y-131457583D01*
X144120655Y-131645655D01*
X143932583Y-131874821D01*
X143792834Y-132136275D01*
X143706776Y-132419968D01*
X143677718Y-132715000D01*
X143706776Y-133010032D01*
X143792834Y-133293725D01*
X143932583Y-133555179D01*
X144120655Y-133784345D01*
X144349821Y-133972417D01*
X144378152Y-133987560D01*
X144237567Y-134080292D01*
X144026694Y-134288674D01*
X143860526Y-134534191D01*
X143745449Y-134807409D01*
X143728698Y-134894969D01*
X143849754Y-135128000D01*
X145288000Y-135128000D01*
X145288000Y-135108000D01*
X145542000Y-135108000D01*
X145542000Y-135128000D01*
X146980246Y-135128000D01*
X147101302Y-134894969D01*
X147084551Y-134807409D01*
X146969474Y-134534191D01*
X146803306Y-134288674D01*
X146592433Y-134080292D01*
X146451848Y-133987560D01*
X146480179Y-133972417D01*
X146709345Y-133784345D01*
X146897417Y-133555179D01*
X147037166Y-133293725D01*
X147123224Y-133010032D01*
X147152282Y-132715000D01*
X147123224Y-132419968D01*
X147037166Y-132136275D01*
X146897417Y-131874821D01*
X146709345Y-131645655D01*
X146480179Y-131457583D01*
X146456638Y-131445000D01*
X146480179Y-131432417D01*
X146709345Y-131244345D01*
X146897417Y-131015179D01*
X146952781Y-130911600D01*
X154037219Y-130911600D01*
X154092583Y-131015179D01*
X154280655Y-131244345D01*
X154509821Y-131432417D01*
X154533362Y-131445000D01*
X154509821Y-131457583D01*
X154280655Y-131645655D01*
X154092583Y-131874821D01*
X153952834Y-132136275D01*
X153866776Y-132419968D01*
X153837718Y-132715000D01*
X153866776Y-133010032D01*
X153952834Y-133293725D01*
X154092583Y-133555179D01*
X154280655Y-133784345D01*
X154509821Y-133972417D01*
X154538152Y-133987560D01*
X154397567Y-134080292D01*
X154186694Y-134288674D01*
X154020526Y-134534191D01*
X153905449Y-134807409D01*
X153888698Y-134894969D01*
X154009754Y-135128000D01*
X155448000Y-135128000D01*
X155448000Y-135108000D01*
X155702000Y-135108000D01*
X155702000Y-135128000D01*
X157140246Y-135128000D01*
X157261302Y-134894969D01*
X157244551Y-134807409D01*
X157129474Y-134534191D01*
X156963306Y-134288674D01*
X156752433Y-134080292D01*
X156611848Y-133987560D01*
X156640179Y-133972417D01*
X156869345Y-133784345D01*
X157057417Y-133555179D01*
X157197166Y-133293725D01*
X157283224Y-133010032D01*
X157312282Y-132715000D01*
X157283224Y-132419968D01*
X157197166Y-132136275D01*
X157057417Y-131874821D01*
X156869345Y-131645655D01*
X156640179Y-131457583D01*
X156616638Y-131445000D01*
X156640179Y-131432417D01*
X156869345Y-131244345D01*
X157057417Y-131015179D01*
X157112781Y-130911600D01*
X164197219Y-130911600D01*
X164252583Y-131015179D01*
X164440655Y-131244345D01*
X164669821Y-131432417D01*
X164693362Y-131445000D01*
X164669821Y-131457583D01*
X164440655Y-131645655D01*
X164252583Y-131874821D01*
X164112834Y-132136275D01*
X164026776Y-132419968D01*
X163997718Y-132715000D01*
X164026776Y-133010032D01*
X164112834Y-133293725D01*
X164252583Y-133555179D01*
X164440655Y-133784345D01*
X164669821Y-133972417D01*
X164698152Y-133987560D01*
X164557567Y-134080292D01*
X164346694Y-134288674D01*
X164180526Y-134534191D01*
X164065449Y-134807409D01*
X164048698Y-134894969D01*
X164169754Y-135128000D01*
X165608000Y-135128000D01*
X165608000Y-135108000D01*
X165862000Y-135108000D01*
X165862000Y-135128000D01*
X167300246Y-135128000D01*
X167421302Y-134894969D01*
X167404551Y-134807409D01*
X167289474Y-134534191D01*
X167123306Y-134288674D01*
X166912433Y-134080292D01*
X166771848Y-133987560D01*
X166800179Y-133972417D01*
X167029345Y-133784345D01*
X167217417Y-133555179D01*
X167357166Y-133293725D01*
X167443224Y-133010032D01*
X167472282Y-132715000D01*
X167443224Y-132419968D01*
X167357166Y-132136275D01*
X167217417Y-131874821D01*
X167029345Y-131645655D01*
X166800179Y-131457583D01*
X166776638Y-131445000D01*
X166800179Y-131432417D01*
X167029345Y-131244345D01*
X167217417Y-131015179D01*
X167272781Y-130911600D01*
X174357219Y-130911600D01*
X174412583Y-131015179D01*
X174600655Y-131244345D01*
X174829821Y-131432417D01*
X174853362Y-131445000D01*
X174829821Y-131457583D01*
X174600655Y-131645655D01*
X174412583Y-131874821D01*
X174272834Y-132136275D01*
X174186776Y-132419968D01*
X174157718Y-132715000D01*
X174186776Y-133010032D01*
X174272834Y-133293725D01*
X174412583Y-133555179D01*
X174600655Y-133784345D01*
X174829821Y-133972417D01*
X174858152Y-133987560D01*
X174717567Y-134080292D01*
X174506694Y-134288674D01*
X174340526Y-134534191D01*
X174225449Y-134807409D01*
X174208698Y-134894969D01*
X174329754Y-135128000D01*
X175768000Y-135128000D01*
X175768000Y-135108000D01*
X176022000Y-135108000D01*
X176022000Y-135128000D01*
X177460246Y-135128000D01*
X177581302Y-134894969D01*
X177564551Y-134807409D01*
X177449474Y-134534191D01*
X177283306Y-134288674D01*
X177072433Y-134080292D01*
X176931848Y-133987560D01*
X176960179Y-133972417D01*
X177189345Y-133784345D01*
X177377417Y-133555179D01*
X177517166Y-133293725D01*
X177603224Y-133010032D01*
X177632282Y-132715000D01*
X177603224Y-132419968D01*
X177517166Y-132136275D01*
X177377417Y-131874821D01*
X177189345Y-131645655D01*
X176960179Y-131457583D01*
X176936638Y-131445000D01*
X176960179Y-131432417D01*
X177189345Y-131244345D01*
X177377417Y-131015179D01*
X177517166Y-130753725D01*
X177603224Y-130470032D01*
X177632282Y-130175000D01*
X177603224Y-129879968D01*
X177517166Y-129596275D01*
X177377417Y-129334821D01*
X177189345Y-129105655D01*
X177123886Y-129051934D01*
X177233387Y-128993405D01*
X177367962Y-128882962D01*
X177478405Y-128748387D01*
X177560472Y-128594851D01*
X177611008Y-128428255D01*
X177628072Y-128255001D01*
X177628072Y-127014999D01*
X177611008Y-126841745D01*
X177560472Y-126675149D01*
X177478405Y-126521613D01*
X177367962Y-126387038D01*
X177233387Y-126276595D01*
X177079851Y-126194528D01*
X176913255Y-126143992D01*
X176784000Y-126131262D01*
X176784000Y-116398660D01*
X176788300Y-116355000D01*
X176784000Y-116311340D01*
X176784000Y-116311333D01*
X176771136Y-116180726D01*
X176720303Y-116013149D01*
X176637753Y-115858709D01*
X176526659Y-115723341D01*
X176492742Y-115695506D01*
X175589042Y-114791807D01*
X175625000Y-114611033D01*
X175625000Y-114288967D01*
X175562168Y-113973088D01*
X175438918Y-113675537D01*
X175259987Y-113407748D01*
X175032252Y-113180013D01*
X174764463Y-113001082D01*
X174466912Y-112877832D01*
X174151033Y-112815000D01*
X173828967Y-112815000D01*
X173513088Y-112877832D01*
X173215537Y-113001082D01*
X172947748Y-113180013D01*
X172720013Y-113407748D01*
X172541082Y-113675537D01*
X172417832Y-113973088D01*
X172355000Y-114288967D01*
X172355000Y-114611033D01*
X172417832Y-114926912D01*
X172541082Y-115224463D01*
X172720013Y-115492252D01*
X172947748Y-115719987D01*
X173215537Y-115898918D01*
X173513088Y-116022168D01*
X173828967Y-116085000D01*
X174151033Y-116085000D01*
X174331807Y-116049042D01*
X175006001Y-116723237D01*
X175006000Y-126131262D01*
X174876745Y-126143992D01*
X174710149Y-126194528D01*
X174556613Y-126276595D01*
X174422038Y-126387038D01*
X174311595Y-126521613D01*
X174229528Y-126675149D01*
X174208036Y-126746000D01*
X167421964Y-126746000D01*
X167400472Y-126675149D01*
X167318405Y-126521613D01*
X167207962Y-126387038D01*
X167073387Y-126276595D01*
X166919851Y-126194528D01*
X166753255Y-126143992D01*
X166580001Y-126126928D01*
X164889999Y-126126928D01*
X164716745Y-126143992D01*
X164550149Y-126194528D01*
X164396613Y-126276595D01*
X164262038Y-126387038D01*
X164151595Y-126521613D01*
X164069528Y-126675149D01*
X164048036Y-126746000D01*
X157261964Y-126746000D01*
X157240472Y-126675149D01*
X157158405Y-126521613D01*
X157047962Y-126387038D01*
X156913387Y-126276595D01*
X156759851Y-126194528D01*
X156593255Y-126143992D01*
X156420001Y-126126928D01*
X154729999Y-126126928D01*
X154556745Y-126143992D01*
X154390149Y-126194528D01*
X154236613Y-126276595D01*
X154102038Y-126387038D01*
X153991595Y-126521613D01*
X153909528Y-126675149D01*
X153888036Y-126746000D01*
X147101964Y-126746000D01*
X147080472Y-126675149D01*
X146998405Y-126521613D01*
X146887962Y-126387038D01*
X146753387Y-126276595D01*
X146599851Y-126194528D01*
X146433255Y-126143992D01*
X146260001Y-126126928D01*
X144569999Y-126126928D01*
X144396745Y-126143992D01*
X144230149Y-126194528D01*
X144076613Y-126276595D01*
X143942038Y-126387038D01*
X143831595Y-126521613D01*
X143749528Y-126675149D01*
X143728036Y-126746000D01*
X136941964Y-126746000D01*
X136920472Y-126675149D01*
X136838405Y-126521613D01*
X136727962Y-126387038D01*
X136593387Y-126276595D01*
X136439851Y-126194528D01*
X136273255Y-126143992D01*
X136100001Y-126126928D01*
X134409999Y-126126928D01*
X134236745Y-126143992D01*
X134070149Y-126194528D01*
X133916613Y-126276595D01*
X133782038Y-126387038D01*
X133671595Y-126521613D01*
X133589528Y-126675149D01*
X133568036Y-126746000D01*
X126781964Y-126746000D01*
X126760472Y-126675149D01*
X126678405Y-126521613D01*
X126567962Y-126387038D01*
X126433387Y-126276595D01*
X126279851Y-126194528D01*
X126113255Y-126143992D01*
X125940001Y-126126928D01*
X124249999Y-126126928D01*
X124076745Y-126143992D01*
X123910149Y-126194528D01*
X123756613Y-126276595D01*
X123622038Y-126387038D01*
X123511595Y-126521613D01*
X123429528Y-126675149D01*
X123408036Y-126746000D01*
X116621964Y-126746000D01*
X116600472Y-126675149D01*
X116518405Y-126521613D01*
X116407962Y-126387038D01*
X116273387Y-126276595D01*
X116119851Y-126194528D01*
X115953255Y-126143992D01*
X115780001Y-126126928D01*
X114089999Y-126126928D01*
X113916745Y-126143992D01*
X113750149Y-126194528D01*
X113596613Y-126276595D01*
X113462038Y-126387038D01*
X113351595Y-126521613D01*
X113269528Y-126675149D01*
X113248036Y-126746000D01*
X106461964Y-126746000D01*
X106440472Y-126675149D01*
X106358405Y-126521613D01*
X106247962Y-126387038D01*
X106113387Y-126276595D01*
X105959851Y-126194528D01*
X105793255Y-126143992D01*
X105620001Y-126126928D01*
X103929999Y-126126928D01*
X103756745Y-126143992D01*
X103590149Y-126194528D01*
X103436613Y-126276595D01*
X103302038Y-126387038D01*
X103191595Y-126521613D01*
X103109528Y-126675149D01*
X103058992Y-126841745D01*
X103041928Y-127014999D01*
X103041928Y-128255001D01*
X103058992Y-128428255D01*
X103109528Y-128594851D01*
X103191595Y-128748387D01*
X103302038Y-128882962D01*
X103436613Y-128993405D01*
X103546114Y-129051934D01*
X103480655Y-129105655D01*
X103292583Y-129334821D01*
X103152834Y-129596275D01*
X103066776Y-129879968D01*
X103037718Y-130175000D01*
X90576000Y-130175000D01*
X90576000Y-119038000D01*
X125638928Y-119038000D01*
X125638928Y-120738000D01*
X125651188Y-120862482D01*
X125687498Y-120982180D01*
X125746463Y-121092494D01*
X125825815Y-121189185D01*
X125922506Y-121268537D01*
X126032820Y-121327502D01*
X126105380Y-121349513D01*
X125973525Y-121481368D01*
X125811010Y-121724589D01*
X125699068Y-121994842D01*
X125642000Y-122281740D01*
X125642000Y-122574260D01*
X125699068Y-122861158D01*
X125811010Y-123131411D01*
X125973525Y-123374632D01*
X126180368Y-123581475D01*
X126423589Y-123743990D01*
X126693842Y-123855932D01*
X126980740Y-123913000D01*
X127273260Y-123913000D01*
X127560158Y-123855932D01*
X127830411Y-123743990D01*
X128073632Y-123581475D01*
X128280475Y-123374632D01*
X128442990Y-123131411D01*
X128554932Y-122861158D01*
X128612000Y-122574260D01*
X128612000Y-122281740D01*
X128554932Y-121994842D01*
X128442990Y-121724589D01*
X128280475Y-121481368D01*
X128148620Y-121349513D01*
X128221180Y-121327502D01*
X128331494Y-121268537D01*
X128428185Y-121189185D01*
X128507537Y-121092494D01*
X128566502Y-120982180D01*
X128602812Y-120862482D01*
X128615072Y-120738000D01*
X128615072Y-119038000D01*
X129321928Y-119038000D01*
X129321928Y-120738000D01*
X129334188Y-120862482D01*
X129370498Y-120982180D01*
X129429463Y-121092494D01*
X129508815Y-121189185D01*
X129605506Y-121268537D01*
X129715820Y-121327502D01*
X129788380Y-121349513D01*
X129656525Y-121481368D01*
X129494010Y-121724589D01*
X129382068Y-121994842D01*
X129325000Y-122281740D01*
X129325000Y-122574260D01*
X129382068Y-122861158D01*
X129494010Y-123131411D01*
X129656525Y-123374632D01*
X129863368Y-123581475D01*
X130106589Y-123743990D01*
X130376842Y-123855932D01*
X130663740Y-123913000D01*
X130956260Y-123913000D01*
X131243158Y-123855932D01*
X131513411Y-123743990D01*
X131756632Y-123581475D01*
X131963475Y-123374632D01*
X132125990Y-123131411D01*
X132237932Y-122861158D01*
X132295000Y-122574260D01*
X132295000Y-122281740D01*
X132237932Y-121994842D01*
X132125990Y-121724589D01*
X131963475Y-121481368D01*
X131831620Y-121349513D01*
X131904180Y-121327502D01*
X132014494Y-121268537D01*
X132111185Y-121189185D01*
X132190537Y-121092494D01*
X132249502Y-120982180D01*
X132285812Y-120862482D01*
X132298072Y-120738000D01*
X132298072Y-119038000D01*
X133131928Y-119038000D01*
X133131928Y-120738000D01*
X133144188Y-120862482D01*
X133180498Y-120982180D01*
X133239463Y-121092494D01*
X133318815Y-121189185D01*
X133415506Y-121268537D01*
X133525820Y-121327502D01*
X133598380Y-121349513D01*
X133466525Y-121481368D01*
X133304010Y-121724589D01*
X133192068Y-121994842D01*
X133135000Y-122281740D01*
X133135000Y-122574260D01*
X133192068Y-122861158D01*
X133304010Y-123131411D01*
X133466525Y-123374632D01*
X133673368Y-123581475D01*
X133916589Y-123743990D01*
X134186842Y-123855932D01*
X134473740Y-123913000D01*
X134766260Y-123913000D01*
X135053158Y-123855932D01*
X135323411Y-123743990D01*
X135566632Y-123581475D01*
X135773475Y-123374632D01*
X135935990Y-123131411D01*
X136047932Y-122861158D01*
X136105000Y-122574260D01*
X136105000Y-122281740D01*
X136047932Y-121994842D01*
X135935990Y-121724589D01*
X135773475Y-121481368D01*
X135641620Y-121349513D01*
X135714180Y-121327502D01*
X135824494Y-121268537D01*
X135921185Y-121189185D01*
X136000537Y-121092494D01*
X136059502Y-120982180D01*
X136095812Y-120862482D01*
X136108072Y-120738000D01*
X136108072Y-119038000D01*
X136941928Y-119038000D01*
X136941928Y-120738000D01*
X136954188Y-120862482D01*
X136990498Y-120982180D01*
X137049463Y-121092494D01*
X137128815Y-121189185D01*
X137225506Y-121268537D01*
X137335820Y-121327502D01*
X137408380Y-121349513D01*
X137276525Y-121481368D01*
X137114010Y-121724589D01*
X137002068Y-121994842D01*
X136945000Y-122281740D01*
X136945000Y-122574260D01*
X137002068Y-122861158D01*
X137114010Y-123131411D01*
X137276525Y-123374632D01*
X137483368Y-123581475D01*
X137726589Y-123743990D01*
X137996842Y-123855932D01*
X138283740Y-123913000D01*
X138576260Y-123913000D01*
X138863158Y-123855932D01*
X139133411Y-123743990D01*
X139376632Y-123581475D01*
X139583475Y-123374632D01*
X139598401Y-123352294D01*
X139598401Y-125101600D01*
X139585280Y-125114721D01*
X139479651Y-125272806D01*
X139406892Y-125448462D01*
X139369800Y-125634936D01*
X139369800Y-125825064D01*
X139406892Y-126011538D01*
X139479651Y-126187194D01*
X139585280Y-126345279D01*
X139719721Y-126479720D01*
X139877806Y-126585349D01*
X140053462Y-126658108D01*
X140239936Y-126695200D01*
X140430064Y-126695200D01*
X140616538Y-126658108D01*
X140792194Y-126585349D01*
X140950279Y-126479720D01*
X141084720Y-126345279D01*
X141190349Y-126187194D01*
X141263108Y-126011538D01*
X141300200Y-125825064D01*
X141300200Y-125634936D01*
X141263108Y-125448462D01*
X141190349Y-125272806D01*
X141084720Y-125114721D01*
X141071600Y-125101601D01*
X141071600Y-123352295D01*
X141086525Y-123374632D01*
X141293368Y-123581475D01*
X141536589Y-123743990D01*
X141806842Y-123855932D01*
X142093740Y-123913000D01*
X142386260Y-123913000D01*
X142673158Y-123855932D01*
X142943411Y-123743990D01*
X143186632Y-123581475D01*
X143393475Y-123374632D01*
X143555990Y-123131411D01*
X143667932Y-122861158D01*
X143725000Y-122574260D01*
X143725000Y-122281740D01*
X143667932Y-121994842D01*
X143555990Y-121724589D01*
X143393475Y-121481368D01*
X143261620Y-121349513D01*
X143334180Y-121327502D01*
X143444494Y-121268537D01*
X143541185Y-121189185D01*
X143620537Y-121092494D01*
X143679502Y-120982180D01*
X143715812Y-120862482D01*
X143728072Y-120738000D01*
X143728072Y-119038000D01*
X144561928Y-119038000D01*
X144561928Y-120738000D01*
X144574188Y-120862482D01*
X144610498Y-120982180D01*
X144669463Y-121092494D01*
X144748815Y-121189185D01*
X144845506Y-121268537D01*
X144955820Y-121327502D01*
X145028380Y-121349513D01*
X144896525Y-121481368D01*
X144734010Y-121724589D01*
X144622068Y-121994842D01*
X144565000Y-122281740D01*
X144565000Y-122574260D01*
X144622068Y-122861158D01*
X144734010Y-123131411D01*
X144896525Y-123374632D01*
X145103368Y-123581475D01*
X145346589Y-123743990D01*
X145616842Y-123855932D01*
X145903740Y-123913000D01*
X146196260Y-123913000D01*
X146483158Y-123855932D01*
X146753411Y-123743990D01*
X146996632Y-123581475D01*
X147203475Y-123374632D01*
X147365990Y-123131411D01*
X147477932Y-122861158D01*
X147535000Y-122574260D01*
X147535000Y-122281740D01*
X147477932Y-121994842D01*
X147365990Y-121724589D01*
X147203475Y-121481368D01*
X147071620Y-121349513D01*
X147144180Y-121327502D01*
X147254494Y-121268537D01*
X147351185Y-121189185D01*
X147430537Y-121092494D01*
X147489502Y-120982180D01*
X147525812Y-120862482D01*
X147538072Y-120738000D01*
X147538072Y-119038000D01*
X148371928Y-119038000D01*
X148371928Y-120738000D01*
X148384188Y-120862482D01*
X148420498Y-120982180D01*
X148479463Y-121092494D01*
X148558815Y-121189185D01*
X148655506Y-121268537D01*
X148765820Y-121327502D01*
X148838380Y-121349513D01*
X148706525Y-121481368D01*
X148544010Y-121724589D01*
X148432068Y-121994842D01*
X148375000Y-122281740D01*
X148375000Y-122574260D01*
X148432068Y-122861158D01*
X148544010Y-123131411D01*
X148706525Y-123374632D01*
X148913368Y-123581475D01*
X149156589Y-123743990D01*
X149426842Y-123855932D01*
X149713740Y-123913000D01*
X150006260Y-123913000D01*
X150293158Y-123855932D01*
X150563411Y-123743990D01*
X150806632Y-123581475D01*
X151013475Y-123374632D01*
X151175990Y-123131411D01*
X151287932Y-122861158D01*
X151345000Y-122574260D01*
X151345000Y-122281740D01*
X151287932Y-121994842D01*
X151175990Y-121724589D01*
X151013475Y-121481368D01*
X150881620Y-121349513D01*
X150954180Y-121327502D01*
X151064494Y-121268537D01*
X151161185Y-121189185D01*
X151240537Y-121092494D01*
X151299502Y-120982180D01*
X151335812Y-120862482D01*
X151348072Y-120738000D01*
X151348072Y-119038000D01*
X152181928Y-119038000D01*
X152181928Y-120738000D01*
X152194188Y-120862482D01*
X152230498Y-120982180D01*
X152289463Y-121092494D01*
X152368815Y-121189185D01*
X152465506Y-121268537D01*
X152575820Y-121327502D01*
X152648380Y-121349513D01*
X152516525Y-121481368D01*
X152354010Y-121724589D01*
X152242068Y-121994842D01*
X152185000Y-122281740D01*
X152185000Y-122574260D01*
X152242068Y-122861158D01*
X152354010Y-123131411D01*
X152516525Y-123374632D01*
X152723368Y-123581475D01*
X152966589Y-123743990D01*
X153236842Y-123855932D01*
X153523740Y-123913000D01*
X153816260Y-123913000D01*
X154103158Y-123855932D01*
X154373411Y-123743990D01*
X154616632Y-123581475D01*
X154823475Y-123374632D01*
X154985990Y-123131411D01*
X155097932Y-122861158D01*
X155155000Y-122574260D01*
X155155000Y-122281740D01*
X155097932Y-121994842D01*
X154985990Y-121724589D01*
X154823475Y-121481368D01*
X154691620Y-121349513D01*
X154764180Y-121327502D01*
X154874494Y-121268537D01*
X154971185Y-121189185D01*
X155050537Y-121092494D01*
X155109502Y-120982180D01*
X155145812Y-120862482D01*
X155158072Y-120738000D01*
X155158072Y-120503740D01*
X166155000Y-120503740D01*
X166155000Y-120796260D01*
X166212068Y-121083158D01*
X166324010Y-121353411D01*
X166486525Y-121596632D01*
X166693368Y-121803475D01*
X166936589Y-121965990D01*
X167206842Y-122077932D01*
X167493740Y-122135000D01*
X167786260Y-122135000D01*
X168073158Y-122077932D01*
X168343411Y-121965990D01*
X168586632Y-121803475D01*
X168718487Y-121671620D01*
X168740498Y-121744180D01*
X168799463Y-121854494D01*
X168878815Y-121951185D01*
X168975506Y-122030537D01*
X169085820Y-122089502D01*
X169205518Y-122125812D01*
X169330000Y-122138072D01*
X171030000Y-122138072D01*
X171154482Y-122125812D01*
X171274180Y-122089502D01*
X171384494Y-122030537D01*
X171481185Y-121951185D01*
X171560537Y-121854494D01*
X171619502Y-121744180D01*
X171655812Y-121624482D01*
X171668072Y-121500000D01*
X171668072Y-119800000D01*
X171655812Y-119675518D01*
X171619502Y-119555820D01*
X171560537Y-119445506D01*
X171481185Y-119348815D01*
X171384494Y-119269463D01*
X171274180Y-119210498D01*
X171154482Y-119174188D01*
X171030000Y-119161928D01*
X169330000Y-119161928D01*
X169205518Y-119174188D01*
X169085820Y-119210498D01*
X168975506Y-119269463D01*
X168878815Y-119348815D01*
X168799463Y-119445506D01*
X168740498Y-119555820D01*
X168718487Y-119628380D01*
X168586632Y-119496525D01*
X168343411Y-119334010D01*
X168073158Y-119222068D01*
X167786260Y-119165000D01*
X167493740Y-119165000D01*
X167206842Y-119222068D01*
X166936589Y-119334010D01*
X166693368Y-119496525D01*
X166486525Y-119703368D01*
X166324010Y-119946589D01*
X166212068Y-120216842D01*
X166155000Y-120503740D01*
X155158072Y-120503740D01*
X155158072Y-119038000D01*
X155145812Y-118913518D01*
X155109502Y-118793820D01*
X155050537Y-118683506D01*
X154971185Y-118586815D01*
X154874494Y-118507463D01*
X154764180Y-118448498D01*
X154644482Y-118412188D01*
X154520000Y-118399928D01*
X152820000Y-118399928D01*
X152695518Y-118412188D01*
X152575820Y-118448498D01*
X152465506Y-118507463D01*
X152368815Y-118586815D01*
X152289463Y-118683506D01*
X152230498Y-118793820D01*
X152194188Y-118913518D01*
X152181928Y-119038000D01*
X151348072Y-119038000D01*
X151335812Y-118913518D01*
X151299502Y-118793820D01*
X151240537Y-118683506D01*
X151161185Y-118586815D01*
X151064494Y-118507463D01*
X150954180Y-118448498D01*
X150834482Y-118412188D01*
X150710000Y-118399928D01*
X149010000Y-118399928D01*
X148885518Y-118412188D01*
X148765820Y-118448498D01*
X148655506Y-118507463D01*
X148558815Y-118586815D01*
X148479463Y-118683506D01*
X148420498Y-118793820D01*
X148384188Y-118913518D01*
X148371928Y-119038000D01*
X147538072Y-119038000D01*
X147525812Y-118913518D01*
X147489502Y-118793820D01*
X147430537Y-118683506D01*
X147351185Y-118586815D01*
X147254494Y-118507463D01*
X147144180Y-118448498D01*
X147024482Y-118412188D01*
X146900000Y-118399928D01*
X145200000Y-118399928D01*
X145075518Y-118412188D01*
X144955820Y-118448498D01*
X144845506Y-118507463D01*
X144748815Y-118586815D01*
X144669463Y-118683506D01*
X144610498Y-118793820D01*
X144574188Y-118913518D01*
X144561928Y-119038000D01*
X143728072Y-119038000D01*
X143715812Y-118913518D01*
X143679502Y-118793820D01*
X143620537Y-118683506D01*
X143541185Y-118586815D01*
X143444494Y-118507463D01*
X143334180Y-118448498D01*
X143214482Y-118412188D01*
X143090000Y-118399928D01*
X141390000Y-118399928D01*
X141265518Y-118412188D01*
X141145820Y-118448498D01*
X141071600Y-118488170D01*
X141071600Y-114928399D01*
X141084720Y-114915279D01*
X141135062Y-114839936D01*
X147624800Y-114839936D01*
X147624800Y-115030064D01*
X147661892Y-115216538D01*
X147734651Y-115392194D01*
X147840280Y-115550279D01*
X147974721Y-115684720D01*
X148132806Y-115790349D01*
X148308462Y-115863108D01*
X148494936Y-115900200D01*
X148685064Y-115900200D01*
X148871538Y-115863108D01*
X149047194Y-115790349D01*
X149205279Y-115684720D01*
X149218399Y-115671600D01*
X155919817Y-115671600D01*
X155956000Y-115675164D01*
X155992183Y-115671600D01*
X155992186Y-115671600D01*
X156100399Y-115660942D01*
X156239249Y-115618822D01*
X156367213Y-115550424D01*
X156479375Y-115458375D01*
X156502446Y-115430263D01*
X156746109Y-115186600D01*
X159770399Y-115186600D01*
X159786082Y-115224463D01*
X159965013Y-115492252D01*
X160192748Y-115719987D01*
X160460537Y-115898918D01*
X160758088Y-116022168D01*
X161073967Y-116085000D01*
X161396033Y-116085000D01*
X161711912Y-116022168D01*
X162009463Y-115898918D01*
X162277252Y-115719987D01*
X162504987Y-115492252D01*
X162683918Y-115224463D01*
X162807168Y-114926912D01*
X162870000Y-114611033D01*
X162870000Y-114288967D01*
X164100000Y-114288967D01*
X164100000Y-114611033D01*
X164162832Y-114926912D01*
X164286082Y-115224463D01*
X164465013Y-115492252D01*
X164692748Y-115719987D01*
X164960537Y-115898918D01*
X165258088Y-116022168D01*
X165573967Y-116085000D01*
X165896033Y-116085000D01*
X166211912Y-116022168D01*
X166509463Y-115898918D01*
X166777252Y-115719987D01*
X167004987Y-115492252D01*
X167183918Y-115224463D01*
X167307168Y-114926912D01*
X167370000Y-114611033D01*
X167370000Y-114288967D01*
X167855000Y-114288967D01*
X167855000Y-114611033D01*
X167917832Y-114926912D01*
X168041082Y-115224463D01*
X168220013Y-115492252D01*
X168447748Y-115719987D01*
X168715537Y-115898918D01*
X169013088Y-116022168D01*
X169328967Y-116085000D01*
X169651033Y-116085000D01*
X169966912Y-116022168D01*
X170264463Y-115898918D01*
X170532252Y-115719987D01*
X170759987Y-115492252D01*
X170938918Y-115224463D01*
X171062168Y-114926912D01*
X171125000Y-114611033D01*
X171125000Y-114288967D01*
X171062168Y-113973088D01*
X170938918Y-113675537D01*
X170759987Y-113407748D01*
X170532252Y-113180013D01*
X170264463Y-113001082D01*
X169966912Y-112877832D01*
X169651033Y-112815000D01*
X169328967Y-112815000D01*
X169013088Y-112877832D01*
X168715537Y-113001082D01*
X168447748Y-113180013D01*
X168220013Y-113407748D01*
X168041082Y-113675537D01*
X167917832Y-113973088D01*
X167855000Y-114288967D01*
X167370000Y-114288967D01*
X167307168Y-113973088D01*
X167183918Y-113675537D01*
X167004987Y-113407748D01*
X166777252Y-113180013D01*
X166509463Y-113001082D01*
X166211912Y-112877832D01*
X165896033Y-112815000D01*
X165573967Y-112815000D01*
X165258088Y-112877832D01*
X164960537Y-113001082D01*
X164692748Y-113180013D01*
X164465013Y-113407748D01*
X164286082Y-113675537D01*
X164162832Y-113973088D01*
X164100000Y-114288967D01*
X162870000Y-114288967D01*
X162807168Y-113973088D01*
X162683918Y-113675537D01*
X162504987Y-113407748D01*
X162277252Y-113180013D01*
X162009463Y-113001082D01*
X161711912Y-112877832D01*
X161396033Y-112815000D01*
X161073967Y-112815000D01*
X160758088Y-112877832D01*
X160460537Y-113001082D01*
X160192748Y-113180013D01*
X159965013Y-113407748D01*
X159786082Y-113675537D01*
X159770399Y-113713400D01*
X156477186Y-113713400D01*
X156441000Y-113709836D01*
X156404814Y-113713400D01*
X156296601Y-113724058D01*
X156157751Y-113766178D01*
X156029787Y-113834576D01*
X155917625Y-113926625D01*
X155894554Y-113954737D01*
X155650891Y-114198400D01*
X149218399Y-114198400D01*
X149205279Y-114185280D01*
X149047194Y-114079651D01*
X148871538Y-114006892D01*
X148685064Y-113969800D01*
X148494936Y-113969800D01*
X148308462Y-114006892D01*
X148132806Y-114079651D01*
X147974721Y-114185280D01*
X147840280Y-114319721D01*
X147734651Y-114477806D01*
X147661892Y-114653462D01*
X147624800Y-114839936D01*
X141135062Y-114839936D01*
X141190349Y-114757194D01*
X141263108Y-114581538D01*
X141300200Y-114395064D01*
X141300200Y-114204936D01*
X141263108Y-114018462D01*
X141190349Y-113842806D01*
X141084720Y-113684721D01*
X140950279Y-113550280D01*
X140792194Y-113444651D01*
X140616538Y-113371892D01*
X140430064Y-113334800D01*
X140239936Y-113334800D01*
X140053462Y-113371892D01*
X139877806Y-113444651D01*
X139719721Y-113550280D01*
X139585280Y-113684721D01*
X139479651Y-113842806D01*
X139406892Y-114018462D01*
X139369800Y-114204936D01*
X139369800Y-114395064D01*
X139406892Y-114581538D01*
X139479651Y-114757194D01*
X139585280Y-114915279D01*
X139598400Y-114928399D01*
X139598400Y-118488170D01*
X139524180Y-118448498D01*
X139404482Y-118412188D01*
X139280000Y-118399928D01*
X137580000Y-118399928D01*
X137455518Y-118412188D01*
X137335820Y-118448498D01*
X137225506Y-118507463D01*
X137128815Y-118586815D01*
X137049463Y-118683506D01*
X136990498Y-118793820D01*
X136954188Y-118913518D01*
X136941928Y-119038000D01*
X136108072Y-119038000D01*
X136095812Y-118913518D01*
X136059502Y-118793820D01*
X136000537Y-118683506D01*
X135921185Y-118586815D01*
X135824494Y-118507463D01*
X135714180Y-118448498D01*
X135594482Y-118412188D01*
X135470000Y-118399928D01*
X133770000Y-118399928D01*
X133645518Y-118412188D01*
X133525820Y-118448498D01*
X133415506Y-118507463D01*
X133318815Y-118586815D01*
X133239463Y-118683506D01*
X133180498Y-118793820D01*
X133144188Y-118913518D01*
X133131928Y-119038000D01*
X132298072Y-119038000D01*
X132285812Y-118913518D01*
X132249502Y-118793820D01*
X132190537Y-118683506D01*
X132111185Y-118586815D01*
X132014494Y-118507463D01*
X131904180Y-118448498D01*
X131784482Y-118412188D01*
X131660000Y-118399928D01*
X129960000Y-118399928D01*
X129835518Y-118412188D01*
X129715820Y-118448498D01*
X129605506Y-118507463D01*
X129508815Y-118586815D01*
X129429463Y-118683506D01*
X129370498Y-118793820D01*
X129334188Y-118913518D01*
X129321928Y-119038000D01*
X128615072Y-119038000D01*
X128602812Y-118913518D01*
X128566502Y-118793820D01*
X128507537Y-118683506D01*
X128428185Y-118586815D01*
X128331494Y-118507463D01*
X128221180Y-118448498D01*
X128101482Y-118412188D01*
X127977000Y-118399928D01*
X126277000Y-118399928D01*
X126152518Y-118412188D01*
X126032820Y-118448498D01*
X125922506Y-118507463D01*
X125825815Y-118586815D01*
X125746463Y-118683506D01*
X125687498Y-118793820D01*
X125651188Y-118913518D01*
X125638928Y-119038000D01*
X90576000Y-119038000D01*
X90576000Y-115930031D01*
X105501698Y-115930031D01*
X105518449Y-116017591D01*
X105633526Y-116290809D01*
X105799694Y-116536326D01*
X106010567Y-116744708D01*
X106258042Y-116907947D01*
X106532608Y-117019769D01*
X106823714Y-117075877D01*
X107061000Y-116920376D01*
X107061000Y-115697000D01*
X107315000Y-115697000D01*
X107315000Y-116920376D01*
X107552286Y-117075877D01*
X107843392Y-117019769D01*
X108117958Y-116907947D01*
X108365433Y-116744708D01*
X108576306Y-116536326D01*
X108742474Y-116290809D01*
X108857551Y-116017591D01*
X108874302Y-115930031D01*
X115153698Y-115930031D01*
X115170449Y-116017591D01*
X115285526Y-116290809D01*
X115451694Y-116536326D01*
X115662567Y-116744708D01*
X115910042Y-116907947D01*
X116184608Y-117019769D01*
X116475714Y-117075877D01*
X116713000Y-116920376D01*
X116713000Y-115697000D01*
X116967000Y-115697000D01*
X116967000Y-116920376D01*
X117204286Y-117075877D01*
X117495392Y-117019769D01*
X117769958Y-116907947D01*
X118017433Y-116744708D01*
X118228306Y-116536326D01*
X118394474Y-116290809D01*
X118509551Y-116017591D01*
X118526302Y-115930031D01*
X118405246Y-115697000D01*
X116967000Y-115697000D01*
X116713000Y-115697000D01*
X115274754Y-115697000D01*
X115153698Y-115930031D01*
X108874302Y-115930031D01*
X108753246Y-115697000D01*
X107315000Y-115697000D01*
X107061000Y-115697000D01*
X105622754Y-115697000D01*
X105501698Y-115930031D01*
X90576000Y-115930031D01*
X90576000Y-115206500D01*
X93405428Y-115206500D01*
X93417688Y-115330982D01*
X93453998Y-115450680D01*
X93512963Y-115560994D01*
X93592315Y-115657685D01*
X93689006Y-115737037D01*
X93799320Y-115796002D01*
X93919018Y-115832312D01*
X94043500Y-115844572D01*
X94964250Y-115841500D01*
X95123000Y-115682750D01*
X95123000Y-114127000D01*
X95377000Y-114127000D01*
X95377000Y-115682750D01*
X95535750Y-115841500D01*
X96456500Y-115844572D01*
X96580982Y-115832312D01*
X96700680Y-115796002D01*
X96810994Y-115737037D01*
X96907685Y-115657685D01*
X96987037Y-115560994D01*
X97046002Y-115450680D01*
X97082312Y-115330982D01*
X97094572Y-115206500D01*
X97091500Y-114285750D01*
X96932750Y-114127000D01*
X95377000Y-114127000D01*
X95123000Y-114127000D01*
X93567250Y-114127000D01*
X93408500Y-114285750D01*
X93405428Y-115206500D01*
X90576000Y-115206500D01*
X90576000Y-112793500D01*
X93405428Y-112793500D01*
X93408500Y-113714250D01*
X93567250Y-113873000D01*
X95123000Y-113873000D01*
X95123000Y-112317250D01*
X95377000Y-112317250D01*
X95377000Y-113873000D01*
X96932750Y-113873000D01*
X97091500Y-113714250D01*
X97094572Y-112793500D01*
X97082312Y-112669018D01*
X97046002Y-112549320D01*
X96987037Y-112439006D01*
X96907685Y-112342315D01*
X96810994Y-112262963D01*
X96700680Y-112203998D01*
X96580982Y-112167688D01*
X96456500Y-112155428D01*
X95535750Y-112158500D01*
X95377000Y-112317250D01*
X95123000Y-112317250D01*
X94964250Y-112158500D01*
X94043500Y-112155428D01*
X93919018Y-112167688D01*
X93799320Y-112203998D01*
X93689006Y-112262963D01*
X93592315Y-112342315D01*
X93512963Y-112439006D01*
X93453998Y-112549320D01*
X93417688Y-112669018D01*
X93405428Y-112793500D01*
X90576000Y-112793500D01*
X90576000Y-107713500D01*
X93405428Y-107713500D01*
X93405428Y-110126500D01*
X93417688Y-110250982D01*
X93453998Y-110370680D01*
X93512963Y-110480994D01*
X93592315Y-110577685D01*
X93689006Y-110657037D01*
X93799320Y-110716002D01*
X93919018Y-110752312D01*
X94043500Y-110764572D01*
X96456500Y-110764572D01*
X96580982Y-110752312D01*
X96700680Y-110716002D01*
X96810994Y-110657037D01*
X96907685Y-110577685D01*
X96979645Y-110490000D01*
X105450718Y-110490000D01*
X105479776Y-110785032D01*
X105565834Y-111068725D01*
X105705583Y-111330179D01*
X105893655Y-111559345D01*
X106122821Y-111747417D01*
X106146362Y-111760000D01*
X106122821Y-111772583D01*
X105893655Y-111960655D01*
X105705583Y-112189821D01*
X105565834Y-112451275D01*
X105479776Y-112734968D01*
X105450718Y-113030000D01*
X105479776Y-113325032D01*
X105565834Y-113608725D01*
X105705583Y-113870179D01*
X105893655Y-114099345D01*
X106122821Y-114287417D01*
X106151152Y-114302560D01*
X106010567Y-114395292D01*
X105799694Y-114603674D01*
X105633526Y-114849191D01*
X105518449Y-115122409D01*
X105501698Y-115209969D01*
X105622754Y-115443000D01*
X107061000Y-115443000D01*
X107061000Y-115423000D01*
X107315000Y-115423000D01*
X107315000Y-115443000D01*
X108753246Y-115443000D01*
X108874302Y-115209969D01*
X108857551Y-115122409D01*
X108742474Y-114849191D01*
X108576306Y-114603674D01*
X108365433Y-114395292D01*
X108224848Y-114302560D01*
X108253179Y-114287417D01*
X108482345Y-114099345D01*
X108670417Y-113870179D01*
X108810166Y-113608725D01*
X108896224Y-113325032D01*
X108925282Y-113030000D01*
X108896224Y-112734968D01*
X108810166Y-112451275D01*
X108670417Y-112189821D01*
X108482345Y-111960655D01*
X108253179Y-111772583D01*
X108229638Y-111760000D01*
X108253179Y-111747417D01*
X108482345Y-111559345D01*
X108670417Y-111330179D01*
X108810166Y-111068725D01*
X108896224Y-110785032D01*
X108925282Y-110490000D01*
X115102718Y-110490000D01*
X115131776Y-110785032D01*
X115217834Y-111068725D01*
X115357583Y-111330179D01*
X115545655Y-111559345D01*
X115774821Y-111747417D01*
X115798362Y-111760000D01*
X115774821Y-111772583D01*
X115545655Y-111960655D01*
X115357583Y-112189821D01*
X115217834Y-112451275D01*
X115131776Y-112734968D01*
X115102718Y-113030000D01*
X115131776Y-113325032D01*
X115217834Y-113608725D01*
X115357583Y-113870179D01*
X115545655Y-114099345D01*
X115774821Y-114287417D01*
X115803152Y-114302560D01*
X115662567Y-114395292D01*
X115451694Y-114603674D01*
X115285526Y-114849191D01*
X115170449Y-115122409D01*
X115153698Y-115209969D01*
X115274754Y-115443000D01*
X116713000Y-115443000D01*
X116713000Y-115423000D01*
X116967000Y-115423000D01*
X116967000Y-115443000D01*
X118405246Y-115443000D01*
X118526302Y-115209969D01*
X118509551Y-115122409D01*
X118394474Y-114849191D01*
X118228306Y-114603674D01*
X118017433Y-114395292D01*
X117876848Y-114302560D01*
X117905179Y-114287417D01*
X118134345Y-114099345D01*
X118322417Y-113870179D01*
X118462166Y-113608725D01*
X118548224Y-113325032D01*
X118577282Y-113030000D01*
X118548224Y-112734968D01*
X118462166Y-112451275D01*
X118322417Y-112189821D01*
X118134345Y-111960655D01*
X117905179Y-111772583D01*
X117881638Y-111760000D01*
X117905179Y-111747417D01*
X118134345Y-111559345D01*
X118322417Y-111330179D01*
X118462166Y-111068725D01*
X118548224Y-110785032D01*
X118577282Y-110490000D01*
X118548224Y-110194968D01*
X118462166Y-109911275D01*
X118322417Y-109649821D01*
X118134345Y-109420655D01*
X118068886Y-109366934D01*
X118178387Y-109308405D01*
X118312962Y-109197962D01*
X118423405Y-109063387D01*
X118505472Y-108909851D01*
X118526964Y-108839000D01*
X123571000Y-108839000D01*
X123571001Y-110114045D01*
X123531892Y-110208462D01*
X123494800Y-110394936D01*
X123494800Y-110585064D01*
X123531892Y-110771538D01*
X123604651Y-110947194D01*
X123710280Y-111105279D01*
X123844721Y-111239720D01*
X124002806Y-111345349D01*
X124178462Y-111418108D01*
X124364936Y-111455200D01*
X124555064Y-111455200D01*
X124741538Y-111418108D01*
X124917194Y-111345349D01*
X125075279Y-111239720D01*
X125209720Y-111105279D01*
X125315349Y-110947194D01*
X125388108Y-110771538D01*
X125425200Y-110585064D01*
X125425200Y-110394936D01*
X125388108Y-110208462D01*
X125349000Y-110114047D01*
X125349000Y-108953235D01*
X126513268Y-107788967D01*
X159600000Y-107788967D01*
X159600000Y-108111033D01*
X159662832Y-108426912D01*
X159786082Y-108724463D01*
X159965013Y-108992252D01*
X160192748Y-109219987D01*
X160460537Y-109398918D01*
X160758088Y-109522168D01*
X161073967Y-109585000D01*
X161396033Y-109585000D01*
X161711912Y-109522168D01*
X162009463Y-109398918D01*
X162277252Y-109219987D01*
X162504987Y-108992252D01*
X162683918Y-108724463D01*
X162807168Y-108426912D01*
X162870000Y-108111033D01*
X162870000Y-107788967D01*
X162807168Y-107473088D01*
X162683918Y-107175537D01*
X162504987Y-106907748D01*
X162277252Y-106680013D01*
X162009463Y-106501082D01*
X161711912Y-106377832D01*
X161396033Y-106315000D01*
X161073967Y-106315000D01*
X160758088Y-106377832D01*
X160460537Y-106501082D01*
X160192748Y-106680013D01*
X159965013Y-106907748D01*
X159786082Y-107175537D01*
X159662832Y-107473088D01*
X159600000Y-107788967D01*
X126513268Y-107788967D01*
X128511236Y-105791000D01*
X137116333Y-105791000D01*
X137160000Y-105795301D01*
X137203667Y-105791000D01*
X162318765Y-105791000D01*
X164135958Y-107608194D01*
X164100000Y-107788967D01*
X164100000Y-108111033D01*
X164162832Y-108426912D01*
X164286082Y-108724463D01*
X164465013Y-108992252D01*
X164692748Y-109219987D01*
X164960537Y-109398918D01*
X165258088Y-109522168D01*
X165573967Y-109585000D01*
X165896033Y-109585000D01*
X166211912Y-109522168D01*
X166509463Y-109398918D01*
X166777252Y-109219987D01*
X167004987Y-108992252D01*
X167183918Y-108724463D01*
X167307168Y-108426912D01*
X167370000Y-108111033D01*
X167370000Y-107788967D01*
X167855000Y-107788967D01*
X167855000Y-108111033D01*
X167917832Y-108426912D01*
X168041082Y-108724463D01*
X168220013Y-108992252D01*
X168447748Y-109219987D01*
X168715537Y-109398918D01*
X169013088Y-109522168D01*
X169328967Y-109585000D01*
X169651033Y-109585000D01*
X169966912Y-109522168D01*
X170264463Y-109398918D01*
X170532252Y-109219987D01*
X170759987Y-108992252D01*
X170938918Y-108724463D01*
X171062168Y-108426912D01*
X171125000Y-108111033D01*
X171125000Y-107788967D01*
X172355000Y-107788967D01*
X172355000Y-108111033D01*
X172417832Y-108426912D01*
X172541082Y-108724463D01*
X172720013Y-108992252D01*
X172947748Y-109219987D01*
X173215537Y-109398918D01*
X173513088Y-109522168D01*
X173828967Y-109585000D01*
X174151033Y-109585000D01*
X174466912Y-109522168D01*
X174764463Y-109398918D01*
X175032252Y-109219987D01*
X175259987Y-108992252D01*
X175438918Y-108724463D01*
X175562168Y-108426912D01*
X175625000Y-108111033D01*
X175625000Y-107788967D01*
X175562168Y-107473088D01*
X175438918Y-107175537D01*
X175259987Y-106907748D01*
X175032252Y-106680013D01*
X174764463Y-106501082D01*
X174466912Y-106377832D01*
X174151033Y-106315000D01*
X173828967Y-106315000D01*
X173513088Y-106377832D01*
X173215537Y-106501082D01*
X172947748Y-106680013D01*
X172720013Y-106907748D01*
X172541082Y-107175537D01*
X172417832Y-107473088D01*
X172355000Y-107788967D01*
X171125000Y-107788967D01*
X171062168Y-107473088D01*
X170938918Y-107175537D01*
X170759987Y-106907748D01*
X170532252Y-106680013D01*
X170264463Y-106501082D01*
X169966912Y-106377832D01*
X169651033Y-106315000D01*
X169328967Y-106315000D01*
X169013088Y-106377832D01*
X168715537Y-106501082D01*
X168447748Y-106680013D01*
X168220013Y-106907748D01*
X168041082Y-107175537D01*
X167917832Y-107473088D01*
X167855000Y-107788967D01*
X167370000Y-107788967D01*
X167307168Y-107473088D01*
X167183918Y-107175537D01*
X167004987Y-106907748D01*
X166777252Y-106680013D01*
X166509463Y-106501082D01*
X166211912Y-106377832D01*
X165896033Y-106315000D01*
X165573967Y-106315000D01*
X165393194Y-106350958D01*
X163346499Y-104304264D01*
X163318659Y-104270341D01*
X163183291Y-104159247D01*
X163028851Y-104076697D01*
X162861274Y-104025864D01*
X162730667Y-104013000D01*
X162730660Y-104013000D01*
X162687000Y-104008700D01*
X162643340Y-104013000D01*
X138049000Y-104013000D01*
X138049000Y-97694936D01*
X155879800Y-97694936D01*
X155879800Y-97885064D01*
X155916892Y-98071538D01*
X155989651Y-98247194D01*
X156095280Y-98405279D01*
X156108400Y-98418399D01*
X156108401Y-100971600D01*
X156095280Y-100984721D01*
X155989651Y-101142806D01*
X155916892Y-101318462D01*
X155879800Y-101504936D01*
X155879800Y-101695064D01*
X155916892Y-101881538D01*
X155989651Y-102057194D01*
X156095280Y-102215279D01*
X156229721Y-102349720D01*
X156387806Y-102455349D01*
X156563462Y-102528108D01*
X156749936Y-102565200D01*
X156940064Y-102565200D01*
X157126538Y-102528108D01*
X157302194Y-102455349D01*
X157460279Y-102349720D01*
X157594720Y-102215279D01*
X157700349Y-102057194D01*
X157773108Y-101881538D01*
X157810200Y-101695064D01*
X157810200Y-101504936D01*
X157773108Y-101318462D01*
X157700349Y-101142806D01*
X157594720Y-100984721D01*
X157581600Y-100971601D01*
X157581600Y-98418399D01*
X157594720Y-98405279D01*
X157700349Y-98247194D01*
X157773108Y-98071538D01*
X157810200Y-97885064D01*
X157810200Y-97694936D01*
X159054800Y-97694936D01*
X159054800Y-97885064D01*
X159091892Y-98071538D01*
X159164651Y-98247194D01*
X159270280Y-98405279D01*
X159283400Y-98418399D01*
X159283401Y-101606600D01*
X159270280Y-101619721D01*
X159164651Y-101777806D01*
X159091892Y-101953462D01*
X159054800Y-102139936D01*
X159054800Y-102330064D01*
X159091892Y-102516538D01*
X159164651Y-102692194D01*
X159270280Y-102850279D01*
X159404721Y-102984720D01*
X159562806Y-103090349D01*
X159738462Y-103163108D01*
X159924936Y-103200200D01*
X160115064Y-103200200D01*
X160301538Y-103163108D01*
X160477194Y-103090349D01*
X160635279Y-102984720D01*
X160769720Y-102850279D01*
X160875349Y-102692194D01*
X160948108Y-102516538D01*
X160985200Y-102330064D01*
X160985200Y-102139936D01*
X160948108Y-101953462D01*
X160875349Y-101777806D01*
X160769720Y-101619721D01*
X160756600Y-101606601D01*
X160756600Y-98418399D01*
X160769720Y-98405279D01*
X160875349Y-98247194D01*
X160948108Y-98071538D01*
X160985200Y-97885064D01*
X160985200Y-97694936D01*
X162229800Y-97694936D01*
X162229800Y-97885064D01*
X162266892Y-98071538D01*
X162339651Y-98247194D01*
X162445280Y-98405279D01*
X162458400Y-98418399D01*
X162458401Y-102241600D01*
X162445280Y-102254721D01*
X162339651Y-102412806D01*
X162266892Y-102588462D01*
X162229800Y-102774936D01*
X162229800Y-102965064D01*
X162266892Y-103151538D01*
X162339651Y-103327194D01*
X162445280Y-103485279D01*
X162579721Y-103619720D01*
X162737806Y-103725349D01*
X162913462Y-103798108D01*
X163099936Y-103835200D01*
X163290064Y-103835200D01*
X163476538Y-103798108D01*
X163652194Y-103725349D01*
X163810279Y-103619720D01*
X163944720Y-103485279D01*
X164050349Y-103327194D01*
X164123108Y-103151538D01*
X164160200Y-102965064D01*
X164160200Y-102774936D01*
X164123108Y-102588462D01*
X164050349Y-102412806D01*
X163944720Y-102254721D01*
X163931600Y-102241601D01*
X163931600Y-98418399D01*
X163944720Y-98405279D01*
X164050349Y-98247194D01*
X164123108Y-98071538D01*
X164160200Y-97885064D01*
X164160200Y-97694936D01*
X165404800Y-97694936D01*
X165404800Y-97885064D01*
X165441892Y-98071538D01*
X165514651Y-98247194D01*
X165620280Y-98405279D01*
X165633400Y-98418399D01*
X165633401Y-102876600D01*
X165620280Y-102889721D01*
X165514651Y-103047806D01*
X165441892Y-103223462D01*
X165404800Y-103409936D01*
X165404800Y-103600064D01*
X165441892Y-103786538D01*
X165514651Y-103962194D01*
X165620280Y-104120279D01*
X165754721Y-104254720D01*
X165912806Y-104360349D01*
X166088462Y-104433108D01*
X166274936Y-104470200D01*
X166465064Y-104470200D01*
X166651538Y-104433108D01*
X166827194Y-104360349D01*
X166985279Y-104254720D01*
X167119720Y-104120279D01*
X167225349Y-103962194D01*
X167298108Y-103786538D01*
X167335200Y-103600064D01*
X167335200Y-103409936D01*
X167298108Y-103223462D01*
X167225349Y-103047806D01*
X167119720Y-102889721D01*
X167106600Y-102876601D01*
X167106600Y-98418399D01*
X167119720Y-98405279D01*
X167225349Y-98247194D01*
X167298108Y-98071538D01*
X167335200Y-97885064D01*
X167335200Y-97694936D01*
X168579800Y-97694936D01*
X168579800Y-97885064D01*
X168616892Y-98071538D01*
X168689651Y-98247194D01*
X168795280Y-98405279D01*
X168808400Y-98418399D01*
X168808401Y-103511600D01*
X168795280Y-103524721D01*
X168689651Y-103682806D01*
X168616892Y-103858462D01*
X168579800Y-104044936D01*
X168579800Y-104235064D01*
X168616892Y-104421538D01*
X168689651Y-104597194D01*
X168795280Y-104755279D01*
X168929721Y-104889720D01*
X169087806Y-104995349D01*
X169263462Y-105068108D01*
X169449936Y-105105200D01*
X169640064Y-105105200D01*
X169826538Y-105068108D01*
X170002194Y-104995349D01*
X170160279Y-104889720D01*
X170294720Y-104755279D01*
X170400349Y-104597194D01*
X170473108Y-104421538D01*
X170510200Y-104235064D01*
X170510200Y-104044936D01*
X170473108Y-103858462D01*
X170400349Y-103682806D01*
X170294720Y-103524721D01*
X170281600Y-103511601D01*
X170281600Y-100823665D01*
X178397000Y-100823665D01*
X178397000Y-101106335D01*
X178452147Y-101383574D01*
X178560320Y-101644727D01*
X178717363Y-101879759D01*
X178917241Y-102079637D01*
X179149759Y-102235000D01*
X178917241Y-102390363D01*
X178717363Y-102590241D01*
X178560320Y-102825273D01*
X178452147Y-103086426D01*
X178397000Y-103363665D01*
X178397000Y-103646335D01*
X178452147Y-103923574D01*
X178560320Y-104184727D01*
X178717363Y-104419759D01*
X178917241Y-104619637D01*
X179149759Y-104775000D01*
X178917241Y-104930363D01*
X178717363Y-105130241D01*
X178560320Y-105365273D01*
X178452147Y-105626426D01*
X178397000Y-105903665D01*
X178397000Y-106186335D01*
X178452147Y-106463574D01*
X178560320Y-106724727D01*
X178717363Y-106959759D01*
X178917241Y-107159637D01*
X179149759Y-107315000D01*
X178917241Y-107470363D01*
X178717363Y-107670241D01*
X178560320Y-107905273D01*
X178452147Y-108166426D01*
X178397000Y-108443665D01*
X178397000Y-108726335D01*
X178452147Y-109003574D01*
X178560320Y-109264727D01*
X178717363Y-109499759D01*
X178917241Y-109699637D01*
X179149759Y-109855000D01*
X178917241Y-110010363D01*
X178717363Y-110210241D01*
X178560320Y-110445273D01*
X178452147Y-110706426D01*
X178397000Y-110983665D01*
X178397000Y-111266335D01*
X178452147Y-111543574D01*
X178560320Y-111804727D01*
X178717363Y-112039759D01*
X178917241Y-112239637D01*
X179149759Y-112395000D01*
X178917241Y-112550363D01*
X178717363Y-112750241D01*
X178560320Y-112985273D01*
X178452147Y-113246426D01*
X178397000Y-113523665D01*
X178397000Y-113806335D01*
X178452147Y-114083574D01*
X178560320Y-114344727D01*
X178717363Y-114579759D01*
X178917241Y-114779637D01*
X179152273Y-114936680D01*
X179413426Y-115044853D01*
X179690665Y-115100000D01*
X179973335Y-115100000D01*
X180250574Y-115044853D01*
X180511727Y-114936680D01*
X180746759Y-114779637D01*
X180946637Y-114579759D01*
X181023316Y-114465000D01*
X186013928Y-114465000D01*
X186026188Y-114589482D01*
X186062498Y-114709180D01*
X186121463Y-114819494D01*
X186200815Y-114916185D01*
X186297506Y-114995537D01*
X186407820Y-115054502D01*
X186527518Y-115090812D01*
X186652000Y-115103072D01*
X187166250Y-115100000D01*
X187325000Y-114941250D01*
X187325000Y-113792000D01*
X187579000Y-113792000D01*
X187579000Y-114941250D01*
X187737750Y-115100000D01*
X188252000Y-115103072D01*
X188376482Y-115090812D01*
X188496180Y-115054502D01*
X188606494Y-114995537D01*
X188703185Y-114916185D01*
X188782537Y-114819494D01*
X188841502Y-114709180D01*
X188877812Y-114589482D01*
X188890072Y-114465000D01*
X188887000Y-113950750D01*
X188728250Y-113792000D01*
X187579000Y-113792000D01*
X187325000Y-113792000D01*
X186175750Y-113792000D01*
X186017000Y-113950750D01*
X186013928Y-114465000D01*
X181023316Y-114465000D01*
X181103680Y-114344727D01*
X181211853Y-114083574D01*
X181267000Y-113806335D01*
X181267000Y-113523665D01*
X181211853Y-113246426D01*
X181103680Y-112985273D01*
X181023317Y-112865000D01*
X186013928Y-112865000D01*
X186017000Y-113379250D01*
X186175750Y-113538000D01*
X187325000Y-113538000D01*
X187325000Y-111252000D01*
X187579000Y-111252000D01*
X187579000Y-113538000D01*
X188728250Y-113538000D01*
X188887000Y-113379250D01*
X188890072Y-112865000D01*
X188877812Y-112740518D01*
X188841502Y-112620820D01*
X188782537Y-112510506D01*
X188703185Y-112413815D01*
X188606494Y-112334463D01*
X188496180Y-112275498D01*
X188376482Y-112239188D01*
X188351920Y-112236769D01*
X188515519Y-112088414D01*
X188683037Y-111862420D01*
X188803246Y-111608087D01*
X188843904Y-111474039D01*
X188721915Y-111252000D01*
X187579000Y-111252000D01*
X187325000Y-111252000D01*
X186182085Y-111252000D01*
X186060096Y-111474039D01*
X186100754Y-111608087D01*
X186220963Y-111862420D01*
X186388481Y-112088414D01*
X186552080Y-112236769D01*
X186527518Y-112239188D01*
X186407820Y-112275498D01*
X186297506Y-112334463D01*
X186200815Y-112413815D01*
X186121463Y-112510506D01*
X186062498Y-112620820D01*
X186026188Y-112740518D01*
X186013928Y-112865000D01*
X181023317Y-112865000D01*
X180946637Y-112750241D01*
X180746759Y-112550363D01*
X180514241Y-112395000D01*
X180746759Y-112239637D01*
X180946637Y-112039759D01*
X181103680Y-111804727D01*
X181211853Y-111543574D01*
X181267000Y-111266335D01*
X181267000Y-110983665D01*
X181211853Y-110706426D01*
X181103680Y-110445273D01*
X180946637Y-110210241D01*
X180746759Y-110010363D01*
X180514241Y-109855000D01*
X180746759Y-109699637D01*
X180946637Y-109499759D01*
X181103680Y-109264727D01*
X181211853Y-109003574D01*
X181225684Y-108934039D01*
X186060096Y-108934039D01*
X186100754Y-109068087D01*
X186220963Y-109322420D01*
X186388481Y-109548414D01*
X186596869Y-109737385D01*
X186792982Y-109855000D01*
X186596869Y-109972615D01*
X186388481Y-110161586D01*
X186220963Y-110387580D01*
X186100754Y-110641913D01*
X186060096Y-110775961D01*
X186182085Y-110998000D01*
X187325000Y-110998000D01*
X187325000Y-108712000D01*
X187579000Y-108712000D01*
X187579000Y-110998000D01*
X188721915Y-110998000D01*
X188843904Y-110775961D01*
X188803246Y-110641913D01*
X188683037Y-110387580D01*
X188515519Y-110161586D01*
X188307131Y-109972615D01*
X188111018Y-109855000D01*
X188307131Y-109737385D01*
X188515519Y-109548414D01*
X188683037Y-109322420D01*
X188803246Y-109068087D01*
X188843904Y-108934039D01*
X188721915Y-108712000D01*
X187579000Y-108712000D01*
X187325000Y-108712000D01*
X186182085Y-108712000D01*
X186060096Y-108934039D01*
X181225684Y-108934039D01*
X181267000Y-108726335D01*
X181267000Y-108443665D01*
X181211853Y-108166426D01*
X181103680Y-107905273D01*
X180946637Y-107670241D01*
X180746759Y-107470363D01*
X180514241Y-107315000D01*
X180746759Y-107159637D01*
X180946637Y-106959759D01*
X181103680Y-106724727D01*
X181211853Y-106463574D01*
X181225684Y-106394039D01*
X186060096Y-106394039D01*
X186100754Y-106528087D01*
X186220963Y-106782420D01*
X186388481Y-107008414D01*
X186596869Y-107197385D01*
X186792982Y-107315000D01*
X186596869Y-107432615D01*
X186388481Y-107621586D01*
X186220963Y-107847580D01*
X186100754Y-108101913D01*
X186060096Y-108235961D01*
X186182085Y-108458000D01*
X187325000Y-108458000D01*
X187325000Y-106172000D01*
X187579000Y-106172000D01*
X187579000Y-108458000D01*
X188721915Y-108458000D01*
X188843904Y-108235961D01*
X188803246Y-108101913D01*
X188683037Y-107847580D01*
X188515519Y-107621586D01*
X188307131Y-107432615D01*
X188111018Y-107315000D01*
X188307131Y-107197385D01*
X188515519Y-107008414D01*
X188683037Y-106782420D01*
X188803246Y-106528087D01*
X188843904Y-106394039D01*
X188721915Y-106172000D01*
X187579000Y-106172000D01*
X187325000Y-106172000D01*
X186182085Y-106172000D01*
X186060096Y-106394039D01*
X181225684Y-106394039D01*
X181267000Y-106186335D01*
X181267000Y-105903665D01*
X181211853Y-105626426D01*
X181103680Y-105365273D01*
X180946637Y-105130241D01*
X180746759Y-104930363D01*
X180514241Y-104775000D01*
X180746759Y-104619637D01*
X180946637Y-104419759D01*
X181103680Y-104184727D01*
X181211853Y-103923574D01*
X181225684Y-103854039D01*
X186060096Y-103854039D01*
X186100754Y-103988087D01*
X186220963Y-104242420D01*
X186388481Y-104468414D01*
X186596869Y-104657385D01*
X186792982Y-104775000D01*
X186596869Y-104892615D01*
X186388481Y-105081586D01*
X186220963Y-105307580D01*
X186100754Y-105561913D01*
X186060096Y-105695961D01*
X186182085Y-105918000D01*
X187325000Y-105918000D01*
X187325000Y-103632000D01*
X187579000Y-103632000D01*
X187579000Y-105918000D01*
X188721915Y-105918000D01*
X188843904Y-105695961D01*
X188803246Y-105561913D01*
X188683037Y-105307580D01*
X188515519Y-105081586D01*
X188307131Y-104892615D01*
X188111018Y-104775000D01*
X188307131Y-104657385D01*
X188515519Y-104468414D01*
X188683037Y-104242420D01*
X188803246Y-103988087D01*
X188843904Y-103854039D01*
X188721915Y-103632000D01*
X187579000Y-103632000D01*
X187325000Y-103632000D01*
X186182085Y-103632000D01*
X186060096Y-103854039D01*
X181225684Y-103854039D01*
X181267000Y-103646335D01*
X181267000Y-103363665D01*
X181211853Y-103086426D01*
X181103680Y-102825273D01*
X180946637Y-102590241D01*
X180746759Y-102390363D01*
X180514241Y-102235000D01*
X180746759Y-102079637D01*
X180946637Y-101879759D01*
X181103680Y-101644727D01*
X181211853Y-101383574D01*
X181225684Y-101314039D01*
X186060096Y-101314039D01*
X186100754Y-101448087D01*
X186220963Y-101702420D01*
X186388481Y-101928414D01*
X186596869Y-102117385D01*
X186792982Y-102235000D01*
X186596869Y-102352615D01*
X186388481Y-102541586D01*
X186220963Y-102767580D01*
X186100754Y-103021913D01*
X186060096Y-103155961D01*
X186182085Y-103378000D01*
X187325000Y-103378000D01*
X187325000Y-101092000D01*
X187579000Y-101092000D01*
X187579000Y-103378000D01*
X188721915Y-103378000D01*
X188843904Y-103155961D01*
X188803246Y-103021913D01*
X188683037Y-102767580D01*
X188515519Y-102541586D01*
X188307131Y-102352615D01*
X188111018Y-102235000D01*
X188307131Y-102117385D01*
X188515519Y-101928414D01*
X188683037Y-101702420D01*
X188803246Y-101448087D01*
X188843904Y-101314039D01*
X188721915Y-101092000D01*
X187579000Y-101092000D01*
X187325000Y-101092000D01*
X186182085Y-101092000D01*
X186060096Y-101314039D01*
X181225684Y-101314039D01*
X181267000Y-101106335D01*
X181267000Y-100823665D01*
X181225685Y-100615961D01*
X186060096Y-100615961D01*
X186182085Y-100838000D01*
X187325000Y-100838000D01*
X187325000Y-99694376D01*
X187579000Y-99694376D01*
X187579000Y-100838000D01*
X188721915Y-100838000D01*
X188843904Y-100615961D01*
X188803246Y-100481913D01*
X188683037Y-100227580D01*
X188515519Y-100001586D01*
X188307131Y-99812615D01*
X188065881Y-99667930D01*
X187801040Y-99573091D01*
X187579000Y-99694376D01*
X187325000Y-99694376D01*
X187102960Y-99573091D01*
X186838119Y-99667930D01*
X186596869Y-99812615D01*
X186388481Y-100001586D01*
X186220963Y-100227580D01*
X186100754Y-100481913D01*
X186060096Y-100615961D01*
X181225685Y-100615961D01*
X181211853Y-100546426D01*
X181103680Y-100285273D01*
X180946637Y-100050241D01*
X180746759Y-99850363D01*
X180511727Y-99693320D01*
X180250574Y-99585147D01*
X179973335Y-99530000D01*
X179690665Y-99530000D01*
X179413426Y-99585147D01*
X179152273Y-99693320D01*
X178917241Y-99850363D01*
X178717363Y-100050241D01*
X178560320Y-100285273D01*
X178452147Y-100546426D01*
X178397000Y-100823665D01*
X170281600Y-100823665D01*
X170281600Y-98418399D01*
X170294720Y-98405279D01*
X170400349Y-98247194D01*
X170473108Y-98071538D01*
X170510200Y-97885064D01*
X170510200Y-97694936D01*
X170473108Y-97508462D01*
X170400349Y-97332806D01*
X170294720Y-97174721D01*
X170160279Y-97040280D01*
X170002194Y-96934651D01*
X169826538Y-96861892D01*
X169640064Y-96824800D01*
X169449936Y-96824800D01*
X169263462Y-96861892D01*
X169087806Y-96934651D01*
X168929721Y-97040280D01*
X168795280Y-97174721D01*
X168689651Y-97332806D01*
X168616892Y-97508462D01*
X168579800Y-97694936D01*
X167335200Y-97694936D01*
X167298108Y-97508462D01*
X167225349Y-97332806D01*
X167119720Y-97174721D01*
X166985279Y-97040280D01*
X166827194Y-96934651D01*
X166651538Y-96861892D01*
X166465064Y-96824800D01*
X166274936Y-96824800D01*
X166088462Y-96861892D01*
X165912806Y-96934651D01*
X165754721Y-97040280D01*
X165620280Y-97174721D01*
X165514651Y-97332806D01*
X165441892Y-97508462D01*
X165404800Y-97694936D01*
X164160200Y-97694936D01*
X164123108Y-97508462D01*
X164050349Y-97332806D01*
X163944720Y-97174721D01*
X163810279Y-97040280D01*
X163652194Y-96934651D01*
X163476538Y-96861892D01*
X163290064Y-96824800D01*
X163099936Y-96824800D01*
X162913462Y-96861892D01*
X162737806Y-96934651D01*
X162579721Y-97040280D01*
X162445280Y-97174721D01*
X162339651Y-97332806D01*
X162266892Y-97508462D01*
X162229800Y-97694936D01*
X160985200Y-97694936D01*
X160948108Y-97508462D01*
X160875349Y-97332806D01*
X160769720Y-97174721D01*
X160635279Y-97040280D01*
X160477194Y-96934651D01*
X160301538Y-96861892D01*
X160115064Y-96824800D01*
X159924936Y-96824800D01*
X159738462Y-96861892D01*
X159562806Y-96934651D01*
X159404721Y-97040280D01*
X159270280Y-97174721D01*
X159164651Y-97332806D01*
X159091892Y-97508462D01*
X159054800Y-97694936D01*
X157810200Y-97694936D01*
X157773108Y-97508462D01*
X157700349Y-97332806D01*
X157594720Y-97174721D01*
X157460279Y-97040280D01*
X157302194Y-96934651D01*
X157126538Y-96861892D01*
X156940064Y-96824800D01*
X156749936Y-96824800D01*
X156563462Y-96861892D01*
X156387806Y-96934651D01*
X156229721Y-97040280D01*
X156095280Y-97174721D01*
X155989651Y-97332806D01*
X155916892Y-97508462D01*
X155879800Y-97694936D01*
X138049000Y-97694936D01*
X138049000Y-93901983D01*
X138106632Y-93863475D01*
X138313475Y-93656632D01*
X138435195Y-93474466D01*
X138504822Y-93591355D01*
X138699731Y-93807588D01*
X138933080Y-93981641D01*
X139195901Y-94106825D01*
X139343110Y-94151476D01*
X139573000Y-94030155D01*
X139573000Y-92837000D01*
X139553000Y-92837000D01*
X139553000Y-92583000D01*
X139573000Y-92583000D01*
X139573000Y-91389845D01*
X139827000Y-91389845D01*
X139827000Y-92583000D01*
X139847000Y-92583000D01*
X139847000Y-92837000D01*
X139827000Y-92837000D01*
X139827000Y-94030155D01*
X140056890Y-94151476D01*
X140204099Y-94106825D01*
X140466920Y-93981641D01*
X140700269Y-93807588D01*
X140895178Y-93591355D01*
X140964805Y-93474466D01*
X141086525Y-93656632D01*
X141293368Y-93863475D01*
X141536589Y-94025990D01*
X141806842Y-94137932D01*
X142093740Y-94195000D01*
X142386260Y-94195000D01*
X142673158Y-94137932D01*
X142943411Y-94025990D01*
X143186632Y-93863475D01*
X143393475Y-93656632D01*
X143510000Y-93482240D01*
X143626525Y-93656632D01*
X143833368Y-93863475D01*
X144076589Y-94025990D01*
X144346842Y-94137932D01*
X144633740Y-94195000D01*
X144926260Y-94195000D01*
X145213158Y-94137932D01*
X145483411Y-94025990D01*
X145726632Y-93863475D01*
X145933475Y-93656632D01*
X146050000Y-93482240D01*
X146166525Y-93656632D01*
X146373368Y-93863475D01*
X146616589Y-94025990D01*
X146886842Y-94137932D01*
X147173740Y-94195000D01*
X147466260Y-94195000D01*
X147753158Y-94137932D01*
X148023411Y-94025990D01*
X148266632Y-93863475D01*
X148473475Y-93656632D01*
X148635990Y-93413411D01*
X148747932Y-93143158D01*
X148805000Y-92856260D01*
X148805000Y-92563740D01*
X148747932Y-92276842D01*
X148635990Y-92006589D01*
X148473475Y-91763368D01*
X148266632Y-91556525D01*
X148023411Y-91394010D01*
X147753158Y-91282068D01*
X147466260Y-91225000D01*
X147173740Y-91225000D01*
X146886842Y-91282068D01*
X146616589Y-91394010D01*
X146373368Y-91556525D01*
X146166525Y-91763368D01*
X146050000Y-91937760D01*
X145933475Y-91763368D01*
X145726632Y-91556525D01*
X145483411Y-91394010D01*
X145213158Y-91282068D01*
X144926260Y-91225000D01*
X144633740Y-91225000D01*
X144346842Y-91282068D01*
X144076589Y-91394010D01*
X143833368Y-91556525D01*
X143626525Y-91763368D01*
X143510000Y-91937760D01*
X143393475Y-91763368D01*
X143186632Y-91556525D01*
X142943411Y-91394010D01*
X142673158Y-91282068D01*
X142386260Y-91225000D01*
X142093740Y-91225000D01*
X141806842Y-91282068D01*
X141536589Y-91394010D01*
X141293368Y-91556525D01*
X141086525Y-91763368D01*
X140964805Y-91945534D01*
X140895178Y-91828645D01*
X140700269Y-91612412D01*
X140466920Y-91438359D01*
X140204099Y-91313175D01*
X140056890Y-91268524D01*
X139827000Y-91389845D01*
X139573000Y-91389845D01*
X139343110Y-91268524D01*
X139195901Y-91313175D01*
X138933080Y-91438359D01*
X138699731Y-91612412D01*
X138504822Y-91828645D01*
X138435195Y-91945534D01*
X138313475Y-91763368D01*
X138106632Y-91556525D01*
X137863411Y-91394010D01*
X137593158Y-91282068D01*
X137306260Y-91225000D01*
X137013740Y-91225000D01*
X136726842Y-91282068D01*
X136456589Y-91394010D01*
X136213368Y-91556525D01*
X136081513Y-91688380D01*
X136059502Y-91615820D01*
X136000537Y-91505506D01*
X135921185Y-91408815D01*
X135824494Y-91329463D01*
X135714180Y-91270498D01*
X135594482Y-91234188D01*
X135470000Y-91221928D01*
X133770000Y-91221928D01*
X133645518Y-91234188D01*
X133525820Y-91270498D01*
X133415506Y-91329463D01*
X133318815Y-91408815D01*
X133239463Y-91505506D01*
X133180498Y-91615820D01*
X133144188Y-91735518D01*
X133131928Y-91860000D01*
X133131928Y-93560000D01*
X133144188Y-93684482D01*
X133180498Y-93804180D01*
X133239463Y-93914494D01*
X133318815Y-94011185D01*
X133415506Y-94090537D01*
X133525820Y-94149502D01*
X133645518Y-94185812D01*
X133770000Y-94198072D01*
X135470000Y-94198072D01*
X135594482Y-94185812D01*
X135714180Y-94149502D01*
X135824494Y-94090537D01*
X135921185Y-94011185D01*
X136000537Y-93914494D01*
X136059502Y-93804180D01*
X136081513Y-93731620D01*
X136213368Y-93863475D01*
X136271000Y-93901984D01*
X136271001Y-104013000D01*
X128186668Y-104013000D01*
X128143000Y-104008699D01*
X127968725Y-104025864D01*
X127917892Y-104041284D01*
X127801149Y-104076697D01*
X127646709Y-104159247D01*
X127511341Y-104270341D01*
X127483506Y-104304258D01*
X124520916Y-107266849D01*
X124448291Y-107207247D01*
X124293851Y-107124697D01*
X124126274Y-107073864D01*
X123995667Y-107061000D01*
X123995660Y-107061000D01*
X123952000Y-107056700D01*
X123908340Y-107061000D01*
X118526964Y-107061000D01*
X118505472Y-106990149D01*
X118423405Y-106836613D01*
X118312962Y-106702038D01*
X118178387Y-106591595D01*
X118024851Y-106509528D01*
X117858255Y-106458992D01*
X117685001Y-106441928D01*
X115994999Y-106441928D01*
X115821745Y-106458992D01*
X115655149Y-106509528D01*
X115501613Y-106591595D01*
X115367038Y-106702038D01*
X115256595Y-106836613D01*
X115174528Y-106990149D01*
X115123992Y-107156745D01*
X115106928Y-107329999D01*
X115106928Y-108570001D01*
X115123992Y-108743255D01*
X115174528Y-108909851D01*
X115256595Y-109063387D01*
X115367038Y-109197962D01*
X115501613Y-109308405D01*
X115611114Y-109366934D01*
X115545655Y-109420655D01*
X115357583Y-109649821D01*
X115217834Y-109911275D01*
X115131776Y-110194968D01*
X115102718Y-110490000D01*
X108925282Y-110490000D01*
X108896224Y-110194968D01*
X108810166Y-109911275D01*
X108670417Y-109649821D01*
X108482345Y-109420655D01*
X108416886Y-109366934D01*
X108526387Y-109308405D01*
X108660962Y-109197962D01*
X108771405Y-109063387D01*
X108853472Y-108909851D01*
X108904008Y-108743255D01*
X108921072Y-108570001D01*
X108921072Y-107329999D01*
X108904008Y-107156745D01*
X108853472Y-106990149D01*
X108771405Y-106836613D01*
X108660962Y-106702038D01*
X108526387Y-106591595D01*
X108372851Y-106509528D01*
X108206255Y-106458992D01*
X108033001Y-106441928D01*
X106342999Y-106441928D01*
X106169745Y-106458992D01*
X106003149Y-106509528D01*
X105849613Y-106591595D01*
X105715038Y-106702038D01*
X105604595Y-106836613D01*
X105522528Y-106990149D01*
X105471992Y-107156745D01*
X105454928Y-107329999D01*
X105454928Y-108570001D01*
X105471992Y-108743255D01*
X105522528Y-108909851D01*
X105604595Y-109063387D01*
X105715038Y-109197962D01*
X105849613Y-109308405D01*
X105959114Y-109366934D01*
X105893655Y-109420655D01*
X105705583Y-109649821D01*
X105565834Y-109911275D01*
X105479776Y-110194968D01*
X105450718Y-110490000D01*
X96979645Y-110490000D01*
X96987037Y-110480994D01*
X97046002Y-110370680D01*
X97082312Y-110250982D01*
X97094572Y-110126500D01*
X97094572Y-107713500D01*
X97082312Y-107589018D01*
X97046002Y-107469320D01*
X96987037Y-107359006D01*
X96907685Y-107262315D01*
X96810994Y-107182963D01*
X96700680Y-107123998D01*
X96580982Y-107087688D01*
X96456500Y-107075428D01*
X94043500Y-107075428D01*
X93919018Y-107087688D01*
X93799320Y-107123998D01*
X93689006Y-107182963D01*
X93592315Y-107262315D01*
X93512963Y-107359006D01*
X93453998Y-107469320D01*
X93417688Y-107589018D01*
X93405428Y-107713500D01*
X90576000Y-107713500D01*
X90576000Y-104044936D01*
X104444800Y-104044936D01*
X104444800Y-104235064D01*
X104481892Y-104421538D01*
X104554651Y-104597194D01*
X104660280Y-104755279D01*
X104794721Y-104889720D01*
X104952806Y-104995349D01*
X105128462Y-105068108D01*
X105314936Y-105105200D01*
X105505064Y-105105200D01*
X105691538Y-105068108D01*
X105867194Y-104995349D01*
X106025279Y-104889720D01*
X106038399Y-104876600D01*
X106559601Y-104876600D01*
X106572721Y-104889720D01*
X106730806Y-104995349D01*
X106906462Y-105068108D01*
X107092936Y-105105200D01*
X107283064Y-105105200D01*
X107469538Y-105068108D01*
X107645194Y-104995349D01*
X107803279Y-104889720D01*
X107937720Y-104755279D01*
X108043349Y-104597194D01*
X108116108Y-104421538D01*
X108153200Y-104235064D01*
X108153200Y-104044936D01*
X108116108Y-103858462D01*
X108043349Y-103682806D01*
X107937720Y-103524721D01*
X107803279Y-103390280D01*
X107645194Y-103284651D01*
X107469538Y-103211892D01*
X107283064Y-103174800D01*
X107092936Y-103174800D01*
X106906462Y-103211892D01*
X106730806Y-103284651D01*
X106572721Y-103390280D01*
X106559601Y-103403400D01*
X106038399Y-103403400D01*
X106025279Y-103390280D01*
X105867194Y-103284651D01*
X105691538Y-103211892D01*
X105505064Y-103174800D01*
X105314936Y-103174800D01*
X105128462Y-103211892D01*
X104952806Y-103284651D01*
X104794721Y-103390280D01*
X104660280Y-103524721D01*
X104554651Y-103682806D01*
X104481892Y-103858462D01*
X104444800Y-104044936D01*
X90576000Y-104044936D01*
X90576000Y-94183731D01*
X90601800Y-94186272D01*
X97358200Y-94186272D01*
X97482682Y-94174012D01*
X97602380Y-94137702D01*
X97712694Y-94078737D01*
X97809385Y-93999385D01*
X97888737Y-93902694D01*
X97947702Y-93792380D01*
X97984012Y-93672682D01*
X97996272Y-93548200D01*
X97996272Y-86791800D01*
X97993731Y-86766000D01*
X182676269Y-86766000D01*
X182673728Y-86791800D01*
G04 #@! TA.AperFunction,Conductor*
D23*
G36*
X182673728Y-86791800D02*
G01*
X182673728Y-93548200D01*
X182685988Y-93672682D01*
X182722298Y-93792380D01*
X182781263Y-93902694D01*
X182860615Y-93999385D01*
X182957306Y-94078737D01*
X183067620Y-94137702D01*
X183187318Y-94174012D01*
X183311800Y-94186272D01*
X190068200Y-94186272D01*
X190094000Y-94183731D01*
X190094001Y-135178269D01*
X190068200Y-135175728D01*
X183311800Y-135175728D01*
X183187318Y-135187988D01*
X183067620Y-135224298D01*
X182957306Y-135283263D01*
X182860615Y-135362615D01*
X182781263Y-135459306D01*
X182722298Y-135569620D01*
X182685988Y-135689318D01*
X182673728Y-135813800D01*
X182673728Y-142570200D01*
X182676269Y-142596000D01*
X97993731Y-142596000D01*
X97996272Y-142570200D01*
X97996272Y-140335000D01*
X103037718Y-140335000D01*
X103066776Y-140630032D01*
X103152834Y-140913725D01*
X103292583Y-141175179D01*
X103480655Y-141404345D01*
X103709821Y-141592417D01*
X103971275Y-141732166D01*
X104254968Y-141818224D01*
X104476064Y-141840000D01*
X105073936Y-141840000D01*
X105295032Y-141818224D01*
X105578725Y-141732166D01*
X105840179Y-141592417D01*
X106069345Y-141404345D01*
X106257417Y-141175179D01*
X106397166Y-140913725D01*
X106483224Y-140630032D01*
X106512282Y-140335000D01*
X113197718Y-140335000D01*
X113226776Y-140630032D01*
X113312834Y-140913725D01*
X113452583Y-141175179D01*
X113640655Y-141404345D01*
X113869821Y-141592417D01*
X114131275Y-141732166D01*
X114414968Y-141818224D01*
X114636064Y-141840000D01*
X115233936Y-141840000D01*
X115455032Y-141818224D01*
X115738725Y-141732166D01*
X116000179Y-141592417D01*
X116229345Y-141404345D01*
X116417417Y-141175179D01*
X116557166Y-140913725D01*
X116643224Y-140630032D01*
X116672282Y-140335000D01*
X123357718Y-140335000D01*
X123386776Y-140630032D01*
X123472834Y-140913725D01*
X123612583Y-141175179D01*
X123800655Y-141404345D01*
X124029821Y-141592417D01*
X124291275Y-141732166D01*
X124574968Y-141818224D01*
X124796064Y-141840000D01*
X125393936Y-141840000D01*
X125615032Y-141818224D01*
X125898725Y-141732166D01*
X126160179Y-141592417D01*
X126389345Y-141404345D01*
X126577417Y-141175179D01*
X126717166Y-140913725D01*
X126803224Y-140630032D01*
X126832282Y-140335000D01*
X133517718Y-140335000D01*
X133546776Y-140630032D01*
X133632834Y-140913725D01*
X133772583Y-141175179D01*
X133960655Y-141404345D01*
X134189821Y-141592417D01*
X134451275Y-141732166D01*
X134734968Y-141818224D01*
X134956064Y-141840000D01*
X135553936Y-141840000D01*
X135775032Y-141818224D01*
X136058725Y-141732166D01*
X136320179Y-141592417D01*
X136549345Y-141404345D01*
X136737417Y-141175179D01*
X136877166Y-140913725D01*
X136963224Y-140630032D01*
X136992282Y-140335000D01*
X143677718Y-140335000D01*
X143706776Y-140630032D01*
X143792834Y-140913725D01*
X143932583Y-141175179D01*
X144120655Y-141404345D01*
X144349821Y-141592417D01*
X144611275Y-141732166D01*
X144894968Y-141818224D01*
X145116064Y-141840000D01*
X145713936Y-141840000D01*
X145935032Y-141818224D01*
X146218725Y-141732166D01*
X146480179Y-141592417D01*
X146709345Y-141404345D01*
X146897417Y-141175179D01*
X147037166Y-140913725D01*
X147123224Y-140630032D01*
X147152282Y-140335000D01*
X153837718Y-140335000D01*
X153866776Y-140630032D01*
X153952834Y-140913725D01*
X154092583Y-141175179D01*
X154280655Y-141404345D01*
X154509821Y-141592417D01*
X154771275Y-141732166D01*
X155054968Y-141818224D01*
X155276064Y-141840000D01*
X155873936Y-141840000D01*
X156095032Y-141818224D01*
X156378725Y-141732166D01*
X156640179Y-141592417D01*
X156869345Y-141404345D01*
X157057417Y-141175179D01*
X157197166Y-140913725D01*
X157283224Y-140630032D01*
X157312282Y-140335000D01*
X163997718Y-140335000D01*
X164026776Y-140630032D01*
X164112834Y-140913725D01*
X164252583Y-141175179D01*
X164440655Y-141404345D01*
X164669821Y-141592417D01*
X164931275Y-141732166D01*
X165214968Y-141818224D01*
X165436064Y-141840000D01*
X166033936Y-141840000D01*
X166255032Y-141818224D01*
X166538725Y-141732166D01*
X166800179Y-141592417D01*
X167029345Y-141404345D01*
X167217417Y-141175179D01*
X167357166Y-140913725D01*
X167443224Y-140630032D01*
X167472282Y-140335000D01*
X174157718Y-140335000D01*
X174186776Y-140630032D01*
X174272834Y-140913725D01*
X174412583Y-141175179D01*
X174600655Y-141404345D01*
X174829821Y-141592417D01*
X175091275Y-141732166D01*
X175374968Y-141818224D01*
X175596064Y-141840000D01*
X176193936Y-141840000D01*
X176415032Y-141818224D01*
X176698725Y-141732166D01*
X176960179Y-141592417D01*
X177189345Y-141404345D01*
X177377417Y-141175179D01*
X177517166Y-140913725D01*
X177603224Y-140630032D01*
X177632282Y-140335000D01*
X177603224Y-140039968D01*
X177517166Y-139756275D01*
X177377417Y-139494821D01*
X177189345Y-139265655D01*
X176960179Y-139077583D01*
X176931848Y-139062440D01*
X177072433Y-138969708D01*
X177283306Y-138761326D01*
X177449474Y-138515809D01*
X177564551Y-138242591D01*
X177581302Y-138155031D01*
X177460246Y-137922000D01*
X176022000Y-137922000D01*
X176022000Y-137942000D01*
X175768000Y-137942000D01*
X175768000Y-137922000D01*
X174329754Y-137922000D01*
X174208698Y-138155031D01*
X174225449Y-138242591D01*
X174340526Y-138515809D01*
X174506694Y-138761326D01*
X174717567Y-138969708D01*
X174858152Y-139062440D01*
X174829821Y-139077583D01*
X174600655Y-139265655D01*
X174412583Y-139494821D01*
X174272834Y-139756275D01*
X174186776Y-140039968D01*
X174157718Y-140335000D01*
X167472282Y-140335000D01*
X167443224Y-140039968D01*
X167357166Y-139756275D01*
X167217417Y-139494821D01*
X167029345Y-139265655D01*
X166800179Y-139077583D01*
X166771848Y-139062440D01*
X166912433Y-138969708D01*
X167123306Y-138761326D01*
X167289474Y-138515809D01*
X167404551Y-138242591D01*
X167421302Y-138155031D01*
X167300246Y-137922000D01*
X165862000Y-137922000D01*
X165862000Y-137942000D01*
X165608000Y-137942000D01*
X165608000Y-137922000D01*
X164169754Y-137922000D01*
X164048698Y-138155031D01*
X164065449Y-138242591D01*
X164180526Y-138515809D01*
X164346694Y-138761326D01*
X164557567Y-138969708D01*
X164698152Y-139062440D01*
X164669821Y-139077583D01*
X164440655Y-139265655D01*
X164252583Y-139494821D01*
X164112834Y-139756275D01*
X164026776Y-140039968D01*
X163997718Y-140335000D01*
X157312282Y-140335000D01*
X157283224Y-140039968D01*
X157197166Y-139756275D01*
X157057417Y-139494821D01*
X156869345Y-139265655D01*
X156640179Y-139077583D01*
X156611848Y-139062440D01*
X156752433Y-138969708D01*
X156963306Y-138761326D01*
X157129474Y-138515809D01*
X157244551Y-138242591D01*
X157261302Y-138155031D01*
X157140246Y-137922000D01*
X155702000Y-137922000D01*
X155702000Y-137942000D01*
X155448000Y-137942000D01*
X155448000Y-137922000D01*
X154009754Y-137922000D01*
X153888698Y-138155031D01*
X153905449Y-138242591D01*
X154020526Y-138515809D01*
X154186694Y-138761326D01*
X154397567Y-138969708D01*
X154538152Y-139062440D01*
X154509821Y-139077583D01*
X154280655Y-139265655D01*
X154092583Y-139494821D01*
X153952834Y-139756275D01*
X153866776Y-140039968D01*
X153837718Y-140335000D01*
X147152282Y-140335000D01*
X147123224Y-140039968D01*
X147037166Y-139756275D01*
X146897417Y-139494821D01*
X146709345Y-139265655D01*
X146480179Y-139077583D01*
X146451848Y-139062440D01*
X146592433Y-138969708D01*
X146803306Y-138761326D01*
X146969474Y-138515809D01*
X147084551Y-138242591D01*
X147101302Y-138155031D01*
X146980246Y-137922000D01*
X145542000Y-137922000D01*
X145542000Y-137942000D01*
X145288000Y-137942000D01*
X145288000Y-137922000D01*
X143849754Y-137922000D01*
X143728698Y-138155031D01*
X143745449Y-138242591D01*
X143860526Y-138515809D01*
X144026694Y-138761326D01*
X144237567Y-138969708D01*
X144378152Y-139062440D01*
X144349821Y-139077583D01*
X144120655Y-139265655D01*
X143932583Y-139494821D01*
X143792834Y-139756275D01*
X143706776Y-140039968D01*
X143677718Y-140335000D01*
X136992282Y-140335000D01*
X136963224Y-140039968D01*
X136877166Y-139756275D01*
X136737417Y-139494821D01*
X136549345Y-139265655D01*
X136320179Y-139077583D01*
X136291848Y-139062440D01*
X136432433Y-138969708D01*
X136643306Y-138761326D01*
X136809474Y-138515809D01*
X136924551Y-138242591D01*
X136941302Y-138155031D01*
X136820246Y-137922000D01*
X135382000Y-137922000D01*
X135382000Y-137942000D01*
X135128000Y-137942000D01*
X135128000Y-137922000D01*
X133689754Y-137922000D01*
X133568698Y-138155031D01*
X133585449Y-138242591D01*
X133700526Y-138515809D01*
X133866694Y-138761326D01*
X134077567Y-138969708D01*
X134218152Y-139062440D01*
X134189821Y-139077583D01*
X133960655Y-139265655D01*
X133772583Y-139494821D01*
X133632834Y-139756275D01*
X133546776Y-140039968D01*
X133517718Y-140335000D01*
X126832282Y-140335000D01*
X126803224Y-140039968D01*
X126717166Y-139756275D01*
X126577417Y-139494821D01*
X126389345Y-139265655D01*
X126160179Y-139077583D01*
X126131848Y-139062440D01*
X126272433Y-138969708D01*
X126483306Y-138761326D01*
X126649474Y-138515809D01*
X126764551Y-138242591D01*
X126781302Y-138155031D01*
X126660246Y-137922000D01*
X125222000Y-137922000D01*
X125222000Y-137942000D01*
X124968000Y-137942000D01*
X124968000Y-137922000D01*
X123529754Y-137922000D01*
X123408698Y-138155031D01*
X123425449Y-138242591D01*
X123540526Y-138515809D01*
X123706694Y-138761326D01*
X123917567Y-138969708D01*
X124058152Y-139062440D01*
X124029821Y-139077583D01*
X123800655Y-139265655D01*
X123612583Y-139494821D01*
X123472834Y-139756275D01*
X123386776Y-140039968D01*
X123357718Y-140335000D01*
X116672282Y-140335000D01*
X116643224Y-140039968D01*
X116557166Y-139756275D01*
X116417417Y-139494821D01*
X116229345Y-139265655D01*
X116000179Y-139077583D01*
X115971848Y-139062440D01*
X116112433Y-138969708D01*
X116323306Y-138761326D01*
X116489474Y-138515809D01*
X116604551Y-138242591D01*
X116621302Y-138155031D01*
X116500246Y-137922000D01*
X115062000Y-137922000D01*
X115062000Y-137942000D01*
X114808000Y-137942000D01*
X114808000Y-137922000D01*
X113369754Y-137922000D01*
X113248698Y-138155031D01*
X113265449Y-138242591D01*
X113380526Y-138515809D01*
X113546694Y-138761326D01*
X113757567Y-138969708D01*
X113898152Y-139062440D01*
X113869821Y-139077583D01*
X113640655Y-139265655D01*
X113452583Y-139494821D01*
X113312834Y-139756275D01*
X113226776Y-140039968D01*
X113197718Y-140335000D01*
X106512282Y-140335000D01*
X106483224Y-140039968D01*
X106397166Y-139756275D01*
X106257417Y-139494821D01*
X106069345Y-139265655D01*
X105840179Y-139077583D01*
X105811848Y-139062440D01*
X105952433Y-138969708D01*
X106163306Y-138761326D01*
X106329474Y-138515809D01*
X106444551Y-138242591D01*
X106461302Y-138155031D01*
X106340246Y-137922000D01*
X104902000Y-137922000D01*
X104902000Y-137942000D01*
X104648000Y-137942000D01*
X104648000Y-137922000D01*
X103209754Y-137922000D01*
X103088698Y-138155031D01*
X103105449Y-138242591D01*
X103220526Y-138515809D01*
X103386694Y-138761326D01*
X103597567Y-138969708D01*
X103738152Y-139062440D01*
X103709821Y-139077583D01*
X103480655Y-139265655D01*
X103292583Y-139494821D01*
X103152834Y-139756275D01*
X103066776Y-140039968D01*
X103037718Y-140335000D01*
X97996272Y-140335000D01*
X97996272Y-135813800D01*
X97984012Y-135689318D01*
X97961478Y-135615031D01*
X103088698Y-135615031D01*
X103105449Y-135702591D01*
X103220526Y-135975809D01*
X103386694Y-136221326D01*
X103597567Y-136429708D01*
X103742032Y-136525000D01*
X103597567Y-136620292D01*
X103386694Y-136828674D01*
X103220526Y-137074191D01*
X103105449Y-137347409D01*
X103088698Y-137434969D01*
X103209754Y-137668000D01*
X104648000Y-137668000D01*
X104648000Y-135382000D01*
X104902000Y-135382000D01*
X104902000Y-137668000D01*
X106340246Y-137668000D01*
X106461302Y-137434969D01*
X106444551Y-137347409D01*
X106329474Y-137074191D01*
X106163306Y-136828674D01*
X105952433Y-136620292D01*
X105807968Y-136525000D01*
X105952433Y-136429708D01*
X106163306Y-136221326D01*
X106329474Y-135975809D01*
X106444551Y-135702591D01*
X106461302Y-135615031D01*
X113248698Y-135615031D01*
X113265449Y-135702591D01*
X113380526Y-135975809D01*
X113546694Y-136221326D01*
X113757567Y-136429708D01*
X113902032Y-136525000D01*
X113757567Y-136620292D01*
X113546694Y-136828674D01*
X113380526Y-137074191D01*
X113265449Y-137347409D01*
X113248698Y-137434969D01*
X113369754Y-137668000D01*
X114808000Y-137668000D01*
X114808000Y-135382000D01*
X115062000Y-135382000D01*
X115062000Y-137668000D01*
X116500246Y-137668000D01*
X116621302Y-137434969D01*
X116604551Y-137347409D01*
X116489474Y-137074191D01*
X116323306Y-136828674D01*
X116112433Y-136620292D01*
X115967968Y-136525000D01*
X116112433Y-136429708D01*
X116323306Y-136221326D01*
X116489474Y-135975809D01*
X116604551Y-135702591D01*
X116621302Y-135615031D01*
X123408698Y-135615031D01*
X123425449Y-135702591D01*
X123540526Y-135975809D01*
X123706694Y-136221326D01*
X123917567Y-136429708D01*
X124062032Y-136525000D01*
X123917567Y-136620292D01*
X123706694Y-136828674D01*
X123540526Y-137074191D01*
X123425449Y-137347409D01*
X123408698Y-137434969D01*
X123529754Y-137668000D01*
X124968000Y-137668000D01*
X124968000Y-135382000D01*
X125222000Y-135382000D01*
X125222000Y-137668000D01*
X126660246Y-137668000D01*
X126781302Y-137434969D01*
X126764551Y-137347409D01*
X126649474Y-137074191D01*
X126483306Y-136828674D01*
X126272433Y-136620292D01*
X126127968Y-136525000D01*
X126272433Y-136429708D01*
X126483306Y-136221326D01*
X126649474Y-135975809D01*
X126764551Y-135702591D01*
X126781302Y-135615031D01*
X133568698Y-135615031D01*
X133585449Y-135702591D01*
X133700526Y-135975809D01*
X133866694Y-136221326D01*
X134077567Y-136429708D01*
X134222032Y-136525000D01*
X134077567Y-136620292D01*
X133866694Y-136828674D01*
X133700526Y-137074191D01*
X133585449Y-137347409D01*
X133568698Y-137434969D01*
X133689754Y-137668000D01*
X135128000Y-137668000D01*
X135128000Y-135382000D01*
X135382000Y-135382000D01*
X135382000Y-137668000D01*
X136820246Y-137668000D01*
X136941302Y-137434969D01*
X136924551Y-137347409D01*
X136809474Y-137074191D01*
X136643306Y-136828674D01*
X136432433Y-136620292D01*
X136287968Y-136525000D01*
X136432433Y-136429708D01*
X136643306Y-136221326D01*
X136809474Y-135975809D01*
X136924551Y-135702591D01*
X136941302Y-135615031D01*
X143728698Y-135615031D01*
X143745449Y-135702591D01*
X143860526Y-135975809D01*
X144026694Y-136221326D01*
X144237567Y-136429708D01*
X144382032Y-136525000D01*
X144237567Y-136620292D01*
X144026694Y-136828674D01*
X143860526Y-137074191D01*
X143745449Y-137347409D01*
X143728698Y-137434969D01*
X143849754Y-137668000D01*
X145288000Y-137668000D01*
X145288000Y-135382000D01*
X145542000Y-135382000D01*
X145542000Y-137668000D01*
X146980246Y-137668000D01*
X147101302Y-137434969D01*
X147084551Y-137347409D01*
X146969474Y-137074191D01*
X146803306Y-136828674D01*
X146592433Y-136620292D01*
X146447968Y-136525000D01*
X146592433Y-136429708D01*
X146803306Y-136221326D01*
X146969474Y-135975809D01*
X147084551Y-135702591D01*
X147101302Y-135615031D01*
X153888698Y-135615031D01*
X153905449Y-135702591D01*
X154020526Y-135975809D01*
X154186694Y-136221326D01*
X154397567Y-136429708D01*
X154542032Y-136525000D01*
X154397567Y-136620292D01*
X154186694Y-136828674D01*
X154020526Y-137074191D01*
X153905449Y-137347409D01*
X153888698Y-137434969D01*
X154009754Y-137668000D01*
X155448000Y-137668000D01*
X155448000Y-135382000D01*
X155702000Y-135382000D01*
X155702000Y-137668000D01*
X157140246Y-137668000D01*
X157261302Y-137434969D01*
X157244551Y-137347409D01*
X157129474Y-137074191D01*
X156963306Y-136828674D01*
X156752433Y-136620292D01*
X156607968Y-136525000D01*
X156752433Y-136429708D01*
X156963306Y-136221326D01*
X157129474Y-135975809D01*
X157244551Y-135702591D01*
X157261302Y-135615031D01*
X164048698Y-135615031D01*
X164065449Y-135702591D01*
X164180526Y-135975809D01*
X164346694Y-136221326D01*
X164557567Y-136429708D01*
X164702032Y-136525000D01*
X164557567Y-136620292D01*
X164346694Y-136828674D01*
X164180526Y-137074191D01*
X164065449Y-137347409D01*
X164048698Y-137434969D01*
X164169754Y-137668000D01*
X165608000Y-137668000D01*
X165608000Y-135382000D01*
X165862000Y-135382000D01*
X165862000Y-137668000D01*
X167300246Y-137668000D01*
X167421302Y-137434969D01*
X167404551Y-137347409D01*
X167289474Y-137074191D01*
X167123306Y-136828674D01*
X166912433Y-136620292D01*
X166767968Y-136525000D01*
X166912433Y-136429708D01*
X167123306Y-136221326D01*
X167289474Y-135975809D01*
X167404551Y-135702591D01*
X167421302Y-135615031D01*
X174208698Y-135615031D01*
X174225449Y-135702591D01*
X174340526Y-135975809D01*
X174506694Y-136221326D01*
X174717567Y-136429708D01*
X174862032Y-136525000D01*
X174717567Y-136620292D01*
X174506694Y-136828674D01*
X174340526Y-137074191D01*
X174225449Y-137347409D01*
X174208698Y-137434969D01*
X174329754Y-137668000D01*
X175768000Y-137668000D01*
X175768000Y-135382000D01*
X176022000Y-135382000D01*
X176022000Y-137668000D01*
X177460246Y-137668000D01*
X177581302Y-137434969D01*
X177564551Y-137347409D01*
X177449474Y-137074191D01*
X177283306Y-136828674D01*
X177072433Y-136620292D01*
X176927968Y-136525000D01*
X177072433Y-136429708D01*
X177283306Y-136221326D01*
X177449474Y-135975809D01*
X177564551Y-135702591D01*
X177581302Y-135615031D01*
X177460246Y-135382000D01*
X176022000Y-135382000D01*
X175768000Y-135382000D01*
X174329754Y-135382000D01*
X174208698Y-135615031D01*
X167421302Y-135615031D01*
X167300246Y-135382000D01*
X165862000Y-135382000D01*
X165608000Y-135382000D01*
X164169754Y-135382000D01*
X164048698Y-135615031D01*
X157261302Y-135615031D01*
X157140246Y-135382000D01*
X155702000Y-135382000D01*
X155448000Y-135382000D01*
X154009754Y-135382000D01*
X153888698Y-135615031D01*
X147101302Y-135615031D01*
X146980246Y-135382000D01*
X145542000Y-135382000D01*
X145288000Y-135382000D01*
X143849754Y-135382000D01*
X143728698Y-135615031D01*
X136941302Y-135615031D01*
X136820246Y-135382000D01*
X135382000Y-135382000D01*
X135128000Y-135382000D01*
X133689754Y-135382000D01*
X133568698Y-135615031D01*
X126781302Y-135615031D01*
X126660246Y-135382000D01*
X125222000Y-135382000D01*
X124968000Y-135382000D01*
X123529754Y-135382000D01*
X123408698Y-135615031D01*
X116621302Y-135615031D01*
X116500246Y-135382000D01*
X115062000Y-135382000D01*
X114808000Y-135382000D01*
X113369754Y-135382000D01*
X113248698Y-135615031D01*
X106461302Y-135615031D01*
X106340246Y-135382000D01*
X104902000Y-135382000D01*
X104648000Y-135382000D01*
X103209754Y-135382000D01*
X103088698Y-135615031D01*
X97961478Y-135615031D01*
X97947702Y-135569620D01*
X97888737Y-135459306D01*
X97809385Y-135362615D01*
X97712694Y-135283263D01*
X97602380Y-135224298D01*
X97482682Y-135187988D01*
X97358200Y-135175728D01*
X90601800Y-135175728D01*
X90576000Y-135178269D01*
X90576000Y-130175000D01*
X103037718Y-130175000D01*
X103066776Y-130470032D01*
X103152834Y-130753725D01*
X103292583Y-131015179D01*
X103480655Y-131244345D01*
X103709821Y-131432417D01*
X103733362Y-131445000D01*
X103709821Y-131457583D01*
X103480655Y-131645655D01*
X103292583Y-131874821D01*
X103152834Y-132136275D01*
X103066776Y-132419968D01*
X103037718Y-132715000D01*
X103066776Y-133010032D01*
X103152834Y-133293725D01*
X103292583Y-133555179D01*
X103480655Y-133784345D01*
X103709821Y-133972417D01*
X103738152Y-133987560D01*
X103597567Y-134080292D01*
X103386694Y-134288674D01*
X103220526Y-134534191D01*
X103105449Y-134807409D01*
X103088698Y-134894969D01*
X103209754Y-135128000D01*
X104648000Y-135128000D01*
X104648000Y-135108000D01*
X104902000Y-135108000D01*
X104902000Y-135128000D01*
X106340246Y-135128000D01*
X106461302Y-134894969D01*
X106444551Y-134807409D01*
X106329474Y-134534191D01*
X106163306Y-134288674D01*
X105952433Y-134080292D01*
X105811848Y-133987560D01*
X105840179Y-133972417D01*
X106069345Y-133784345D01*
X106257417Y-133555179D01*
X106397166Y-133293725D01*
X106483224Y-133010032D01*
X106512282Y-132715000D01*
X106483224Y-132419968D01*
X106397166Y-132136275D01*
X106257417Y-131874821D01*
X106069345Y-131645655D01*
X105840179Y-131457583D01*
X105816638Y-131445000D01*
X105840179Y-131432417D01*
X106069345Y-131244345D01*
X106257417Y-131015179D01*
X106312781Y-130911600D01*
X113397219Y-130911600D01*
X113452583Y-131015179D01*
X113640655Y-131244345D01*
X113869821Y-131432417D01*
X113893362Y-131445000D01*
X113869821Y-131457583D01*
X113640655Y-131645655D01*
X113452583Y-131874821D01*
X113312834Y-132136275D01*
X113226776Y-132419968D01*
X113197718Y-132715000D01*
X113226776Y-133010032D01*
X113312834Y-133293725D01*
X113452583Y-133555179D01*
X113640655Y-133784345D01*
X113869821Y-133972417D01*
X113898152Y-133987560D01*
X113757567Y-134080292D01*
X113546694Y-134288674D01*
X113380526Y-134534191D01*
X113265449Y-134807409D01*
X113248698Y-134894969D01*
X113369754Y-135128000D01*
X114808000Y-135128000D01*
X114808000Y-135108000D01*
X115062000Y-135108000D01*
X115062000Y-135128000D01*
X116500246Y-135128000D01*
X116621302Y-134894969D01*
X116604551Y-134807409D01*
X116489474Y-134534191D01*
X116323306Y-134288674D01*
X116112433Y-134080292D01*
X115971848Y-133987560D01*
X116000179Y-133972417D01*
X116229345Y-133784345D01*
X116417417Y-133555179D01*
X116557166Y-133293725D01*
X116643224Y-133010032D01*
X116672282Y-132715000D01*
X116643224Y-132419968D01*
X116557166Y-132136275D01*
X116417417Y-131874821D01*
X116229345Y-131645655D01*
X116000179Y-131457583D01*
X115976638Y-131445000D01*
X116000179Y-131432417D01*
X116229345Y-131244345D01*
X116417417Y-131015179D01*
X116472781Y-130911600D01*
X123557219Y-130911600D01*
X123612583Y-131015179D01*
X123800655Y-131244345D01*
X124029821Y-131432417D01*
X124053362Y-131445000D01*
X124029821Y-131457583D01*
X123800655Y-131645655D01*
X123612583Y-131874821D01*
X123472834Y-132136275D01*
X123386776Y-132419968D01*
X123357718Y-132715000D01*
X123386776Y-133010032D01*
X123472834Y-133293725D01*
X123612583Y-133555179D01*
X123800655Y-133784345D01*
X124029821Y-133972417D01*
X124058152Y-133987560D01*
X123917567Y-134080292D01*
X123706694Y-134288674D01*
X123540526Y-134534191D01*
X123425449Y-134807409D01*
X123408698Y-134894969D01*
X123529754Y-135128000D01*
X124968000Y-135128000D01*
X124968000Y-135108000D01*
X125222000Y-135108000D01*
X125222000Y-135128000D01*
X126660246Y-135128000D01*
X126781302Y-134894969D01*
X126764551Y-134807409D01*
X126649474Y-134534191D01*
X126483306Y-134288674D01*
X126272433Y-134080292D01*
X126131848Y-133987560D01*
X126160179Y-133972417D01*
X126389345Y-133784345D01*
X126577417Y-133555179D01*
X126717166Y-133293725D01*
X126803224Y-133010032D01*
X126832282Y-132715000D01*
X126803224Y-132419968D01*
X126717166Y-132136275D01*
X126577417Y-131874821D01*
X126389345Y-131645655D01*
X126160179Y-131457583D01*
X126136638Y-131445000D01*
X126160179Y-131432417D01*
X126389345Y-131244345D01*
X126577417Y-131015179D01*
X126632781Y-130911600D01*
X133717219Y-130911600D01*
X133772583Y-131015179D01*
X133960655Y-131244345D01*
X134189821Y-131432417D01*
X134213362Y-131445000D01*
X134189821Y-131457583D01*
X133960655Y-131645655D01*
X133772583Y-131874821D01*
X133632834Y-132136275D01*
X133546776Y-132419968D01*
X133517718Y-132715000D01*
X133546776Y-133010032D01*
X133632834Y-133293725D01*
X133772583Y-133555179D01*
X133960655Y-133784345D01*
X134189821Y-133972417D01*
X134218152Y-133987560D01*
X134077567Y-134080292D01*
X133866694Y-134288674D01*
X133700526Y-134534191D01*
X133585449Y-134807409D01*
X133568698Y-134894969D01*
X133689754Y-135128000D01*
X135128000Y-135128000D01*
X135128000Y-135108000D01*
X135382000Y-135108000D01*
X135382000Y-135128000D01*
X136820246Y-135128000D01*
X136941302Y-134894969D01*
X136924551Y-134807409D01*
X136809474Y-134534191D01*
X136643306Y-134288674D01*
X136432433Y-134080292D01*
X136291848Y-133987560D01*
X136320179Y-133972417D01*
X136549345Y-133784345D01*
X136737417Y-133555179D01*
X136877166Y-133293725D01*
X136963224Y-133010032D01*
X136992282Y-132715000D01*
X136963224Y-132419968D01*
X136877166Y-132136275D01*
X136737417Y-131874821D01*
X136549345Y-131645655D01*
X136320179Y-131457583D01*
X136296638Y-131445000D01*
X136320179Y-131432417D01*
X136549345Y-131244345D01*
X136737417Y-131015179D01*
X136792781Y-130911600D01*
X139706601Y-130911600D01*
X139719721Y-130924720D01*
X139877806Y-131030349D01*
X140053462Y-131103108D01*
X140239936Y-131140200D01*
X140430064Y-131140200D01*
X140616538Y-131103108D01*
X140792194Y-131030349D01*
X140950279Y-130924720D01*
X140963399Y-130911600D01*
X143877219Y-130911600D01*
X143932583Y-131015179D01*
X144120655Y-131244345D01*
X144349821Y-131432417D01*
X144373362Y-131445000D01*
X144349821Y-131457583D01*
X144120655Y-131645655D01*
X143932583Y-131874821D01*
X143792834Y-132136275D01*
X143706776Y-132419968D01*
X143677718Y-132715000D01*
X143706776Y-133010032D01*
X143792834Y-133293725D01*
X143932583Y-133555179D01*
X144120655Y-133784345D01*
X144349821Y-133972417D01*
X144378152Y-133987560D01*
X144237567Y-134080292D01*
X144026694Y-134288674D01*
X143860526Y-134534191D01*
X143745449Y-134807409D01*
X143728698Y-134894969D01*
X143849754Y-135128000D01*
X145288000Y-135128000D01*
X145288000Y-135108000D01*
X145542000Y-135108000D01*
X145542000Y-135128000D01*
X146980246Y-135128000D01*
X147101302Y-134894969D01*
X147084551Y-134807409D01*
X146969474Y-134534191D01*
X146803306Y-134288674D01*
X146592433Y-134080292D01*
X146451848Y-133987560D01*
X146480179Y-133972417D01*
X146709345Y-133784345D01*
X146897417Y-133555179D01*
X147037166Y-133293725D01*
X147123224Y-133010032D01*
X147152282Y-132715000D01*
X147123224Y-132419968D01*
X147037166Y-132136275D01*
X146897417Y-131874821D01*
X146709345Y-131645655D01*
X146480179Y-131457583D01*
X146456638Y-131445000D01*
X146480179Y-131432417D01*
X146709345Y-131244345D01*
X146897417Y-131015179D01*
X146952781Y-130911600D01*
X154037219Y-130911600D01*
X154092583Y-131015179D01*
X154280655Y-131244345D01*
X154509821Y-131432417D01*
X154533362Y-131445000D01*
X154509821Y-131457583D01*
X154280655Y-131645655D01*
X154092583Y-131874821D01*
X153952834Y-132136275D01*
X153866776Y-132419968D01*
X153837718Y-132715000D01*
X153866776Y-133010032D01*
X153952834Y-133293725D01*
X154092583Y-133555179D01*
X154280655Y-133784345D01*
X154509821Y-133972417D01*
X154538152Y-133987560D01*
X154397567Y-134080292D01*
X154186694Y-134288674D01*
X154020526Y-134534191D01*
X153905449Y-134807409D01*
X153888698Y-134894969D01*
X154009754Y-135128000D01*
X155448000Y-135128000D01*
X155448000Y-135108000D01*
X155702000Y-135108000D01*
X155702000Y-135128000D01*
X157140246Y-135128000D01*
X157261302Y-134894969D01*
X157244551Y-134807409D01*
X157129474Y-134534191D01*
X156963306Y-134288674D01*
X156752433Y-134080292D01*
X156611848Y-133987560D01*
X156640179Y-133972417D01*
X156869345Y-133784345D01*
X157057417Y-133555179D01*
X157197166Y-133293725D01*
X157283224Y-133010032D01*
X157312282Y-132715000D01*
X157283224Y-132419968D01*
X157197166Y-132136275D01*
X157057417Y-131874821D01*
X156869345Y-131645655D01*
X156640179Y-131457583D01*
X156616638Y-131445000D01*
X156640179Y-131432417D01*
X156869345Y-131244345D01*
X157057417Y-131015179D01*
X157112781Y-130911600D01*
X164197219Y-130911600D01*
X164252583Y-131015179D01*
X164440655Y-131244345D01*
X164669821Y-131432417D01*
X164693362Y-131445000D01*
X164669821Y-131457583D01*
X164440655Y-131645655D01*
X164252583Y-131874821D01*
X164112834Y-132136275D01*
X164026776Y-132419968D01*
X163997718Y-132715000D01*
X164026776Y-133010032D01*
X164112834Y-133293725D01*
X164252583Y-133555179D01*
X164440655Y-133784345D01*
X164669821Y-133972417D01*
X164698152Y-133987560D01*
X164557567Y-134080292D01*
X164346694Y-134288674D01*
X164180526Y-134534191D01*
X164065449Y-134807409D01*
X164048698Y-134894969D01*
X164169754Y-135128000D01*
X165608000Y-135128000D01*
X165608000Y-135108000D01*
X165862000Y-135108000D01*
X165862000Y-135128000D01*
X167300246Y-135128000D01*
X167421302Y-134894969D01*
X167404551Y-134807409D01*
X167289474Y-134534191D01*
X167123306Y-134288674D01*
X166912433Y-134080292D01*
X166771848Y-133987560D01*
X166800179Y-133972417D01*
X167029345Y-133784345D01*
X167217417Y-133555179D01*
X167357166Y-133293725D01*
X167443224Y-133010032D01*
X167472282Y-132715000D01*
X167443224Y-132419968D01*
X167357166Y-132136275D01*
X167217417Y-131874821D01*
X167029345Y-131645655D01*
X166800179Y-131457583D01*
X166776638Y-131445000D01*
X166800179Y-131432417D01*
X167029345Y-131244345D01*
X167217417Y-131015179D01*
X167272781Y-130911600D01*
X174357219Y-130911600D01*
X174412583Y-131015179D01*
X174600655Y-131244345D01*
X174829821Y-131432417D01*
X174853362Y-131445000D01*
X174829821Y-131457583D01*
X174600655Y-131645655D01*
X174412583Y-131874821D01*
X174272834Y-132136275D01*
X174186776Y-132419968D01*
X174157718Y-132715000D01*
X174186776Y-133010032D01*
X174272834Y-133293725D01*
X174412583Y-133555179D01*
X174600655Y-133784345D01*
X174829821Y-133972417D01*
X174858152Y-133987560D01*
X174717567Y-134080292D01*
X174506694Y-134288674D01*
X174340526Y-134534191D01*
X174225449Y-134807409D01*
X174208698Y-134894969D01*
X174329754Y-135128000D01*
X175768000Y-135128000D01*
X175768000Y-135108000D01*
X176022000Y-135108000D01*
X176022000Y-135128000D01*
X177460246Y-135128000D01*
X177581302Y-134894969D01*
X177564551Y-134807409D01*
X177449474Y-134534191D01*
X177283306Y-134288674D01*
X177072433Y-134080292D01*
X176931848Y-133987560D01*
X176960179Y-133972417D01*
X177189345Y-133784345D01*
X177377417Y-133555179D01*
X177517166Y-133293725D01*
X177603224Y-133010032D01*
X177632282Y-132715000D01*
X177603224Y-132419968D01*
X177517166Y-132136275D01*
X177377417Y-131874821D01*
X177189345Y-131645655D01*
X176960179Y-131457583D01*
X176936638Y-131445000D01*
X176960179Y-131432417D01*
X177189345Y-131244345D01*
X177377417Y-131015179D01*
X177517166Y-130753725D01*
X177603224Y-130470032D01*
X177632282Y-130175000D01*
X177603224Y-129879968D01*
X177517166Y-129596275D01*
X177377417Y-129334821D01*
X177189345Y-129105655D01*
X177123886Y-129051934D01*
X177233387Y-128993405D01*
X177367962Y-128882962D01*
X177478405Y-128748387D01*
X177560472Y-128594851D01*
X177611008Y-128428255D01*
X177628072Y-128255001D01*
X177628072Y-127014999D01*
X177611008Y-126841745D01*
X177560472Y-126675149D01*
X177478405Y-126521613D01*
X177367962Y-126387038D01*
X177233387Y-126276595D01*
X177079851Y-126194528D01*
X176913255Y-126143992D01*
X176784000Y-126131262D01*
X176784000Y-116398660D01*
X176788300Y-116355000D01*
X176784000Y-116311340D01*
X176784000Y-116311333D01*
X176771136Y-116180726D01*
X176720303Y-116013149D01*
X176637753Y-115858709D01*
X176526659Y-115723341D01*
X176492742Y-115695506D01*
X175589042Y-114791807D01*
X175625000Y-114611033D01*
X175625000Y-114288967D01*
X175562168Y-113973088D01*
X175438918Y-113675537D01*
X175259987Y-113407748D01*
X175032252Y-113180013D01*
X174764463Y-113001082D01*
X174466912Y-112877832D01*
X174151033Y-112815000D01*
X173828967Y-112815000D01*
X173513088Y-112877832D01*
X173215537Y-113001082D01*
X172947748Y-113180013D01*
X172720013Y-113407748D01*
X172541082Y-113675537D01*
X172417832Y-113973088D01*
X172355000Y-114288967D01*
X172355000Y-114611033D01*
X172417832Y-114926912D01*
X172541082Y-115224463D01*
X172720013Y-115492252D01*
X172947748Y-115719987D01*
X173215537Y-115898918D01*
X173513088Y-116022168D01*
X173828967Y-116085000D01*
X174151033Y-116085000D01*
X174331807Y-116049042D01*
X175006001Y-116723237D01*
X175006000Y-126131262D01*
X174876745Y-126143992D01*
X174710149Y-126194528D01*
X174556613Y-126276595D01*
X174422038Y-126387038D01*
X174311595Y-126521613D01*
X174229528Y-126675149D01*
X174208036Y-126746000D01*
X167421964Y-126746000D01*
X167400472Y-126675149D01*
X167318405Y-126521613D01*
X167207962Y-126387038D01*
X167073387Y-126276595D01*
X166919851Y-126194528D01*
X166753255Y-126143992D01*
X166580001Y-126126928D01*
X164889999Y-126126928D01*
X164716745Y-126143992D01*
X164550149Y-126194528D01*
X164396613Y-126276595D01*
X164262038Y-126387038D01*
X164151595Y-126521613D01*
X164069528Y-126675149D01*
X164048036Y-126746000D01*
X157261964Y-126746000D01*
X157240472Y-126675149D01*
X157158405Y-126521613D01*
X157047962Y-126387038D01*
X156913387Y-126276595D01*
X156759851Y-126194528D01*
X156593255Y-126143992D01*
X156420001Y-126126928D01*
X154729999Y-126126928D01*
X154556745Y-126143992D01*
X154390149Y-126194528D01*
X154236613Y-126276595D01*
X154102038Y-126387038D01*
X153991595Y-126521613D01*
X153909528Y-126675149D01*
X153888036Y-126746000D01*
X147101964Y-126746000D01*
X147080472Y-126675149D01*
X146998405Y-126521613D01*
X146887962Y-126387038D01*
X146753387Y-126276595D01*
X146599851Y-126194528D01*
X146433255Y-126143992D01*
X146260001Y-126126928D01*
X144569999Y-126126928D01*
X144396745Y-126143992D01*
X144230149Y-126194528D01*
X144076613Y-126276595D01*
X143942038Y-126387038D01*
X143831595Y-126521613D01*
X143749528Y-126675149D01*
X143728036Y-126746000D01*
X136941964Y-126746000D01*
X136920472Y-126675149D01*
X136838405Y-126521613D01*
X136727962Y-126387038D01*
X136593387Y-126276595D01*
X136439851Y-126194528D01*
X136273255Y-126143992D01*
X136100001Y-126126928D01*
X134409999Y-126126928D01*
X134236745Y-126143992D01*
X134070149Y-126194528D01*
X133916613Y-126276595D01*
X133782038Y-126387038D01*
X133671595Y-126521613D01*
X133589528Y-126675149D01*
X133568036Y-126746000D01*
X126781964Y-126746000D01*
X126760472Y-126675149D01*
X126678405Y-126521613D01*
X126567962Y-126387038D01*
X126433387Y-126276595D01*
X126279851Y-126194528D01*
X126113255Y-126143992D01*
X125940001Y-126126928D01*
X124249999Y-126126928D01*
X124076745Y-126143992D01*
X123910149Y-126194528D01*
X123756613Y-126276595D01*
X123622038Y-126387038D01*
X123511595Y-126521613D01*
X123429528Y-126675149D01*
X123408036Y-126746000D01*
X116621964Y-126746000D01*
X116600472Y-126675149D01*
X116518405Y-126521613D01*
X116407962Y-126387038D01*
X116273387Y-126276595D01*
X116119851Y-126194528D01*
X115953255Y-126143992D01*
X115780001Y-126126928D01*
X114089999Y-126126928D01*
X113916745Y-126143992D01*
X113750149Y-126194528D01*
X113596613Y-126276595D01*
X113462038Y-126387038D01*
X113351595Y-126521613D01*
X113269528Y-126675149D01*
X113248036Y-126746000D01*
X106461964Y-126746000D01*
X106440472Y-126675149D01*
X106358405Y-126521613D01*
X106247962Y-126387038D01*
X106113387Y-126276595D01*
X105959851Y-126194528D01*
X105793255Y-126143992D01*
X105620001Y-126126928D01*
X103929999Y-126126928D01*
X103756745Y-126143992D01*
X103590149Y-126194528D01*
X103436613Y-126276595D01*
X103302038Y-126387038D01*
X103191595Y-126521613D01*
X103109528Y-126675149D01*
X103058992Y-126841745D01*
X103041928Y-127014999D01*
X103041928Y-128255001D01*
X103058992Y-128428255D01*
X103109528Y-128594851D01*
X103191595Y-128748387D01*
X103302038Y-128882962D01*
X103436613Y-128993405D01*
X103546114Y-129051934D01*
X103480655Y-129105655D01*
X103292583Y-129334821D01*
X103152834Y-129596275D01*
X103066776Y-129879968D01*
X103037718Y-130175000D01*
X90576000Y-130175000D01*
X90576000Y-119038000D01*
X125638928Y-119038000D01*
X125638928Y-120738000D01*
X125651188Y-120862482D01*
X125687498Y-120982180D01*
X125746463Y-121092494D01*
X125825815Y-121189185D01*
X125922506Y-121268537D01*
X126032820Y-121327502D01*
X126105380Y-121349513D01*
X125973525Y-121481368D01*
X125811010Y-121724589D01*
X125699068Y-121994842D01*
X125642000Y-122281740D01*
X125642000Y-122574260D01*
X125699068Y-122861158D01*
X125811010Y-123131411D01*
X125973525Y-123374632D01*
X126180368Y-123581475D01*
X126423589Y-123743990D01*
X126693842Y-123855932D01*
X126980740Y-123913000D01*
X127273260Y-123913000D01*
X127560158Y-123855932D01*
X127830411Y-123743990D01*
X128073632Y-123581475D01*
X128280475Y-123374632D01*
X128442990Y-123131411D01*
X128554932Y-122861158D01*
X128612000Y-122574260D01*
X128612000Y-122281740D01*
X128554932Y-121994842D01*
X128442990Y-121724589D01*
X128280475Y-121481368D01*
X128148620Y-121349513D01*
X128221180Y-121327502D01*
X128331494Y-121268537D01*
X128428185Y-121189185D01*
X128507537Y-121092494D01*
X128566502Y-120982180D01*
X128602812Y-120862482D01*
X128615072Y-120738000D01*
X128615072Y-119038000D01*
X129321928Y-119038000D01*
X129321928Y-120738000D01*
X129334188Y-120862482D01*
X129370498Y-120982180D01*
X129429463Y-121092494D01*
X129508815Y-121189185D01*
X129605506Y-121268537D01*
X129715820Y-121327502D01*
X129788380Y-121349513D01*
X129656525Y-121481368D01*
X129494010Y-121724589D01*
X129382068Y-121994842D01*
X129325000Y-122281740D01*
X129325000Y-122574260D01*
X129382068Y-122861158D01*
X129494010Y-123131411D01*
X129656525Y-123374632D01*
X129863368Y-123581475D01*
X130106589Y-123743990D01*
X130376842Y-123855932D01*
X130663740Y-123913000D01*
X130956260Y-123913000D01*
X131243158Y-123855932D01*
X131513411Y-123743990D01*
X131756632Y-123581475D01*
X131963475Y-123374632D01*
X132125990Y-123131411D01*
X132237932Y-122861158D01*
X132295000Y-122574260D01*
X132295000Y-122281740D01*
X132237932Y-121994842D01*
X132125990Y-121724589D01*
X131963475Y-121481368D01*
X131831620Y-121349513D01*
X131904180Y-121327502D01*
X132014494Y-121268537D01*
X132111185Y-121189185D01*
X132190537Y-121092494D01*
X132249502Y-120982180D01*
X132285812Y-120862482D01*
X132298072Y-120738000D01*
X132298072Y-119038000D01*
X133131928Y-119038000D01*
X133131928Y-120738000D01*
X133144188Y-120862482D01*
X133180498Y-120982180D01*
X133239463Y-121092494D01*
X133318815Y-121189185D01*
X133415506Y-121268537D01*
X133525820Y-121327502D01*
X133598380Y-121349513D01*
X133466525Y-121481368D01*
X133304010Y-121724589D01*
X133192068Y-121994842D01*
X133135000Y-122281740D01*
X133135000Y-122574260D01*
X133192068Y-122861158D01*
X133304010Y-123131411D01*
X133466525Y-123374632D01*
X133673368Y-123581475D01*
X133916589Y-123743990D01*
X134186842Y-123855932D01*
X134473740Y-123913000D01*
X134766260Y-123913000D01*
X135053158Y-123855932D01*
X135323411Y-123743990D01*
X135566632Y-123581475D01*
X135773475Y-123374632D01*
X135935990Y-123131411D01*
X136047932Y-122861158D01*
X136105000Y-122574260D01*
X136105000Y-122281740D01*
X136047932Y-121994842D01*
X135935990Y-121724589D01*
X135773475Y-121481368D01*
X135641620Y-121349513D01*
X135714180Y-121327502D01*
X135824494Y-121268537D01*
X135921185Y-121189185D01*
X136000537Y-121092494D01*
X136059502Y-120982180D01*
X136095812Y-120862482D01*
X136108072Y-120738000D01*
X136108072Y-119038000D01*
X136941928Y-119038000D01*
X136941928Y-120738000D01*
X136954188Y-120862482D01*
X136990498Y-120982180D01*
X137049463Y-121092494D01*
X137128815Y-121189185D01*
X137225506Y-121268537D01*
X137335820Y-121327502D01*
X137408380Y-121349513D01*
X137276525Y-121481368D01*
X137114010Y-121724589D01*
X137002068Y-121994842D01*
X136945000Y-122281740D01*
X136945000Y-122574260D01*
X137002068Y-122861158D01*
X137114010Y-123131411D01*
X137276525Y-123374632D01*
X137483368Y-123581475D01*
X137726589Y-123743990D01*
X137996842Y-123855932D01*
X138283740Y-123913000D01*
X138576260Y-123913000D01*
X138863158Y-123855932D01*
X139133411Y-123743990D01*
X139376632Y-123581475D01*
X139583475Y-123374632D01*
X139598401Y-123352294D01*
X139598401Y-125101600D01*
X139585280Y-125114721D01*
X139479651Y-125272806D01*
X139406892Y-125448462D01*
X139369800Y-125634936D01*
X139369800Y-125825064D01*
X139406892Y-126011538D01*
X139479651Y-126187194D01*
X139585280Y-126345279D01*
X139719721Y-126479720D01*
X139877806Y-126585349D01*
X140053462Y-126658108D01*
X140239936Y-126695200D01*
X140430064Y-126695200D01*
X140616538Y-126658108D01*
X140792194Y-126585349D01*
X140950279Y-126479720D01*
X141084720Y-126345279D01*
X141190349Y-126187194D01*
X141263108Y-126011538D01*
X141300200Y-125825064D01*
X141300200Y-125634936D01*
X141263108Y-125448462D01*
X141190349Y-125272806D01*
X141084720Y-125114721D01*
X141071600Y-125101601D01*
X141071600Y-123352295D01*
X141086525Y-123374632D01*
X141293368Y-123581475D01*
X141536589Y-123743990D01*
X141806842Y-123855932D01*
X142093740Y-123913000D01*
X142386260Y-123913000D01*
X142673158Y-123855932D01*
X142943411Y-123743990D01*
X143186632Y-123581475D01*
X143393475Y-123374632D01*
X143555990Y-123131411D01*
X143667932Y-122861158D01*
X143725000Y-122574260D01*
X143725000Y-122281740D01*
X143667932Y-121994842D01*
X143555990Y-121724589D01*
X143393475Y-121481368D01*
X143261620Y-121349513D01*
X143334180Y-121327502D01*
X143444494Y-121268537D01*
X143541185Y-121189185D01*
X143620537Y-121092494D01*
X143679502Y-120982180D01*
X143715812Y-120862482D01*
X143728072Y-120738000D01*
X143728072Y-119038000D01*
X144561928Y-119038000D01*
X144561928Y-120738000D01*
X144574188Y-120862482D01*
X144610498Y-120982180D01*
X144669463Y-121092494D01*
X144748815Y-121189185D01*
X144845506Y-121268537D01*
X144955820Y-121327502D01*
X145028380Y-121349513D01*
X144896525Y-121481368D01*
X144734010Y-121724589D01*
X144622068Y-121994842D01*
X144565000Y-122281740D01*
X144565000Y-122574260D01*
X144622068Y-122861158D01*
X144734010Y-123131411D01*
X144896525Y-123374632D01*
X145103368Y-123581475D01*
X145346589Y-123743990D01*
X145616842Y-123855932D01*
X145903740Y-123913000D01*
X146196260Y-123913000D01*
X146483158Y-123855932D01*
X146753411Y-123743990D01*
X146996632Y-123581475D01*
X147203475Y-123374632D01*
X147365990Y-123131411D01*
X147477932Y-122861158D01*
X147535000Y-122574260D01*
X147535000Y-122281740D01*
X147477932Y-121994842D01*
X147365990Y-121724589D01*
X147203475Y-121481368D01*
X147071620Y-121349513D01*
X147144180Y-121327502D01*
X147254494Y-121268537D01*
X147351185Y-121189185D01*
X147430537Y-121092494D01*
X147489502Y-120982180D01*
X147525812Y-120862482D01*
X147538072Y-120738000D01*
X147538072Y-119038000D01*
X148371928Y-119038000D01*
X148371928Y-120738000D01*
X148384188Y-120862482D01*
X148420498Y-120982180D01*
X148479463Y-121092494D01*
X148558815Y-121189185D01*
X148655506Y-121268537D01*
X148765820Y-121327502D01*
X148838380Y-121349513D01*
X148706525Y-121481368D01*
X148544010Y-121724589D01*
X148432068Y-121994842D01*
X148375000Y-122281740D01*
X148375000Y-122574260D01*
X148432068Y-122861158D01*
X148544010Y-123131411D01*
X148706525Y-123374632D01*
X148913368Y-123581475D01*
X149156589Y-123743990D01*
X149426842Y-123855932D01*
X149713740Y-123913000D01*
X150006260Y-123913000D01*
X150293158Y-123855932D01*
X150563411Y-123743990D01*
X150806632Y-123581475D01*
X151013475Y-123374632D01*
X151175990Y-123131411D01*
X151287932Y-122861158D01*
X151345000Y-122574260D01*
X151345000Y-122281740D01*
X151287932Y-121994842D01*
X151175990Y-121724589D01*
X151013475Y-121481368D01*
X150881620Y-121349513D01*
X150954180Y-121327502D01*
X151064494Y-121268537D01*
X151161185Y-121189185D01*
X151240537Y-121092494D01*
X151299502Y-120982180D01*
X151335812Y-120862482D01*
X151348072Y-120738000D01*
X151348072Y-119038000D01*
X152181928Y-119038000D01*
X152181928Y-120738000D01*
X152194188Y-120862482D01*
X152230498Y-120982180D01*
X152289463Y-121092494D01*
X152368815Y-121189185D01*
X152465506Y-121268537D01*
X152575820Y-121327502D01*
X152648380Y-121349513D01*
X152516525Y-121481368D01*
X152354010Y-121724589D01*
X152242068Y-121994842D01*
X152185000Y-122281740D01*
X152185000Y-122574260D01*
X152242068Y-122861158D01*
X152354010Y-123131411D01*
X152516525Y-123374632D01*
X152723368Y-123581475D01*
X152966589Y-123743990D01*
X153236842Y-123855932D01*
X153523740Y-123913000D01*
X153816260Y-123913000D01*
X154103158Y-123855932D01*
X154373411Y-123743990D01*
X154616632Y-123581475D01*
X154823475Y-123374632D01*
X154985990Y-123131411D01*
X155097932Y-122861158D01*
X155155000Y-122574260D01*
X155155000Y-122281740D01*
X155097932Y-121994842D01*
X154985990Y-121724589D01*
X154823475Y-121481368D01*
X154691620Y-121349513D01*
X154764180Y-121327502D01*
X154874494Y-121268537D01*
X154971185Y-121189185D01*
X155050537Y-121092494D01*
X155109502Y-120982180D01*
X155145812Y-120862482D01*
X155158072Y-120738000D01*
X155158072Y-120503740D01*
X166155000Y-120503740D01*
X166155000Y-120796260D01*
X166212068Y-121083158D01*
X166324010Y-121353411D01*
X166486525Y-121596632D01*
X166693368Y-121803475D01*
X166936589Y-121965990D01*
X167206842Y-122077932D01*
X167493740Y-122135000D01*
X167786260Y-122135000D01*
X168073158Y-122077932D01*
X168343411Y-121965990D01*
X168586632Y-121803475D01*
X168718487Y-121671620D01*
X168740498Y-121744180D01*
X168799463Y-121854494D01*
X168878815Y-121951185D01*
X168975506Y-122030537D01*
X169085820Y-122089502D01*
X169205518Y-122125812D01*
X169330000Y-122138072D01*
X171030000Y-122138072D01*
X171154482Y-122125812D01*
X171274180Y-122089502D01*
X171384494Y-122030537D01*
X171481185Y-121951185D01*
X171560537Y-121854494D01*
X171619502Y-121744180D01*
X171655812Y-121624482D01*
X171668072Y-121500000D01*
X171668072Y-119800000D01*
X171655812Y-119675518D01*
X171619502Y-119555820D01*
X171560537Y-119445506D01*
X171481185Y-119348815D01*
X171384494Y-119269463D01*
X171274180Y-119210498D01*
X171154482Y-119174188D01*
X171030000Y-119161928D01*
X169330000Y-119161928D01*
X169205518Y-119174188D01*
X169085820Y-119210498D01*
X168975506Y-119269463D01*
X168878815Y-119348815D01*
X168799463Y-119445506D01*
X168740498Y-119555820D01*
X168718487Y-119628380D01*
X168586632Y-119496525D01*
X168343411Y-119334010D01*
X168073158Y-119222068D01*
X167786260Y-119165000D01*
X167493740Y-119165000D01*
X167206842Y-119222068D01*
X166936589Y-119334010D01*
X166693368Y-119496525D01*
X166486525Y-119703368D01*
X166324010Y-119946589D01*
X166212068Y-120216842D01*
X166155000Y-120503740D01*
X155158072Y-120503740D01*
X155158072Y-119038000D01*
X155145812Y-118913518D01*
X155109502Y-118793820D01*
X155050537Y-118683506D01*
X154971185Y-118586815D01*
X154874494Y-118507463D01*
X154764180Y-118448498D01*
X154644482Y-118412188D01*
X154520000Y-118399928D01*
X152820000Y-118399928D01*
X152695518Y-118412188D01*
X152575820Y-118448498D01*
X152465506Y-118507463D01*
X152368815Y-118586815D01*
X152289463Y-118683506D01*
X152230498Y-118793820D01*
X152194188Y-118913518D01*
X152181928Y-119038000D01*
X151348072Y-119038000D01*
X151335812Y-118913518D01*
X151299502Y-118793820D01*
X151240537Y-118683506D01*
X151161185Y-118586815D01*
X151064494Y-118507463D01*
X150954180Y-118448498D01*
X150834482Y-118412188D01*
X150710000Y-118399928D01*
X149010000Y-118399928D01*
X148885518Y-118412188D01*
X148765820Y-118448498D01*
X148655506Y-118507463D01*
X148558815Y-118586815D01*
X148479463Y-118683506D01*
X148420498Y-118793820D01*
X148384188Y-118913518D01*
X148371928Y-119038000D01*
X147538072Y-119038000D01*
X147525812Y-118913518D01*
X147489502Y-118793820D01*
X147430537Y-118683506D01*
X147351185Y-118586815D01*
X147254494Y-118507463D01*
X147144180Y-118448498D01*
X147024482Y-118412188D01*
X146900000Y-118399928D01*
X145200000Y-118399928D01*
X145075518Y-118412188D01*
X144955820Y-118448498D01*
X144845506Y-118507463D01*
X144748815Y-118586815D01*
X144669463Y-118683506D01*
X144610498Y-118793820D01*
X144574188Y-118913518D01*
X144561928Y-119038000D01*
X143728072Y-119038000D01*
X143715812Y-118913518D01*
X143679502Y-118793820D01*
X143620537Y-118683506D01*
X143541185Y-118586815D01*
X143444494Y-118507463D01*
X143334180Y-118448498D01*
X143214482Y-118412188D01*
X143090000Y-118399928D01*
X141390000Y-118399928D01*
X141265518Y-118412188D01*
X141145820Y-118448498D01*
X141071600Y-118488170D01*
X141071600Y-114928399D01*
X141084720Y-114915279D01*
X141135062Y-114839936D01*
X147624800Y-114839936D01*
X147624800Y-115030064D01*
X147661892Y-115216538D01*
X147734651Y-115392194D01*
X147840280Y-115550279D01*
X147974721Y-115684720D01*
X148132806Y-115790349D01*
X148308462Y-115863108D01*
X148494936Y-115900200D01*
X148685064Y-115900200D01*
X148871538Y-115863108D01*
X149047194Y-115790349D01*
X149205279Y-115684720D01*
X149218399Y-115671600D01*
X155919817Y-115671600D01*
X155956000Y-115675164D01*
X155992183Y-115671600D01*
X155992186Y-115671600D01*
X156100399Y-115660942D01*
X156239249Y-115618822D01*
X156367213Y-115550424D01*
X156479375Y-115458375D01*
X156502446Y-115430263D01*
X156746109Y-115186600D01*
X159770399Y-115186600D01*
X159786082Y-115224463D01*
X159965013Y-115492252D01*
X160192748Y-115719987D01*
X160460537Y-115898918D01*
X160758088Y-116022168D01*
X161073967Y-116085000D01*
X161396033Y-116085000D01*
X161711912Y-116022168D01*
X162009463Y-115898918D01*
X162277252Y-115719987D01*
X162504987Y-115492252D01*
X162683918Y-115224463D01*
X162807168Y-114926912D01*
X162870000Y-114611033D01*
X162870000Y-114288967D01*
X164100000Y-114288967D01*
X164100000Y-114611033D01*
X164162832Y-114926912D01*
X164286082Y-115224463D01*
X164465013Y-115492252D01*
X164692748Y-115719987D01*
X164960537Y-115898918D01*
X165258088Y-116022168D01*
X165573967Y-116085000D01*
X165896033Y-116085000D01*
X166211912Y-116022168D01*
X166509463Y-115898918D01*
X166777252Y-115719987D01*
X167004987Y-115492252D01*
X167183918Y-115224463D01*
X167307168Y-114926912D01*
X167370000Y-114611033D01*
X167370000Y-114288967D01*
X167855000Y-114288967D01*
X167855000Y-114611033D01*
X167917832Y-114926912D01*
X168041082Y-115224463D01*
X168220013Y-115492252D01*
X168447748Y-115719987D01*
X168715537Y-115898918D01*
X169013088Y-116022168D01*
X169328967Y-116085000D01*
X169651033Y-116085000D01*
X169966912Y-116022168D01*
X170264463Y-115898918D01*
X170532252Y-115719987D01*
X170759987Y-115492252D01*
X170938918Y-115224463D01*
X171062168Y-114926912D01*
X171125000Y-114611033D01*
X171125000Y-114288967D01*
X171062168Y-113973088D01*
X170938918Y-113675537D01*
X170759987Y-113407748D01*
X170532252Y-113180013D01*
X170264463Y-113001082D01*
X169966912Y-112877832D01*
X169651033Y-112815000D01*
X169328967Y-112815000D01*
X169013088Y-112877832D01*
X168715537Y-113001082D01*
X168447748Y-113180013D01*
X168220013Y-113407748D01*
X168041082Y-113675537D01*
X167917832Y-113973088D01*
X167855000Y-114288967D01*
X167370000Y-114288967D01*
X167307168Y-113973088D01*
X167183918Y-113675537D01*
X167004987Y-113407748D01*
X166777252Y-113180013D01*
X166509463Y-113001082D01*
X166211912Y-112877832D01*
X165896033Y-112815000D01*
X165573967Y-112815000D01*
X165258088Y-112877832D01*
X164960537Y-113001082D01*
X164692748Y-113180013D01*
X164465013Y-113407748D01*
X164286082Y-113675537D01*
X164162832Y-113973088D01*
X164100000Y-114288967D01*
X162870000Y-114288967D01*
X162807168Y-113973088D01*
X162683918Y-113675537D01*
X162504987Y-113407748D01*
X162277252Y-113180013D01*
X162009463Y-113001082D01*
X161711912Y-112877832D01*
X161396033Y-112815000D01*
X161073967Y-112815000D01*
X160758088Y-112877832D01*
X160460537Y-113001082D01*
X160192748Y-113180013D01*
X159965013Y-113407748D01*
X159786082Y-113675537D01*
X159770399Y-113713400D01*
X156477186Y-113713400D01*
X156441000Y-113709836D01*
X156404814Y-113713400D01*
X156296601Y-113724058D01*
X156157751Y-113766178D01*
X156029787Y-113834576D01*
X155917625Y-113926625D01*
X155894554Y-113954737D01*
X155650891Y-114198400D01*
X149218399Y-114198400D01*
X149205279Y-114185280D01*
X149047194Y-114079651D01*
X148871538Y-114006892D01*
X148685064Y-113969800D01*
X148494936Y-113969800D01*
X148308462Y-114006892D01*
X148132806Y-114079651D01*
X147974721Y-114185280D01*
X147840280Y-114319721D01*
X147734651Y-114477806D01*
X147661892Y-114653462D01*
X147624800Y-114839936D01*
X141135062Y-114839936D01*
X141190349Y-114757194D01*
X141263108Y-114581538D01*
X141300200Y-114395064D01*
X141300200Y-114204936D01*
X141263108Y-114018462D01*
X141190349Y-113842806D01*
X141084720Y-113684721D01*
X140950279Y-113550280D01*
X140792194Y-113444651D01*
X140616538Y-113371892D01*
X140430064Y-113334800D01*
X140239936Y-113334800D01*
X140053462Y-113371892D01*
X139877806Y-113444651D01*
X139719721Y-113550280D01*
X139585280Y-113684721D01*
X139479651Y-113842806D01*
X139406892Y-114018462D01*
X139369800Y-114204936D01*
X139369800Y-114395064D01*
X139406892Y-114581538D01*
X139479651Y-114757194D01*
X139585280Y-114915279D01*
X139598400Y-114928399D01*
X139598400Y-118488170D01*
X139524180Y-118448498D01*
X139404482Y-118412188D01*
X139280000Y-118399928D01*
X137580000Y-118399928D01*
X137455518Y-118412188D01*
X137335820Y-118448498D01*
X137225506Y-118507463D01*
X137128815Y-118586815D01*
X137049463Y-118683506D01*
X136990498Y-118793820D01*
X136954188Y-118913518D01*
X136941928Y-119038000D01*
X136108072Y-119038000D01*
X136095812Y-118913518D01*
X136059502Y-118793820D01*
X136000537Y-118683506D01*
X135921185Y-118586815D01*
X135824494Y-118507463D01*
X135714180Y-118448498D01*
X135594482Y-118412188D01*
X135470000Y-118399928D01*
X133770000Y-118399928D01*
X133645518Y-118412188D01*
X133525820Y-118448498D01*
X133415506Y-118507463D01*
X133318815Y-118586815D01*
X133239463Y-118683506D01*
X133180498Y-118793820D01*
X133144188Y-118913518D01*
X133131928Y-119038000D01*
X132298072Y-119038000D01*
X132285812Y-118913518D01*
X132249502Y-118793820D01*
X132190537Y-118683506D01*
X132111185Y-118586815D01*
X132014494Y-118507463D01*
X131904180Y-118448498D01*
X131784482Y-118412188D01*
X131660000Y-118399928D01*
X129960000Y-118399928D01*
X129835518Y-118412188D01*
X129715820Y-118448498D01*
X129605506Y-118507463D01*
X129508815Y-118586815D01*
X129429463Y-118683506D01*
X129370498Y-118793820D01*
X129334188Y-118913518D01*
X129321928Y-119038000D01*
X128615072Y-119038000D01*
X128602812Y-118913518D01*
X128566502Y-118793820D01*
X128507537Y-118683506D01*
X128428185Y-118586815D01*
X128331494Y-118507463D01*
X128221180Y-118448498D01*
X128101482Y-118412188D01*
X127977000Y-118399928D01*
X126277000Y-118399928D01*
X126152518Y-118412188D01*
X126032820Y-118448498D01*
X125922506Y-118507463D01*
X125825815Y-118586815D01*
X125746463Y-118683506D01*
X125687498Y-118793820D01*
X125651188Y-118913518D01*
X125638928Y-119038000D01*
X90576000Y-119038000D01*
X90576000Y-115930031D01*
X105501698Y-115930031D01*
X105518449Y-116017591D01*
X105633526Y-116290809D01*
X105799694Y-116536326D01*
X106010567Y-116744708D01*
X106258042Y-116907947D01*
X106532608Y-117019769D01*
X106823714Y-117075877D01*
X107061000Y-116920376D01*
X107061000Y-115697000D01*
X107315000Y-115697000D01*
X107315000Y-116920376D01*
X107552286Y-117075877D01*
X107843392Y-117019769D01*
X108117958Y-116907947D01*
X108365433Y-116744708D01*
X108576306Y-116536326D01*
X108742474Y-116290809D01*
X108857551Y-116017591D01*
X108874302Y-115930031D01*
X115153698Y-115930031D01*
X115170449Y-116017591D01*
X115285526Y-116290809D01*
X115451694Y-116536326D01*
X115662567Y-116744708D01*
X115910042Y-116907947D01*
X116184608Y-117019769D01*
X116475714Y-117075877D01*
X116713000Y-116920376D01*
X116713000Y-115697000D01*
X116967000Y-115697000D01*
X116967000Y-116920376D01*
X117204286Y-117075877D01*
X117495392Y-117019769D01*
X117769958Y-116907947D01*
X118017433Y-116744708D01*
X118228306Y-116536326D01*
X118394474Y-116290809D01*
X118509551Y-116017591D01*
X118526302Y-115930031D01*
X118405246Y-115697000D01*
X116967000Y-115697000D01*
X116713000Y-115697000D01*
X115274754Y-115697000D01*
X115153698Y-115930031D01*
X108874302Y-115930031D01*
X108753246Y-115697000D01*
X107315000Y-115697000D01*
X107061000Y-115697000D01*
X105622754Y-115697000D01*
X105501698Y-115930031D01*
X90576000Y-115930031D01*
X90576000Y-115206500D01*
X93405428Y-115206500D01*
X93417688Y-115330982D01*
X93453998Y-115450680D01*
X93512963Y-115560994D01*
X93592315Y-115657685D01*
X93689006Y-115737037D01*
X93799320Y-115796002D01*
X93919018Y-115832312D01*
X94043500Y-115844572D01*
X94964250Y-115841500D01*
X95123000Y-115682750D01*
X95123000Y-114127000D01*
X95377000Y-114127000D01*
X95377000Y-115682750D01*
X95535750Y-115841500D01*
X96456500Y-115844572D01*
X96580982Y-115832312D01*
X96700680Y-115796002D01*
X96810994Y-115737037D01*
X96907685Y-115657685D01*
X96987037Y-115560994D01*
X97046002Y-115450680D01*
X97082312Y-115330982D01*
X97094572Y-115206500D01*
X97091500Y-114285750D01*
X96932750Y-114127000D01*
X95377000Y-114127000D01*
X95123000Y-114127000D01*
X93567250Y-114127000D01*
X93408500Y-114285750D01*
X93405428Y-115206500D01*
X90576000Y-115206500D01*
X90576000Y-112793500D01*
X93405428Y-112793500D01*
X93408500Y-113714250D01*
X93567250Y-113873000D01*
X95123000Y-113873000D01*
X95123000Y-112317250D01*
X95377000Y-112317250D01*
X95377000Y-113873000D01*
X96932750Y-113873000D01*
X97091500Y-113714250D01*
X97094572Y-112793500D01*
X97082312Y-112669018D01*
X97046002Y-112549320D01*
X96987037Y-112439006D01*
X96907685Y-112342315D01*
X96810994Y-112262963D01*
X96700680Y-112203998D01*
X96580982Y-112167688D01*
X96456500Y-112155428D01*
X95535750Y-112158500D01*
X95377000Y-112317250D01*
X95123000Y-112317250D01*
X94964250Y-112158500D01*
X94043500Y-112155428D01*
X93919018Y-112167688D01*
X93799320Y-112203998D01*
X93689006Y-112262963D01*
X93592315Y-112342315D01*
X93512963Y-112439006D01*
X93453998Y-112549320D01*
X93417688Y-112669018D01*
X93405428Y-112793500D01*
X90576000Y-112793500D01*
X90576000Y-107713500D01*
X93405428Y-107713500D01*
X93405428Y-110126500D01*
X93417688Y-110250982D01*
X93453998Y-110370680D01*
X93512963Y-110480994D01*
X93592315Y-110577685D01*
X93689006Y-110657037D01*
X93799320Y-110716002D01*
X93919018Y-110752312D01*
X94043500Y-110764572D01*
X96456500Y-110764572D01*
X96580982Y-110752312D01*
X96700680Y-110716002D01*
X96810994Y-110657037D01*
X96907685Y-110577685D01*
X96979645Y-110490000D01*
X105450718Y-110490000D01*
X105479776Y-110785032D01*
X105565834Y-111068725D01*
X105705583Y-111330179D01*
X105893655Y-111559345D01*
X106122821Y-111747417D01*
X106146362Y-111760000D01*
X106122821Y-111772583D01*
X105893655Y-111960655D01*
X105705583Y-112189821D01*
X105565834Y-112451275D01*
X105479776Y-112734968D01*
X105450718Y-113030000D01*
X105479776Y-113325032D01*
X105565834Y-113608725D01*
X105705583Y-113870179D01*
X105893655Y-114099345D01*
X106122821Y-114287417D01*
X106151152Y-114302560D01*
X106010567Y-114395292D01*
X105799694Y-114603674D01*
X105633526Y-114849191D01*
X105518449Y-115122409D01*
X105501698Y-115209969D01*
X105622754Y-115443000D01*
X107061000Y-115443000D01*
X107061000Y-115423000D01*
X107315000Y-115423000D01*
X107315000Y-115443000D01*
X108753246Y-115443000D01*
X108874302Y-115209969D01*
X108857551Y-115122409D01*
X108742474Y-114849191D01*
X108576306Y-114603674D01*
X108365433Y-114395292D01*
X108224848Y-114302560D01*
X108253179Y-114287417D01*
X108482345Y-114099345D01*
X108670417Y-113870179D01*
X108810166Y-113608725D01*
X108896224Y-113325032D01*
X108925282Y-113030000D01*
X108896224Y-112734968D01*
X108810166Y-112451275D01*
X108670417Y-112189821D01*
X108482345Y-111960655D01*
X108253179Y-111772583D01*
X108229638Y-111760000D01*
X108253179Y-111747417D01*
X108482345Y-111559345D01*
X108670417Y-111330179D01*
X108810166Y-111068725D01*
X108896224Y-110785032D01*
X108925282Y-110490000D01*
X115102718Y-110490000D01*
X115131776Y-110785032D01*
X115217834Y-111068725D01*
X115357583Y-111330179D01*
X115545655Y-111559345D01*
X115774821Y-111747417D01*
X115798362Y-111760000D01*
X115774821Y-111772583D01*
X115545655Y-111960655D01*
X115357583Y-112189821D01*
X115217834Y-112451275D01*
X115131776Y-112734968D01*
X115102718Y-113030000D01*
X115131776Y-113325032D01*
X115217834Y-113608725D01*
X115357583Y-113870179D01*
X115545655Y-114099345D01*
X115774821Y-114287417D01*
X115803152Y-114302560D01*
X115662567Y-114395292D01*
X115451694Y-114603674D01*
X115285526Y-114849191D01*
X115170449Y-115122409D01*
X115153698Y-115209969D01*
X115274754Y-115443000D01*
X116713000Y-115443000D01*
X116713000Y-115423000D01*
X116967000Y-115423000D01*
X116967000Y-115443000D01*
X118405246Y-115443000D01*
X118526302Y-115209969D01*
X118509551Y-115122409D01*
X118394474Y-114849191D01*
X118228306Y-114603674D01*
X118017433Y-114395292D01*
X117876848Y-114302560D01*
X117905179Y-114287417D01*
X118134345Y-114099345D01*
X118322417Y-113870179D01*
X118462166Y-113608725D01*
X118548224Y-113325032D01*
X118577282Y-113030000D01*
X118548224Y-112734968D01*
X118462166Y-112451275D01*
X118322417Y-112189821D01*
X118134345Y-111960655D01*
X117905179Y-111772583D01*
X117881638Y-111760000D01*
X117905179Y-111747417D01*
X118134345Y-111559345D01*
X118322417Y-111330179D01*
X118462166Y-111068725D01*
X118548224Y-110785032D01*
X118577282Y-110490000D01*
X118548224Y-110194968D01*
X118462166Y-109911275D01*
X118322417Y-109649821D01*
X118134345Y-109420655D01*
X118068886Y-109366934D01*
X118178387Y-109308405D01*
X118312962Y-109197962D01*
X118423405Y-109063387D01*
X118505472Y-108909851D01*
X118526964Y-108839000D01*
X123571000Y-108839000D01*
X123571001Y-110114045D01*
X123531892Y-110208462D01*
X123494800Y-110394936D01*
X123494800Y-110585064D01*
X123531892Y-110771538D01*
X123604651Y-110947194D01*
X123710280Y-111105279D01*
X123844721Y-111239720D01*
X124002806Y-111345349D01*
X124178462Y-111418108D01*
X124364936Y-111455200D01*
X124555064Y-111455200D01*
X124741538Y-111418108D01*
X124917194Y-111345349D01*
X125075279Y-111239720D01*
X125209720Y-111105279D01*
X125315349Y-110947194D01*
X125388108Y-110771538D01*
X125425200Y-110585064D01*
X125425200Y-110394936D01*
X125388108Y-110208462D01*
X125349000Y-110114047D01*
X125349000Y-108953235D01*
X126513268Y-107788967D01*
X159600000Y-107788967D01*
X159600000Y-108111033D01*
X159662832Y-108426912D01*
X159786082Y-108724463D01*
X159965013Y-108992252D01*
X160192748Y-109219987D01*
X160460537Y-109398918D01*
X160758088Y-109522168D01*
X161073967Y-109585000D01*
X161396033Y-109585000D01*
X161711912Y-109522168D01*
X162009463Y-109398918D01*
X162277252Y-109219987D01*
X162504987Y-108992252D01*
X162683918Y-108724463D01*
X162807168Y-108426912D01*
X162870000Y-108111033D01*
X162870000Y-107788967D01*
X162807168Y-107473088D01*
X162683918Y-107175537D01*
X162504987Y-106907748D01*
X162277252Y-106680013D01*
X162009463Y-106501082D01*
X161711912Y-106377832D01*
X161396033Y-106315000D01*
X161073967Y-106315000D01*
X160758088Y-106377832D01*
X160460537Y-106501082D01*
X160192748Y-106680013D01*
X159965013Y-106907748D01*
X159786082Y-107175537D01*
X159662832Y-107473088D01*
X159600000Y-107788967D01*
X126513268Y-107788967D01*
X128511236Y-105791000D01*
X137116333Y-105791000D01*
X137160000Y-105795301D01*
X137203667Y-105791000D01*
X162318765Y-105791000D01*
X164135958Y-107608194D01*
X164100000Y-107788967D01*
X164100000Y-108111033D01*
X164162832Y-108426912D01*
X164286082Y-108724463D01*
X164465013Y-108992252D01*
X164692748Y-109219987D01*
X164960537Y-109398918D01*
X165258088Y-109522168D01*
X165573967Y-109585000D01*
X165896033Y-109585000D01*
X166211912Y-109522168D01*
X166509463Y-109398918D01*
X166777252Y-109219987D01*
X167004987Y-108992252D01*
X167183918Y-108724463D01*
X167307168Y-108426912D01*
X167370000Y-108111033D01*
X167370000Y-107788967D01*
X167855000Y-107788967D01*
X167855000Y-108111033D01*
X167917832Y-108426912D01*
X168041082Y-108724463D01*
X168220013Y-108992252D01*
X168447748Y-109219987D01*
X168715537Y-109398918D01*
X169013088Y-109522168D01*
X169328967Y-109585000D01*
X169651033Y-109585000D01*
X169966912Y-109522168D01*
X170264463Y-109398918D01*
X170532252Y-109219987D01*
X170759987Y-108992252D01*
X170938918Y-108724463D01*
X171062168Y-108426912D01*
X171125000Y-108111033D01*
X171125000Y-107788967D01*
X172355000Y-107788967D01*
X172355000Y-108111033D01*
X172417832Y-108426912D01*
X172541082Y-108724463D01*
X172720013Y-108992252D01*
X172947748Y-109219987D01*
X173215537Y-109398918D01*
X173513088Y-109522168D01*
X173828967Y-109585000D01*
X174151033Y-109585000D01*
X174466912Y-109522168D01*
X174764463Y-109398918D01*
X175032252Y-109219987D01*
X175259987Y-108992252D01*
X175438918Y-108724463D01*
X175562168Y-108426912D01*
X175625000Y-108111033D01*
X175625000Y-107788967D01*
X175562168Y-107473088D01*
X175438918Y-107175537D01*
X175259987Y-106907748D01*
X175032252Y-106680013D01*
X174764463Y-106501082D01*
X174466912Y-106377832D01*
X174151033Y-106315000D01*
X173828967Y-106315000D01*
X173513088Y-106377832D01*
X173215537Y-106501082D01*
X172947748Y-106680013D01*
X172720013Y-106907748D01*
X172541082Y-107175537D01*
X172417832Y-107473088D01*
X172355000Y-107788967D01*
X171125000Y-107788967D01*
X171062168Y-107473088D01*
X170938918Y-107175537D01*
X170759987Y-106907748D01*
X170532252Y-106680013D01*
X170264463Y-106501082D01*
X169966912Y-106377832D01*
X169651033Y-106315000D01*
X169328967Y-106315000D01*
X169013088Y-106377832D01*
X168715537Y-106501082D01*
X168447748Y-106680013D01*
X168220013Y-106907748D01*
X168041082Y-107175537D01*
X167917832Y-107473088D01*
X167855000Y-107788967D01*
X167370000Y-107788967D01*
X167307168Y-107473088D01*
X167183918Y-107175537D01*
X167004987Y-106907748D01*
X166777252Y-106680013D01*
X166509463Y-106501082D01*
X166211912Y-106377832D01*
X165896033Y-106315000D01*
X165573967Y-106315000D01*
X165393194Y-106350958D01*
X163346499Y-104304264D01*
X163318659Y-104270341D01*
X163183291Y-104159247D01*
X163028851Y-104076697D01*
X162861274Y-104025864D01*
X162730667Y-104013000D01*
X162730660Y-104013000D01*
X162687000Y-104008700D01*
X162643340Y-104013000D01*
X138049000Y-104013000D01*
X138049000Y-97694936D01*
X155879800Y-97694936D01*
X155879800Y-97885064D01*
X155916892Y-98071538D01*
X155989651Y-98247194D01*
X156095280Y-98405279D01*
X156108400Y-98418399D01*
X156108401Y-100971600D01*
X156095280Y-100984721D01*
X155989651Y-101142806D01*
X155916892Y-101318462D01*
X155879800Y-101504936D01*
X155879800Y-101695064D01*
X155916892Y-101881538D01*
X155989651Y-102057194D01*
X156095280Y-102215279D01*
X156229721Y-102349720D01*
X156387806Y-102455349D01*
X156563462Y-102528108D01*
X156749936Y-102565200D01*
X156940064Y-102565200D01*
X157126538Y-102528108D01*
X157302194Y-102455349D01*
X157460279Y-102349720D01*
X157594720Y-102215279D01*
X157700349Y-102057194D01*
X157773108Y-101881538D01*
X157810200Y-101695064D01*
X157810200Y-101504936D01*
X157773108Y-101318462D01*
X157700349Y-101142806D01*
X157594720Y-100984721D01*
X157581600Y-100971601D01*
X157581600Y-98418399D01*
X157594720Y-98405279D01*
X157700349Y-98247194D01*
X157773108Y-98071538D01*
X157810200Y-97885064D01*
X157810200Y-97694936D01*
X159054800Y-97694936D01*
X159054800Y-97885064D01*
X159091892Y-98071538D01*
X159164651Y-98247194D01*
X159270280Y-98405279D01*
X159283400Y-98418399D01*
X159283401Y-101606600D01*
X159270280Y-101619721D01*
X159164651Y-101777806D01*
X159091892Y-101953462D01*
X159054800Y-102139936D01*
X159054800Y-102330064D01*
X159091892Y-102516538D01*
X159164651Y-102692194D01*
X159270280Y-102850279D01*
X159404721Y-102984720D01*
X159562806Y-103090349D01*
X159738462Y-103163108D01*
X159924936Y-103200200D01*
X160115064Y-103200200D01*
X160301538Y-103163108D01*
X160477194Y-103090349D01*
X160635279Y-102984720D01*
X160769720Y-102850279D01*
X160875349Y-102692194D01*
X160948108Y-102516538D01*
X160985200Y-102330064D01*
X160985200Y-102139936D01*
X160948108Y-101953462D01*
X160875349Y-101777806D01*
X160769720Y-101619721D01*
X160756600Y-101606601D01*
X160756600Y-98418399D01*
X160769720Y-98405279D01*
X160875349Y-98247194D01*
X160948108Y-98071538D01*
X160985200Y-97885064D01*
X160985200Y-97694936D01*
X162229800Y-97694936D01*
X162229800Y-97885064D01*
X162266892Y-98071538D01*
X162339651Y-98247194D01*
X162445280Y-98405279D01*
X162458400Y-98418399D01*
X162458401Y-102241600D01*
X162445280Y-102254721D01*
X162339651Y-102412806D01*
X162266892Y-102588462D01*
X162229800Y-102774936D01*
X162229800Y-102965064D01*
X162266892Y-103151538D01*
X162339651Y-103327194D01*
X162445280Y-103485279D01*
X162579721Y-103619720D01*
X162737806Y-103725349D01*
X162913462Y-103798108D01*
X163099936Y-103835200D01*
X163290064Y-103835200D01*
X163476538Y-103798108D01*
X163652194Y-103725349D01*
X163810279Y-103619720D01*
X163944720Y-103485279D01*
X164050349Y-103327194D01*
X164123108Y-103151538D01*
X164160200Y-102965064D01*
X164160200Y-102774936D01*
X164123108Y-102588462D01*
X164050349Y-102412806D01*
X163944720Y-102254721D01*
X163931600Y-102241601D01*
X163931600Y-98418399D01*
X163944720Y-98405279D01*
X164050349Y-98247194D01*
X164123108Y-98071538D01*
X164160200Y-97885064D01*
X164160200Y-97694936D01*
X165404800Y-97694936D01*
X165404800Y-97885064D01*
X165441892Y-98071538D01*
X165514651Y-98247194D01*
X165620280Y-98405279D01*
X165633400Y-98418399D01*
X165633401Y-102876600D01*
X165620280Y-102889721D01*
X165514651Y-103047806D01*
X165441892Y-103223462D01*
X165404800Y-103409936D01*
X165404800Y-103600064D01*
X165441892Y-103786538D01*
X165514651Y-103962194D01*
X165620280Y-104120279D01*
X165754721Y-104254720D01*
X165912806Y-104360349D01*
X166088462Y-104433108D01*
X166274936Y-104470200D01*
X166465064Y-104470200D01*
X166651538Y-104433108D01*
X166827194Y-104360349D01*
X166985279Y-104254720D01*
X167119720Y-104120279D01*
X167225349Y-103962194D01*
X167298108Y-103786538D01*
X167335200Y-103600064D01*
X167335200Y-103409936D01*
X167298108Y-103223462D01*
X167225349Y-103047806D01*
X167119720Y-102889721D01*
X167106600Y-102876601D01*
X167106600Y-98418399D01*
X167119720Y-98405279D01*
X167225349Y-98247194D01*
X167298108Y-98071538D01*
X167335200Y-97885064D01*
X167335200Y-97694936D01*
X168579800Y-97694936D01*
X168579800Y-97885064D01*
X168616892Y-98071538D01*
X168689651Y-98247194D01*
X168795280Y-98405279D01*
X168808400Y-98418399D01*
X168808401Y-103511600D01*
X168795280Y-103524721D01*
X168689651Y-103682806D01*
X168616892Y-103858462D01*
X168579800Y-104044936D01*
X168579800Y-104235064D01*
X168616892Y-104421538D01*
X168689651Y-104597194D01*
X168795280Y-104755279D01*
X168929721Y-104889720D01*
X169087806Y-104995349D01*
X169263462Y-105068108D01*
X169449936Y-105105200D01*
X169640064Y-105105200D01*
X169826538Y-105068108D01*
X170002194Y-104995349D01*
X170160279Y-104889720D01*
X170294720Y-104755279D01*
X170400349Y-104597194D01*
X170473108Y-104421538D01*
X170510200Y-104235064D01*
X170510200Y-104044936D01*
X170473108Y-103858462D01*
X170400349Y-103682806D01*
X170294720Y-103524721D01*
X170281600Y-103511601D01*
X170281600Y-100823665D01*
X178397000Y-100823665D01*
X178397000Y-101106335D01*
X178452147Y-101383574D01*
X178560320Y-101644727D01*
X178717363Y-101879759D01*
X178917241Y-102079637D01*
X179149759Y-102235000D01*
X178917241Y-102390363D01*
X178717363Y-102590241D01*
X178560320Y-102825273D01*
X178452147Y-103086426D01*
X178397000Y-103363665D01*
X178397000Y-103646335D01*
X178452147Y-103923574D01*
X178560320Y-104184727D01*
X178717363Y-104419759D01*
X178917241Y-104619637D01*
X179149759Y-104775000D01*
X178917241Y-104930363D01*
X178717363Y-105130241D01*
X178560320Y-105365273D01*
X178452147Y-105626426D01*
X178397000Y-105903665D01*
X178397000Y-106186335D01*
X178452147Y-106463574D01*
X178560320Y-106724727D01*
X178717363Y-106959759D01*
X178917241Y-107159637D01*
X179149759Y-107315000D01*
X178917241Y-107470363D01*
X178717363Y-107670241D01*
X178560320Y-107905273D01*
X178452147Y-108166426D01*
X178397000Y-108443665D01*
X178397000Y-108726335D01*
X178452147Y-109003574D01*
X178560320Y-109264727D01*
X178717363Y-109499759D01*
X178917241Y-109699637D01*
X179149759Y-109855000D01*
X178917241Y-110010363D01*
X178717363Y-110210241D01*
X178560320Y-110445273D01*
X178452147Y-110706426D01*
X178397000Y-110983665D01*
X178397000Y-111266335D01*
X178452147Y-111543574D01*
X178560320Y-111804727D01*
X178717363Y-112039759D01*
X178917241Y-112239637D01*
X179149759Y-112395000D01*
X178917241Y-112550363D01*
X178717363Y-112750241D01*
X178560320Y-112985273D01*
X178452147Y-113246426D01*
X178397000Y-113523665D01*
X178397000Y-113806335D01*
X178452147Y-114083574D01*
X178560320Y-114344727D01*
X178717363Y-114579759D01*
X178917241Y-114779637D01*
X179152273Y-114936680D01*
X179413426Y-115044853D01*
X179690665Y-115100000D01*
X179973335Y-115100000D01*
X180250574Y-115044853D01*
X180511727Y-114936680D01*
X180746759Y-114779637D01*
X180946637Y-114579759D01*
X181023316Y-114465000D01*
X186013928Y-114465000D01*
X186026188Y-114589482D01*
X186062498Y-114709180D01*
X186121463Y-114819494D01*
X186200815Y-114916185D01*
X186297506Y-114995537D01*
X186407820Y-115054502D01*
X186527518Y-115090812D01*
X186652000Y-115103072D01*
X187166250Y-115100000D01*
X187325000Y-114941250D01*
X187325000Y-113792000D01*
X187579000Y-113792000D01*
X187579000Y-114941250D01*
X187737750Y-115100000D01*
X188252000Y-115103072D01*
X188376482Y-115090812D01*
X188496180Y-115054502D01*
X188606494Y-114995537D01*
X188703185Y-114916185D01*
X188782537Y-114819494D01*
X188841502Y-114709180D01*
X188877812Y-114589482D01*
X188890072Y-114465000D01*
X188887000Y-113950750D01*
X188728250Y-113792000D01*
X187579000Y-113792000D01*
X187325000Y-113792000D01*
X186175750Y-113792000D01*
X186017000Y-113950750D01*
X186013928Y-114465000D01*
X181023316Y-114465000D01*
X181103680Y-114344727D01*
X181211853Y-114083574D01*
X181267000Y-113806335D01*
X181267000Y-113523665D01*
X181211853Y-113246426D01*
X181103680Y-112985273D01*
X181023317Y-112865000D01*
X186013928Y-112865000D01*
X186017000Y-113379250D01*
X186175750Y-113538000D01*
X187325000Y-113538000D01*
X187325000Y-111252000D01*
X187579000Y-111252000D01*
X187579000Y-113538000D01*
X188728250Y-113538000D01*
X188887000Y-113379250D01*
X188890072Y-112865000D01*
X188877812Y-112740518D01*
X188841502Y-112620820D01*
X188782537Y-112510506D01*
X188703185Y-112413815D01*
X188606494Y-112334463D01*
X188496180Y-112275498D01*
X188376482Y-112239188D01*
X188351920Y-112236769D01*
X188515519Y-112088414D01*
X188683037Y-111862420D01*
X188803246Y-111608087D01*
X188843904Y-111474039D01*
X188721915Y-111252000D01*
X187579000Y-111252000D01*
X187325000Y-111252000D01*
X186182085Y-111252000D01*
X186060096Y-111474039D01*
X186100754Y-111608087D01*
X186220963Y-111862420D01*
X186388481Y-112088414D01*
X186552080Y-112236769D01*
X186527518Y-112239188D01*
X186407820Y-112275498D01*
X186297506Y-112334463D01*
X186200815Y-112413815D01*
X186121463Y-112510506D01*
X186062498Y-112620820D01*
X186026188Y-112740518D01*
X186013928Y-112865000D01*
X181023317Y-112865000D01*
X180946637Y-112750241D01*
X180746759Y-112550363D01*
X180514241Y-112395000D01*
X180746759Y-112239637D01*
X180946637Y-112039759D01*
X181103680Y-111804727D01*
X181211853Y-111543574D01*
X181267000Y-111266335D01*
X181267000Y-110983665D01*
X181211853Y-110706426D01*
X181103680Y-110445273D01*
X180946637Y-110210241D01*
X180746759Y-110010363D01*
X180514241Y-109855000D01*
X180746759Y-109699637D01*
X180946637Y-109499759D01*
X181103680Y-109264727D01*
X181211853Y-109003574D01*
X181225684Y-108934039D01*
X186060096Y-108934039D01*
X186100754Y-109068087D01*
X186220963Y-109322420D01*
X186388481Y-109548414D01*
X186596869Y-109737385D01*
X186792982Y-109855000D01*
X186596869Y-109972615D01*
X186388481Y-110161586D01*
X186220963Y-110387580D01*
X186100754Y-110641913D01*
X186060096Y-110775961D01*
X186182085Y-110998000D01*
X187325000Y-110998000D01*
X187325000Y-108712000D01*
X187579000Y-108712000D01*
X187579000Y-110998000D01*
X188721915Y-110998000D01*
X188843904Y-110775961D01*
X188803246Y-110641913D01*
X188683037Y-110387580D01*
X188515519Y-110161586D01*
X188307131Y-109972615D01*
X188111018Y-109855000D01*
X188307131Y-109737385D01*
X188515519Y-109548414D01*
X188683037Y-109322420D01*
X188803246Y-109068087D01*
X188843904Y-108934039D01*
X188721915Y-108712000D01*
X187579000Y-108712000D01*
X187325000Y-108712000D01*
X186182085Y-108712000D01*
X186060096Y-108934039D01*
X181225684Y-108934039D01*
X181267000Y-108726335D01*
X181267000Y-108443665D01*
X181211853Y-108166426D01*
X181103680Y-107905273D01*
X180946637Y-107670241D01*
X180746759Y-107470363D01*
X180514241Y-107315000D01*
X180746759Y-107159637D01*
X180946637Y-106959759D01*
X181103680Y-106724727D01*
X181211853Y-106463574D01*
X181225684Y-106394039D01*
X186060096Y-106394039D01*
X186100754Y-106528087D01*
X186220963Y-106782420D01*
X186388481Y-107008414D01*
X186596869Y-107197385D01*
X186792982Y-107315000D01*
X186596869Y-107432615D01*
X186388481Y-107621586D01*
X186220963Y-107847580D01*
X186100754Y-108101913D01*
X186060096Y-108235961D01*
X186182085Y-108458000D01*
X187325000Y-108458000D01*
X187325000Y-106172000D01*
X187579000Y-106172000D01*
X187579000Y-108458000D01*
X188721915Y-108458000D01*
X188843904Y-108235961D01*
X188803246Y-108101913D01*
X188683037Y-107847580D01*
X188515519Y-107621586D01*
X188307131Y-107432615D01*
X188111018Y-107315000D01*
X188307131Y-107197385D01*
X188515519Y-107008414D01*
X188683037Y-106782420D01*
X188803246Y-106528087D01*
X188843904Y-106394039D01*
X188721915Y-106172000D01*
X187579000Y-106172000D01*
X187325000Y-106172000D01*
X186182085Y-106172000D01*
X186060096Y-106394039D01*
X181225684Y-106394039D01*
X181267000Y-106186335D01*
X181267000Y-105903665D01*
X181211853Y-105626426D01*
X181103680Y-105365273D01*
X180946637Y-105130241D01*
X180746759Y-104930363D01*
X180514241Y-104775000D01*
X180746759Y-104619637D01*
X180946637Y-104419759D01*
X181103680Y-104184727D01*
X181211853Y-103923574D01*
X181225684Y-103854039D01*
X186060096Y-103854039D01*
X186100754Y-103988087D01*
X186220963Y-104242420D01*
X186388481Y-104468414D01*
X186596869Y-104657385D01*
X186792982Y-104775000D01*
X186596869Y-104892615D01*
X186388481Y-105081586D01*
X186220963Y-105307580D01*
X186100754Y-105561913D01*
X186060096Y-105695961D01*
X186182085Y-105918000D01*
X187325000Y-105918000D01*
X187325000Y-103632000D01*
X187579000Y-103632000D01*
X187579000Y-105918000D01*
X188721915Y-105918000D01*
X188843904Y-105695961D01*
X188803246Y-105561913D01*
X188683037Y-105307580D01*
X188515519Y-105081586D01*
X188307131Y-104892615D01*
X188111018Y-104775000D01*
X188307131Y-104657385D01*
X188515519Y-104468414D01*
X188683037Y-104242420D01*
X188803246Y-103988087D01*
X188843904Y-103854039D01*
X188721915Y-103632000D01*
X187579000Y-103632000D01*
X187325000Y-103632000D01*
X186182085Y-103632000D01*
X186060096Y-103854039D01*
X181225684Y-103854039D01*
X181267000Y-103646335D01*
X181267000Y-103363665D01*
X181211853Y-103086426D01*
X181103680Y-102825273D01*
X180946637Y-102590241D01*
X180746759Y-102390363D01*
X180514241Y-102235000D01*
X180746759Y-102079637D01*
X180946637Y-101879759D01*
X181103680Y-101644727D01*
X181211853Y-101383574D01*
X181225684Y-101314039D01*
X186060096Y-101314039D01*
X186100754Y-101448087D01*
X186220963Y-101702420D01*
X186388481Y-101928414D01*
X186596869Y-102117385D01*
X186792982Y-102235000D01*
X186596869Y-102352615D01*
X186388481Y-102541586D01*
X186220963Y-102767580D01*
X186100754Y-103021913D01*
X186060096Y-103155961D01*
X186182085Y-103378000D01*
X187325000Y-103378000D01*
X187325000Y-101092000D01*
X187579000Y-101092000D01*
X187579000Y-103378000D01*
X188721915Y-103378000D01*
X188843904Y-103155961D01*
X188803246Y-103021913D01*
X188683037Y-102767580D01*
X188515519Y-102541586D01*
X188307131Y-102352615D01*
X188111018Y-102235000D01*
X188307131Y-102117385D01*
X188515519Y-101928414D01*
X188683037Y-101702420D01*
X188803246Y-101448087D01*
X188843904Y-101314039D01*
X188721915Y-101092000D01*
X187579000Y-101092000D01*
X187325000Y-101092000D01*
X186182085Y-101092000D01*
X186060096Y-101314039D01*
X181225684Y-101314039D01*
X181267000Y-101106335D01*
X181267000Y-100823665D01*
X181225685Y-100615961D01*
X186060096Y-100615961D01*
X186182085Y-100838000D01*
X187325000Y-100838000D01*
X187325000Y-99694376D01*
X187579000Y-99694376D01*
X187579000Y-100838000D01*
X188721915Y-100838000D01*
X188843904Y-100615961D01*
X188803246Y-100481913D01*
X188683037Y-100227580D01*
X188515519Y-100001586D01*
X188307131Y-99812615D01*
X188065881Y-99667930D01*
X187801040Y-99573091D01*
X187579000Y-99694376D01*
X187325000Y-99694376D01*
X187102960Y-99573091D01*
X186838119Y-99667930D01*
X186596869Y-99812615D01*
X186388481Y-100001586D01*
X186220963Y-100227580D01*
X186100754Y-100481913D01*
X186060096Y-100615961D01*
X181225685Y-100615961D01*
X181211853Y-100546426D01*
X181103680Y-100285273D01*
X180946637Y-100050241D01*
X180746759Y-99850363D01*
X180511727Y-99693320D01*
X180250574Y-99585147D01*
X179973335Y-99530000D01*
X179690665Y-99530000D01*
X179413426Y-99585147D01*
X179152273Y-99693320D01*
X178917241Y-99850363D01*
X178717363Y-100050241D01*
X178560320Y-100285273D01*
X178452147Y-100546426D01*
X178397000Y-100823665D01*
X170281600Y-100823665D01*
X170281600Y-98418399D01*
X170294720Y-98405279D01*
X170400349Y-98247194D01*
X170473108Y-98071538D01*
X170510200Y-97885064D01*
X170510200Y-97694936D01*
X170473108Y-97508462D01*
X170400349Y-97332806D01*
X170294720Y-97174721D01*
X170160279Y-97040280D01*
X170002194Y-96934651D01*
X169826538Y-96861892D01*
X169640064Y-96824800D01*
X169449936Y-96824800D01*
X169263462Y-96861892D01*
X169087806Y-96934651D01*
X168929721Y-97040280D01*
X168795280Y-97174721D01*
X168689651Y-97332806D01*
X168616892Y-97508462D01*
X168579800Y-97694936D01*
X167335200Y-97694936D01*
X167298108Y-97508462D01*
X167225349Y-97332806D01*
X167119720Y-97174721D01*
X166985279Y-97040280D01*
X166827194Y-96934651D01*
X166651538Y-96861892D01*
X166465064Y-96824800D01*
X166274936Y-96824800D01*
X166088462Y-96861892D01*
X165912806Y-96934651D01*
X165754721Y-97040280D01*
X165620280Y-97174721D01*
X165514651Y-97332806D01*
X165441892Y-97508462D01*
X165404800Y-97694936D01*
X164160200Y-97694936D01*
X164123108Y-97508462D01*
X164050349Y-97332806D01*
X163944720Y-97174721D01*
X163810279Y-97040280D01*
X163652194Y-96934651D01*
X163476538Y-96861892D01*
X163290064Y-96824800D01*
X163099936Y-96824800D01*
X162913462Y-96861892D01*
X162737806Y-96934651D01*
X162579721Y-97040280D01*
X162445280Y-97174721D01*
X162339651Y-97332806D01*
X162266892Y-97508462D01*
X162229800Y-97694936D01*
X160985200Y-97694936D01*
X160948108Y-97508462D01*
X160875349Y-97332806D01*
X160769720Y-97174721D01*
X160635279Y-97040280D01*
X160477194Y-96934651D01*
X160301538Y-96861892D01*
X160115064Y-96824800D01*
X159924936Y-96824800D01*
X159738462Y-96861892D01*
X159562806Y-96934651D01*
X159404721Y-97040280D01*
X159270280Y-97174721D01*
X159164651Y-97332806D01*
X159091892Y-97508462D01*
X159054800Y-97694936D01*
X157810200Y-97694936D01*
X157773108Y-97508462D01*
X157700349Y-97332806D01*
X157594720Y-97174721D01*
X157460279Y-97040280D01*
X157302194Y-96934651D01*
X157126538Y-96861892D01*
X156940064Y-96824800D01*
X156749936Y-96824800D01*
X156563462Y-96861892D01*
X156387806Y-96934651D01*
X156229721Y-97040280D01*
X156095280Y-97174721D01*
X155989651Y-97332806D01*
X155916892Y-97508462D01*
X155879800Y-97694936D01*
X138049000Y-97694936D01*
X138049000Y-93901983D01*
X138106632Y-93863475D01*
X138313475Y-93656632D01*
X138435195Y-93474466D01*
X138504822Y-93591355D01*
X138699731Y-93807588D01*
X138933080Y-93981641D01*
X139195901Y-94106825D01*
X139343110Y-94151476D01*
X139573000Y-94030155D01*
X139573000Y-92837000D01*
X139553000Y-92837000D01*
X139553000Y-92583000D01*
X139573000Y-92583000D01*
X139573000Y-91389845D01*
X139827000Y-91389845D01*
X139827000Y-92583000D01*
X139847000Y-92583000D01*
X139847000Y-92837000D01*
X139827000Y-92837000D01*
X139827000Y-94030155D01*
X140056890Y-94151476D01*
X140204099Y-94106825D01*
X140466920Y-93981641D01*
X140700269Y-93807588D01*
X140895178Y-93591355D01*
X140964805Y-93474466D01*
X141086525Y-93656632D01*
X141293368Y-93863475D01*
X141536589Y-94025990D01*
X141806842Y-94137932D01*
X142093740Y-94195000D01*
X142386260Y-94195000D01*
X142673158Y-94137932D01*
X142943411Y-94025990D01*
X143186632Y-93863475D01*
X143393475Y-93656632D01*
X143510000Y-93482240D01*
X143626525Y-93656632D01*
X143833368Y-93863475D01*
X144076589Y-94025990D01*
X144346842Y-94137932D01*
X144633740Y-94195000D01*
X144926260Y-94195000D01*
X145213158Y-94137932D01*
X145483411Y-94025990D01*
X145726632Y-93863475D01*
X145933475Y-93656632D01*
X146050000Y-93482240D01*
X146166525Y-93656632D01*
X146373368Y-93863475D01*
X146616589Y-94025990D01*
X146886842Y-94137932D01*
X147173740Y-94195000D01*
X147466260Y-94195000D01*
X147753158Y-94137932D01*
X148023411Y-94025990D01*
X148266632Y-93863475D01*
X148473475Y-93656632D01*
X148635990Y-93413411D01*
X148747932Y-93143158D01*
X148805000Y-92856260D01*
X148805000Y-92563740D01*
X148747932Y-92276842D01*
X148635990Y-92006589D01*
X148473475Y-91763368D01*
X148266632Y-91556525D01*
X148023411Y-91394010D01*
X147753158Y-91282068D01*
X147466260Y-91225000D01*
X147173740Y-91225000D01*
X146886842Y-91282068D01*
X146616589Y-91394010D01*
X146373368Y-91556525D01*
X146166525Y-91763368D01*
X146050000Y-91937760D01*
X145933475Y-91763368D01*
X145726632Y-91556525D01*
X145483411Y-91394010D01*
X145213158Y-91282068D01*
X144926260Y-91225000D01*
X144633740Y-91225000D01*
X144346842Y-91282068D01*
X144076589Y-91394010D01*
X143833368Y-91556525D01*
X143626525Y-91763368D01*
X143510000Y-91937760D01*
X143393475Y-91763368D01*
X143186632Y-91556525D01*
X142943411Y-91394010D01*
X142673158Y-91282068D01*
X142386260Y-91225000D01*
X142093740Y-91225000D01*
X141806842Y-91282068D01*
X141536589Y-91394010D01*
X141293368Y-91556525D01*
X141086525Y-91763368D01*
X140964805Y-91945534D01*
X140895178Y-91828645D01*
X140700269Y-91612412D01*
X140466920Y-91438359D01*
X140204099Y-91313175D01*
X140056890Y-91268524D01*
X139827000Y-91389845D01*
X139573000Y-91389845D01*
X139343110Y-91268524D01*
X139195901Y-91313175D01*
X138933080Y-91438359D01*
X138699731Y-91612412D01*
X138504822Y-91828645D01*
X138435195Y-91945534D01*
X138313475Y-91763368D01*
X138106632Y-91556525D01*
X137863411Y-91394010D01*
X137593158Y-91282068D01*
X137306260Y-91225000D01*
X137013740Y-91225000D01*
X136726842Y-91282068D01*
X136456589Y-91394010D01*
X136213368Y-91556525D01*
X136081513Y-91688380D01*
X136059502Y-91615820D01*
X136000537Y-91505506D01*
X135921185Y-91408815D01*
X135824494Y-91329463D01*
X135714180Y-91270498D01*
X135594482Y-91234188D01*
X135470000Y-91221928D01*
X133770000Y-91221928D01*
X133645518Y-91234188D01*
X133525820Y-91270498D01*
X133415506Y-91329463D01*
X133318815Y-91408815D01*
X133239463Y-91505506D01*
X133180498Y-91615820D01*
X133144188Y-91735518D01*
X133131928Y-91860000D01*
X133131928Y-93560000D01*
X133144188Y-93684482D01*
X133180498Y-93804180D01*
X133239463Y-93914494D01*
X133318815Y-94011185D01*
X133415506Y-94090537D01*
X133525820Y-94149502D01*
X133645518Y-94185812D01*
X133770000Y-94198072D01*
X135470000Y-94198072D01*
X135594482Y-94185812D01*
X135714180Y-94149502D01*
X135824494Y-94090537D01*
X135921185Y-94011185D01*
X136000537Y-93914494D01*
X136059502Y-93804180D01*
X136081513Y-93731620D01*
X136213368Y-93863475D01*
X136271000Y-93901984D01*
X136271001Y-104013000D01*
X128186668Y-104013000D01*
X128143000Y-104008699D01*
X127968725Y-104025864D01*
X127917892Y-104041284D01*
X127801149Y-104076697D01*
X127646709Y-104159247D01*
X127511341Y-104270341D01*
X127483506Y-104304258D01*
X124520916Y-107266849D01*
X124448291Y-107207247D01*
X124293851Y-107124697D01*
X124126274Y-107073864D01*
X123995667Y-107061000D01*
X123995660Y-107061000D01*
X123952000Y-107056700D01*
X123908340Y-107061000D01*
X118526964Y-107061000D01*
X118505472Y-106990149D01*
X118423405Y-106836613D01*
X118312962Y-106702038D01*
X118178387Y-106591595D01*
X118024851Y-106509528D01*
X117858255Y-106458992D01*
X117685001Y-106441928D01*
X115994999Y-106441928D01*
X115821745Y-106458992D01*
X115655149Y-106509528D01*
X115501613Y-106591595D01*
X115367038Y-106702038D01*
X115256595Y-106836613D01*
X115174528Y-106990149D01*
X115123992Y-107156745D01*
X115106928Y-107329999D01*
X115106928Y-108570001D01*
X115123992Y-108743255D01*
X115174528Y-108909851D01*
X115256595Y-109063387D01*
X115367038Y-109197962D01*
X115501613Y-109308405D01*
X115611114Y-109366934D01*
X115545655Y-109420655D01*
X115357583Y-109649821D01*
X115217834Y-109911275D01*
X115131776Y-110194968D01*
X115102718Y-110490000D01*
X108925282Y-110490000D01*
X108896224Y-110194968D01*
X108810166Y-109911275D01*
X108670417Y-109649821D01*
X108482345Y-109420655D01*
X108416886Y-109366934D01*
X108526387Y-109308405D01*
X108660962Y-109197962D01*
X108771405Y-109063387D01*
X108853472Y-108909851D01*
X108904008Y-108743255D01*
X108921072Y-108570001D01*
X108921072Y-107329999D01*
X108904008Y-107156745D01*
X108853472Y-106990149D01*
X108771405Y-106836613D01*
X108660962Y-106702038D01*
X108526387Y-106591595D01*
X108372851Y-106509528D01*
X108206255Y-106458992D01*
X108033001Y-106441928D01*
X106342999Y-106441928D01*
X106169745Y-106458992D01*
X106003149Y-106509528D01*
X105849613Y-106591595D01*
X105715038Y-106702038D01*
X105604595Y-106836613D01*
X105522528Y-106990149D01*
X105471992Y-107156745D01*
X105454928Y-107329999D01*
X105454928Y-108570001D01*
X105471992Y-108743255D01*
X105522528Y-108909851D01*
X105604595Y-109063387D01*
X105715038Y-109197962D01*
X105849613Y-109308405D01*
X105959114Y-109366934D01*
X105893655Y-109420655D01*
X105705583Y-109649821D01*
X105565834Y-109911275D01*
X105479776Y-110194968D01*
X105450718Y-110490000D01*
X96979645Y-110490000D01*
X96987037Y-110480994D01*
X97046002Y-110370680D01*
X97082312Y-110250982D01*
X97094572Y-110126500D01*
X97094572Y-107713500D01*
X97082312Y-107589018D01*
X97046002Y-107469320D01*
X96987037Y-107359006D01*
X96907685Y-107262315D01*
X96810994Y-107182963D01*
X96700680Y-107123998D01*
X96580982Y-107087688D01*
X96456500Y-107075428D01*
X94043500Y-107075428D01*
X93919018Y-107087688D01*
X93799320Y-107123998D01*
X93689006Y-107182963D01*
X93592315Y-107262315D01*
X93512963Y-107359006D01*
X93453998Y-107469320D01*
X93417688Y-107589018D01*
X93405428Y-107713500D01*
X90576000Y-107713500D01*
X90576000Y-104044936D01*
X104444800Y-104044936D01*
X104444800Y-104235064D01*
X104481892Y-104421538D01*
X104554651Y-104597194D01*
X104660280Y-104755279D01*
X104794721Y-104889720D01*
X104952806Y-104995349D01*
X105128462Y-105068108D01*
X105314936Y-105105200D01*
X105505064Y-105105200D01*
X105691538Y-105068108D01*
X105867194Y-104995349D01*
X106025279Y-104889720D01*
X106038399Y-104876600D01*
X106559601Y-104876600D01*
X106572721Y-104889720D01*
X106730806Y-104995349D01*
X106906462Y-105068108D01*
X107092936Y-105105200D01*
X107283064Y-105105200D01*
X107469538Y-105068108D01*
X107645194Y-104995349D01*
X107803279Y-104889720D01*
X107937720Y-104755279D01*
X108043349Y-104597194D01*
X108116108Y-104421538D01*
X108153200Y-104235064D01*
X108153200Y-104044936D01*
X108116108Y-103858462D01*
X108043349Y-103682806D01*
X107937720Y-103524721D01*
X107803279Y-103390280D01*
X107645194Y-103284651D01*
X107469538Y-103211892D01*
X107283064Y-103174800D01*
X107092936Y-103174800D01*
X106906462Y-103211892D01*
X106730806Y-103284651D01*
X106572721Y-103390280D01*
X106559601Y-103403400D01*
X106038399Y-103403400D01*
X106025279Y-103390280D01*
X105867194Y-103284651D01*
X105691538Y-103211892D01*
X105505064Y-103174800D01*
X105314936Y-103174800D01*
X105128462Y-103211892D01*
X104952806Y-103284651D01*
X104794721Y-103390280D01*
X104660280Y-103524721D01*
X104554651Y-103682806D01*
X104481892Y-103858462D01*
X104444800Y-104044936D01*
X90576000Y-104044936D01*
X90576000Y-94183731D01*
X90601800Y-94186272D01*
X97358200Y-94186272D01*
X97482682Y-94174012D01*
X97602380Y-94137702D01*
X97712694Y-94078737D01*
X97809385Y-93999385D01*
X97888737Y-93902694D01*
X97947702Y-93792380D01*
X97984012Y-93672682D01*
X97996272Y-93548200D01*
X97996272Y-86791800D01*
X97993731Y-86766000D01*
X182676269Y-86766000D01*
X182673728Y-86791800D01*
G37*
G04 #@! TD.AperFunction*
G04 #@! TD*
M02*
