G04 #@! TF.GenerationSoftware,KiCad,Pcbnew,(5.1.9)-1*
G04 #@! TF.CreationDate,2022-03-14T10:23:35-06:00*
G04 #@! TF.ProjectId,SensorBoard,53656e73-6f72-4426-9f61-72642e6b6963,rev?*
G04 #@! TF.SameCoordinates,Original*
G04 #@! TF.FileFunction,Soldermask,Bot*
G04 #@! TF.FilePolarity,Negative*
%FSLAX46Y46*%
G04 Gerber Fmt 4.6, Leading zero omitted, Abs format (unit mm)*
G04 Created by KiCad (PCBNEW (5.1.9)-1) date 2022-03-14 10:23:35*
%MOMM*%
%LPD*%
G01*
G04 APERTURE LIST*
%ADD10O,2.190000X1.740000*%
%ADD11R,2.413000X2.413000*%
%ADD12R,6.756400X6.756400*%
%ADD13R,1.700000X1.700000*%
%ADD14O,1.700000X1.700000*%
%ADD15R,1.600000X1.600000*%
%ADD16O,1.600000X1.600000*%
%ADD17C,2.000000*%
G04 APERTURE END LIST*
D10*
G04 #@! TO.C,J11*
X165735000Y-140335000D03*
X165735000Y-137795000D03*
X165735000Y-135255000D03*
X165735000Y-132715000D03*
X165735000Y-130175000D03*
G36*
G01*
X164889999Y-126765000D02*
X166580001Y-126765000D01*
G75*
G02*
X166830000Y-127014999I0J-249999D01*
G01*
X166830000Y-128255001D01*
G75*
G02*
X166580001Y-128505000I-249999J0D01*
G01*
X164889999Y-128505000D01*
G75*
G02*
X164640000Y-128255001I0J249999D01*
G01*
X164640000Y-127014999D01*
G75*
G02*
X164889999Y-126765000I249999J0D01*
G01*
G37*
G04 #@! TD*
G04 #@! TO.C,J12*
X175895000Y-140335000D03*
X175895000Y-137795000D03*
X175895000Y-135255000D03*
X175895000Y-132715000D03*
X175895000Y-130175000D03*
G36*
G01*
X175049999Y-126765000D02*
X176740001Y-126765000D01*
G75*
G02*
X176990000Y-127014999I0J-249999D01*
G01*
X176990000Y-128255001D01*
G75*
G02*
X176740001Y-128505000I-249999J0D01*
G01*
X175049999Y-128505000D01*
G75*
G02*
X174800000Y-128255001I0J249999D01*
G01*
X174800000Y-127014999D01*
G75*
G02*
X175049999Y-126765000I249999J0D01*
G01*
G37*
G04 #@! TD*
G04 #@! TO.C,J10*
X155575000Y-140335000D03*
X155575000Y-137795000D03*
X155575000Y-135255000D03*
X155575000Y-132715000D03*
X155575000Y-130175000D03*
G36*
G01*
X154729999Y-126765000D02*
X156420001Y-126765000D01*
G75*
G02*
X156670000Y-127014999I0J-249999D01*
G01*
X156670000Y-128255001D01*
G75*
G02*
X156420001Y-128505000I-249999J0D01*
G01*
X154729999Y-128505000D01*
G75*
G02*
X154480000Y-128255001I0J249999D01*
G01*
X154480000Y-127014999D01*
G75*
G02*
X154729999Y-126765000I249999J0D01*
G01*
G37*
G04 #@! TD*
G04 #@! TO.C,J9*
X145415000Y-140335000D03*
X145415000Y-137795000D03*
X145415000Y-135255000D03*
X145415000Y-132715000D03*
X145415000Y-130175000D03*
G36*
G01*
X144569999Y-126765000D02*
X146260001Y-126765000D01*
G75*
G02*
X146510000Y-127014999I0J-249999D01*
G01*
X146510000Y-128255001D01*
G75*
G02*
X146260001Y-128505000I-249999J0D01*
G01*
X144569999Y-128505000D01*
G75*
G02*
X144320000Y-128255001I0J249999D01*
G01*
X144320000Y-127014999D01*
G75*
G02*
X144569999Y-126765000I249999J0D01*
G01*
G37*
G04 #@! TD*
G04 #@! TO.C,J8*
X135255000Y-140335000D03*
X135255000Y-137795000D03*
X135255000Y-135255000D03*
X135255000Y-132715000D03*
X135255000Y-130175000D03*
G36*
G01*
X134409999Y-126765000D02*
X136100001Y-126765000D01*
G75*
G02*
X136350000Y-127014999I0J-249999D01*
G01*
X136350000Y-128255001D01*
G75*
G02*
X136100001Y-128505000I-249999J0D01*
G01*
X134409999Y-128505000D01*
G75*
G02*
X134160000Y-128255001I0J249999D01*
G01*
X134160000Y-127014999D01*
G75*
G02*
X134409999Y-126765000I249999J0D01*
G01*
G37*
G04 #@! TD*
G04 #@! TO.C,J7*
X125095000Y-140335000D03*
X125095000Y-137795000D03*
X125095000Y-135255000D03*
X125095000Y-132715000D03*
X125095000Y-130175000D03*
G36*
G01*
X124249999Y-126765000D02*
X125940001Y-126765000D01*
G75*
G02*
X126190000Y-127014999I0J-249999D01*
G01*
X126190000Y-128255001D01*
G75*
G02*
X125940001Y-128505000I-249999J0D01*
G01*
X124249999Y-128505000D01*
G75*
G02*
X124000000Y-128255001I0J249999D01*
G01*
X124000000Y-127014999D01*
G75*
G02*
X124249999Y-126765000I249999J0D01*
G01*
G37*
G04 #@! TD*
G04 #@! TO.C,J6*
X114935000Y-140335000D03*
X114935000Y-137795000D03*
X114935000Y-135255000D03*
X114935000Y-132715000D03*
X114935000Y-130175000D03*
G36*
G01*
X114089999Y-126765000D02*
X115780001Y-126765000D01*
G75*
G02*
X116030000Y-127014999I0J-249999D01*
G01*
X116030000Y-128255001D01*
G75*
G02*
X115780001Y-128505000I-249999J0D01*
G01*
X114089999Y-128505000D01*
G75*
G02*
X113840000Y-128255001I0J249999D01*
G01*
X113840000Y-127014999D01*
G75*
G02*
X114089999Y-126765000I249999J0D01*
G01*
G37*
G04 #@! TD*
G04 #@! TO.C,J5*
X104775000Y-140335000D03*
X104775000Y-137795000D03*
X104775000Y-135255000D03*
X104775000Y-132715000D03*
X104775000Y-130175000D03*
G36*
G01*
X103929999Y-126765000D02*
X105620001Y-126765000D01*
G75*
G02*
X105870000Y-127014999I0J-249999D01*
G01*
X105870000Y-128255001D01*
G75*
G02*
X105620001Y-128505000I-249999J0D01*
G01*
X103929999Y-128505000D01*
G75*
G02*
X103680000Y-128255001I0J249999D01*
G01*
X103680000Y-127014999D01*
G75*
G02*
X103929999Y-126765000I249999J0D01*
G01*
G37*
G04 #@! TD*
D11*
G04 #@! TO.C,J1*
X95250000Y-114000000D03*
X95250000Y-108920000D03*
G04 #@! TD*
D12*
G04 #@! TO.C,REF\u002A\u002A*
X186690000Y-139192000D03*
G04 #@! TD*
G04 #@! TO.C,REF\u002A\u002A*
X93980000Y-139192000D03*
G04 #@! TD*
G04 #@! TO.C,REF\u002A\u002A*
X93980000Y-90170000D03*
G04 #@! TD*
G04 #@! TO.C,REF\u002A\u002A*
X186690000Y-90170000D03*
G04 #@! TD*
D10*
G04 #@! TO.C,J2*
X107188000Y-115570000D03*
X107188000Y-113030000D03*
X107188000Y-110490000D03*
G36*
G01*
X106342999Y-107080000D02*
X108033001Y-107080000D01*
G75*
G02*
X108283000Y-107329999I0J-249999D01*
G01*
X108283000Y-108570001D01*
G75*
G02*
X108033001Y-108820000I-249999J0D01*
G01*
X106342999Y-108820000D01*
G75*
G02*
X106093000Y-108570001I0J249999D01*
G01*
X106093000Y-107329999D01*
G75*
G02*
X106342999Y-107080000I249999J0D01*
G01*
G37*
G04 #@! TD*
D13*
G04 #@! TO.C,J3*
X134620000Y-92710000D03*
D14*
X137160000Y-92710000D03*
X139700000Y-92710000D03*
X142240000Y-92710000D03*
X144780000Y-92710000D03*
X147320000Y-92710000D03*
G04 #@! TD*
G04 #@! TO.C,J4*
G36*
G01*
X115994999Y-107080000D02*
X117685001Y-107080000D01*
G75*
G02*
X117935000Y-107329999I0J-249999D01*
G01*
X117935000Y-108570001D01*
G75*
G02*
X117685001Y-108820000I-249999J0D01*
G01*
X115994999Y-108820000D01*
G75*
G02*
X115745000Y-108570001I0J249999D01*
G01*
X115745000Y-107329999D01*
G75*
G02*
X115994999Y-107080000I249999J0D01*
G01*
G37*
D10*
X116840000Y-110490000D03*
X116840000Y-113030000D03*
X116840000Y-115570000D03*
G04 #@! TD*
D13*
G04 #@! TO.C,JP1*
X170180000Y-120650000D03*
D14*
X167640000Y-120650000D03*
G04 #@! TD*
D13*
G04 #@! TO.C,JP2*
X127127000Y-119888000D03*
D14*
X127127000Y-122428000D03*
G04 #@! TD*
G04 #@! TO.C,JP3*
X130810000Y-122428000D03*
D13*
X130810000Y-119888000D03*
G04 #@! TD*
G04 #@! TO.C,JP4*
X134620000Y-119888000D03*
D14*
X134620000Y-122428000D03*
G04 #@! TD*
D13*
G04 #@! TO.C,JP5*
X138430000Y-119888000D03*
D14*
X138430000Y-122428000D03*
G04 #@! TD*
G04 #@! TO.C,JP6*
X142240000Y-122428000D03*
D13*
X142240000Y-119888000D03*
G04 #@! TD*
D14*
G04 #@! TO.C,JP7*
X146050000Y-122428000D03*
D13*
X146050000Y-119888000D03*
G04 #@! TD*
D14*
G04 #@! TO.C,JP8*
X149860000Y-122428000D03*
D13*
X149860000Y-119888000D03*
G04 #@! TD*
D14*
G04 #@! TO.C,JP9*
X153670000Y-122428000D03*
D13*
X153670000Y-119888000D03*
G04 #@! TD*
D15*
G04 #@! TO.C,SW1*
X187452000Y-113665000D03*
D16*
X179832000Y-100965000D03*
X187452000Y-111125000D03*
X179832000Y-103505000D03*
X187452000Y-108585000D03*
X179832000Y-106045000D03*
X187452000Y-106045000D03*
X179832000Y-108585000D03*
X187452000Y-103505000D03*
X179832000Y-111125000D03*
X187452000Y-100965000D03*
X179832000Y-113665000D03*
G04 #@! TD*
D17*
G04 #@! TO.C,SW2*
X161235000Y-107950000D03*
X165735000Y-107950000D03*
X161235000Y-114450000D03*
X165735000Y-114450000D03*
G04 #@! TD*
G04 #@! TO.C,SW3*
X173990000Y-114450000D03*
X169490000Y-114450000D03*
X173990000Y-107950000D03*
X169490000Y-107950000D03*
G04 #@! TD*
M02*
